<?xml version="1.0" encoding="utf-8"?>
<!-- Generator: Adobe Illustrator 26.0.1, SVG Export Plug-In . SVG Version: 6.00 Build 0)  -->
<svg version="1.1" id="Layer_1" xmlns="http://www.w3.org/2000/svg" xmlns:xlink="http://www.w3.org/1999/xlink" x="0px" y="0px"
	 viewBox="0 0 595.3 136.3" style="enable-background:new 0 0 595.3 136.3;" xml:space="preserve">
<style type="text/css">
	.st0{fill:#83519C;}
</style>
<g>
	<g>
		<path class="st0" d="M84.6,21.1c2.9-0.6,4.7,0.6,5.5,3.6c0.3,1.3,0.5,2.6,0.4,3.9c0,1.3-0.2,2.6-0.5,3.9c-0.5,1.9-1.1,3.8-1.6,5.6
			c-0.6,1.9-1.3,3.7-2.3,5.4c-0.6,1-1.1,2.1-1.5,3.3c-0.4,1.1-0.9,2.3-1.4,3.4l-5.1,10.5c-0.1,0.3-0.3,0.7-0.4,1.1
			c-0.1,0.4-0.3,0.8-0.4,1.3l2,0.7c0.4,0.1,0.8,0.2,1.2,0.3c0.4,0.1,0.9,0.2,1.3,0.3c1,0.4,2,0.9,2.8,1.7c0.8,0.7,1.6,1.5,2.1,2.5
			c0.6,0.9,1,1.9,1.3,3c0.3,1.1,0.3,2.1,0.2,3.2c0,0.3-0.1,0.6-0.3,0.8L80.8,84c-0.3,0.3-0.6,0.7-1,1c-0.3,0.4-0.6,0.8-0.9,1.2
			c-0.4,0.5-0.7,1.1-1.1,1.7s-0.7,1.2-1.2,1.7c-1,1.4-2.1,2.2-3.5,2.4c-1.4,0.2-2.7-0.3-4-1.4c-1-0.7-1.2-1.7-0.6-3
			c1.1-2.2,2.4-4.2,3.8-6.1c1.5-1.9,3-3.8,4.6-5.6l1.8-2.3c1-1.5,1.2-2.9,0.7-4.2c-0.5-1.3-1.6-2.2-3.3-2.7
			c-0.8-0.3-1.6-0.5-2.4-0.7c-0.8-0.2-1.6-0.5-2.3-0.8c-0.5-0.2-1-0.5-1.5-0.8c-0.5-0.4-1.1-0.8-1.7-1.2c2.1-2.5,3.8-5.1,5-7.8
			c1.2-2.7,2.3-5.4,3.4-8.1c1-2.5,1.9-4.9,2.9-7.4c0.9-2.5,1.9-5,2.8-7.5c0.5-1.6,0.8-2.8,0.8-3.6s-0.1-2-0.4-3.3
			c-1,0.3-1.8,0.8-2.5,1.4c-0.7,0.6-1.4,1.3-2,2c-1.4,1.7-2.7,3.4-3.9,5.1c-1.2,1.7-2.3,3.5-3.2,5.5c-0.5,1-0.9,2.1-1.2,3.1
			c-0.4,1-0.7,2.1-1,3.2c-0.7,2.7-1.5,5.3-2.4,7.9c-0.9,2.6-1.4,5.3-1.6,8.2l-1,14.2c-0.1,1.7-0.2,3.3-0.2,4.9s0,3.2,0,4.9
			c-0.1,2.3-1.2,3-3.5,2.3l-2-0.7c-1.3-0.5-2.1-0.9-2.4-1.3c-0.3-0.4-0.4-1.3-0.2-2.6c0.3-2.1,0.5-4.2,0.7-6.2
			c0.2-2.1,0.3-4.2,0.4-6.2c0.1-3.6,0.2-7.1,0.1-10.7c0-3.5,0-7.1,0-10.7c0.1-4-0.2-7.9-0.7-11.7c-0.5-3.9-1.3-7.7-2.3-11.6
			c-0.1-0.5-0.2-0.9-0.3-1.4c-0.1-0.5-0.2-0.9-0.3-1.4c1.7-0.5,3.3-0.5,4.7-0.1c1.5,0.5,2.7,1.3,3.6,2.6c0.8,1.2,1.4,2.5,1.9,3.8
			c0.5,1.3,0.7,2.8,0.7,4.3c-0.1,1.7-0.1,3.4-0.1,5.1c0,1.7,0,3.4,0,5.1c0.4,0.1,0.7,0.2,0.9,0.2c0.2-0.4,0.4-0.8,0.7-1.2
			c0.3-0.4,0.5-0.9,0.6-1.3c1.3-4.3,3.3-8,6-11.1c2.7-3.1,5.8-6,9.2-8.7c0.5-0.3,1-0.6,1.6-0.8C83.6,21.4,84.1,21.2,84.6,21.1z"/>
		<path class="st0" d="M95.8,56.8c0.1-1.2,0.4-2.8,0.8-4.7c0.3-1.3,0.9-2.3,1.6-3.1s1.6-1.3,2.7-1.6s2.1-0.2,3.3,0
			c1.2,0.3,2.3,0.9,3.4,1.8c0.8,0.7,1.3,1.5,1.6,2.2c0.3,0.8,0.5,1.6,0.5,2.5l0.2,7.2c0.1,0.8,0.2,1.6,0.3,2.4
			c0.1,0.8,0.3,1.6,0.4,2.4c0.1,0,0.2,0,0.3,0c0.1,0,0.2,0,0.3,0c0.5-1.2,0.9-2.4,1.4-3.6c0.5-1.2,0.9-2.4,1.3-3.6
			c0.5-1.7,1-3.4,1.5-5.1c0.5-1.7,1-3.4,1.6-5.1c0.6-1.6,1.4-2.5,2.3-2.9c1-0.4,2.3-0.2,4,0.5c1.3,0.5,2.4,1.3,3.5,2.2
			c1,1,1.9,2,2.6,3.2c0.3,0.5,0.5,1.1,0.5,1.8c0,0.6,0,1.3-0.1,1.8c-0.1,1-0.1,2.2-0.2,3.6c-0.1,1.4-0.1,2.9-0.2,4.4
			c-0.1,1.5-0.1,3-0.2,4.4c-0.1,1.4-0.1,2.7-0.2,3.7v0.3c-0.1,0.6-0.3,1.4-0.4,2.5c-0.2,1.1-0.3,2.2-0.4,3.4
			c-0.1,1.2-0.3,2.3-0.4,3.4c-0.2,1.1-0.3,1.9-0.4,2.5c-0.3,1.2-0.6,2.2-0.9,2.9c-0.3,0.7-0.6,1.1-1.1,1.4c-0.5,0.2-1.1,0.3-1.9,0.2
			c-0.8-0.1-1.8-0.3-3.2-0.7c-0.7-0.1-1.4-0.4-2-0.7c-0.6-0.3-1.4-0.6-2.2-1c0.3-0.5,0.5-1,0.6-1.3c0.1-0.4,0.3-0.6,0.6-0.8
			c2.1-1.7,2.7-3.8,1.8-6.4c0-0.1,0-0.3-0.1-0.4c-0.1-0.2,0-0.3,0.1-0.3c0.6-0.8,1-1.6,1.3-2.4c0.3-0.8,0.4-1.7,0.5-2.6
			c0.1-0.9,0.2-1.8,0.2-2.8c0-0.9,0.1-1.9,0.3-2.8c0.4-2.1,0.7-4.3,1-6.5c0.3-2.2,0.6-4.4,0.9-6.6c0.1-0.5,0.2-1,0.1-1.5
			c0-0.5-0.4-0.9-1.1-1.5l-2,4.1c-1.7,3.8-3.4,7.6-5.1,11.4c-1.7,3.8-3.5,7.6-5.2,11.4c-0.8,1.8-2.5,1.9-4.9,0.2
			c0.3-4.1,0.5-8.1,0.5-12.2c0-4-0.2-8.1-0.7-12.2c-0.1,0-0.3,0-0.4,0c-0.1,0-0.3,0-0.4,0l-0.7,1.6c-0.4,1.8-0.7,3.2-0.9,4.1
			c-0.2,0.9-0.5,1.8-0.7,2.5c-0.2,0.7-0.5,1.5-0.9,2.4c-0.4,0.9-1,2.2-1.8,3.8c-0.5,1-0.7,2-0.7,3.2c0,1.2-0.1,2.3-0.2,3.4l-0.5,3.3
			c-0.2,1-0.9,1.5-2,1.7c-0.6,0.1-1.3,0.1-1.9,0.1c-0.6,0-1.2-0.3-1.7-0.9c-1-1.2-1.2-2.6-0.7-4.2c0.9-2.7,1.7-5.3,2.2-8
			c0.1-0.1,0.1-0.3,0.1-0.5l1.7-5.3h0.1c0.1-0.1,0.1-0.3,0.1-0.5C95.6,58.7,95.7,57.8,95.8,56.8z"/>
		<path class="st0" d="M155.9,50.3c1.5,0.5,2.1,1.3,1.8,2.4c-0.1,0.3-0.2,0.6-0.3,0.9c-0.1,0.3-0.2,0.6-0.4,0.9
			c-1.4,2.5-3.1,4.8-5,7.1c-1.9,2.3-4,4.4-6.3,6.5c-0.8,0.8-1.7,1.6-2.5,2.4c-0.8,0.8-1.5,1.7-2.1,2.6c-0.4,0.6-0.6,1.3-0.7,2.1
			c-0.1,0.7-0.1,1.5-0.1,2.2c0,1.1,0.4,2.3,1.3,3.6c0.8,1.3,1.8,2.3,3,3c0.5-0.4,1.2-0.9,2.1-1.5s1.6-1.2,2.1-1.6
			c2.1-1.9,4.2-3.6,6.2-5c2.1-1.5,3.6-2.7,4.7-3.8c-0.1,0.7-0.3,1.4-0.5,2.1c-0.1,0.6-0.3,1.2-0.5,1.9c-0.2,0.7-0.5,1.3-0.8,1.8
			c-1,1.7-2.3,3.1-3.8,4.3c-1.5,1.2-3.2,2.5-5.1,3.8c-1.1,0.8-2.2,1.2-3.4,1.2c-1.1,0-2.4-0.2-3.9-0.6c-2.2-0.6-4.2-1.7-6-3.2
			c-1.8-1.6-3.1-3.3-3.9-5.3c-0.1-0.3-0.2-0.5-0.2-0.8c0-0.3-0.1-0.7-0.2-1.1c-0.1-0.6-0.1-1.3-0.2-1.9c-0.1-0.6-0.1-1.3,0-2
			c0-0.7,0.1-1.5,0.2-2.4c0.1-0.9,0.4-2,0.8-3.2c0.5-2,1.2-4,2.1-5.9c0.9-1.9,1.8-3.9,2.6-5.8c0.3-0.7,0.7-1.4,1.1-2.1
			c0.4-0.7,0.9-1.4,1.3-2.1c0.3-0.4,0.5-0.8,0.9-1.1c0.3-0.4,0.6-0.7,1-1c1.2-1.3,3-1.8,5.2-1.4c0.5,0.1,1.1,0.2,1.7,0.2
			c0.6,0,1.2,0.1,1.8,0.2c0.8,0.1,1.4,0.3,1.8,0.6C152.8,49.1,154.3,49.8,155.9,50.3z M142.9,63.1c4.6-4.6,7.5-8.4,8.8-11.4
			c-1.3-0.4-2.1-0.6-2.5-0.5c-0.4,0-0.9,0.4-1.5,1.1c-1.4,1.5-2.6,3.1-3.4,4.8c-0.8,1.7-1.5,3.4-1.8,5.3c0,0.1,0,0.3,0.1,0.4
			C142.7,62.9,142.8,63,142.9,63.1z"/>
		<path class="st0" d="M170,89c0.3-0.3,0.7-0.7,1.3-1.5s1.2-1.5,1.8-2.2c0.6-0.8,1.2-1.5,1.7-2.2s0.8-1.2,1-1.4
			c1.3-1.3,2.6-2.8,3.9-4.6c1.3-1.8,2.8-3.3,4.4-4.7c-0.8,1.6-1.4,2.8-1.8,3.8c-0.5,1-0.9,1.9-1.3,2.7c-0.4,0.8-0.9,1.6-1.3,2.4
			c-0.5,0.8-1.1,1.8-1.8,3c-1.3,2.7-2.7,4.6-4.1,5.7s-2.8,1.7-4.2,1.8c-1.4,0.1-2.7-0.3-3.9-1c-1.2-0.7-2.3-1.6-3.3-2.6l-3.8-3.9
			l-1.8-5.8c-0.1-3.7,0.1-7.3,0.5-10.9c0.4-3.6,1.2-7.2,2.5-10.7c0.5-1.6,1.2-3,2.2-4.5c0.9-1.4,1.9-2.9,2.8-4.4
			c0.1-0.3,0.4-0.5,0.7-0.7c0.3-0.2,0.6-0.3,0.9-0.3c2.6-0.1,5.1,0.1,7.6,0.6s4.9,1.1,7.4,1.8c0.1,0.1,0.2,0.2,0.3,0.3
			c0.1,0.1,0.2,0.3,0.3,0.4c-1.5,1.7-2.5,3.5-2.9,5.5c-0.5,2-0.9,4-1.5,6c-0.2,0.8-0.4,1.6-0.7,2.3c-0.3,0.8-0.6,1.5-0.8,2.2
			c-1.2-0.3-2.1-0.8-2.5-1.6c-0.5-0.7-0.6-1.8-0.5-3.1c0.1-1.2,0.3-2.3,0.4-3.6c0.1-1.2,0.3-2.4,0.4-3.6c0.1-0.5,0.2-1.1,0.2-1.6
			c0-0.5,0-1.3,0.1-2.2c-0.7,0.3-1.3,0.6-1.9,0.8c-0.6,0.2-1,0.5-1.2,0.8c-0.5,0.5-0.9,1.1-1.2,1.8c-0.4,0.6-0.6,1.3-0.7,2
			c-0.5,1.9-0.9,3.9-1.3,5.8c-0.4,1.9-0.7,3.9-1,5.9c-0.2,1.7-0.3,3.3-0.2,5c0.1,1.6,0,3.3-0.2,5c-0.3,2.7,0.1,5,1.2,7
			c0.3,0.7,0.7,1.4,1.1,2C169,87.4,169.4,88.2,170,89z"/>
		<path class="st0" d="M229.5,78.2c0.9-1.3,1.8-2.4,2.6-3.4c0.8-1,1.7-1.8,2.8-2.4c-0.2,1.2-0.4,2.1-0.7,2.9
			c-0.3,0.8-0.6,1.5-0.9,2.1c-0.3,0.6-0.6,1.3-0.9,1.9c-0.3,0.6-0.6,1.3-1,2.1c-1.1,1.1-2.2,1.9-3.3,2.3c-1.1,0.4-2.2,0.6-3.3,0.5
			c-1.1-0.1-2.1-0.3-3.2-0.8c-1-0.5-2-1-2.8-1.6c-0.6-1.4-0.7-3.1-0.4-4.9c0.3-1.8,0.7-3.6,1.3-5.4c0.5-1.8,1.1-3.3,1.6-4.7
			c0.5-1.4,0.8-2.3,0.8-2.7c-0.3,0.3-0.9,1.1-1.7,2.2c-0.8,1.2-1.7,2.4-2.6,3.8c-0.9,1.4-1.8,2.6-2.5,3.7c-0.8,1.1-1.2,1.8-1.4,2
			l-4.4,4.8c-0.1,0.1-0.3,0.3-0.6,0.4c-0.3,0.2-0.5,0.3-0.8,0.3c-0.6,0.1-1.3,0-2-0.3c-0.7-0.3-1.4-0.7-2-1.2
			c-0.6-0.5-1.1-1-1.6-1.7c-0.4-0.6-0.7-1.2-0.7-1.9c-0.1-1.1-0.1-2.3,0-3.5c0.1-1.2,0.2-2.4,0.2-3.5c0-0.3,0-0.8,0.1-1.6
			c0.1-0.7,0.1-1.5,0.2-2.3c0.1-0.8,0.2-1.7,0.2-2.4c0.1-0.8,0.1-1.4,0.2-1.8c-0.9,0.6-1.8,1.5-2.6,2.7c-0.8,1.2-1.4,2.1-1.7,2.8
			c-0.8,1.5-1.7,2.9-2.7,4.1c-1,1.3-1.9,2.6-2.8,4c-0.4,0.6-0.8,1.3-1.4,1.8c-0.5,0.6-1,1.2-1.6,1.8c-0.3,0.4-0.6,0.8-0.8,1.2
			c-0.2,0.4-0.4,0.8-0.6,1.2c-0.2,0.4-0.4,0.6-0.7,0.7c-0.3,0.1-0.6,0.1-1-0.1l-1.8-0.8c-1.7-0.7-2.8-1.6-3.4-2.6
			c-0.6-1-0.7-2.4-0.5-4.3c0.1-0.6,0.1-1.2,0.1-1.8c0-0.6,0-1.2,0-1.8c0-0.1,0.1-0.4,0.3-1.1c0.2-0.7,0.2-1.1,0.1-1.3
			c0.3-1.7,0.6-3.4,0.7-5.1c0.2-1.7,0.3-3.6,0.3-5.5c0.1-0.3,0.1-0.5,0-0.8c0-0.3,0-0.6,0-0.9c1.3-0.7,2.6-0.9,3.8-0.7
			c1.3,0.3,2.5,0.5,3.8,0.8c0.6,0.1,0.9,0.5,1.1,1c0.1,0.5,0.2,1.1,0.2,1.8c-0.1,2-0.2,4-0.3,6c-0.1,2-0.2,4.2-0.3,6.4l2-2.5
			l7.7-8.5c2.1-2.3,4.9-3,8.4-1.9c0.4,1.3,0.6,2.6,0.7,3.9c0.1,1.3,0,2.7-0.1,4c-0.1,1.4-0.3,2.7-0.5,4.1c-0.2,1.4-0.3,2.8-0.3,4.2
			l1.8-1.6c0.5-0.6,1.2-1.4,1.9-2.2c0.7-0.8,1.5-1.6,2.2-2.5c0.7-0.8,1.5-1.7,2.2-2.5c0.7-0.8,1.3-1.5,1.8-2.2
			c0.3-0.7,0.8-1.4,1.5-2c0.6-0.6,1.3-1.1,2.1-1.6c0.7-0.4,1.5-0.7,2.2-0.9c0.7-0.2,1.4-0.2,2,0c1,0.4,1.5,1.1,1.3,2.2
			c-0.4,2.3-0.8,4.5-1.2,6.8c-0.4,2.2-0.8,4.5-1.3,6.8c-0.2,1-0.3,2.1-0.3,3.2c0,1.1,0.2,2.2,0.8,3.4c0.6-0.4,1.1-0.9,1.7-1.6
			C228.5,79.1,229,78.6,229.5,78.2z"/>
		<path class="st0" d="M257,50.3c1.5,0.5,2.1,1.3,1.8,2.4c-0.1,0.3-0.2,0.6-0.3,0.9c-0.1,0.3-0.2,0.6-0.4,0.9
			c-1.4,2.5-3.1,4.8-5,7.1c-1.9,2.3-4,4.4-6.3,6.5c-0.8,0.8-1.7,1.6-2.5,2.4c-0.8,0.8-1.5,1.7-2.1,2.6c-0.4,0.6-0.6,1.3-0.7,2.1
			c-0.1,0.7-0.1,1.5-0.1,2.2c0,1.1,0.4,2.3,1.3,3.6c0.8,1.3,1.8,2.3,3,3c0.5-0.4,1.2-0.9,2.1-1.5s1.6-1.2,2.1-1.6
			c2.1-1.9,4.2-3.6,6.2-5c2.1-1.5,3.6-2.7,4.7-3.8c-0.1,0.7-0.3,1.4-0.5,2.1c-0.1,0.6-0.3,1.2-0.5,1.9c-0.2,0.7-0.5,1.3-0.8,1.8
			c-1,1.7-2.3,3.1-3.8,4.3c-1.5,1.2-3.2,2.5-5.1,3.8c-1.1,0.8-2.2,1.2-3.4,1.2c-1.1,0-2.4-0.2-3.9-0.6c-2.2-0.6-4.2-1.7-6-3.2
			c-1.8-1.6-3.1-3.3-3.9-5.3c-0.1-0.3-0.2-0.5-0.2-0.8c0-0.3-0.1-0.7-0.2-1.1c-0.1-0.6-0.1-1.3-0.2-1.9c-0.1-0.6-0.1-1.3,0-2
			c0-0.7,0.1-1.5,0.2-2.4c0.1-0.9,0.4-2,0.8-3.2c0.5-2,1.2-4,2.1-5.9c0.9-1.9,1.8-3.9,2.6-5.8c0.3-0.7,0.7-1.4,1.1-2.1
			c0.4-0.7,0.9-1.4,1.3-2.1c0.3-0.4,0.6-0.8,0.9-1.1c0.3-0.4,0.6-0.7,1-1c1.2-1.3,3-1.8,5.2-1.4c0.5,0.1,1.1,0.2,1.7,0.2
			c0.6,0,1.2,0.1,1.7,0.2c0.8,0.1,1.4,0.3,1.8,0.6C253.9,49.1,255.4,49.8,257,50.3z M244,63.1c4.6-4.6,7.5-8.4,8.8-11.4
			c-1.3-0.4-2.1-0.6-2.5-0.5c-0.4,0-0.9,0.4-1.5,1.1c-1.4,1.5-2.6,3.1-3.4,4.8c-0.8,1.7-1.5,3.4-1.8,5.3c0,0.1,0,0.3,0.1,0.4
			C243.8,62.9,243.9,63,244,63.1z"/>
	</g>
	<g>
		<path class="st0" d="M306.3,52.4c-0.1,2-0.2,4-0.2,5.9c0,1.9-0.1,3.9-0.1,5.9c-0.1,1.7-0.3,3.3-0.4,5c-0.2,1.6-0.1,3.2,0,4.9
			c0.1,0.8,0.1,1.8,0.1,2.9c0,1.1,0,2.2-0.1,3.4c-0.1,1.2-0.2,2.3-0.3,3.4c-0.1,1.1-0.2,2.1-0.2,2.9l-0.9,5.3
			c-0.4,3.1-1.1,6.1-2.1,9c-1,2.9-2.5,5.6-4.4,8.2c-1.2,1.7-2.7,2.9-4.7,3.7c-1.6,0.6-3.3,1.2-4.9,1.6c-1.7,0.4-3.3,0.7-5,0.8
			c-1,0.1-1.8,0-2.2-0.3c-0.4-0.3-0.7-0.9-0.9-1.9c-0.6-3-0.9-6-0.7-8.9c0.2-2.9,1.2-5.6,3-8.4c1.1-1.7,2.5-3.1,4.2-4.4
			c1.7-1.2,3.5-2,5.4-2.3c0.1,0.7-0.1,1.3-0.4,1.7c-0.4,0.4-0.8,0.8-1.2,1.1c-2.5,1.9-4.2,4.1-5.2,6.6c-1,2.5-1.6,5.2-1.9,8.1
			c0,0.7,0.1,1.4,0.3,2c0.3,1.2,1.1,1.7,2.6,1.5c1.7-0.3,3-1,4-2c1-1,1.8-2.3,2.3-3.7c0.5-1.6,1-3.2,1.5-5.1
			c0.5-1.8,0.9-3.7,1.3-5.6c0.4-1.9,0.7-3.8,1-5.6c0.3-1.8,0.5-3.6,0.6-5.2c0-0.2,0-0.8,0.1-1.7c0.1-0.9,0.2-2.1,0.3-3.4
			c0.1-1.3,0.3-2.8,0.4-4.3c0.1-1.5,0.2-3,0.3-4.3c0.1-1.4,0.2-2.6,0.2-3.6c0.1-1,0.1-1.7,0.1-2c-0.1,0.1-0.4,0.7-0.7,1.8
			c-0.4,1-0.8,2.3-1.2,3.7c-0.5,1.5-0.9,3-1.4,4.7c-0.5,1.7-0.9,3.2-1.3,4.6c-0.4,1.4-0.8,2.6-1.1,3.6c-0.3,1-0.5,1.5-0.6,1.6
			c-0.6,0.6-1.3,1-2.2,1.4c-0.9,0.3-1.8,0.4-2.7,0.3c-0.9-0.1-1.7-0.4-2.5-0.9c-0.7-0.5-1.3-1.3-1.5-2.4l-1.8-7.3
			c-0.1-0.2-0.2-0.4-0.2-0.7c0-0.3-0.1-0.5-0.2-0.9l0.1,0.1c-0.3-1.9-0.3-3.7-0.1-5.6c0.2-1.8,0.5-4.1,1.1-6.9
			c0.5-1.7,0.9-3.3,1.4-4.9c0.5-1.6,0.9-3.2,1.5-4.9c0.3-1,0.8-1.9,1.5-2.5c0.6-0.6,1.6-1.1,2.7-1.3c1.7-0.2,3.4-0.4,5.1-0.6
			c1.7-0.2,3.4-0.1,5.1,0.4c0.3,0.1,0.5,0.1,0.7,0.2c0.2,0.1,0.5,0.2,0.8,0.3c-0.4,1.9-1.4,2.6-3,2.1c-1.1-0.3-2-0.3-2.6,0.1
			c-0.6,0.4-1.1,1.1-1.5,2c-0.8,1.9-1.5,3.8-2.2,5.7c-0.7,1.9-1.2,3.9-1.4,6c-0.1,1.6-0.3,3.2-0.4,4.8c-0.1,1.6-0.2,3.2-0.2,4.7
			c-0.1,1,0,2.1,0.2,3.1c0.2,1,0.4,2.1,0.5,3.2h0.6c0.1-0.2,0.3-0.4,0.4-0.6c0.2-0.2,0.3-0.4,0.4-0.7c0.8-2.9,1.7-5.7,2.5-8.4
			c0.8-2.8,1.6-5.6,2.3-8.4c0.3-1,0.5-2,0.4-3c-0.1-1,0-2.1,0.1-3.1c0.1-1.2,0.3-2,0.6-2.3c0.3-0.3,1.1-0.6,2.3-0.9
			C301.6,51.2,303.9,51.4,306.3,52.4z M280.5,72.8c-0.1-0.1-0.1-0.2-0.1-0.3L280.5,72.8z"/>
		<path class="st0" d="M335.1,75c0.7-1.3,1.4-2.4,2-3.4c0.6-1,1.4-1.8,2.3-2.4c0,1.2-0.1,2.1-0.2,2.9c-0.2,0.8-0.3,1.5-0.5,2.1
			c-0.2,0.6-0.4,1.3-0.6,1.9c-0.2,0.6-0.4,1.3-0.6,2.1c-0.9,1.1-1.9,1.9-2.9,2.3c-1,0.4-2.1,0.6-3.2,0.5c-1.1-0.1-2.2-0.3-3.3-0.8
			c-1.1-0.5-2.2-1-3.1-1.6c-0.8-1.4-1.2-3.1-1.2-4.9c0-1.8,0.1-4.5,0.4-7.8c0.3-3.4,0.6-5.7,0.9-7.1c0.3-1.4,0.4-2.3,0.3-2.7
			c-0.3,0.3-1,3.4-2.3,9.2c-1.3,5.8-2,8.8-2,9l-3.6,4.8c-0.1,0.1-0.3,0.3-0.5,0.4c-0.2,0.2-0.5,0.3-0.7,0.3c-0.6,0.1-1.3,0-2.1-0.3
			c-0.7-0.3-1.5-0.7-2.2-1.2c-0.7-0.5-1.3-1-1.8-1.7c-0.5-0.6-0.8-1.2-1-1.9c-0.3-1.1-0.5-2.3-0.6-3.5c-0.1-1.2,0.8-0.5,2.7,1.9
			c1.9,2.5,3.5,3.5,4.6,2.9l1.9-5c0.4-0.6,1.2-3.3,2.3-7.9c1.2-4.6,2-7.2,2.4-7.9c0.2-0.7,0.6-1.4,1.1-2c0.6-0.6,1.2-1.1,1.8-1.6
			c0.7-0.4,1.4-0.7,2.1-0.9c0.7-0.2,1.4-0.2,1.9,0c1.1,0.4,1.7,1.1,1.7,2.2c0,2.3,0,5.3,0,9.2c0,3.9-0.1,6.9-0.2,9.2
			c0,1,0.1,2.1,0.2,3.2c0.1,1.1,0.6,2.2,1.4,3.4c0.5-0.4,1-0.9,1.4-1.6C334.2,75.9,334.7,75.4,335.1,75z"/>
		<path class="st0" d="M347.2,76.3L347.2,76.3c-1.5-0.3-2.8-0.8-4-1.5c-1.2-0.7-2.2-1.7-3-3c-0.5-1-0.9-1.9-1-2.7
			c-0.2-0.7-0.2-1.5-0.1-2.3c0.1-0.8,0.1-2.1-0.1-3.8c-0.2-1.7,0.3-3.2,1.3-4.5c1-1.3,2.1-2.5,3.3-3.6c1.1-1.2,2.3-2.4,3.4-3.6
			c0.6-0.7,1.3-1.2,2-1.5s1.6-0.2,2.6,0.1c1,0.3,2.1,0.6,3.1,0.8c1,0.2,2,0.6,3,1.4c1.2,0.9,2,1.6,2.2,2c0.1,0.3,0.2,0.8,0.1,1.5
			l-1,3c0.1,0.1,0.3,0.3,0.4,0.5c0.8,1.3,1,3.1,0.4,5.3l-2.8,14.4c-0.2,0.2-0.3,0.5-0.2,0.8c0,0.3,0.1,0.8,0.1,1.5
			c0.8-0.8,1.6-1.5,2.3-2.1c0.7-0.6,1.3-1.3,2-1.8c1.1-1.1,2.3-2.2,3.5-3.4c1.2-1.1,2.9-2.7,5-4.6c-0.8,3-2,5.8-3.4,8.4
			c-1.4,2.5-3,4.8-4.6,6.7c-0.7,0.8-1.5,1.6-2.2,2.1c-0.8,0.6-1.6,1.1-2.4,1.7c-0.8,0.6-1.8,0.7-2.8,0.4c-1-0.3-1.7-0.8-1.8-1.5
			c-0.2-0.7-0.6-1.6-1.2-2.7c-0.6-1.1-0.8-2.2-0.8-3.3c0-0.3,0-0.7,0.1-1.1c-1.4,2.1-3.3,3.9-5.5,5.3c-1.5,0.8-2.9,1.3-4.2,1.5
			c-1.3,0.1-2.5-0.2-3.5-1.1c-0.4-0.5-0.8-1.1-1.2-2c-0.4-0.9-0.8-1.9-1.2-3c-0.4-1.1-0.8-2.3-1.2-3.6c-0.4-1.3-0.8-2.5-1.2-3.6
			c0.5,0.3,1.1,0.7,1.7,1.5c0.6,0.7,1.2,1.5,1.8,2.3c0.6,0.8,1.1,1.7,1.6,2.5c0.5,0.8,0.9,1.3,1.3,1.6c0.6,0.5,1.2,1,1.8,1.5
			c0.6,0.5,1.5,0.7,2.4,0.7c1.3-1.2,2.2-2.6,2.6-4C346,78.3,346.5,77.3,347.2,76.3z M349.8,71c0.1-0.2,0.1-0.4,0.2-0.6
			c0.3-0.7,0.7-1.4,1.2-2c0.5-0.6,0.9-1.3,1.4-2l0.1,0.2l3-9.8c-0.9-0.6-1.6-1.1-2-1.5c-1.7,0.3-3.2,1.1-4.4,2.4
			c-1.3,1.4-2.3,3-3.2,5c-0.9,1.9-0.8,3.7,0.2,5.3c1,1.6,1.6,2.7,1.8,3.2c0.2,0.6,0.3,1,0.3,1.2c0.3-0.3,0.6-0.6,1-0.8
			C349.5,71.4,349.7,71.2,349.8,71z"/>
		<path class="st0" d="M411.4,52.4c-0.1,2-0.2,4-0.2,5.9c0,1.9-0.1,3.9-0.1,5.9c-0.1,1.7-0.3,3.3-0.4,5c-0.2,1.6-0.1,3.2,0,4.9
			c0.1,0.8,0.1,1.8,0.1,2.9c0,1.1,0,2.2-0.1,3.4c-0.1,1.2-0.2,2.3-0.3,3.4c-0.1,1.1-0.2,2.1-0.2,2.9l-0.9,5.3
			c-0.4,3.1-1.1,6.1-2.1,9c-1,2.9-2.5,5.6-4.4,8.2c-1.2,1.7-2.7,2.9-4.7,3.7c-1.6,0.6-3.3,1.2-4.9,1.6c-1.7,0.4-3.3,0.7-5,0.8
			c-1,0.1-1.8,0-2.2-0.3c-0.4-0.3-0.7-0.9-0.9-1.9c-0.6-3-0.9-6-0.7-8.9s1.2-5.6,3-8.4c1.1-1.7,2.5-3.1,4.2-4.4
			c1.7-1.2,3.5-2,5.4-2.3c0.1,0.7-0.1,1.3-0.4,1.7c-0.4,0.4-0.8,0.8-1.2,1.1c-2.5,1.9-4.2,4.1-5.2,6.6c-1,2.5-1.6,5.2-1.9,8.1
			c0,0.7,0.1,1.4,0.3,2c0.3,1.2,1.1,1.7,2.6,1.5c1.7-0.3,3-1,4-2c1-1,1.8-2.3,2.3-3.7c0.5-1.6,1-3.2,1.5-5.1
			c0.5-1.8,0.9-3.7,1.3-5.6c0.4-1.9,0.7-3.8,1-5.6c0.3-1.8,0.5-3.6,0.6-5.2c0-0.2,0-0.8,0.1-1.7c0.1-0.9,0.2-2.1,0.3-3.4
			c0.1-1.3,0.3-2.8,0.4-4.3c0.1-1.5,0.2-3,0.3-4.3c0.1-1.4,0.2-2.6,0.2-3.6c0.1-1,0.1-1.7,0.1-2c-0.1,0.1-0.4,0.7-0.7,1.8
			c-0.4,1-0.8,2.3-1.2,3.7c-0.5,1.5-0.9,3-1.4,4.7c-0.5,1.7-0.9,3.2-1.3,4.6c-0.4,1.4-0.8,2.6-1.1,3.6c-0.3,1-0.5,1.5-0.6,1.6
			c-0.6,0.6-1.3,1-2.2,1.4c-0.9,0.3-1.8,0.4-2.7,0.3c-0.9-0.1-1.7-0.4-2.5-0.9c-0.7-0.5-1.3-1.3-1.5-2.4l-1.8-7.3
			c-0.1-0.2-0.2-0.4-0.2-0.7c0-0.3-0.1-0.5-0.2-0.9l0.1,0.1c-0.3-1.9-0.3-3.7-0.1-5.6c0.2-1.8,0.6-4.1,1.1-6.9
			c0.5-1.7,0.9-3.3,1.4-4.9c0.5-1.6,0.9-3.2,1.5-4.9c0.3-1,0.8-1.9,1.5-2.5c0.6-0.6,1.6-1.1,2.7-1.3c1.7-0.2,3.4-0.4,5.1-0.6
			c1.7-0.2,3.4-0.1,5.1,0.4c0.3,0.1,0.5,0.1,0.7,0.2c0.2,0.1,0.5,0.2,0.8,0.3c-0.4,1.9-1.4,2.6-3,2.1c-1.1-0.3-2-0.3-2.6,0.1
			c-0.6,0.4-1.1,1.1-1.5,2c-0.8,1.9-1.5,3.8-2.2,5.7c-0.7,1.9-1.2,3.9-1.4,6c-0.1,1.6-0.3,3.2-0.4,4.8c-0.1,1.6-0.2,3.2-0.2,4.7
			c-0.1,1,0,2.1,0.2,3.1c0.2,1,0.4,2.1,0.5,3.2h0.6c0.1-0.2,0.3-0.4,0.4-0.6c0.2-0.2,0.3-0.4,0.4-0.7c0.8-2.9,1.7-5.7,2.5-8.4
			c0.8-2.8,1.6-5.6,2.3-8.4c0.3-1,0.5-2,0.4-3s0-2.1,0.1-3.1c0.1-1.2,0.3-2,0.6-2.3c0.3-0.3,1.1-0.6,2.3-0.9
			C406.7,51.2,409,51.4,411.4,52.4z M385.6,72.8c-0.1-0.1-0.1-0.2-0.1-0.3L385.6,72.8z"/>
		<path class="st0" d="M434.6,71.1c0.3,0.3,0.5,0.4,0.8,0.4c0.5,0,0.9-0.1,1.3-0.3c0.4-0.2,0.9-0.5,1.4-0.9c0.5-0.4,1-0.7,1.7-1.2
			c0.6-0.4,1.4-0.8,2.3-1.2c-0.1,0.7-0.4,1.5-0.7,2.3c-0.3,0.8-1,1.7-2.1,2.5c-1,0.9-1.9,1.5-2.6,1.8c-0.7,0.3-1.6,0.2-2.7-0.1
			c-0.1,0-0.2,0-0.3-0.1c-0.2,0.7-0.4,1.4-0.6,2.1c-0.2,0.7-0.5,1.4-0.8,2.1c-0.5,1.3-1.2,2.5-2,3.6c-0.8,1.1-2.1,1.7-3.9,1.8
			c-2.9,0.1-5.7-0.8-8.3-2.7c-0.8-0.6-1.5-1.3-1.9-2.2c-0.4-0.9-0.7-1.8-0.7-2.8v-9.2c0-0.3,0-0.6,0-0.9c0-0.3,0-0.5,0-0.9l0.6-6.2
			c0.5-3,1.2-5.9,2.1-8.7c0.9-2.8,1.9-5.5,3.2-8.3l0.9-1.5c0.8-1.8,2.3-2.4,4.5-1.8c1.2,0.3,2.3,0.6,3.6,0.9
			c1.2,0.3,2.4,0.5,3.6,0.8c0,0.1,0,0.2,0,0.3c0,0.1,0,0.2,0,0.3c-0.8,0.5-1.6,1-2.4,1.5c-0.8,0.5-1.5,1-2.2,1.7
			c-0.6,0.6-1.1,1.4-1.5,2.2c-0.4,0.8-0.6,1.7-0.4,2.7c1.5,0.3,3,0.6,4.5,0.8c1.5,0.2,3,0.5,4.7,0.7l1.8,7.9c0,0.6-0.1,1.2-0.3,1.8
			c-0.2,0.5-0.4,1.1-0.7,1.7c-0.3,0.6-0.5,1.3-0.8,2c-0.3,0.7-0.6,1.6-0.8,2.7L434.6,71.1z M427,78.9c0.6-1.5,1.2-3,1.8-4.6
			c0.5-1.6,1-3.1,1.6-4.7l-0.3-1.3c-0.3-1.1-0.5-2.7-0.6-4.8c-0.1-2.1,0-4.3,0.3-6.6c-0.7-0.9-1.3-1.9-1.8-2.9
			c-0.5-1-0.7-2.2-0.7-3.5c-0.3,0-0.6,0-0.8-0.1c-0.1,0.2-0.3,0.4-0.4,0.5c-0.1,0.2-0.2,0.3-0.3,0.5c-1.2,3.5-2,7.1-2.6,10.7
			c-0.6,3.6-0.9,7.4-1.1,11.2c-0.1,0.9,0,1.8,0.1,2.8c0.1,1,0.3,1.9,0.5,2.9c0.1,0.3,0.2,0.7,0.5,1.1c0.3,0.4,0.5,0.6,0.9,0.8
			c0.3,0.1,0.6,0.1,0.9-0.1c0.4-0.2,0.7-0.4,0.9-0.6C426.4,80,426.8,79.5,427,78.9z"/>
		<path class="st0" d="M458.2,40.6c-0.4,0.6-1,1.7-1.8,3c-1.2,1.7-2.1,3.7-2.8,6c-0.4,1.1-0.7,2.3-1,3.5c0.6-0.6,1.2-1,1.8-1.3
			c0.6-0.3,1.5-0.2,2.6,0.1c1,0.3,2.1,0.6,3.1,0.8c1,0.2,2,0.6,3,1.4c1.3,0.9,2.1,1.6,2.3,2.1c0.3,0.5,0.2,1.5-0.1,3l0.6,2.8
			c-0.5,2.7-2.6,6.6-6.4,11.7l-4.6,7.9c-0.2,0.3-0.4,0.7-0.6,1c-0.2,0.4-0.4,0.7-0.7,1c-0.5,0.6-1,1.3-1.5,1.9
			c-0.2,0.3-0.4,0.5-0.7,0.6v0.2c-1.9-0.1-3.7-0.5-5.4-1.4c-2.1-1-3.6-2.4-4.7-4.2c-1.1-1.8-1.8-3.7-2.1-5.8
			c-0.3-2.1-0.4-4.2-0.2-6.4c0.2-2.2,0.5-4.3,0.9-6.2c0.6-2.7,1.3-5.3,2.2-7.8c0.9-2.5,1.8-5,2.9-7.5c0.3-0.8,0.7-1.9,1.1-3.1
			c0.4-1.2,1.1-2.4,2-3.7c0.9-1.3,1.7-2.4,2.4-3.4c0.4-0.5,0.8-0.8,1.3-1.2c1.3-1.1,3.4-1.8,6.4-2.1h0.1c0.6-0.1,1.2,0,1.7,0.1
			c0.8,0,1.6,0,2.5-0.1c1-0.3,2-0.5,2.8-0.7c0.8-0.2,1.7-0.4,2.4-0.6c1.3-0.5,2.7-0.9,4.2-1.2c1.5-0.4,3.5-0.9,6-1.6
			c-1.8,2.1-3.7,3.8-5.8,5.3c-2.1,1.4-4.3,2.6-6.4,3.4c-0.8,0.4-1.7,0.6-2.7,0.8c-0.9,0.1-1.8,0.5-2.5,1
			C459.6,40.3,458.8,40.6,458.2,40.6z M461.6,65.1c0.1-0.1,0.3-0.4,0.5-0.8c0.2-0.4,0.5-0.9,0.7-1.4c0.2-0.5,0.4-1,0.6-1.4
			c0.2-0.5,0.4-0.8,0.5-1c-0.6-0.5-1.4-1-2.4-1.7c-1-0.6-1.8-1.2-2.3-1.6c-1.7,0.3-3.1,1.1-4.3,2.4c-1.2,1.4-2.2,3-3,5
			c-0.8,1.9-1.5,4-1.9,6.2c-0.5,2.2-0.8,4.2-1,6c-0.1,0.1,0,0.4,0.1,0.9c0.2,0.5,0.4,1,0.6,1.5c0.2,0.6,0.4,1.1,0.6,1.7
			c0.2,0.6,0.3,1,0.4,1.2c0.3-0.3,0.6-0.6,0.9-0.8c0.3-0.2,0.5-0.4,0.6-0.6c0.8-1,1.6-2.3,2.3-3.7c0.7-1.5,1.4-2.9,2.1-4.4
			c0.7-1.5,1.4-2.9,2.2-4.2C459.6,67.1,460.5,66,461.6,65.1z"/>
		<path class="st0" d="M473.2,86c-0.5,2.9-0.4,5.2,0.3,6.9c0.6,1.7,1.6,2.3,2.7,2c0.2-0.1,0.3,0,0.4,0.2c0.1,0.2,0.2,0.5,0.2,0.8
			c0.1,0.3,0.1,0.6,0,1c0,0.3-0.1,0.5-0.3,0.6c-1.2,0.6-2.6,1.1-4.3,1.4c-1.7,0.4-3.5,0-5.3-1.2c-1-0.6-1.7-1.3-2.1-2
			c-0.5-0.8-0.8-1.6-1-2.5c-0.2-0.9-0.3-1.8-0.2-2.8c0-1,0.1-2,0.1-3.1c0.1-1,0.4-2.4,0.8-4.2c0.4-1.8,0.8-3.9,1.2-6.3
			c0.1-0.3,0.1-1,0.1-2.1c0-1.1,0.1-1.9,0.1-2.3c0.3-1.9,0.6-3.7,1-5.5c0.4-1.8,0.7-4.1,0.9-7l0.4-6.7c0-0.6-0.1-1.1-0.4-1.6
			c-0.3-0.7-0.3-1.4,0-2c0.3-0.6,0.8-1,1.6-1.2c0.3-0.1,0.7-0.2,1-0.2c0.4,0,0.7,0,1,0c1.5,0,2.7,0,3.6,0.1c0.9,0.1,1.6,0.4,2.1,0.8
			c0.5,0.5,0.8,1.2,1.1,2.1c0.2,0.9,0.4,2.3,0.5,3.9c0.1,1.2,0.1,2.5,0,3.8c-0.1,1.3-0.3,2.8-0.4,4.5c0.3-0.5,0.6-0.9,0.8-1.2
			c0.2-0.3,0.4-0.5,0.5-0.7c0.7-1.1,1.4-2.2,2.2-3.4c0.7-1.2,1.5-2.3,2.3-3.4c1.6-2.1,3.4-3.6,5.4-4.5c2.1-0.9,4.4-1.2,7-1.1
			c1,0.1,2,0.5,3,1.4s1.5,1.9,1.7,3.2c0,0.4,0,1,0,1.9s-0.1,1.8-0.2,2.7c-0.1,0.9-0.2,1.8-0.3,2.6c-0.1,0.8-0.3,1.4-0.5,1.8
			c-0.4,1.9-1.2,3.8-2.6,5.8c-1.3,2-3,3.8-4.9,5.5c-2.5,2.2-4.5,3.5-6.1,3.7c-1.6,0.3-2.9,0-4-0.9c-0.2-0.2-0.4-0.4-0.5-0.6
			c-0.1-0.2,0-0.5,0.3-0.7c0.1-0.5,0.5-1.1,1.1-1.7c0.6-0.6,1-1.2,1.4-1.6c2.4-2.3,4.4-4.8,6.1-7.4c1.7-2.6,2.8-5.8,3.2-9.5
			c0.1-0.2,0-0.6,0-1.4c-0.1-0.7-0.4-1.3-0.8-1.8c-0.5,0.3-0.9,0.5-1.3,0.6c-0.3,0.1-0.6,0.3-1,0.6c-0.9,0.6-2,1.7-3.3,3.1
			c-1.3,1.4-2.6,3-4,4.7c-1.4,1.7-2.7,3.5-3.9,5.3c-1.3,1.8-2.3,3.4-3.1,4.7c-0.5,1.4-0.9,3-1.4,4.7c-0.4,1.4-0.8,3-1.2,4.9
			C473.9,82.2,473.5,84.1,473.2,86z"/>
		<path class="st0" d="M531.4,80c0.7-0.8,1.4-1.5,1.9-2.1c0.6-0.6,1.2-1.3,1.8-1.8c0.8-1.1,1.8-2.2,2.9-3.4c1.1-1.1,2.4-2.7,4.1-4.6
			c-0.3,2.7-1,5.3-2,7.6c-1,2.4-2.2,4.5-3.5,6.4c-0.5,0.8-1.1,1.5-1.8,2.1c-0.7,0.6-1.4,1.2-2.1,1.8c-0.8,0.6-1.7,0.8-2.7,0.7
			c-1-0.1-2-0.4-3-1c-1-0.6-1.8-1.3-2.6-2.1c-0.7-0.9-1.2-1.8-1.2-2.8c-0.1-1.4-0.3-2.9-0.6-4.3c-0.3-1.4-0.3-2.9,0-4.3
			c0.2-1,0-2.3-0.6-3.8c-0.3,0.3-0.5,0.6-0.8,0.9c-0.3,0.3-0.5,0.6-0.7,0.9l-4.6,7.9c-0.2,0.3-0.4,0.7-0.6,1c-0.2,0.4-0.4,0.7-0.7,1
			c-0.5,0.6-1,1.3-1.5,2c-0.5,0.7-1.3,0.8-2.5,0.4c-1.4-0.3-2.7-0.8-3.9-1.5c-1.3-0.7-2.3-1.7-3.1-3c-0.6-1-1-1.9-1.2-2.7
			c-0.2-0.7-0.3-1.5-0.2-2.3c0.1-0.8,0.2-1.8,0.3-2.8c0.1-1.1,0.3-2.5,0.4-4.2c0.3-1.8,0.8-3.4,1.5-4.8c0.7-1.5,1.6-2.8,2.6-4.1
			c1-1.3,2-2.5,3.1-3.6c1.1-1.2,2.2-2.4,3.2-3.6c0.6-0.7,1.3-1.2,2-1.5c0.7-0.3,1.6-0.2,2.7,0.1c1,0.3,2.1,0.6,3.1,0.8
			c1,0.2,2,0.6,3,1.4c1.3,0.9,2.1,1.6,2.3,2.1c0.3,0.5,0.2,1.5-0.1,3l1.9,0.3c1.6,0.3,2.9,1,3.9,1.9c1,1,1.4,2.5,1.2,4.5l-2.1,15.6
			c-0.1,0.2-0.1,0.4,0,0.7C531.1,79.1,531.2,79.5,531.4,80z M522.5,61.6c0.1-0.1,0.3-0.4,0.5-0.8c0.2-0.4,0.5-0.9,0.7-1.4
			c0.2-0.5,0.4-1,0.6-1.4c0.2-0.5,0.4-0.8,0.5-1c-0.6-0.5-1.4-1-2.4-1.7c-1-0.6-1.8-1.2-2.3-1.6c-1.7,0.3-3.1,1.1-4.3,2.4
			c-1.2,1.4-2.2,3-3,5c-0.8,1.9-1.5,4-1.9,6.2c-0.5,2.2-0.8,4.2-1,6c-0.1,0.1,0,0.4,0.1,0.9c0.2,0.5,0.4,1,0.6,1.5
			c0.2,0.6,0.4,1.1,0.6,1.7c0.2,0.6,0.3,1,0.4,1.2c0.3-0.3,0.6-0.6,0.9-0.8c0.3-0.2,0.5-0.4,0.6-0.6c0.8-1,1.6-2.3,2.3-3.7
			c0.7-1.5,1.4-2.9,2.1-4.4c0.7-1.5,1.4-2.9,2.2-4.2C520.5,63.7,521.4,62.6,522.5,61.6z"/>
	</g>
</g>
</svg>
