<svg  viewBox="0 0 203 204" fill="none" xmlns="http://www.w3.org/2000/svg">
<path d="M58.6588 160.268H35.7988C40.9288 164.968 41.1888 170.678 41.0688 176.588C40.9088 184.058 41.0488 191.528 41.0188 198.988C41.0088 202.748 39.8988 203.838 36.1188 203.848C25.6588 203.868 15.2088 203.868 4.74883 203.848C1.06883 203.848 0.0588302 202.818 0.0488302 199.138C0.0288302 190.178 0.11883 181.218 0.00883021 172.248C-0.0511698 166.908 2.02883 162.668 6.18883 159.498C7.68883 158.358 7.64883 157.608 6.62883 156.148C1.91883 149.388 2.22883 141.128 7.26883 135.168C12.3588 129.148 20.4988 127.358 27.8288 130.698C29.2288 131.338 30.2388 131.878 30.2288 129.518C30.1688 115.898 30.1888 102.278 30.1788 88.658C30.1788 88.518 30.0588 88.368 29.8588 87.908C28.8188 90.838 28.0388 93.598 26.8688 96.188C24.0588 102.418 16.6088 104.548 10.8488 100.918C6.99883 98.488 4.83883 93.678 6.05883 89.258C9.02883 78.508 11.8788 67.718 15.3588 57.128C18.2188 48.418 24.7188 43.288 33.7788 41.678C35.9188 41.298 36.3688 40.888 35.3888 38.738C31.0588 29.248 35.6088 18.648 45.2388 15.348C54.8788 12.048 65.0888 17.598 67.6088 27.548C68.4388 30.828 68.1788 34.118 66.9488 37.828C73.8488 34.258 80.2988 30.918 86.7488 27.578C88.8588 26.488 90.9188 25.318 93.0688 24.318C98.5688 21.758 105.109 23.958 107.789 29.208C110.589 34.688 108.909 41.088 103.499 44.028C93.7688 49.308 83.9288 54.368 74.0788 59.408C72.1688 60.388 71.4588 61.578 71.4588 63.708C71.5288 84.448 71.5188 105.178 71.4588 125.918C71.4588 128.188 71.9088 129.248 74.5088 129.158C81.3188 128.928 86.3488 132.178 89.5388 138.028C92.8488 144.118 92.3888 150.248 88.4788 155.958C87.3788 157.558 87.1388 158.318 88.9188 159.628C93.0588 162.688 95.0688 167.038 95.1188 172.158C95.2088 181.028 95.1888 189.908 95.1288 198.778C95.1088 202.658 93.8788 203.828 90.0588 203.838C79.5988 203.858 69.1488 203.858 58.6888 203.838C55.1588 203.838 53.9188 202.658 53.8988 199.098C53.8488 190.048 53.8488 180.998 53.8988 171.948C53.9188 167.858 54.5988 166.368 58.6488 160.258L58.6588 160.268ZM54.6588 124.178C54.6588 132.968 54.6588 141.758 54.6588 150.538C54.6588 151.388 54.4688 152.458 55.6188 152.718C56.3488 152.888 57.3288 152.958 57.9088 152.598C58.7988 152.048 57.9588 151.178 57.7888 150.478C56.3288 144.448 57.7288 139.078 61.9388 134.638C63.4988 132.988 63.9488 131.368 63.9488 129.248C63.9088 106.748 64.0088 84.248 63.8388 61.758C63.8088 57.758 65.1488 55.518 68.7088 53.758C78.7888 48.778 88.7188 43.488 98.6688 38.258C101.339 36.858 102.139 34.738 101.099 32.678C100.109 30.728 97.7388 30.278 95.0688 31.658C84.9988 36.858 74.9288 42.048 64.9088 47.348C63.0488 48.328 61.2088 48.808 59.1288 48.798C51.7488 48.758 44.3588 48.628 36.9888 48.848C30.2088 49.048 24.9088 52.408 22.7488 58.758C19.1988 69.228 16.4088 79.958 13.3888 90.608C12.6788 93.098 14.5988 95.148 17.1688 94.998C19.5788 94.848 20.2988 93.108 20.8988 91.178C23.7888 81.868 26.6888 72.558 29.6388 63.268C30.9188 59.238 32.1888 58.008 34.4288 58.308C36.7788 58.628 37.7788 60.478 37.7788 64.578C37.7788 90.938 37.7788 117.308 37.7788 143.668C37.7788 146.138 37.7388 148.598 36.8988 150.958C36.4288 152.298 36.7388 152.938 38.2788 152.878C40.0288 152.808 41.7888 152.868 43.5488 152.858C47.0288 152.858 47.0388 152.858 47.0388 149.368C47.0388 132.668 47.0388 115.968 47.0388 99.278C47.0388 95.388 47.0488 95.388 50.7688 95.388C54.5988 95.388 54.6288 95.398 54.6388 99.138C54.6388 107.488 54.6388 115.838 54.6388 124.188L54.6588 124.178ZM33.4688 183.108H33.4488C33.4488 179.248 33.5388 175.388 33.4288 171.528C33.3088 167.198 30.0488 163.908 25.7388 163.718C22.8488 163.588 19.9488 163.648 17.0488 163.658C10.6788 163.688 7.41883 166.758 7.30883 173.098C7.19883 180.118 7.30883 187.138 7.24883 194.158C7.22883 195.948 7.80883 196.658 9.66883 196.638C16.7788 196.568 23.8788 196.568 30.9888 196.638C32.8088 196.658 33.5088 195.948 33.4788 194.158C33.4188 190.478 33.4588 186.788 33.4588 183.098L33.4688 183.108ZM61.4688 182.848C61.4688 186.708 61.4988 190.568 61.4588 194.428C61.4388 195.968 62.0488 196.638 63.6388 196.628C70.9188 196.588 78.1988 196.588 85.4788 196.628C87.0888 196.628 87.6688 195.958 87.6288 194.418C87.5688 192.138 87.6288 189.858 87.6288 187.578C87.6288 182.578 87.7088 177.578 87.5888 172.578C87.4488 166.908 84.2588 163.768 78.7188 163.668C75.9088 163.618 73.1088 163.618 70.2988 163.668C64.8188 163.778 61.6088 166.908 61.4988 172.318C61.4288 175.828 61.4888 179.338 61.4788 182.848H61.4688ZM10.8688 146.158C10.8688 151.488 15.2288 155.968 20.4588 155.998C25.6688 156.028 30.1588 151.518 30.1788 146.238C30.1988 140.768 25.7888 136.418 20.2788 136.488C15.0788 136.558 10.8888 140.858 10.8788 146.158H10.8688ZM84.0688 146.098C84.0388 140.778 79.8988 136.568 74.6288 136.488C69.1288 136.408 64.6988 140.818 64.7788 146.298C64.8588 151.658 69.2588 156.018 74.5588 155.988C79.8588 155.958 84.0988 151.548 84.0688 146.098ZM60.3688 31.488C60.3588 25.958 56.2088 21.818 50.7288 21.868C45.3988 21.918 41.3488 26.058 41.3388 31.478C41.3188 37.168 45.2488 41.168 50.8488 41.168C56.4588 41.168 60.3888 37.168 60.3688 31.488Z" fill="#8F509B"/>
<path d="M101.689 0.988037C133.489 0.988037 165.299 0.988037 197.099 0.988037C202.219 0.988037 202.899 1.65804 202.899 6.72804C202.899 32.298 202.899 57.858 202.899 83.428C202.899 88.368 201.959 89.348 197.109 89.348C158.539 89.348 119.969 89.348 81.3988 89.328C80.1589 89.328 78.4188 89.938 77.8588 88.408C77.1988 86.618 77.3889 84.598 77.8089 82.698C77.9589 82.008 78.6988 81.888 79.3188 81.858C80.2788 81.798 81.2488 81.798 82.2188 81.798C118.769 81.798 155.319 81.798 191.869 81.798C194.396 81.798 195.662 80.5547 195.669 78.068C195.669 55.928 195.629 33.788 195.729 11.648C195.739 9.04804 195.119 8.18804 192.379 8.18804C131.759 8.26804 71.1389 8.25804 10.5089 8.18804C7.96885 8.18804 7.22885 8.92804 7.24885 11.458C7.34885 30.518 7.30885 49.588 7.26885 68.658C7.26885 69.868 7.94885 71.568 6.30885 72.148C4.56885 72.758 2.62885 72.748 0.878853 72.108C-0.371147 71.648 0.0788534 70.278 0.0788534 69.288C0.0488534 54.088 0.0588534 38.888 0.0588534 23.688C0.0588534 18.148 0.0588534 12.618 0.0588534 7.07804C0.0388534 1.56804 0.598854 0.988037 6.00885 0.988037C37.8989 0.988037 69.7888 0.988037 101.689 0.988037Z" fill="#8F509B"/>
<path d="M128.359 203.858C123.179 203.858 117.989 203.878 112.809 203.858C109.219 203.838 107.879 202.718 107.849 199.238C107.769 190.008 107.709 180.778 107.889 171.558C107.979 166.548 110.229 162.378 114.319 159.418C115.799 158.348 115.699 157.698 114.719 156.328C110.259 150.088 110.179 142.348 114.359 136.348C118.469 130.448 125.919 127.728 132.989 129.558C139.919 131.348 145.029 137.508 145.669 145.058C146.019 149.158 144.819 152.918 142.339 156.168C141.199 157.658 141.399 158.428 142.839 159.528C146.999 162.728 149.059 167.058 149.079 172.308C149.109 181.188 149.119 190.058 149.079 198.938C149.059 202.688 147.869 203.848 144.199 203.868C138.929 203.888 133.649 203.868 128.379 203.868L128.359 203.858ZM141.489 183.088H141.479C141.479 179.408 141.559 175.718 141.459 172.038C141.329 167.038 138.159 163.848 133.179 163.688C130.289 163.588 127.389 163.628 124.499 163.668C118.719 163.748 115.489 166.818 115.379 172.598C115.259 179.788 115.379 186.978 115.309 194.178C115.289 195.978 115.909 196.668 117.749 196.648C124.849 196.578 131.959 196.578 139.059 196.648C140.909 196.668 141.539 195.928 141.499 194.148C141.429 190.468 141.479 186.778 141.479 183.098L141.489 183.088ZM118.879 146.278C118.909 151.658 123.359 156.118 128.569 155.978C133.939 155.838 138.219 151.438 138.169 146.108C138.109 140.698 133.819 136.468 128.399 136.478C123.049 136.488 118.849 140.818 118.879 146.268V146.278Z" fill="#8F509B"/>
<path d="M182.309 203.858C177.219 203.858 172.119 203.868 167.029 203.858C162.969 203.848 161.939 202.808 161.929 198.668C161.909 189.888 161.949 181.098 161.919 172.318C161.899 167.138 163.869 162.888 167.889 159.708C169.449 158.478 169.739 157.718 168.469 155.968C163.679 149.328 164.199 141.318 169.589 134.838C174.159 129.338 182.779 127.398 189.289 130.398C196.709 133.818 200.769 141.238 199.409 149.098C198.959 151.718 197.979 154.188 196.279 156.268C195.259 157.518 195.109 158.298 196.609 159.418C200.979 162.678 203.019 167.088 202.929 172.628C202.789 181.318 202.899 190.018 202.889 198.718C202.889 202.958 201.989 203.868 197.839 203.878C192.659 203.898 187.479 203.878 182.289 203.878L182.309 203.858ZM169.489 182.648H169.479C169.479 186.338 169.559 190.018 169.449 193.698C169.389 195.798 170.029 196.688 172.289 196.648C179.219 196.538 186.149 196.558 193.079 196.648C194.989 196.668 195.769 196.078 195.699 194.088C195.579 190.758 195.719 187.418 195.659 184.088C195.579 179.708 196.059 175.298 195.389 170.948C194.689 166.368 191.699 163.798 187.139 163.688C183.979 163.608 180.819 163.608 177.659 163.688C172.879 163.818 169.599 167.098 169.499 171.848C169.419 175.448 169.479 179.038 169.479 182.638L169.489 182.648ZM172.779 146.248C172.799 151.528 177.299 156.038 182.499 155.998C187.729 155.968 192.089 151.488 192.079 146.158C192.069 140.858 187.889 136.558 182.679 136.498C177.179 136.428 172.759 140.788 172.779 146.248Z" fill="#8F509B"/>
<path d="M145.419 25.0881C135.139 25.0881 124.859 25.0881 114.579 25.0881C111.329 25.0881 111.299 25.0181 111.299 21.2981C111.299 17.7081 111.409 17.5381 114.659 17.5381C135.129 17.5281 155.609 17.5281 176.079 17.5381C177.249 17.5381 178.869 17.1381 179.269 18.6681C179.769 20.5981 180.039 22.7181 178.979 24.5581C178.459 25.4681 177.199 25.0781 176.269 25.0781C165.989 25.0981 155.709 25.0881 145.429 25.0881H145.419Z" fill="#8F509B"/>
<path d="M155.649 37.9481C165.839 37.9481 176.039 37.9481 186.229 37.9481C189.489 37.9481 189.619 38.1081 189.639 41.3881C189.669 45.2081 189.499 45.4581 186.259 45.4581C165.699 45.4781 145.129 45.4781 124.569 45.4581C121.419 45.4581 121.429 45.2981 121.309 41.5781C121.229 39.1881 121.609 37.8381 124.539 37.8781C134.909 38.0281 145.279 37.9381 155.649 37.9381V37.9481Z" fill="#8F509B"/>
<path d="M141.889 65.6579C131.619 65.6579 121.349 65.6579 111.079 65.6579C107.959 65.6579 107.809 65.4679 107.789 62.0979C107.779 58.4779 107.989 58.1479 111.019 58.1479C131.649 58.1279 152.269 58.1879 172.899 58.0879C175.899 58.0779 176.069 59.5979 176.029 61.8879C175.989 64.0779 176.059 65.7679 172.959 65.7279C162.609 65.5779 152.249 65.6679 141.889 65.6679V65.6579Z" fill="#8F509B"/>
</svg>
