<svg  viewBox="0 0 226 204" fill="none" xmlns="http://www.w3.org/2000/svg">
<path d="M225.342 59.7463C225.312 80.8863 219.612 97.7063 211.222 113.776C198.822 137.546 181.842 157.686 161.752 175.266C149.892 185.636 137.162 194.696 122.802 201.426C115.972 204.626 109.892 204.796 103.062 201.236C88.572 193.696 75.532 184.186 63.402 173.386C44.642 156.676 28.302 137.916 16.012 115.886C6.07198 98.0763 -0.518005 79.3663 0.0319952 58.4863C0.731995 32.0363 18.872 8.81628 44.662 2.98628C68.042 -2.29372 88.752 2.82628 105.882 20.1663C107.782 22.0863 109.442 24.2763 110.972 26.5163C112.332 28.5063 113.162 28.2663 114.442 26.4363C120.932 17.1063 129.472 10.3063 139.982 5.95628C165.782 -4.70372 198.142 1.62628 215.052 26.5363C222.402 37.3663 225.652 49.4363 225.352 59.7463H225.342ZM125.262 148.656C123.572 148.176 122.672 148.006 121.842 147.686C117.802 146.136 115.502 143.126 115.022 138.876C114.562 134.796 116.902 130.806 120.572 128.936C123.142 127.626 125.852 127.816 128.552 128.246C135.012 129.266 141.452 130.346 147.902 131.416C149.022 131.606 150.072 131.656 151.122 131.076C161.512 125.306 171.842 119.446 180.862 111.596C191.412 102.416 201.902 93.1663 212.502 84.0463C214.502 82.3263 215.372 80.2463 215.762 77.8163C216.932 70.3563 217.892 62.9163 217.052 55.3163C215.812 44.2063 212.232 34.0963 204.452 25.8963C190.332 11.0063 172.772 6.58628 153.112 10.3963C136.722 13.5663 124.652 23.0163 116.922 37.8763C116.012 39.6263 114.982 41.2363 112.722 41.2863C110.442 41.3263 109.432 39.7363 108.492 37.9663C106.212 33.6863 103.612 29.6163 100.252 26.0963C86.032 11.2063 68.542 6.24628 48.742 10.3763C29.672 14.3563 16.432 25.5963 10.492 44.5763C6.84199 56.2463 7.64198 67.9863 10.142 79.7563C10.752 82.6263 12.072 84.8063 14.272 86.8263C25.562 97.1763 38.262 105.426 51.772 112.506C52.862 113.076 53.852 113.446 55.182 113.206C62.202 111.926 69.252 110.796 76.282 109.556C81.942 108.566 86.802 111.546 88.332 117.036C89.732 122.076 86.762 127.366 81.532 129.276C80.742 129.566 79.672 129.326 79.032 130.576C84.712 135.146 90.382 139.776 96.122 144.326C102.922 149.716 103.312 156.606 96.982 162.536C92.432 166.796 87.832 171.016 83.082 175.066C80.882 176.946 81.212 177.916 83.382 179.546C90.972 185.256 99.072 190.026 107.572 194.266C111.672 196.306 115.122 196.086 118.982 194.236C120.912 193.306 120.842 192.566 119.492 191.206C115.872 187.566 112.342 183.846 108.742 180.186C102.212 173.536 102.682 167.176 110.022 161.326C115.022 157.336 119.882 153.156 125.272 148.656H125.262ZM208.972 97.8263C204.992 101.296 200.892 104.656 197.042 108.266C184.412 120.106 170.412 130.016 155.152 138.186C152.742 139.476 150.462 140.006 147.682 139.486C140.862 138.216 133.982 137.276 127.122 136.256C125.672 136.036 123.782 135.606 123.362 137.656C122.912 139.886 124.932 140.176 126.452 140.546C128.992 141.166 131.572 141.606 134.132 142.166C135.942 142.566 137.712 143.076 138.152 145.256C138.582 147.376 137.702 148.876 136.072 150.216C128.922 156.096 121.822 162.046 114.722 167.986C114.032 168.556 113.332 169.166 112.822 169.886C112.192 170.796 112.232 171.896 113.032 172.666C113.872 173.466 114.502 172.476 115.082 172.056C118.832 169.336 122.592 166.636 126.242 163.796C128.012 162.416 129.262 162.566 130.432 164.426C130.862 165.106 131.352 165.756 131.872 166.356C133.132 167.796 133.042 168.896 131.382 170.056C128.092 172.366 124.872 174.796 121.712 177.286C120.822 177.986 118.862 178.556 120.132 180.206C121.232 181.646 122.272 180.146 123.182 179.536C126.522 177.296 129.882 175.056 133.132 172.696C134.972 171.356 136.372 171.316 137.552 173.436C137.942 174.136 138.442 174.776 138.942 175.406C140.152 176.946 139.842 177.996 138.182 179.056C135.052 181.066 132.012 183.226 129.002 185.416C128.252 185.966 126.542 186.226 127.482 187.796C128.372 189.296 129.672 188.906 130.872 188.126C134.252 185.936 137.722 183.876 140.962 181.506C165.582 163.526 185.842 141.556 201.162 115.136C204.322 109.686 207.202 104.066 208.952 97.8263H208.972ZM17.652 100.806C17.772 101.166 17.862 101.536 18.022 101.886C18.502 102.986 18.962 104.106 19.512 105.186C32.632 130.706 51.002 151.966 72.592 170.616C73.742 171.616 74.642 172.086 75.872 170.736C77.152 169.326 76.122 168.576 75.212 167.786C72.472 165.416 69.802 162.956 66.932 160.766C64.642 159.016 64.862 157.596 66.662 155.646C69.582 152.476 69.612 152.366 72.342 154.676C75.572 157.406 78.812 160.116 81.962 162.926C83.212 164.046 83.992 163.646 84.982 162.656C86.202 161.446 85.472 160.776 84.482 160.036C81.502 157.796 78.542 155.546 75.592 153.286C70.942 149.716 71.242 150.796 74.612 146.086C76.092 144.006 77.232 144.256 78.972 145.656C82.492 148.496 86.112 151.216 89.762 153.896C90.602 154.516 91.582 156.216 92.722 154.896C93.942 153.496 92.932 152.086 91.622 151.066C91.142 150.696 90.672 150.326 90.202 149.946C82.682 143.886 75.172 137.816 67.642 131.776C66.142 130.566 65.092 129.166 65.492 127.126C65.892 125.036 67.482 124.226 69.322 123.766C70.592 123.456 71.882 123.216 73.152 122.926C75.012 122.486 76.882 122.086 78.712 121.556C79.902 121.216 80.632 120.366 80.312 119.056C80.032 117.916 79.122 117.496 78.002 117.526C77.402 117.546 76.792 117.586 76.202 117.686C69.162 118.876 62.112 119.986 55.112 121.346C52.842 121.786 50.992 121.396 49.082 120.316C38.402 114.296 27.562 108.516 17.672 100.826L17.652 100.806Z" fill="#DE6C92"/>
<path d="M163.492 33.7262C165.602 33.7262 167.742 33.9062 169.832 33.6962C178.402 32.8162 186.352 35.0762 194.212 38.0762C197.812 39.4462 200.122 41.7162 200.712 45.6362C201.552 51.2062 202.462 56.7662 203.392 62.3162C203.942 65.5962 203.092 68.0763 199.772 69.3563C199.032 69.6463 198.342 70.0963 197.652 70.5063C190.592 74.6363 190.682 74.6362 190.782 82.8563C190.812 85.6263 192.592 87.2862 194.072 89.0862C195.932 91.3562 194.982 92.5762 193.002 93.8662C191.212 95.0262 189.852 97.0362 187.552 94.1662C184.542 90.4062 182.412 86.6362 183.072 81.5862C183.432 78.8162 183.252 75.9563 183.102 73.1463C182.972 70.6063 183.992 68.9362 186.202 67.8062C187.722 67.0262 189.192 66.1463 190.652 65.2563C196.102 61.9663 195.142 63.6862 194.372 57.6562C193.992 54.6662 193.292 51.7162 192.922 48.7262C192.662 46.6262 191.562 45.6662 189.642 44.9362C182.392 42.1862 175.002 40.7662 167.212 41.3862C164.112 41.6362 160.952 41.6762 157.862 41.3862C150.522 40.6862 143.732 42.6562 136.992 45.1562C135.222 45.8062 134.142 46.7262 133.892 48.7462C133.422 52.5362 132.832 56.3262 132.042 60.0562C131.602 62.1362 132.302 63.2062 134.072 64.0962C136.402 65.2762 138.592 66.7262 140.892 67.9762C142.862 69.0462 143.582 70.6063 143.752 72.8563C144.462 82.3963 143.452 91.4862 137.872 99.6362C135.032 103.776 134.112 108.436 134.622 113.416C134.752 114.706 134.722 116.036 134.622 117.336C134.532 118.566 135.242 120.306 133.732 120.856C131.852 121.546 129.742 121.406 127.792 120.876C126.872 120.626 126.982 119.576 126.982 118.796C126.962 114.066 126.982 109.336 126.982 104.606C126.982 103.256 127.542 102.066 128.132 100.886C129.712 97.7362 131.052 94.4362 132.922 91.4762C135.822 86.8862 136.352 81.9562 136.062 76.7362C135.972 75.1462 135.492 74.1262 134.072 73.3662C131.412 71.9462 128.862 70.3162 126.202 68.8963C124.202 67.8363 123.142 66.3462 123.382 64.0462C124.072 57.2362 125.272 50.4962 126.662 43.8062C127.342 40.5262 130.162 39.2462 133.062 37.9862C142.852 33.7362 153.062 32.9662 163.512 33.7462L163.492 33.7262Z" fill="#DE6C92"/>
<path d="M54.922 48.2362C54.922 52.9462 54.6619 56.5462 54.9719 60.0962C55.8719 70.6662 53.7619 80.6562 49.8219 90.3962C48.5119 93.6462 47.272 96.9762 47.652 100.626C47.842 102.506 46.792 102.976 45.092 103.046C40.042 103.256 40.102 103.256 39.952 98.3062C39.752 91.9262 42.722 86.3962 44.652 80.6462C46.472 75.2162 47.4819 69.8562 47.2919 64.1262C47.0519 56.8862 47.242 49.6362 47.232 42.3962C47.232 40.6562 47.192 38.8662 49.002 37.8962C50.902 36.8762 52.8119 37.2062 54.3519 38.5762C60.2919 43.8662 67.2019 45.6462 74.9719 44.5962C75.0719 44.5862 75.172 44.5862 75.272 44.5962C82.552 45.6562 88.9319 43.7162 94.4719 38.8862C96.0819 37.4862 97.982 36.7762 100.052 37.7862C102.142 38.8062 102.082 40.8262 102.052 42.7762C101.882 53.1362 102.022 63.4962 101.522 73.8562C101.302 78.3462 98.582 81.6962 96.872 85.4962C96.022 87.3962 95.602 89.0962 96.812 90.8862C101.532 97.8662 102.902 105.606 102.072 113.856C101.952 115.056 101.932 116.286 102.072 117.476C102.442 120.426 101.172 121.346 98.302 121.196C94.382 120.996 94.042 121.126 94.422 117.096C95.262 108.146 93.402 99.9862 88.492 92.4562C87.052 90.2462 86.3219 87.6462 87.9419 85.3362C93.8019 76.9762 93.722 67.4162 93.782 57.8662C93.802 55.6562 93.812 53.4362 93.842 51.2262C93.862 49.7462 93.102 49.2462 92.022 50.2062C89.222 52.7062 85.882 52.2962 82.582 52.2862C79.362 52.2862 76.132 52.4462 72.922 52.2462C66.962 51.8862 60.552 54.1162 54.922 48.2262V48.2362Z" fill="#DE6C92"/>
<path d="M163.442 77.6362C160.662 77.6362 158.542 75.9362 158.592 73.7462C158.642 71.5562 160.792 69.9362 163.572 69.9862C166.202 70.0362 168.212 71.6362 168.272 73.7262C168.332 75.9262 166.222 77.6362 163.442 77.6362Z" fill="#DE6C92"/>
<path d="M156.382 59.2363C156.292 61.6363 155.142 63.0163 152.682 63.1163C150.232 63.2163 148.662 61.6663 148.742 59.2163C148.822 56.7763 150.142 55.5063 152.562 55.5063C155.002 55.5063 156.232 56.8363 156.382 59.2363Z" fill="#DE6C92"/>
<path d="M178.112 59.7964C177.992 61.7664 176.772 63.0764 174.332 63.1164C171.892 63.1564 170.372 61.5664 170.502 59.1064C170.642 56.6564 172.032 55.4864 174.432 55.5064C176.752 55.5264 178.142 57.0164 178.112 59.7964Z" fill="#DE6C92"/>
<path d="M69.402 62.9062C69.302 65.3062 68.122 66.6662 65.672 66.7462C63.222 66.8262 61.672 65.2762 61.772 62.8162C61.872 60.3762 63.212 59.1262 65.622 59.1462C68.072 59.1662 69.282 60.5162 69.402 62.9162V62.9062Z" fill="#DE6C92"/>
<path d="M83.3519 66.7562C81.3619 66.6862 79.982 65.5362 79.892 63.0762C79.792 60.6162 81.332 59.0562 83.782 59.1362C86.222 59.2162 87.472 60.5262 87.502 62.9562C87.532 65.2862 86.0819 66.7262 83.3519 66.7562Z" fill="#DE6C92"/>
</svg>
