<svg  viewBox="0 0 190 207" fill="none" xmlns="http://www.w3.org/2000/svg">
<path d="M0.0233333 162.698C0.0233333 151.828 0.00333333 140.948 0.0233333 130.078C0.0333333 122.718 3.68333 119.128 11.1033 119.118C14.3333 119.118 17.5533 119.118 20.7833 119.118C25.2233 119.138 28.4333 121.108 29.9433 125.318C30.5533 127.028 31.3733 127.058 32.8433 126.658C37.7233 125.298 42.6233 124.038 47.5233 122.748C51.8033 121.628 55.7233 123.168 59.6133 124.548C61.2533 125.128 61.8533 126.698 61.4733 128.438C61.0933 130.198 59.8933 131.068 58.1133 131.148C57.7433 131.168 57.3433 131.218 57.0133 131.098C50.0233 128.488 43.6033 131.488 37.1033 133.228C30.6533 134.948 30.6933 135.108 30.6933 141.698C30.6933 155.158 30.7433 168.608 30.6433 182.058C30.6233 184.408 31.3833 185.418 33.6733 186.068C50.6633 190.898 67.9233 193.898 85.5633 195.038C93.3033 195.538 101.033 195.348 108.763 195.428C109.983 195.438 111.093 195.218 112.193 194.618C133.273 183.248 154.403 171.968 175.463 160.538C183.053 156.418 184.193 147.768 177.953 143.108C174.583 140.588 171.053 140.618 167.293 142.408C156.133 147.688 144.923 152.858 133.733 158.068C131.983 158.888 130.243 159.738 128.463 160.498C125.483 161.768 122.933 163.398 120.703 165.938C116.073 171.208 109.813 171.708 103.373 170.418C88.4733 167.438 73.6033 164.318 58.7233 161.258C55.3833 160.568 52.0433 159.898 48.7133 159.198C45.9233 158.608 44.4933 156.898 44.9433 154.698C45.3733 152.548 47.4433 151.468 50.1733 152.018C68.3133 155.688 86.4533 159.368 104.583 163.068C106.223 163.398 107.863 163.548 109.523 163.438C114.103 163.148 117.103 160.358 117.673 155.898C118.233 151.598 116.563 148.988 111.863 147.528C105.883 145.668 99.8333 144.048 93.8033 142.358C91.9133 141.828 90.3233 141.008 89.9633 138.878C89.5333 136.328 92.0833 134.188 94.8333 134.948C101.753 136.878 108.643 138.888 115.503 141.028C117.223 141.568 118.613 141.548 120.223 140.768C128.773 136.648 137.353 132.608 145.933 128.558C153.183 125.128 160.413 126.468 165.783 132.408C167.063 133.828 168.373 134.188 170.153 134.018C178.453 133.208 185.253 137.368 188.293 145.028C190.963 151.768 188.383 160.328 182.073 164.978C177.463 168.378 172.183 170.678 167.173 173.408C150.263 182.618 133.273 191.678 116.353 200.858C113.923 202.178 111.413 202.778 108.693 202.848C83.8533 203.498 59.4033 200.908 35.4433 194.168C34.8233 193.998 34.1833 193.878 33.5733 193.668C31.5633 192.958 30.6433 193.278 30.6033 195.788C30.4933 202.418 26.6233 206.068 19.9233 206.178C16.8833 206.228 13.8433 206.228 10.8033 206.178C3.82333 206.078 0.0333333 202.288 0.0133333 195.328C-0.0166667 184.458 0.0133333 173.578 0.0133333 162.708L0.0233333 162.698ZM23.2433 162.698C23.2433 152.008 23.2433 141.318 23.2433 130.628C23.2433 126.958 22.8033 126.548 19.0733 126.518C16.5833 126.498 14.0933 126.498 11.6133 126.518C7.89333 126.548 7.48333 126.948 7.48333 130.658C7.47333 144.668 7.48333 158.668 7.48333 172.678C7.48333 180.138 7.46333 187.608 7.49333 195.068C7.50333 198.288 7.96333 198.718 11.2133 198.748C13.8833 198.768 16.5533 198.768 19.2333 198.748C22.7933 198.728 23.2433 198.298 23.2533 194.768C23.2733 184.078 23.2533 173.388 23.2533 162.698H23.2433ZM159.893 137.278C159.823 136.538 159.283 136.158 158.753 135.798C155.833 133.818 152.713 133.628 149.573 135.078C142.393 138.398 135.253 141.828 128.103 145.218C123.783 147.258 123.833 147.248 124.753 151.718C125.073 153.258 125.553 153.748 127.143 152.998C137.553 148.098 147.993 143.278 158.423 138.418C158.983 138.158 159.663 137.998 159.893 137.278Z" fill="#F29073"/>
<path d="M94.5833 117.628C82.4233 117.628 70.2633 117.638 58.1033 117.628C53.0533 117.628 51.9933 116.518 51.9933 111.408C51.9933 100.078 52.0533 88.748 51.9433 77.418C51.9133 74.528 53.0133 72.798 55.5733 71.578C61.1433 68.918 66.6233 66.088 72.1433 63.328C73.2533 62.778 74.4933 62.298 73.3533 60.718C69.1933 54.968 68.1033 48.428 68.6133 41.558C68.8033 39.008 67.8433 37.498 65.6933 36.208C61.5833 33.748 57.6133 31.068 53.6033 28.448C49.0933 25.508 49.2333 22.758 54.0433 20.168C65.4833 14.028 77.0533 8.10802 88.3333 1.68802C92.3933 -0.621976 95.5033 -0.521976 99.5033 1.74802C110.803 8.13802 122.353 14.078 133.793 20.228C138.443 22.728 138.583 25.468 134.203 28.388C130.443 30.888 126.673 33.368 122.833 35.728C121.303 36.668 120.783 37.828 120.773 39.578C120.753 43.438 121.143 47.318 120.253 51.138C119.493 54.408 118.293 57.478 116.323 60.198C115.213 61.728 115.513 62.528 117.183 63.338C122.743 66.028 128.203 68.898 133.773 71.558C136.313 72.778 137.463 74.468 137.443 77.378C137.333 88.988 137.413 100.588 137.393 112.198C137.393 116.328 136.123 117.618 131.883 117.628C119.443 117.668 107.013 117.638 94.5733 117.648L94.5833 117.628ZM97.5933 90.788C97.5933 96.318 97.6633 101.848 97.5533 107.378C97.5133 109.518 98.2133 110.288 100.403 110.268C109.253 110.168 118.093 110.168 126.943 110.268C129.193 110.298 130.023 109.608 129.993 107.288C129.883 98.808 129.953 90.328 129.953 81.848C129.953 81.108 129.983 80.368 129.923 79.638C129.793 78.128 126.843 75.598 125.153 75.768C123.183 75.958 124.373 77.658 124.063 78.628C123.463 80.528 122.353 81.768 120.363 81.748C118.373 81.728 117.093 80.498 116.813 78.518C116.613 77.158 116.543 75.738 116.723 74.388C117.043 71.888 115.733 70.688 113.693 69.788C112.183 69.128 111.443 69.338 111.483 71.148C111.533 73.448 111.523 75.758 111.463 78.058C111.393 80.358 110.143 81.788 107.853 81.728C105.723 81.678 104.543 80.268 104.483 78.098C104.423 76.168 104.473 74.228 104.443 72.288C104.433 71.678 104.613 70.948 103.853 70.588C101.933 69.698 97.6233 72.338 97.6133 74.458C97.5933 79.898 97.6133 85.328 97.6133 90.768L97.5933 90.788ZM90.1433 90.978C90.1433 86.558 90.1433 82.138 90.1433 77.708C90.1433 73.8147 88.36 71.2147 84.7933 69.908C84.7033 69.878 84.6233 69.838 84.5433 69.798C83.2533 69.178 82.6533 69.578 82.6633 71.018C82.6833 73.228 82.6833 75.438 82.6333 77.648C82.5733 79.988 81.4533 81.548 79.0433 81.768C76.9433 81.958 75.3633 80.178 75.2433 77.578C75.1633 75.738 75.2233 73.898 75.1933 72.048C75.1933 71.258 75.1233 70.598 73.9633 70.798C71.6633 71.188 70.0633 72.918 70.0233 75.278C70.0033 76.288 70.0533 77.308 69.9833 78.318C69.8433 80.358 68.6733 81.628 66.6833 81.748C64.6833 81.868 63.4633 80.688 63.0033 78.708C62.8433 78.018 63.4533 76.718 62.1433 76.818C61.0933 76.898 60.0033 77.508 59.5933 78.668C59.4133 79.168 59.4433 79.758 59.4433 80.308C59.4433 89.428 59.4733 98.548 59.4133 107.668C59.4033 109.578 60.0833 110.258 61.9933 110.248C70.4633 110.178 78.9433 110.178 87.4133 110.248C89.4333 110.268 90.2033 109.608 90.1633 107.548C90.0633 102.018 90.1333 96.498 90.1333 90.968L90.1433 90.978ZM93.9133 31.318C98.1433 31.318 102.413 31.018 106.613 31.388C113.053 31.958 118.803 30.718 123.753 26.408C123.893 26.288 124.063 26.208 124.223 26.118C126.043 25.128 125.923 24.368 124.103 23.398C114.843 18.478 105.593 13.528 96.3933 8.47802C94.5533 7.46802 93.0733 7.53802 91.2733 8.52802C82.2333 13.478 73.1433 18.328 64.0633 23.208C61.4333 24.618 61.4333 24.788 64.0633 26.448C65.4633 27.328 66.9333 28.128 68.2333 29.148C70.4533 30.888 72.8833 31.438 75.6833 31.368C81.7533 31.218 87.8333 31.318 93.9033 31.318H93.9133ZM94.6933 38.738C89.5333 38.738 84.3733 38.878 79.2233 38.678C76.5833 38.578 75.7633 39.578 76.0033 42.038C76.1533 43.588 76.0033 45.168 76.0633 46.728C76.4733 55.498 82.8133 62.738 91.3833 64.278C99.9833 65.818 108.623 61.018 111.983 52.908C113.443 49.388 113.263 45.718 113.403 42.028C113.493 39.568 112.803 38.578 110.163 38.668C105.013 38.858 99.8533 38.728 94.6933 38.728V38.738Z" fill="#F29073"/>
<path d="M69.5933 135.048C67.7433 134.838 66.3633 133.858 66.3133 131.608C66.2633 129.428 67.3233 128.048 69.5733 128.008C71.7533 127.968 73.0133 129.208 73.2033 131.358C73.3733 133.228 71.6933 134.978 69.5933 135.058V135.048Z" fill="#F29073"/>
<path d="M85.4533 134.668C85.1833 136.538 84.0733 137.798 81.8233 137.708C79.6133 137.618 78.3433 136.408 78.4333 134.208C78.5233 132.038 79.9133 130.878 82.0433 130.818C83.9633 130.758 85.5133 132.488 85.4533 134.668Z" fill="#F29073"/>
<path d="M113.813 96.728C112.613 96.728 111.393 96.868 110.223 96.698C108.173 96.388 106.793 95.158 106.853 92.998C106.913 91.008 108.163 89.678 110.153 89.528C112.533 89.348 114.943 89.328 117.323 89.518C119.423 89.688 120.713 91.058 120.693 93.198C120.673 95.228 119.333 96.388 117.403 96.688C116.233 96.868 115.013 96.718 113.823 96.718C113.823 96.718 113.823 96.718 113.823 96.728H113.813Z" fill="#F29073"/>
<path d="M72.9933 96.738C71.8933 96.738 70.7633 96.858 69.6833 96.708C67.5933 96.418 66.3233 95.228 66.3333 93.018C66.3433 90.938 67.5633 89.688 69.5433 89.538C71.9233 89.348 74.3333 89.348 76.7033 89.538C78.6833 89.688 79.9033 90.938 79.9133 93.018C79.9333 95.218 78.6533 96.428 76.5733 96.708C75.3933 96.868 74.1833 96.738 72.9833 96.738H72.9933Z" fill="#F29073"/>
</svg>
