<svg  viewBox="0 0 183 203" fill="none" xmlns="http://www.w3.org/2000/svg">
<path d="M82.8989 155.43C86.1789 157.09 89.7389 157.77 92.8089 159.71C101.419 165.12 105.189 172.99 103.839 182.95C102.579 192.19 97.0689 198.35 88.2789 201.42C76.7389 205.45 63.3589 198.76 59.6289 187.13C57.9389 181.88 56.3989 176.57 54.9389 171.25C54.3789 169.21 53.8089 169.23 52.4789 170.65C49.1289 174.23 45.6188 177.68 42.2988 181.28C36.0888 188.02 25.8889 190.63 17.4789 187.51C8.4989 184.18 2.25892 175.88 2.25892 166.46C2.25892 156.54 6.87891 149.25 15.8689 144.84C16.7789 144.4 17.9389 144.3 18.3589 143.1C19.2089 140.69 18.2289 139.29 15.6189 139.27C11.7589 139.25 7.90884 139.29 4.04884 139.25C1.01884 139.22 0.0189339 138.31 0.0189339 135.36C-0.0110661 115.29 -0.00106609 95.21 0.0189339 75.14C0.0189339 72.64 1.33894 71.09 3.27894 71.23C5.67894 71.41 6.55888 73.04 6.58888 75.2C6.64888 79.06 6.61891 82.91 6.61891 86.77C6.61891 100.97 6.68885 115.17 6.55885 129.37C6.53885 132.08 7.42895 132.8 10.039 132.77C18.459 132.69 18.4589 132.77 18.4589 124.39C18.4589 90.12 18.4589 55.84 18.4589 21.57C18.4589 16.51 19.1589 15.81 24.2289 15.81C42.3689 15.81 60.519 15.81 78.659 15.81C82.3989 15.81 83.9389 16.76 83.9589 19.04C83.9689 21.31 82.3189 22.4 78.7289 22.4C62.0789 22.4 45.4189 22.4 28.7689 22.4C25.0789 22.4 25.0689 22.4 25.0689 25.95C25.0689 63.73 25.0989 101.51 25.0089 139.29C25.0089 141.87 25.8089 142.78 28.3089 143.12C32.6389 143.71 36.9189 144.71 41.2289 145.49C42.2589 145.67 43.3289 145.8 44.3589 145.69C46.2389 145.5 47.1689 144.66 46.5289 142.5C42.7289 129.65 39.1389 116.73 35.2489 103.91C31.5289 91.66 32.8089 80.21 39.9689 69.51C40.6989 68.42 41.3189 67.23 42.5889 66.64C45.1389 65.44 47.3189 66.74 48.3389 70.18C50.5289 77.57 52.6789 84.97 54.8389 92.37C57.9489 103.05 61.049 113.73 64.159 124.42C64.279 124.83 64.4589 125.22 64.6289 125.67C66.0789 125.18 66.6789 123.92 67.5589 123C79.7689 110.3 91.9489 97.58 104.139 84.86C104.619 84.35 105.109 83.84 105.649 83.39C108.599 80.92 111.799 81.91 112.529 85.71C113.239 89.43 113.069 93.22 112.649 96.97C111.719 105.21 107.989 112.18 102.429 118.16C93.7788 127.47 84.9889 136.64 76.2589 145.88C75.6189 146.55 75.0189 147.25 74.3789 147.95C75.3589 148.83 76.2689 148.54 77.0989 148.54C91.4789 148.56 105.849 148.56 120.229 148.55C123.679 148.55 123.739 148.44 123.809 145.02C123.879 141.43 123.619 137.84 124.009 134.25C124.289 131.58 125.669 129.83 128.149 129.04C129.579 128.58 130.299 127.71 130.749 126.37C131.399 124.46 132.179 122.6 132.849 120.7C134.019 117.34 136.069 114.89 139.669 114.04C141.149 113.69 141.429 112.66 141.639 111.33C143.129 101.99 144.719 92.67 146.209 83.32C146.579 80.98 147.629 79.17 149.649 78.02C150.919 77.3 151.219 76.28 151.219 74.97C151.209 58.32 151.179 41.66 151.239 25.01C151.239 22.57 149.949 22.39 148.059 22.39C131.139 22.42 114.229 22.41 97.3089 22.4C96.2589 22.4 95.179 22.44 94.169 22.21C92.439 21.83 91.3989 20.7 91.4989 18.84C91.5889 17.07 92.7189 16.18 94.3489 15.91C95.2089 15.77 96.0989 15.82 96.9689 15.82C107.839 15.82 118.709 15.76 129.579 15.86C131.969 15.88 132.839 15.2 132.769 12.74C132.579 5.65 133.499 6.53 126.609 6.53C88.0389 6.51 49.4689 6.52 10.9089 6.52C8.06895 6.52 6.64894 7.97333 6.64894 10.88C6.64894 26.66 6.64894 42.44 6.64894 58.21C6.64894 59.43 6.76892 60.67 6.25892 61.84C5.62892 63.27 4.56889 64.12 2.97889 63.93C1.31889 63.74 0.25888 62.79 0.0888802 61.05C0.0188802 60.35 0.0289437 59.65 0.0289437 58.95C0.0289437 40.98 0.0289437 23.01 0.0289437 5.04C0.0289437 0.66 0.688943 0 5.02894 0C48.1589 0 91.2789 0 134.409 0C138.689 0 139.609 0.94 139.649 5.27C139.669 7.64 139.649 10 139.649 12.37C139.656 14.65 140.846 15.7933 143.219 15.8C146.459 15.8 149.709 15.8 152.949 15.8C157.059 15.82 158.099 16.81 158.109 20.91C158.129 38.7 158.129 56.5 158.109 74.29C158.109 76.85 158.469 79.17 159.609 81.6C161.199 85 161.109 88.94 161.779 92.63C162.939 99 163.929 105.41 164.919 111.81C165.119 113.14 165.669 113.81 166.969 114.12C170.119 114.88 172.119 116.95 173.229 119.95C173.769 121.43 174.369 122.89 174.889 124.38C175.679 126.64 176.499 128.58 179.219 129.48C181.809 130.34 182.449 132.86 182.449 135.53C182.409 150.08 182.429 164.63 182.429 179.18C182.429 184.79 182.459 190.4 182.409 196.01C182.369 200.27 180.339 202.32 176.089 202.33C160.839 202.36 145.589 202.36 130.329 202.33C126.429 202.33 124.519 200.66 124.049 196.74C123.789 194.58 123.839 192.37 123.839 190.18C123.819 179.57 123.809 168.97 123.839 158.36C123.839 156.55 123.569 155.34 121.309 155.35C108.519 155.41 95.7289 155.38 82.9389 155.38L82.8989 155.43ZM152.989 153.82C159.639 153.82 166.299 153.78 172.949 153.85C174.899 153.87 175.849 153.31 175.789 151.17C175.679 146.8 175.689 142.42 175.789 138.04C175.829 136.08 175.049 135.45 173.159 135.46C159.859 135.51 146.549 135.51 133.249 135.46C131.329 135.46 130.589 136.19 130.619 138.1C130.689 142.39 130.709 146.68 130.619 150.97C130.569 153.16 131.459 153.89 133.579 153.86C140.059 153.78 146.529 153.83 153.009 153.83L152.989 153.82ZM9.09889 166C9.14889 167.5 9.05896 169.25 9.66896 170.95C13.869 182.66 27.9289 186.05 36.7789 177.3C43.3789 170.77 49.6589 163.93 56.0789 157.23C58.1989 155.02 60.399 152.87 62.419 150.57C64.169 148.58 63.9989 146.07 62.2489 144.41C60.7289 142.97 58.0389 142.97 56.2589 144.55C55.1489 145.53 54.1489 146.65 53.1589 147.76C49.5789 151.79 45.2489 153.1 39.9089 152.08C35.0189 151.15 30.229 149.6 25.169 149.64C15.929 149.71 9.09888 156.53 9.08888 166H9.09889ZM152.979 175.88C159.629 175.88 166.279 175.82 172.929 175.92C175.119 175.95 175.879 175.15 175.789 173C175.659 169.77 175.709 166.53 175.779 163.29C175.819 161.58 175.309 160.71 173.419 160.72C159.949 160.77 146.469 160.76 132.999 160.73C131.339 160.73 130.609 161.4 130.629 163.07C130.669 166.39 130.719 169.72 130.609 173.04C130.529 175.24 131.449 175.94 133.569 175.91C140.039 175.83 146.519 175.88 152.989 175.88H152.979ZM97.4889 179.53C97.4889 172.4 93.2489 166.51 86.5589 164.1C81.6989 162.35 76.6789 161.16 71.8389 159.32C69.8189 158.55 68.5889 155.38 66.1089 156.74C64.1989 157.79 62.8389 159.86 61.2389 161.47C61.1789 161.53 61.1189 161.6 61.0588 161.66C59.8689 162.69 59.6389 163.86 60.1189 165.42C62.0389 171.69 63.7989 178.01 65.6989 184.29C68.0889 192.23 75.7888 196.98 84.0589 195.69C91.6589 194.51 97.4989 187.5 97.4989 179.53H97.4889ZM152.969 195.86C159.619 195.86 166.269 195.82 172.919 195.89C174.829 195.91 175.889 195.44 175.789 193.26C175.659 190.55 175.709 187.84 175.769 185.12C175.809 183.42 175.089 182.79 173.419 182.8C159.949 182.83 146.469 182.83 132.999 182.8C131.349 182.8 130.589 183.46 130.619 185.14C130.659 187.76 130.719 190.39 130.599 193.01C130.499 195.2 131.419 195.92 133.539 195.89C140.009 195.8 146.489 195.86 152.959 195.86H152.969ZM106.119 92.63C105.439 93.24 105.099 93.51 104.809 93.81C95.7789 103.22 86.7489 112.63 77.7289 122.05C73.5489 126.41 69.4289 130.82 65.1889 135.13C63.8789 136.46 63.3289 137.33 65.3889 138.41C66.6189 139.05 67.6989 140.1 68.3389 141.34C69.3189 143.23 70.1189 142.63 71.1989 141.47C74.4989 137.97 77.8789 134.54 81.1989 131.05C87.2289 124.71 93.5189 118.6 99.1089 111.86C103.599 106.44 106.199 100.28 106.109 92.63H106.119ZM43.539 77.66C42.459 78.27 42.3289 79.19 41.9889 79.97C39.3089 86.19 39.1788 92.63 40.9288 99.02C44.4288 111.77 48.1989 124.43 51.8189 137.15C52.3389 138.97 52.9389 138.47 53.8389 137.45C55.0589 136.07 56.2989 134.71 57.6489 133.47C58.8889 132.34 59.1989 131.27 58.6889 129.56C54.5889 115.71 50.6289 101.82 46.6089 87.95C45.6189 84.54 44.579 81.15 43.539 77.68V77.66ZM152.809 128.56C157.359 128.56 161.909 128.58 166.449 128.54C167.339 128.54 168.519 128.85 168.729 127.43C169.169 124.39 165.759 120.39 162.699 120.38C156.399 120.36 150.099 120.49 143.809 120.32C140.949 120.24 139.359 121.36 138.649 124.02C138.449 124.78 138.199 125.54 137.859 126.24C137.029 127.96 137.539 128.6 139.419 128.58C143.879 128.52 148.339 128.56 152.799 128.56H152.809ZM153.609 84.35C152.679 84.74 152.579 85.18 152.509 85.6C151.079 94.21 149.659 102.82 148.219 111.43C147.939 113.13 148.629 113.88 150.349 113.84C152.269 113.79 154.199 113.79 156.119 113.84C157.709 113.88 158.299 113.33 157.999 111.64C157.269 107.52 156.689 103.36 156.029 99.22C155.249 94.32 154.439 89.43 153.609 84.34V84.35Z" fill="#F29073"/>
<path d="M36.6788 165.8C36.7088 172.24 31.7488 177.32 25.3088 177.45C19.0088 177.57 13.7588 172.43 13.6988 166.05C13.6288 159.52 18.7588 154.26 25.1788 154.26C31.5088 154.26 36.6489 159.42 36.6689 165.8H36.6788ZM25.1589 170.64C27.9189 170.65 30.0189 168.62 30.0289 165.92C30.0389 163.2 27.9788 161.18 25.2088 161.17C22.4288 161.17 20.3388 163.18 20.3288 165.88C20.3288 168.56 22.4289 170.63 25.1689 170.65L25.1589 170.64Z" fill="#F29073"/>
<path d="M69.4288 179.07C69.4388 172.64 74.5089 167.51 80.8689 167.48C87.3289 167.45 92.469 172.68 92.409 179.23C92.349 185.59 87.1289 190.76 80.8289 190.7C74.5189 190.64 69.4188 185.43 69.4288 179.06V179.07ZM80.8889 183.78C83.6789 183.79 85.7289 181.82 85.7589 179.12C85.7889 176.38 83.4489 173.99 80.8289 174.07C78.2489 174.15 76.0989 176.41 76.0889 179.05C76.0789 181.77 78.1089 183.77 80.8889 183.78Z" fill="#F29073"/>
</svg>
