<svg  viewBox="0 0 202 202" fill="none" xmlns="http://www.w3.org/2000/svg">
<path d="M26.2424 164.301C22.4824 160.531 20.1624 156.681 18.5524 152.381C16.3324 146.441 16.2424 140.341 17.3824 134.231C17.8724 131.621 17.2024 130.841 14.6824 131.141C13.4024 131.291 12.0824 131.201 10.7724 131.151C7.63239 131.051 6.34242 129.631 6.80242 126.511C7.61242 121.031 9.9124 116.361 14.7824 113.361C16.2024 112.491 16.7524 111.401 17.1024 109.851C19.2224 100.261 27.1424 93.941 36.9624 93.891C41.5224 93.871 46.0824 93.871 50.6424 93.891C60.3324 93.941 68.2624 100.201 70.3924 109.621C70.7924 111.391 71.4924 112.541 73.0424 113.541C77.8424 116.621 80.0824 121.341 80.7724 126.831C81.1324 129.671 79.8524 131.021 77.0124 131.141C75.4324 131.211 73.8424 131.251 72.2724 131.141C70.2424 130.991 69.7324 131.651 70.1224 133.711C71.3824 140.501 71.2524 147.231 68.5024 153.721C66.9024 157.481 64.7524 160.901 61.3524 164.221C65.6524 164.271 69.2124 164.341 72.6524 165.801C82.0024 169.761 87.5224 177.801 87.5524 187.981C87.5624 191.421 87.3724 194.881 87.6124 198.311C87.8124 201.271 86.3624 201.571 83.9424 201.621C81.3424 201.671 80.3124 200.961 80.3824 198.191C80.4824 193.831 80.7924 189.451 79.9524 185.111C78.7924 179.141 75.3624 175.081 69.7924 172.751C67.9624 171.981 66.9724 172.141 66.7124 174.541C66.1524 179.711 65.3224 184.861 64.5124 190.001C63.7624 194.751 61.8724 195.811 57.3424 194.071C53.5224 192.601 49.7224 191.081 45.9524 189.491C44.4724 188.861 43.1624 188.851 41.6824 189.481C38.1724 190.971 34.6124 192.331 31.0724 193.761C25.5224 196.001 23.8024 195.051 22.9524 189.231C22.2324 184.351 21.4124 179.491 20.8524 174.601C20.5924 172.291 19.6624 172.051 17.7324 172.761C11.5524 175.021 7.32239 181.301 7.15239 188.761C7.07239 192.201 7.03239 195.651 7.15239 199.091C7.26239 201.971 5.3224 201.571 3.5924 201.561C1.8824 201.551 -0.0776295 202.031 0.00237046 199.131C0.13237 194.481 -0.137634 189.811 0.122366 185.171C0.702366 174.631 10.9124 164.761 21.4724 164.331C22.8324 164.271 24.1924 164.331 26.2524 164.331L26.2424 164.301ZM44.0124 131.171C38.8924 131.171 33.7724 131.251 28.6624 131.131C26.6224 131.081 25.6324 131.831 25.1024 133.781C22.9224 141.821 24.1424 149.291 28.8824 156.091C35.0124 164.881 46.5324 166.561 54.8824 160.001C62.3224 154.161 65.5524 142.231 62.2724 133.141C61.6724 131.481 60.6324 131.141 59.0824 131.151C54.0624 131.201 49.0324 131.171 44.0124 131.171ZM43.5024 124.051C52.1524 124.051 60.7924 124.051 69.4424 124.031C70.2324 124.031 71.3224 124.421 71.7324 123.511C72.2024 122.491 71.1624 121.851 70.5824 121.181C68.4124 118.661 65.4724 117.801 62.3324 117.781C49.9624 117.721 37.6024 117.721 25.2324 117.781C22.0824 117.801 19.1424 118.661 16.9724 121.171C16.4024 121.841 15.3524 122.471 15.8124 123.491C16.2224 124.401 17.3124 124.011 18.1024 124.011C26.5624 124.031 35.0224 124.031 43.4824 124.031L43.5024 124.051ZM43.7024 110.641C49.1924 110.641 54.6724 110.661 60.1624 110.631C62.6624 110.611 62.9924 110.031 61.7624 107.851C59.9824 104.721 57.4124 102.401 53.8424 101.731C47.2224 100.481 40.5224 100.511 33.9124 101.691C30.3724 102.331 27.7124 104.561 25.8924 107.701C24.5624 110.011 24.8824 110.611 27.5324 110.621C32.9224 110.651 38.3224 110.621 43.7124 110.621L43.7024 110.641ZM28.8124 171.871C28.4824 176.401 29.2524 180.641 29.9924 184.881C30.1224 185.641 30.6824 185.681 31.2624 185.461C32.9124 184.841 34.5524 184.201 36.1824 183.521C37.2424 183.081 37.2424 182.391 36.5724 181.551C33.9824 178.321 31.4024 175.091 28.8124 171.861V171.871ZM58.7024 171.911C56.1624 175.091 53.6224 178.271 51.0924 181.461C50.7024 181.951 50.0624 182.611 50.8124 183.131C52.5824 184.351 54.6624 184.951 56.7124 185.541C57.4824 185.761 57.5524 185.031 57.6524 184.481C58.3724 180.391 59.0324 176.281 58.7024 171.911ZM43.8624 171.341C42.2024 171.581 39.7724 170.611 39.1124 171.811C38.3524 173.211 40.5824 174.471 41.5424 175.731C43.7224 178.601 43.8324 178.591 45.9724 175.811C46.9524 174.531 49.1424 173.191 48.5024 171.881C47.8624 170.571 45.4524 171.631 43.8624 171.331V171.341Z" fill="#8F509B"/>
<path d="M81.1424 0.0710162C97.4924 -0.138984 108.272 5.16102 117.332 14.441C120.832 18.021 120.902 18.031 124.362 14.471C135.622 2.91102 149.232 -1.88898 165.182 0.671016C185.832 3.98102 201.292 22.451 201.532 43.341C201.682 56.201 197.092 66.911 188.092 75.891C167.142 96.791 146.202 117.701 125.252 138.601C121.652 142.201 120.022 142.181 116.422 138.591C95.3524 117.551 74.2724 96.521 53.2224 75.461C42.6024 64.841 38.4824 51.911 40.6124 37.191C43.7224 15.721 62.3624 0.0810162 81.1324 0.0810162L81.1424 0.0710162ZM194.322 43.521C194.232 42.771 194.052 41.581 193.932 40.381C191.182 13.461 161.252 -1.29898 138.112 12.801C132.852 16.001 128.962 20.661 124.602 24.831C121.602 27.701 120.072 27.711 117.082 24.771C114.892 22.621 112.752 20.421 110.552 18.271C102.272 10.221 92.3724 6.46102 80.8624 7.66102C66.1324 9.19102 55.5624 16.941 50.1824 30.651C44.5824 44.921 47.1024 58.401 57.8324 69.381C77.9124 89.951 98.4824 110.031 118.802 130.371C120.342 131.911 121.342 131.941 122.892 130.381C143.152 110.121 163.472 89.921 183.752 69.671C190.832 62.601 193.892 53.811 194.322 43.521Z" fill="#8F509B"/>
<path d="M47.3224 198.071C47.1824 200.281 46.0424 201.491 43.7824 201.521C41.5324 201.551 40.1224 200.071 40.2624 197.801C40.3924 195.531 41.6924 194.441 43.9124 194.491C46.1824 194.551 47.2424 195.851 47.3224 198.071Z" fill="#8F509B"/>
<path d="M33.8924 137.481C36.0924 137.651 37.2524 138.841 37.2424 141.081C37.2424 143.321 35.7324 144.701 33.4524 144.541C31.1724 144.371 30.1224 143.031 30.2124 140.831C30.3024 138.551 31.6524 137.531 33.8824 137.491L33.8924 137.481Z" fill="#8F509B"/>
<path d="M57.3824 140.981C57.2924 143.201 56.2124 144.461 53.9424 144.541C51.6724 144.621 50.2324 143.191 50.3224 140.921C50.4024 138.661 51.6324 137.501 53.8724 137.511C56.1324 137.511 57.2624 138.761 57.3824 140.981Z" fill="#8F509B"/>
<path d="M140.772 85.4511C140.512 83.2611 141.852 80.0511 140.232 78.2511C138.562 76.3911 135.302 77.7411 132.742 77.5611C128.742 77.2711 125.412 75.6411 122.562 72.9111C121.632 72.0211 120.802 71.2111 119.562 72.5311C115.452 76.9111 110.222 78.0811 104.512 77.5211C101.662 77.2411 100.722 78.2411 100.912 81.1011C101.152 84.6211 100.902 88.1711 100.992 91.7011C101.042 93.6011 100.352 94.3111 98.4024 94.3411C93.8624 94.4111 93.8624 94.5011 93.8524 90.0511C93.8524 86.8911 93.7324 83.7211 93.8924 80.5611C94.0024 78.2711 93.2424 77.4211 90.8924 77.5111C87.0924 77.6611 83.3124 77.7611 79.7124 75.9011C69.5524 70.6411 67.0624 57.5811 74.8224 49.1711C76.2824 47.5911 77.0124 46.0211 77.2924 43.8511C78.5224 34.4811 87.4724 26.2311 98.5024 26.8111C108.092 27.3211 116.752 35.0611 117.672 44.6211C117.742 45.3611 117.622 46.2511 118.002 46.7911C118.772 47.8911 119.692 49.7011 120.972 49.3511C122.542 48.9111 123.902 47.5211 124.042 45.4611C124.462 38.9811 127.532 33.9411 132.832 30.3411C139.302 25.9411 146.282 25.5411 153.252 28.8511C159.942 32.0211 163.832 37.5311 164.552 44.9711C164.732 46.7911 165.712 47.8011 166.772 48.9511C175.032 57.9311 171.992 71.7511 160.752 76.4911C157.532 77.8511 154.172 77.6311 150.842 77.5111C148.482 77.4211 147.762 78.2911 147.852 80.5711C148.002 84.2911 147.772 88.0211 147.922 91.7311C148.042 94.8111 145.972 94.2511 144.172 94.3111C142.322 94.3711 140.542 94.4511 140.752 91.6911C140.902 89.7511 140.782 87.7811 140.782 85.4511H140.772ZM101.222 56.3811C102.122 56.5611 102.722 55.9911 103.252 55.5611C105.072 54.0611 106.402 54.3911 107.402 56.4711C107.562 56.8011 107.782 57.1211 108.022 57.3911C109.722 59.2911 109.502 60.7211 107.172 61.9711C105.382 62.9411 103.762 64.2311 102.052 65.3511C100.452 66.4011 100.852 68.0011 101.092 69.4011C101.322 70.7911 102.672 70.3811 103.642 70.4311C104.662 70.4811 105.692 70.4711 106.712 70.4311C111.722 70.1711 115.242 67.7111 116.562 63.5811C117.942 59.2711 116.662 55.6211 112.512 52.4111C110.992 51.2311 110.242 49.9311 110.352 47.9211C110.762 40.5211 105.022 34.3711 97.6224 34.1111C90.7724 33.8711 84.3524 39.8311 84.4424 46.9311C84.4824 49.8711 83.4924 51.5311 81.3324 53.2011C78.4124 55.4711 77.1824 58.6111 77.9324 62.3411C78.7424 66.3811 81.1724 68.8911 85.1824 69.9411C87.0124 70.4211 88.8624 70.5211 90.7124 70.4211C91.8124 70.3611 93.3924 71.0211 93.7224 69.2811C94.0424 67.6411 94.0924 66.0011 92.1824 64.9411C90.3124 63.9111 88.6024 62.6111 86.8424 61.3911C86.0924 60.8711 85.0824 60.3211 85.7024 59.1911C86.5824 57.5711 87.3524 55.6711 88.9424 54.7411C90.3424 53.9311 91.3324 55.7711 92.6024 56.2011C92.9224 56.3111 93.2624 56.3711 93.3924 56.4111C95.0424 54.5211 91.5524 50.2611 96.6324 50.3511C97.9124 50.3711 99.5024 49.8111 100.392 50.8011C101.762 52.3411 100.442 54.5811 101.222 56.3711V56.3811ZM148.422 56.5311C148.872 56.3011 149.432 56.1311 149.832 55.7811C151.902 53.9911 153.442 54.3811 154.562 56.8211C154.712 57.1511 154.942 57.4611 155.182 57.7411C156.612 59.3911 156.352 60.6311 154.442 61.7411C152.592 62.8111 150.892 64.1311 149.082 65.2611C147.442 66.2811 147.782 67.8511 147.992 69.2611C148.232 70.8711 149.692 70.3311 150.722 70.4111C151.552 70.4811 152.392 70.4411 153.232 70.4111C158.422 70.2511 162.072 67.8311 163.442 63.6711C164.892 59.2611 163.632 55.6911 159.312 52.2911C157.882 51.1711 157.172 49.9011 157.262 48.0111C157.632 40.4911 152.162 34.5011 144.662 34.0911C137.882 33.7211 131.392 39.6211 131.382 46.7711C131.382 49.7911 130.382 51.5511 128.142 53.2711C125.282 55.4711 124.152 58.5811 124.832 62.1911C125.592 66.2311 127.982 68.8011 131.982 69.8911C133.902 70.4111 135.842 70.4911 137.792 70.4011C138.822 70.3511 140.312 70.9011 140.612 69.3811C140.912 67.8911 141.222 66.2211 139.442 65.1611C138.082 64.3511 136.832 63.3811 135.522 62.5011C131.862 60.0511 131.952 60.1111 134.292 56.4211C135.512 54.4911 136.652 54.0311 138.482 55.5311C139.012 55.9611 139.602 56.5411 140.842 56.2811C140.842 54.8011 140.562 53.1911 140.902 51.7211C141.472 49.2911 143.652 50.4211 145.102 50.3711C150.162 50.1911 146.672 54.5111 148.422 56.5011V56.5311Z" fill="#8F509B"/>
</svg>
