<svg  viewBox="0 0 203 203" fill="none" xmlns="http://www.w3.org/2000/svg">
<path d="M104.136 193.884C98.3062 188.774 94.1862 182.724 91.9462 175.334C90.7062 171.224 91.1762 166.984 90.4862 162.844C89.7762 158.564 89.8862 158.544 85.6762 158.534C85.4862 158.534 85.3062 158.524 85.1162 158.534C82.8962 158.694 80.2362 157.664 78.5662 158.994C76.8662 160.354 78.1062 163.044 77.8862 165.134C77.6562 167.364 76.5561 168.584 74.2962 168.574C72.0261 168.574 70.8763 167.324 70.7763 165.094C70.7363 164.164 70.7562 163.224 70.7562 162.294C70.7462 158.664 69.3162 157.634 65.7262 158.564C64.6662 158.844 64.4562 159.514 64.4462 160.424C64.4462 161.824 64.4663 163.224 64.4163 164.624C64.3163 167.354 63.1263 168.644 60.7863 168.584C58.3363 168.514 57.3963 167.084 57.2763 164.774C56.9763 158.534 56.9463 158.534 50.5263 158.534C44.8363 158.534 44.8162 158.554 44.6362 164.204C44.4662 169.274 45.4862 174.044 48.1262 178.414C48.4662 178.974 48.8062 179.544 48.9962 180.164C49.5762 182.054 49.2462 183.744 47.4362 184.774C45.6162 185.804 43.9462 185.304 42.7162 183.714C40.3562 180.634 38.6962 177.114 37.9362 173.354C35.3762 160.784 38.0762 149.774 48.3362 141.364C49.9362 140.044 50.7262 138.754 50.6062 136.654C50.4362 133.764 50.5762 130.864 50.5662 127.964C50.5462 124.314 52.0162 121.364 55.1162 119.494C56.9162 118.414 57.3262 117.084 57.3262 115.134C57.2762 80.3839 57.2862 45.6239 57.2962 10.8739C57.2962 3.82387 61.6862 -0.356126 68.5762 0.0238737C73.5762 0.303874 77.5362 4.20387 77.8562 9.19387C77.9162 10.1239 77.8862 11.0639 77.8862 11.9939C77.8862 43.1039 77.8862 74.2139 77.8862 105.324C77.8862 109.974 77.0962 111.344 74.3862 111.394C71.5762 111.444 70.7462 110.024 70.7462 105.194C70.7462 74.5539 70.7462 43.9039 70.7462 13.2639C70.7462 12.1539 70.7762 11.0039 70.5162 9.92387C70.1662 8.45387 69.1662 7.35387 67.5762 7.36387C65.9962 7.37387 65.0362 8.49387 64.6462 9.95387C64.4363 10.7439 64.4362 11.6139 64.4362 12.4539C64.4362 46.4639 64.4562 80.4639 64.3762 114.474C64.3762 117.074 65.1262 118.004 67.7162 117.784C69.9462 117.594 72.1962 117.714 74.4362 117.754C80.5162 117.854 84.5262 121.904 84.6062 128.044C84.6462 131.124 84.6762 134.214 84.5962 137.294C84.5562 138.914 85.0362 140.094 86.3262 141.154C93.9562 147.454 97.8362 155.494 98.1462 165.494C98.5062 177.064 103.666 185.844 114.396 190.954C117.176 192.274 119.896 193.734 122.656 195.104C124.626 196.084 125.316 197.684 124.846 199.744C124.386 201.734 122.856 202.264 121.006 202.264C105.126 202.244 89.2362 202.434 73.3662 202.124C65.6162 201.974 58.6862 198.774 52.4262 194.244C50.4662 192.824 49.9962 190.954 51.2162 188.854C52.2962 186.984 54.4362 186.664 56.5862 188.104C59.9162 190.334 63.3462 192.304 67.3862 193.184C65.0962 190.764 62.7462 188.434 60.8462 185.724C60.3162 184.964 59.7062 184.204 59.3762 183.354C58.6262 181.424 58.8462 179.644 60.8062 178.484C62.6562 177.394 64.2762 178.004 65.5162 179.534C67.1562 181.564 68.6362 183.734 70.5462 185.544C74.4562 189.234 78.9062 191.934 84.2162 193.204C82.0762 190.984 79.8962 188.844 78.0962 186.374C77.3262 185.324 76.5262 184.234 76.0962 183.034C75.4362 181.204 75.8262 179.514 77.6862 178.464C79.4462 177.474 80.9562 178.034 82.2062 179.384C83.0262 180.274 83.6562 181.324 84.4262 182.274C89.5362 188.604 96.0463 192.594 104.156 193.904L104.136 193.884ZM85.5662 151.384C84.5862 149.464 83.3463 148.444 82.1663 147.414C72.5863 139.124 58.9162 140.544 50.6362 149.354C50.2162 149.804 49.5162 150.214 49.7962 150.974C49.9862 151.504 50.5863 151.374 51.0363 151.374C62.4063 151.374 73.7862 151.374 85.5762 151.374L85.5662 151.384ZM67.7062 124.904C67.2362 124.894 66.7762 124.894 66.3062 124.894C57.7862 124.894 57.5062 125.214 57.6762 133.684C57.7062 135.374 57.9162 136.054 59.8662 135.444C63.7562 134.224 67.7962 134.584 71.8062 134.684C73.6962 134.734 76.0562 136.724 77.1762 135.144C78.1562 133.774 77.5162 131.184 77.4462 129.144C77.3562 126.374 76.0362 125.044 73.2962 124.924C71.4361 124.844 69.5662 124.904 67.7062 124.904Z" fill="#DE6C92"/>
<path d="M182.546 202.264C179.186 202.264 175.816 202.244 172.456 202.264C170.066 202.274 168.436 201.424 168.346 198.774C168.266 196.344 169.606 195.164 172.566 195.134C178.176 195.094 183.776 195.124 189.386 195.114C190.226 195.114 191.086 195.174 191.906 195.024C193.606 194.704 194.986 193.774 194.976 191.924C194.976 190.194 193.606 189.364 192.046 188.984C191.416 188.834 190.736 188.754 190.106 188.824C187.176 189.134 185.186 188.194 183.836 185.334C182.526 182.574 179.246 181.584 176.386 182.824C174.076 183.814 171.976 184.164 169.766 182.654C168.426 181.744 167.236 182.434 166.236 183.374C162.316 187.064 157.806 189.004 152.306 188.884C149.606 188.824 147.216 190.004 145.996 192.764C145.296 194.344 145.426 195.194 147.476 195.134C150.836 195.034 154.206 195.084 157.566 195.124C160.616 195.154 161.916 196.214 161.956 198.614C161.996 201.034 160.676 202.224 157.716 202.244C152.576 202.284 147.436 202.284 142.296 202.244C139.106 202.214 138.106 201.204 138.036 198.054C137.976 194.974 137.776 191.854 139.386 189.024C142.026 184.354 145.896 181.714 151.396 181.654C156.026 181.604 156.386 181.224 156.586 176.774C156.766 172.727 154.903 169.99 150.996 168.564C142.196 165.324 134.666 160.364 129.346 152.444C126.916 148.824 125.816 144.854 126.286 140.484C126.436 139.064 126.716 137.694 127.626 136.564C128.796 135.094 130.326 134.474 132.086 135.324C133.746 136.134 134.846 137.594 134.166 139.434C132.596 143.654 134.436 146.984 136.826 150.024C141.676 156.164 148.186 159.864 155.566 162.214C158.126 163.034 157.966 161.074 158.096 159.754C158.606 154.554 158.956 149.334 159.386 144.124C159.846 138.544 160.246 132.954 160.846 127.384C161.046 125.504 160.596 124.814 158.696 124.854C155.146 124.934 151.596 124.914 148.046 124.854C145.286 124.814 143.576 123.364 143.776 121.164C144.006 118.624 145.676 117.724 148.046 117.734C151.786 117.754 155.526 117.664 159.256 117.754C161.306 117.804 161.456 116.984 160.746 115.384C160.106 113.944 159.106 112.904 157.666 112.274C155.896 111.494 154.866 110.264 154.766 108.214C154.666 106.314 153.476 105.064 151.626 104.774C149.456 104.434 148.446 103.324 148.036 101.164C147.276 97.1538 145.556 95.4138 142.486 95.0438C139.346 94.6638 137.416 95.8438 135.536 99.4838C134.386 101.714 132.796 102.614 130.286 101.974C128.016 101.394 125.836 101.594 123.996 103.304C122.996 104.244 122.936 104.944 124.236 105.654C125.946 106.574 127.486 107.594 129.616 107.734C134.796 108.074 138.496 112.444 138.536 117.814C138.576 123.324 134.856 127.674 129.566 128.164C128.246 128.284 127.056 128.494 125.886 129.234C119.296 133.354 112.306 132.334 107.316 126.444C106.186 125.114 104.966 124.454 103.456 125.024C101.766 125.654 102.496 127.294 102.646 128.474C104.176 140.414 105.796 152.354 107.356 164.284C107.536 165.674 107.676 167.074 107.676 168.474C107.676 170.314 106.636 171.454 104.886 171.834C103.036 172.234 101.516 171.634 100.726 169.844C100.356 169.004 100.166 168.064 100.046 167.144C98.2961 153.724 96.5661 140.294 94.8361 126.874C94.6361 125.294 94.2461 123.824 93.3461 122.414C89.5661 116.554 90.1762 109.564 94.7562 104.914C99.4562 100.144 106.356 99.4338 112.446 103.284C114.076 104.314 114.696 104.124 115.526 102.384C117.966 97.2638 121.946 94.2138 127.836 94.1938C129.066 94.1938 129.876 93.7138 130.686 92.7938C138.256 84.1938 149.956 85.9038 154.596 96.2638C154.826 96.7738 154.976 97.5638 155.366 97.7038C160.746 99.7738 161.436 105.954 165.576 109.214C167.996 111.124 168.746 114.354 168.776 117.604C168.816 122.564 168.526 127.504 168.056 132.434C167.866 134.414 168.456 135.714 170.196 136.834C173.976 139.274 177.306 142.274 179.976 145.964C183.706 151.124 185.466 156.774 182.766 162.804C179.996 169.004 174.186 170.684 167.996 171.294C166.436 171.444 164.736 171.084 164.476 173.444C164.326 174.764 164.436 175.294 166.016 175.154C170.536 174.764 175.076 175.344 179.636 174.994C183.616 174.694 186.806 176.854 189.276 179.864C190.246 181.044 191.236 181.584 192.796 181.674C198.566 181.994 202.506 186.454 202.386 192.304C202.276 197.994 198.176 202.094 192.386 202.194C189.116 202.254 185.846 202.204 182.576 202.204L182.546 202.264ZM127.916 120.994C129.646 120.714 131.046 119.824 131.046 118.024C131.046 116.114 129.666 114.714 127.766 115.094C125.346 115.574 123.706 114.754 121.986 113.264C119.366 111.004 115.656 111.294 113.446 113.694C111.316 116.014 111.266 119.684 113.326 122.094C115.346 124.454 119.336 124.924 121.926 122.814C123.736 121.344 125.386 119.924 127.926 121.004L127.916 120.994ZM167.916 163.904C168.926 163.734 169.956 163.644 170.936 163.364C175.936 161.924 177.686 158.174 175.576 153.464C174.096 150.144 171.646 147.594 168.936 145.274C167.536 144.084 166.966 144.304 166.806 146.204C166.406 151.124 165.886 156.044 165.366 160.954C165.166 162.884 165.606 164.134 167.916 163.904ZM101.616 117.714C103.316 117.974 104.436 117.564 104.546 115.474C104.636 113.794 105.316 112.204 106.296 110.814C107.296 109.384 106.876 108.624 105.256 108.294C101.556 107.534 97.3961 112.134 98.4261 115.774C98.9061 117.494 100.016 117.924 101.626 117.724L101.616 117.714Z" fill="#DE6C92"/>
<path d="M24.5362 202.264C19.8662 202.264 15.1962 202.304 10.5262 202.264C2.70621 202.184 -2.08379 195.074 0.896207 187.864C1.51621 186.354 1.55616 185.174 0.976163 183.644C-1.72384 176.524 1.35619 168.934 8.00619 165.934C14.7462 162.894 22.3861 165.504 25.9361 172.254C26.9461 174.174 28.0562 175.674 30.1562 176.354C30.6662 176.524 31.1361 176.904 31.5661 177.264C33.0061 178.464 33.5962 179.954 32.7662 181.744C31.9962 183.414 30.5461 184.084 28.8361 183.704C26.5761 183.194 24.3462 182.494 22.1562 181.714C20.7662 181.224 20.4561 179.904 20.2061 178.554C19.7161 175.834 18.4962 173.514 15.6662 172.684C13.0562 171.914 10.6262 172.444 8.84616 174.674C7.03616 176.944 7.02613 179.634 8.69613 182.204C10.4761 184.957 10.3695 187.544 8.37619 189.964C6.86619 191.804 7.31618 193.694 9.49618 194.734C10.5662 195.244 11.6861 195.134 12.7961 195.134C21.6661 195.134 30.5462 195.134 39.4162 195.154C42.4962 195.154 44.1262 196.454 44.1162 198.734C44.1062 201.014 42.4762 202.264 39.3862 202.274C34.4362 202.304 29.4862 202.274 24.5362 202.274V202.264Z" fill="#DE6C92"/>
<path d="M171.836 77.3938C177.956 77.3838 182.196 81.6438 182.176 87.7738C182.146 93.7338 177.906 97.9638 171.916 97.9838C165.916 98.0038 161.636 93.8238 161.586 87.8838C161.536 81.7238 165.746 77.4138 171.836 77.4038V77.3938ZM172.056 90.7038C173.626 90.2138 174.966 89.3038 174.796 87.4638C174.646 85.8538 173.466 84.6638 171.796 84.7638C170.056 84.8738 168.826 86.0938 168.966 87.9038C169.096 89.5238 170.316 90.4438 172.046 90.7038H172.056Z" fill="#DE6C92"/>
<path d="M191.916 121.524C185.956 121.494 181.766 117.234 181.766 111.244C181.766 105.134 186.056 100.904 192.196 100.944C198.156 100.984 202.346 105.224 202.356 111.224C202.356 117.324 198.056 121.564 191.916 121.534V121.524ZM195.066 111.324C194.826 109.664 193.906 108.444 192.286 108.314C190.476 108.174 189.256 109.394 189.146 111.144C189.046 112.814 190.236 114.004 191.836 114.144C193.656 114.304 194.626 113.014 195.066 111.324Z" fill="#DE6C92"/>
<path d="M0.106256 121.074C0.186256 115.054 4.5962 110.904 10.7962 111.034C16.6862 111.154 20.7762 115.504 20.6962 121.564C20.6162 127.584 16.2063 131.724 9.99627 131.604C4.11627 131.494 0.0262557 127.124 0.106256 121.064V121.074ZM10.3863 124.324C12.0263 124.034 13.2462 123.104 13.3162 121.474C13.3962 119.684 12.1763 118.424 10.4163 118.404C8.64631 118.394 7.42625 119.644 7.47625 121.434C7.52625 123.074 8.74627 124.004 10.3763 124.314L10.3863 124.324Z" fill="#DE6C92"/>
<path d="M20.3462 137.944C26.4862 137.904 30.7863 142.144 30.7863 148.244C30.7863 154.234 26.5962 158.484 20.6362 158.534C14.5062 158.574 10.2062 154.334 10.1962 148.234C10.1962 142.244 14.3862 137.984 20.3362 137.954L20.3462 137.944ZM23.4962 148.274C23.2462 146.634 22.2961 145.414 20.6761 145.314C18.8761 145.204 17.6162 146.434 17.5762 148.184C17.5362 149.954 18.7962 151.184 20.5762 151.154C22.2162 151.124 23.1562 149.904 23.4862 148.274H23.4962Z" fill="#DE6C92"/>
</svg>
