<svg  viewBox="0 0 165 140" fill="none" xmlns="http://www.w3.org/2000/svg">
<path d="M164.334 12.362C164.466 15.5702 163.42 18.7853 162.761 22.0489C158.666 42.3929 154.502 62.7231 150.372 83.0602C147.316 98.1033 144.337 113.16 141.226 128.19C139.078 138.563 128.954 142.609 120.48 136.248C112.123 129.971 104.072 123.291 95.999 116.653C94.2252 115.198 93.2274 115.288 91.606 116.854C86.6378 121.635 81.4825 126.222 76.4103 130.899C67.9221 138.729 57.1819 136.221 53.2531 125.349C49.5529 115.121 46.0537 104.825 42.4713 94.5556C41.1132 90.6614 39.7274 86.7811 38.4524 82.8592C37.9674 81.3625 36.928 80.7805 35.5491 80.3924C27.5459 78.1404 19.5566 75.84 11.5534 73.5741C8.94804 72.8396 6.36347 72.0566 4.08378 70.5253C-1.13388 67.0053 -1.39026 60.8245 3.53637 56.8887C6.55056 54.4843 10.2369 53.4865 13.743 52.1423C44.2867 40.4666 74.8512 28.8395 105.402 17.1847C119.281 11.8908 133.146 6.55534 147.032 1.26146C149.721 0.235948 152.513 -0.332242 155.396 0.208232C161.161 1.29611 164.376 5.63376 164.341 12.355L164.334 12.362ZM13.9232 63.0557C14.1518 63.7486 14.5537 63.7625 14.8725 63.8525C23.2013 66.2639 31.544 68.6544 39.8729 71.0866C40.933 71.3984 41.7992 71.1351 42.7208 70.6639C58.6717 62.4944 74.6295 54.3388 90.5874 46.1832C101.355 40.6814 112.123 35.1866 122.905 29.7126C125.593 28.3475 127.984 28.8118 129.612 30.8836C131.248 32.9693 131.019 35.5816 128.982 37.8405C127.79 39.1639 126.591 40.4736 125.372 41.7693C110.585 57.45 95.8119 73.1376 80.9905 88.7836C79.7917 90.0447 79.8957 90.7307 81.2191 91.7909C95.8258 103.48 110.384 115.225 124.97 126.936C129.086 130.241 130.534 129.77 131.587 124.621C135.662 104.707 139.66 84.7717 143.692 64.8434C147.122 47.9155 150.573 30.9875 153.975 14.0527C154.744 10.2347 153.954 9.61803 150.282 10.9276C150.15 10.9761 150.012 11.0246 149.88 11.0731C138.059 15.5979 126.245 20.1365 114.417 24.6474C83.7899 36.323 53.1491 47.9917 22.5223 59.6673C19.6397 60.7691 16.7849 61.9262 13.9301 63.0488L13.9232 63.0557ZM100.905 52.8075C100.822 52.7243 100.739 52.6412 100.655 52.558C100.33 52.6966 99.9972 52.8282 99.6853 52.9876C83.284 61.3719 66.9104 69.8047 50.4606 78.0919C48.368 79.1452 48.1047 80.136 48.8808 82.1801C50.8209 87.3008 52.5394 92.4977 54.3479 97.6668C56.392 103.487 58.4361 109.301 60.6118 115.489C60.9791 114.29 61.2701 113.5 61.4711 112.682C62.94 106.675 64.3328 100.646 65.8572 94.6526C66.6333 91.5899 67.1045 88.4857 69.5712 85.9912C75.7659 79.7203 81.7458 73.2277 87.7949 66.8113C92.1811 62.1618 96.5326 57.4846 100.905 52.8213V52.8075ZM69.4673 122.778C69.6197 122.861 69.7653 122.944 69.9177 123.034C74.8097 118.51 79.6947 113.971 84.6006 109.46C85.633 108.511 85.1203 107.929 84.2818 107.264C81.7111 105.24 79.1335 103.224 76.632 101.124C75.3086 100.016 74.9067 100.494 74.581 101.921C73.8465 105.109 72.9873 108.261 72.2112 111.435C71.2827 115.211 70.3889 118.995 69.4742 122.771L69.4673 122.778Z" fill="#8F509B"/>
</svg>
