<svg  viewBox="0 0 227 141" fill="none" xmlns="http://www.w3.org/2000/svg">
<path d="M134.287 36.3427C134.287 44.3112 134.274 52.2728 134.308 60.2413C134.308 61.1975 133.83 62.5279 134.842 63.0338C136.006 63.6089 136.851 62.3824 137.648 61.7034C142.374 57.6845 146.095 52.7717 149.608 47.7203C158.089 35.525 165.379 22.6368 171.22 8.97249C173.818 2.90255 177.872 -0.229428 184.704 0.0130925C192.763 0.297188 200.835 0.0408092 208.901 0.0962424C217.895 0.151676 222.96 7.22635 220.001 15.7215C214.77 30.7231 206.06 43.8331 197.329 56.9153C194.474 61.1906 191.404 65.3204 188.584 69.6165C185.625 74.1204 185.681 74.7233 189.513 78.6937C197.426 86.8909 205.422 94.991 212.753 103.729C217.652 109.57 221.477 116.07 224.817 122.86C228.815 131.002 223.188 140.121 214.139 140.204C204.459 140.294 194.779 140.252 185.099 140.211C180.061 140.19 176.437 137.834 173.555 133.67C165.399 121.89 155.158 112.085 143.884 103.327C143.725 103.202 143.552 103.098 143.365 103.015C141.923 102.371 140.496 100.895 138.909 101.664C137.121 102.53 137.981 104.56 137.946 106.071C137.849 110.81 137.953 115.55 137.897 120.289C137.759 131.854 129.922 139.31 118.447 139.726C95.9276 140.529 77.3851 131.321 60.5404 117.545C46.8968 106.383 37.2653 91.963 28.1258 77.1762C19.1594 62.6596 11.087 47.6718 5.22491 31.5962C3.11845 25.8242 1.19907 19.9898 0.180489 13.8922C-0.997468 6.86603 3.70743 0.560496 10.8791 0.324905C19.5406 0.0408092 28.2228 0.0823841 36.8842 0.324905C42.1088 0.477346 45.6565 3.33216 47.4027 8.41816C53.8329 27.1407 60.9908 45.5376 72.6595 61.7865C75.3064 65.4728 77.9187 69.1869 81.3417 72.2288C82.1524 72.9494 83.0116 74.0373 84.1688 73.6839C85.5823 73.2473 85.4437 71.6606 85.4576 70.5658C85.5962 60.4908 85.7902 50.4088 85.3745 40.3339C85.2705 37.8186 85.0072 35.3102 84.9033 32.788C84.6538 26.531 81.6466 21.4796 78.0157 16.6639C76.8031 15.0563 75.6182 13.4002 74.662 11.6402C71.7794 6.30477 75.1609 0.179392 81.2031 0.123959C95.3178 -0.00769494 109.432 -0.0146241 123.547 0.130888C129.742 0.193251 134.156 5.27925 134.239 12.1322C134.336 20.1977 134.26 28.2633 134.267 36.3288L134.287 36.3427ZM126.762 38.8233C126.762 30.3559 126.79 21.8884 126.748 13.421C126.728 9.92179 125.688 8.87548 122.231 8.86855C109.931 8.83391 97.6321 8.84777 85.3329 8.86855C84.5845 8.86855 83.5382 8.46666 83.1433 9.34667C82.7829 10.1504 83.656 10.7949 84.0718 11.4462C86.7326 15.5829 90.0794 19.2969 91.4513 24.2028C93.6202 31.9704 93.8835 39.9112 93.5301 47.8728C93.3014 53.1112 93.149 58.3358 93.5786 63.5742C93.925 67.8218 93.6271 72.0694 92.6501 76.1853C91.2989 81.8741 86.6217 84.043 81.2308 81.7771C77.8979 80.3774 75.2995 78.0007 72.9505 75.333C67.4557 69.1106 62.8686 62.2161 58.7526 55.0514C51.089 41.7197 45.6565 27.3902 40.7022 12.8805C39.8776 10.4761 38.8521 8.7854 35.9072 8.82698C28.0426 8.93092 20.178 8.82698 12.3204 8.88241C9.0013 8.91013 7.78178 10.5177 8.43312 13.7259C9.33391 18.1744 10.5465 22.5536 12.1125 26.8081C21.4322 52.1966 34.7293 75.4508 51.3454 96.6471C65.6264 114.864 83.9886 127.364 107.243 131.625C111.837 132.464 116.514 132.374 121.108 131.882C126.305 131.328 129.582 126.824 129.735 120.428C129.88 114.386 129.707 108.33 129.818 102.281C129.957 95.1227 135.424 91.4017 142.242 93.6537C144.951 94.5476 147.487 95.774 149.76 97.4647C161.727 106.376 172.086 116.873 180.692 129.076C181.842 130.711 182.951 132.104 185.203 132.097C194.883 132.062 204.556 132.145 214.236 132.048C217.721 132.014 218.899 129.886 217.292 126.775C214.201 120.767 210.861 114.926 206.448 109.729C198.299 100.112 189.513 91.0761 181.191 81.6178C177.581 77.5157 177.234 74.259 179.701 69.4363C182.147 64.6552 185.508 60.4838 188.563 56.1046C197.675 43.0224 206.323 29.663 212.178 14.7237C213.806 10.5593 212.628 8.88934 208.145 8.87548C200.281 8.84777 192.416 8.93092 184.558 8.83391C181.96 8.79926 180.616 9.81785 179.583 12.2223C172.19 29.5452 162.808 45.7317 151.326 60.664C148.139 64.8076 144.799 68.9305 139.969 71.3557C133.137 74.7787 126.839 70.9469 126.797 63.3386C126.748 55.1761 126.79 47.0066 126.776 38.8441L126.762 38.8233Z" fill="#8F509B"/>
</svg>
