<svg  viewBox="0 0 968 187" fill="none" xmlns="http://www.w3.org/2000/svg">
<path d="M62.2195 0.284569C67.867 -0.873823 71.526 1.50486 73.1875 7.41177C73.8238 9.985 74.1155 12.5494 74.0536 15.1137C73.9917 17.687 73.6294 20.2513 72.9931 22.8157C71.9678 26.5385 70.9073 30.2613 69.8202 33.984C68.7243 37.7068 67.2218 41.2439 65.2951 44.5776C64.1374 46.6291 63.1475 48.7867 62.3167 51.0328C61.4771 53.2788 60.5491 55.4983 59.5239 57.6824L49.5105 78.4805C49.2542 79.126 48.9979 79.8334 48.7416 80.6027C48.4853 81.372 48.229 82.2121 47.9727 83.1052L52.0205 84.4493C52.7894 84.7057 53.5936 84.9356 54.4244 85.1213C55.2552 85.3159 56.1301 85.5369 57.0228 85.7934C59.0732 86.5627 60.938 87.6591 62.5996 89.0651C64.2699 90.48 65.684 92.1159 66.8418 93.9729C67.9996 95.8387 68.8304 97.8283 69.343 99.9417C69.8556 102.064 69.9881 104.151 69.7318 106.202C69.7318 106.848 69.5374 107.361 69.1574 107.741L54.716 124.887C54.0709 125.532 53.4345 126.204 52.7894 126.912C52.1442 127.619 51.5697 128.415 51.0571 129.317C50.2882 130.343 49.5812 131.466 48.936 132.686C48.2997 133.906 47.5219 135.029 46.6293 136.055C44.7026 138.876 42.387 140.485 39.7003 140.874C37.0047 141.255 34.371 140.362 31.808 138.177C29.7575 136.763 29.3687 134.773 30.6502 132.209C32.8332 127.84 35.3697 123.799 38.2597 120.076C41.1497 116.354 44.1988 112.631 47.3982 108.908L50.8627 104.283C52.7894 101.33 53.2401 98.5357 52.2061 95.9006C51.1809 93.2654 48.9979 91.5058 45.6571 90.6038C44.1193 90.0909 42.5461 89.6399 40.9376 89.2597C39.3291 88.8706 37.8266 88.3666 36.4126 87.7211C35.3785 87.332 34.3886 86.7926 33.4253 86.0852C32.462 85.3777 31.3395 84.5819 30.058 83.68C34.3003 78.675 37.5968 73.502 39.9743 68.1699C42.3517 62.8466 44.5612 57.479 46.6116 52.085C48.5383 47.2038 50.4296 42.2962 52.2856 37.3531C54.1416 32.41 55.9711 27.4316 57.774 22.4266C58.7992 19.3405 59.3472 16.9353 59.4091 15.2022C59.4709 13.469 59.1881 11.3202 58.5429 8.747C56.6162 9.39252 54.9459 10.321 53.5406 11.5413C52.1265 12.7616 50.7743 14.0791 49.4928 15.494C46.7972 18.8365 44.2254 22.1702 41.7861 25.5127C39.3468 28.8553 37.2345 32.5162 35.4315 36.4954C34.5301 38.5557 33.7258 40.6072 33.0276 42.6587C32.3206 44.7191 31.6489 46.8325 31.0037 49.0166C29.5896 54.2869 27.9811 59.4864 26.1958 64.6151C24.3929 69.7527 23.3677 75.1468 23.1114 80.7972L21.1847 108.917C20.9284 112.26 20.8046 115.496 20.8046 118.644V128.371C20.6721 132.863 18.3919 134.402 13.9729 132.996L10.0665 131.652C7.4681 130.75 5.88609 129.918 5.31162 129.149C4.72831 128.38 4.56924 126.647 4.82554 123.95C5.33815 119.838 5.78887 115.735 6.16891 111.623C6.55778 107.511 6.80524 103.408 6.93781 99.2961C7.19411 92.2308 7.29135 85.2097 7.22948 78.2063C7.16761 71.2118 7.13225 64.173 7.13225 57.1165C7.25598 49.2819 6.77874 41.5445 5.68283 33.9044C4.59576 26.2644 3.08446 18.5889 1.15778 10.8869C0.901474 9.99383 0.707035 9.09186 0.574465 8.18991C0.450733 7.2968 0.256302 6.39485 0 5.4929C3.33193 4.46715 6.46057 4.40525 9.37711 5.29836C12.2936 6.20031 14.6622 7.93348 16.4829 10.4979C18.0384 12.9384 19.311 15.4763 20.2832 18.1114C21.2554 20.7465 21.7503 23.6027 21.7503 26.68C21.6266 30.0225 21.5559 33.3562 21.5559 36.6988V46.7175C22.3248 46.974 22.8992 47.1066 23.2881 47.1066C23.677 46.3373 24.1189 45.5326 24.6315 44.7014C25.1441 43.8702 25.533 43.0036 25.7893 42.1016C28.3523 33.6303 32.3029 26.2732 37.6322 20.048C42.9615 13.8227 49.0155 8.07496 55.8208 2.80471C56.7223 2.16804 57.7475 1.64633 58.8964 1.26609C60.0542 0.885859 61.1413 0.558683 62.1753 0.302245L62.2195 0.284569Z" fill="#83519C"/>
<path d="M84.3499 70.9819C84.6062 68.5413 85.1188 65.464 85.8877 61.7324C86.524 59.168 87.5934 57.1077 89.0606 55.569C90.5365 54.0304 92.3041 53.0047 94.3545 52.4918C96.4049 51.9789 98.5968 52.0054 100.903 52.5891C103.21 53.1727 105.455 54.3576 107.638 56.1527C109.176 57.5675 110.236 59.0442 110.811 60.5829C111.385 62.1215 111.739 63.7927 111.871 65.5878L112.26 79.8422C112.384 81.3809 112.578 82.9549 112.844 84.5642C113.1 86.1736 113.347 87.7476 113.613 89.2862C113.869 89.2862 114.099 89.3216 114.284 89.3835C114.479 89.4454 114.7 89.4808 114.956 89.4808C115.857 87.164 116.759 84.8295 117.651 82.4508C118.544 80.0721 119.384 77.7288 120.153 75.4209C121.178 72.0872 122.177 68.7447 123.14 65.4022C124.103 62.0685 125.155 58.7259 126.313 55.3834C127.471 52.3061 129.008 50.4049 130.935 49.6975C132.862 48.9901 135.487 49.3438 138.827 50.7586C141.39 51.7844 143.679 53.2611 145.659 55.1888C147.648 57.1165 149.345 59.2388 150.767 61.5467C151.404 62.5725 151.731 63.7309 151.731 65.0131C151.731 66.2953 151.669 67.5155 151.536 68.6739C151.413 70.6016 151.28 72.9803 151.148 75.8011C151.024 78.6308 150.891 81.5489 150.767 84.5642C150.635 87.5884 150.511 90.5065 150.379 93.3273C150.246 96.157 150.122 98.5976 149.99 100.649V101.224C149.733 102.382 149.442 104.018 149.124 106.132C148.805 108.254 148.514 110.464 148.257 112.772C148.001 115.089 147.71 117.3 147.391 119.422C147.073 121.536 146.782 123.18 146.525 124.33C145.88 126.77 145.306 128.663 144.793 130.016C144.28 131.369 143.547 132.262 142.575 132.713C141.611 133.164 140.365 133.296 138.818 133.102C137.281 132.907 135.168 132.43 132.464 131.66C131.05 131.404 129.707 130.953 128.425 130.307C127.144 129.662 125.659 129.025 123.997 128.38C124.51 127.354 124.89 126.487 125.155 125.78C125.411 125.073 125.8 124.533 126.313 124.144C130.422 120.81 131.642 116.566 129.972 111.428C129.972 111.172 129.91 110.88 129.777 110.562C129.645 110.243 129.715 110.014 129.972 109.89C131.129 108.351 131.96 106.742 132.473 105.07C132.985 103.399 133.339 101.675 133.533 99.8709C133.719 98.0759 133.852 96.2454 133.913 94.3796C133.975 92.5226 134.205 90.6922 134.585 88.8883C135.354 84.6527 136.026 80.3816 136.609 76.0752C137.183 71.7777 137.793 67.436 138.438 63.0765C138.695 62.0508 138.792 61.0869 138.73 60.1849C138.659 59.2918 137.926 58.328 136.512 57.2934L132.464 65.3845C129.123 72.9626 125.756 80.4701 122.353 87.9156C118.951 95.37 115.522 102.877 112.057 110.456C110.387 114.055 107.178 114.178 102.432 110.845C103.069 102.754 103.422 94.7333 103.493 86.7661C103.555 78.8076 103.078 70.7785 102.052 62.6874C101.796 62.6874 101.54 62.6609 101.283 62.5901C101.027 62.5282 100.771 62.4929 100.515 62.4929L99.1712 65.5701C98.4023 69.1691 97.7925 71.9015 97.3418 73.7584C96.891 75.6243 96.4403 77.2602 95.9895 78.6662C95.5388 80.081 94.929 81.655 94.1601 83.3881C93.3912 85.1213 92.2422 87.6591 90.6956 90.9928C89.7941 92.9205 89.3169 95.034 89.255 97.3507C89.1931 99.6675 89.034 101.914 88.7777 104.098L87.8144 110.65C87.4255 112.578 86.0822 113.666 83.7666 113.922C82.4851 114.055 81.2036 114.152 79.9221 114.214C78.6406 114.276 77.5446 113.665 76.652 112.383C74.7253 109.943 74.2746 107.184 75.2998 104.098C77.1027 98.8363 78.5787 93.5661 79.7276 88.3047C79.8514 88.0482 79.9221 87.7299 79.9221 87.3409L83.1921 76.9419H83.3865C83.5103 76.6854 83.581 76.3671 83.581 75.978C83.8373 74.6958 84.0847 73.0245 84.3499 70.973V70.9819Z" fill="#83519C"/>
<path d="M203.336 58.0716C206.279 58.9735 207.445 60.574 206.8 62.882C206.535 63.5275 206.314 64.1376 206.12 64.7124C205.934 65.296 205.643 65.9062 205.254 66.5429C202.425 71.424 199.155 76.1106 195.435 80.6027C191.714 85.1036 187.542 89.4012 182.92 93.5131C181.25 95.0517 179.615 96.6611 178.015 98.3235C176.406 99.9948 175.037 101.728 173.87 103.523C173.101 104.805 172.624 106.193 172.429 107.661C172.235 109.138 172.138 110.588 172.138 111.994C172.138 114.178 172.968 116.557 174.639 119.122C176.309 121.695 178.298 123.684 180.613 125.09C181.639 124.321 183.017 123.322 184.75 122.11C186.482 120.89 187.861 119.829 188.895 118.927C193.004 115.204 197.105 111.897 201.215 109.005C205.324 106.114 208.409 103.585 210.459 101.401C210.194 102.816 209.876 104.222 209.496 105.636C209.24 106.795 208.886 108.077 208.435 109.492C207.976 110.907 207.437 112.127 206.8 113.153C204.75 116.495 202.24 119.351 199.288 121.721C196.327 124.1 192.995 126.629 189.275 129.326C187.092 130.865 184.873 131.643 182.628 131.643C180.384 131.643 177.785 131.254 174.833 130.484C170.467 129.326 166.49 127.213 162.893 124.126C159.296 121.049 156.733 117.574 155.186 113.727C154.93 113.215 154.771 112.666 154.709 112.092C154.647 111.517 154.479 110.774 154.223 109.881C154.09 108.599 153.967 107.316 153.834 106.025C153.71 104.743 153.675 103.39 153.737 101.984C153.799 100.57 153.958 98.969 154.223 97.174C154.479 95.3789 154.992 93.2566 155.761 90.8161C156.786 86.8368 158.2 82.9195 160.003 79.0641C161.797 75.2087 163.529 71.3621 165.2 67.5067C165.836 66.0919 166.579 64.6859 167.409 63.2711C168.24 61.8562 169.115 60.4503 170.008 59.0354C170.512 58.2661 171.095 57.5322 171.74 56.8248C172.376 56.1173 173.021 55.4453 173.667 54.7998C176.097 52.2354 179.509 51.3334 183.866 52.1027C184.891 52.3592 185.978 52.4918 187.136 52.4918C188.294 52.4918 189.443 52.6156 190.6 52.8721C192.138 53.1285 193.358 53.5176 194.259 54.0304C197.079 55.8343 200.101 57.1784 203.309 58.0716H203.336ZM177.529 83.5031C186.641 74.3863 192.421 66.87 194.86 60.9631C192.297 60.1938 190.662 59.8401 189.955 59.902C189.248 59.9639 188.249 60.7067 186.977 62.1127C184.149 65.0661 181.904 68.2141 180.242 71.5478C178.572 74.8903 177.352 78.3567 176.583 81.9468C176.583 82.2033 176.68 82.4597 176.875 82.7161C177.069 82.9726 177.29 83.229 177.547 83.4854L177.529 83.5031Z" fill="#83519C"/>
<path d="M231.061 134.738C231.564 134.225 232.439 133.261 233.659 131.846C234.879 130.431 236.098 128.955 237.318 127.416C238.538 125.877 239.66 124.401 240.685 122.986C241.711 121.571 242.356 120.669 242.612 120.289C245.175 117.724 247.773 114.7 250.407 111.234C253.041 107.767 255.957 104.681 259.166 101.984C257.628 105.062 256.408 107.608 255.507 109.589C254.605 111.579 253.739 113.383 252.908 114.983C252.069 116.592 251.203 118.193 250.31 119.793C249.408 121.403 248.198 123.357 246.66 125.665C244.088 130.926 241.392 134.685 238.573 136.931C235.745 139.177 232.961 140.362 230.195 140.494C227.437 140.618 224.83 139.946 222.399 138.469C219.96 136.993 217.777 135.286 215.851 133.367L208.338 125.656L204.679 114.099C204.556 106.777 204.874 99.5526 205.643 92.4254C206.412 85.2982 208.082 78.2682 210.654 71.3356C211.679 68.2495 213.12 65.3048 214.984 62.4752C216.84 59.6543 218.67 56.7628 220.473 53.8093C220.729 53.2965 221.171 52.819 221.816 52.368C222.453 51.917 223.036 51.696 223.548 51.696C228.683 51.5722 233.686 51.9878 238.564 52.9516C243.443 53.9155 248.321 55.1004 253.2 56.5152C253.456 56.6478 253.677 56.8424 253.872 57.09C254.066 57.3464 254.287 57.6029 254.543 57.8593C251.591 61.2018 249.665 64.8273 248.763 68.7447C247.862 72.662 246.907 76.6147 245.873 80.5939C245.484 82.1325 245.007 83.6711 244.433 85.2186C243.849 86.7572 243.301 88.234 242.798 89.6488C240.358 89.0121 238.688 87.9775 237.795 86.5715C236.894 85.1567 236.567 83.1052 236.832 80.4082C237.088 78.1002 237.345 75.7569 237.601 73.3782C237.857 70.9995 238.105 68.5943 238.37 66.1538C238.626 65.128 238.759 64.0669 238.759 62.9704C238.759 61.8739 238.82 60.4325 238.953 58.6375C237.539 59.283 236.293 59.8312 235.197 60.2733C234.101 60.7155 233.306 61.2638 232.793 61.9093C231.892 62.935 231.087 64.0934 230.38 65.3756C229.673 66.6578 229.187 68.0107 228.94 69.4167C228.038 73.2721 227.207 77.1187 226.438 80.9741C225.67 84.8295 225.024 88.7468 224.512 92.726C224.132 96.0686 223.999 99.3403 224.132 102.55C224.255 105.76 224.132 109.041 223.743 112.375C223.098 117.645 223.867 122.269 226.058 126.24C226.695 127.655 227.437 128.999 228.268 130.281C229.099 131.563 230.036 133.04 231.061 134.711V134.738Z" fill="#83519C"/>
<path d="M348.871 113.356C350.674 110.792 352.371 108.537 353.971 106.618C355.579 104.69 357.409 103.09 359.459 101.799C359.079 104.115 358.593 106.034 358.019 107.582C357.435 109.12 356.861 110.535 356.286 111.817C355.712 113.1 355.093 114.355 354.457 115.576C353.821 116.796 353.175 118.175 352.53 119.714C350.347 121.898 348.164 123.41 345.981 124.241C343.798 125.081 341.651 125.435 339.53 125.303C337.408 125.179 335.323 124.666 333.272 123.764C331.213 122.871 329.357 121.836 327.687 120.678C326.529 117.857 326.246 114.612 326.821 110.951C327.404 107.29 328.235 103.726 329.322 100.26C330.409 96.7937 331.469 93.7076 332.494 91.0106C333.52 88.3135 334.032 86.5185 334.032 85.6165C333.387 86.2621 332.265 87.7388 330.665 90.0467C329.056 92.3547 327.36 94.8572 325.565 97.5542C323.763 100.251 322.101 102.727 320.563 104.973C319.025 107.219 318.124 108.537 317.868 108.917L309.206 118.352C308.95 118.609 308.561 118.9 308.049 119.219C307.536 119.546 307.023 119.767 306.511 119.891C305.229 120.023 303.877 119.794 302.463 119.219C301.049 118.644 299.732 117.875 298.521 116.911C297.293 115.947 296.276 114.859 295.446 113.63C294.606 112.41 294.129 111.163 293.996 109.872C293.74 107.688 293.713 105.406 293.899 103.037C294.093 100.658 294.252 98.3854 294.385 96.2012C294.385 95.5645 294.447 94.53 294.579 93.1151C294.703 91.7003 294.871 90.1617 295.066 88.4904C295.26 86.8191 295.419 85.2186 295.543 83.6711C295.667 82.1325 295.799 80.9122 295.932 80.0103C294.129 81.1686 292.432 82.9283 290.832 85.307C289.224 87.6857 288.101 89.5162 287.465 90.7983C285.927 93.7518 284.159 96.4842 282.171 98.9867C280.182 101.489 278.353 104.16 276.682 106.98C275.914 108.263 275.012 109.483 273.987 110.641C272.962 111.8 271.936 112.949 270.911 114.108C270.266 114.877 269.754 115.682 269.373 116.513C268.985 117.353 268.605 118.122 268.216 118.821C267.836 119.528 267.385 120.015 266.872 120.271C266.36 120.527 265.715 120.466 264.946 120.076L261.287 118.538C257.946 117.123 255.736 115.425 254.649 113.436C253.553 111.446 253.209 108.59 253.589 104.867C253.712 103.709 253.81 102.55 253.88 101.401C253.942 100.242 253.978 99.084 253.978 97.9344C253.978 97.8106 254.172 97.0678 254.552 95.7149C254.941 94.3708 255.003 93.5042 254.747 93.1151C255.383 89.7814 255.869 86.4035 256.187 82.9991C256.505 79.5947 256.735 75.9692 256.859 72.1137C256.983 71.6009 257.018 71.088 256.956 70.5751C256.894 70.0622 256.859 69.4875 256.859 68.8419C259.422 67.4271 261.958 66.985 264.468 67.489C266.969 68.0019 269.506 68.5148 272.069 69.0277C273.227 69.2841 273.925 69.9296 274.19 70.9553C274.446 71.9811 274.579 73.1395 274.579 74.4217C274.323 78.4009 274.128 82.3889 273.996 86.3681C273.872 90.3474 273.678 94.5919 273.412 99.0839L277.46 94.079L292.67 77.3221C296.913 72.6974 302.419 71.4152 309.233 73.4667C310.002 76.0399 310.444 78.6396 310.576 81.2659C310.7 83.901 310.638 86.5627 310.382 89.2597C310.125 91.9567 309.799 94.6891 309.418 97.4481C309.038 100.207 308.844 103.001 308.844 105.831L312.308 102.745C313.334 101.463 314.589 100.021 316.065 98.4119C317.541 96.8114 319.008 95.1666 320.492 93.5042C321.968 91.8329 323.409 90.1971 324.823 88.5965C326.237 86.996 327.457 85.5458 328.482 84.2636C329.118 82.8488 330.091 81.5401 331.372 80.3109C332.654 79.0906 334.032 78.0649 335.508 77.2336C336.984 76.4024 338.46 75.7835 339.936 75.4032C341.412 75.0142 342.729 75.0142 343.878 75.4032C345.928 76.1726 346.768 77.6492 346.379 79.8334C345.61 84.3343 344.841 88.791 344.063 93.2212C343.295 97.6514 342.455 102.117 341.562 106.609C341.173 108.661 340.952 110.747 340.891 112.87C340.829 114.992 341.377 117.203 342.526 119.519C343.683 118.75 344.77 117.724 345.796 116.433C346.821 115.151 347.846 114.125 348.871 113.356Z" fill="#83519C"/>
<path d="M403.366 58.0716C406.318 58.9735 407.476 60.574 406.831 62.882C406.575 63.5275 406.345 64.1376 406.159 64.7124C405.974 65.296 405.682 65.9062 405.293 66.5429C402.465 71.424 399.195 76.1106 395.474 80.6027C391.753 85.1036 387.582 89.4012 382.959 93.5131C381.289 95.0517 379.654 96.6611 378.054 98.3235C376.446 99.9948 375.076 101.728 373.909 103.523C373.14 104.805 372.663 106.193 372.469 107.661C372.274 109.138 372.177 110.588 372.177 111.994C372.177 114.178 373.008 116.557 374.678 119.122C376.349 121.695 378.337 123.684 380.644 125.09C381.669 124.321 383.057 123.322 384.789 122.11C386.521 120.89 387.9 119.829 388.934 118.927C393.044 115.204 397.144 111.897 401.254 109.005C405.364 106.114 408.448 103.585 410.499 101.401C410.242 102.816 409.915 104.222 409.535 105.636C409.279 106.795 408.917 108.077 408.475 109.492C408.024 110.907 407.476 112.127 406.84 113.153C404.789 116.495 402.279 119.351 399.327 121.721C396.376 124.1 393.044 126.629 389.314 129.326C387.131 130.865 384.921 131.643 382.677 131.643C380.432 131.643 377.825 131.254 374.882 130.484C370.516 129.326 366.53 127.213 362.941 124.126C359.344 121.049 356.781 117.574 355.235 113.727C354.978 113.215 354.819 112.666 354.749 112.092C354.687 111.517 354.528 110.774 354.271 109.881C354.139 108.599 354.015 107.316 353.882 106.025C353.75 104.743 353.723 103.39 353.785 101.984C353.847 100.57 354.006 98.969 354.271 97.174C354.528 95.3789 355.04 93.2566 355.809 90.8161C356.834 86.8368 358.24 82.9195 360.042 79.0641C361.845 75.2087 363.578 71.3621 365.239 67.5067C365.876 66.0919 366.618 64.6859 367.458 63.2711C368.288 61.8562 369.154 60.4503 370.056 59.0354C370.569 58.2661 371.152 57.5322 371.788 56.8248C372.433 56.1173 373.07 55.4453 373.715 54.7998C376.154 52.2354 379.557 51.3334 383.914 52.1027C384.939 52.3592 386.035 52.4918 387.193 52.4918C388.351 52.4918 389.5 52.6156 390.657 52.8721C392.204 53.1285 393.415 53.5176 394.316 54.0304C397.144 55.8343 400.158 57.1784 403.366 58.0716ZM377.568 83.5031C386.68 74.3863 392.46 66.87 394.9 60.9631C392.328 60.1938 390.693 59.8401 389.994 59.902C389.287 59.9639 388.289 60.7067 387.016 62.1127C384.188 65.0661 381.943 68.2141 380.282 71.5478C378.611 74.8903 377.391 78.3567 376.623 81.9468C376.623 82.2033 376.72 82.4597 376.914 82.7161C377.1 82.9726 377.33 83.229 377.586 83.4854L377.568 83.5031Z" fill="#83519C"/>
<path d="M500.885 62.2807C500.629 66.2599 500.47 70.1772 500.408 74.0326C500.346 77.888 500.249 81.8053 500.116 85.7846C499.86 89.1271 499.568 92.3989 499.25 95.6088C498.932 98.8187 498.967 102.029 499.347 105.238C499.471 106.91 499.542 108.837 499.542 111.013C499.542 113.188 499.444 115.443 499.25 117.751C499.055 120.068 498.87 122.305 498.675 124.498C498.481 126.682 498.322 128.61 498.189 130.272L496.457 140.671C495.688 146.834 494.274 152.777 492.215 158.489C490.164 164.201 487.274 169.631 483.554 174.769C481.247 178.102 478.171 180.543 474.318 182.09C471.11 183.372 467.866 184.434 464.596 185.265C461.317 186.096 458.012 186.644 454.68 186.901C452.629 187.024 451.18 186.803 450.349 186.229C449.51 185.645 448.909 184.398 448.52 182.47C447.238 176.431 446.752 170.595 447.079 164.944C447.397 159.294 449.359 153.776 452.948 148.382C455.131 145.039 457.923 142.148 461.326 139.716C464.729 137.276 468.29 135.737 472.011 135.091C472.135 136.506 471.852 137.629 471.145 138.46C470.438 139.292 469.634 140.034 468.732 140.68C463.854 144.403 460.451 148.736 458.533 153.679C456.607 158.622 455.325 163.98 454.68 169.764C454.68 171.178 454.874 172.522 455.263 173.805C455.776 176.245 457.508 177.209 460.46 176.696C463.792 176.051 466.452 174.733 468.449 172.744C470.447 170.754 471.949 168.278 472.975 165.325C474 162.247 474.99 158.905 475.953 155.306C476.916 151.707 477.782 148.019 478.551 144.226C479.32 140.432 479.965 136.71 480.478 133.058C480.991 129.397 481.379 125.957 481.636 122.756C481.636 122.367 481.698 121.244 481.821 119.387C481.945 117.53 482.14 115.275 482.405 112.649C482.661 110.014 482.917 107.193 483.174 104.177C483.43 101.162 483.651 98.3058 483.845 95.6088C484.04 92.9118 484.199 90.5331 484.331 88.4816C484.455 86.4301 484.526 85.0771 484.526 84.4405C484.27 84.6969 483.783 85.8553 483.085 87.9068C482.378 89.9671 481.574 92.4342 480.672 95.3258C479.771 98.2174 478.869 101.295 477.977 104.575C477.075 107.847 476.209 110.898 475.378 113.727C474.548 116.557 473.805 118.927 473.169 120.855C472.524 122.782 472.135 123.808 472.011 123.932C470.853 125.09 469.377 125.983 467.583 126.629C465.78 127.266 463.986 127.496 462.192 127.301C460.389 127.106 458.754 126.532 457.287 125.568C455.811 124.604 454.812 123.03 454.3 120.846L450.65 106.397C450.393 106.008 450.261 105.566 450.261 105.044C450.261 104.522 450.128 103.956 449.872 103.311L450.066 103.505C449.554 99.7825 449.483 96.0863 449.872 92.4254C450.261 88.7646 450.959 84.2371 451.993 78.843C452.886 75.5093 453.787 72.2641 454.689 69.1161C455.59 65.9681 456.545 62.7316 457.579 59.3891C458.215 57.3376 459.178 55.6664 460.469 54.3842C461.75 53.102 463.544 52.2707 465.86 51.8817C469.192 51.4926 472.533 51.077 475.873 50.626C479.205 50.175 482.546 50.4668 485.887 51.4926C486.399 51.6252 486.85 51.7844 487.23 51.9789C487.619 52.1735 488.132 52.3945 488.768 52.651C487.999 56.3737 486.011 57.7886 482.802 56.8867C480.619 56.25 478.887 56.3384 477.606 57.1784C476.324 58.0185 475.361 59.3272 474.716 61.1223C473.178 64.8451 471.693 68.6032 470.288 72.3879C468.874 76.1814 467.981 80.1252 467.592 84.2371C467.336 87.447 467.08 90.6303 466.823 93.7695C466.567 96.9175 466.434 100.03 466.434 103.107C466.311 105.168 466.434 107.184 466.823 109.173C467.212 111.163 467.53 113.25 467.787 115.434H468.944C469.201 115.045 469.492 114.665 469.811 114.276C470.129 113.895 470.42 113.444 470.677 112.932C472.347 107.281 474.017 101.728 475.679 96.272C477.349 90.816 478.887 85.2628 480.301 79.6123C480.938 77.6846 481.203 75.695 481.07 73.6435C480.938 71.592 481.008 69.5317 481.265 67.4802C481.388 65.0396 481.768 63.5275 482.422 62.9527C483.059 62.378 484.605 61.7678 487.045 61.1223C491.534 59.9639 496.157 60.353 500.903 62.2807H500.885ZM449.872 102.736C449.748 102.612 449.678 102.418 449.678 102.152L449.872 102.736Z" fill="#83519C"/>
<path d="M557.872 106.972C559.286 104.407 560.63 102.152 561.92 100.233C563.202 98.3058 564.74 96.7053 566.542 95.4142C566.542 97.731 566.383 99.6499 566.056 101.197C565.738 102.736 565.385 104.151 564.996 105.433C564.607 106.715 564.192 107.971 563.75 109.191C563.299 110.411 562.884 111.791 562.495 113.33C560.692 115.514 558.774 117.026 556.723 117.857C554.664 118.697 552.578 119.042 550.466 118.918C548.354 118.794 546.171 118.281 543.917 117.379C541.672 116.486 539.648 115.452 537.854 114.293C536.316 111.473 535.512 108.227 535.442 104.566C535.38 100.906 535.636 95.7415 536.21 89.0564C536.785 82.3801 537.368 77.6935 537.943 74.9965C538.517 72.2995 538.738 70.5044 538.614 69.6025C538.102 70.248 536.564 76.314 533.992 87.8095C531.42 99.305 530.077 105.238 529.944 105.628L522.821 115.063C522.565 115.319 522.211 115.611 521.76 115.929C521.31 116.256 520.832 116.478 520.32 116.601C519.038 116.734 517.651 116.504 516.175 115.929C514.699 115.354 513.249 114.585 511.844 113.621C510.43 112.657 509.21 111.57 508.185 110.35C507.16 109.129 506.515 107.882 506.258 106.591C505.622 104.407 505.198 102.135 505.012 99.756C504.818 97.3773 506.621 98.6684 510.403 103.611C514.186 108.554 517.235 110.447 519.542 109.297L523.395 99.473C524.164 98.1908 525.711 92.9913 528.018 83.8657C530.333 74.7489 531.933 69.5494 532.834 68.2584C533.214 66.8435 533.948 65.5348 535.044 64.3145C536.14 63.0942 537.359 62.0685 538.703 61.2284C540.046 60.3972 541.434 59.787 542.848 59.398C544.253 59.0177 545.543 59.0177 546.701 59.398C548.884 60.1673 549.971 61.644 549.971 63.8282C549.971 68.3291 549.936 74.3952 549.874 82.0353C549.812 89.6754 549.644 95.7414 549.388 100.242C549.388 102.294 549.512 104.381 549.777 106.503C550.033 108.625 550.935 110.836 552.472 113.153C553.498 112.383 554.426 111.358 555.265 110.067C556.096 108.784 556.962 107.759 557.864 106.989L557.872 106.972Z" fill="#83519C"/>
<path d="M581.744 109.669H581.549C578.854 109.032 576.282 108.033 573.843 106.68C571.403 105.336 569.415 103.373 567.877 100.808C566.843 98.7568 566.171 96.9883 565.853 95.5115C565.535 94.0348 565.464 92.4961 565.659 90.8868C565.853 89.2862 565.782 86.7749 565.464 83.3705C565.146 79.966 566.012 77.0126 568.063 74.5101C570.113 72.0077 572.261 69.5936 574.514 67.2856C576.759 64.9777 578.969 62.599 581.152 60.1584C582.433 58.7436 583.785 57.7798 585.199 57.2669C586.614 56.754 588.346 56.8159 590.396 57.4614C592.447 58.1069 594.471 58.6198 596.459 59C598.448 59.3803 600.41 60.2823 602.336 61.6971C604.767 63.501 606.252 64.845 606.764 65.7382C607.02 66.3837 607.082 67.3475 606.959 68.6297L605.032 74.6074C605.288 74.8638 605.545 75.1822 605.801 75.5713C607.471 78.1445 607.728 81.6108 606.57 85.9702L600.993 114.479C600.604 114.868 600.445 115.381 600.507 116.018C600.569 116.663 600.666 117.627 600.799 118.909C602.469 117.371 603.971 115.956 605.324 114.674C606.667 113.391 607.984 112.171 609.274 111.013C611.457 108.829 613.764 106.618 616.203 104.372C618.634 102.126 621.913 99.0751 626.022 95.2197C624.352 101.259 622.107 106.777 619.288 111.782C616.46 116.787 613.446 121.217 610.238 125.073C608.823 126.744 607.348 128.15 605.81 129.308C604.272 130.467 602.663 131.554 601.002 132.58C599.331 133.738 597.467 134.021 595.416 133.447C593.366 132.872 592.146 131.908 591.757 130.555C591.368 129.211 590.599 127.442 589.442 125.258C588.284 123.074 587.771 120.89 587.904 118.706C587.904 118.069 587.966 117.362 588.098 116.592C585.27 120.828 581.611 124.294 577.13 126.991C574.17 128.663 571.386 129.618 568.752 129.883C566.118 130.139 563.776 129.432 561.726 127.77C560.957 126.868 560.153 125.55 559.313 123.817C558.482 122.084 557.678 120.13 556.9 117.945C556.131 115.761 555.362 113.418 554.593 110.915C553.825 108.413 553.056 106.008 552.278 103.691C553.303 104.204 554.426 105.168 555.645 106.583C556.865 107.997 558.058 109.536 559.207 111.207C560.365 112.879 561.425 114.514 562.38 116.115C563.343 117.724 564.209 118.785 564.978 119.298C566.136 120.324 567.356 121.288 568.628 122.19C569.91 123.083 571.518 123.543 573.445 123.543C576.008 121.102 577.74 118.467 578.642 115.646C579.278 113.595 580.312 111.605 581.717 109.677L581.744 109.669ZM586.941 99.0751C587.064 98.6949 587.197 98.3058 587.329 97.9167C587.966 96.5019 588.735 95.1578 589.636 93.8756C590.538 92.5934 591.439 91.2405 592.332 89.8345L592.526 90.2148L598.492 70.7609C596.689 69.6025 595.346 68.6386 594.444 67.8693C591.103 68.3822 588.187 69.9915 585.686 72.6886C583.184 75.3856 581.063 78.6574 579.331 82.5128C577.599 86.3682 577.723 89.8699 579.72 93.009C581.708 96.157 582.866 98.2793 583.184 99.3669C583.503 100.463 583.732 101.259 583.856 101.772C584.492 101.135 585.138 100.614 585.783 100.233C586.287 99.8444 586.675 99.4642 586.941 99.0751Z" fill="#83519C"/>
<path d="M708.808 62.2807C708.551 66.2599 708.384 70.1772 708.322 74.0326C708.26 77.888 708.163 81.8053 708.03 85.7846C707.774 89.1271 707.482 92.3989 707.164 95.6088C706.837 98.8187 706.872 102.029 707.261 105.238C707.385 106.91 707.447 108.837 707.447 111.013C707.447 113.188 707.35 115.443 707.164 117.751C706.97 120.068 706.775 122.305 706.581 124.498C706.386 126.682 706.227 128.61 706.094 130.272L704.362 140.671C703.593 146.834 702.179 152.777 700.129 158.489C698.07 164.201 695.188 169.631 691.468 174.769C689.152 178.102 686.076 180.543 682.223 182.09C679.015 183.372 675.771 184.434 672.501 185.265C669.231 186.096 665.917 186.644 662.585 186.901C660.526 187.024 659.085 186.803 658.254 186.229C657.415 185.645 656.814 184.398 656.425 182.47C655.143 176.431 654.657 170.595 654.984 164.944C655.303 159.294 657.265 153.776 660.862 148.382C663.045 145.039 665.829 142.148 669.24 139.716C672.643 137.276 676.204 135.737 679.925 135.091C680.049 136.506 679.766 137.629 679.059 138.46C678.352 139.292 677.548 140.034 676.646 140.68C671.768 144.403 668.365 148.736 666.447 153.679C664.521 158.622 663.239 163.98 662.603 169.764C662.603 171.178 662.788 172.522 663.177 173.805C663.69 176.245 665.422 177.209 668.374 176.696C671.715 176.051 674.375 174.733 676.363 172.744C678.352 170.754 679.854 168.278 680.888 165.325C681.914 162.247 682.912 158.905 683.867 155.306C684.83 151.707 685.696 148.019 686.465 144.226C687.234 140.432 687.87 136.71 688.392 133.058C688.896 129.397 689.285 125.957 689.55 122.756C689.55 122.367 689.612 121.244 689.744 119.387C689.868 117.53 690.062 115.275 690.319 112.649C690.575 110.014 690.831 107.193 691.088 104.177C691.344 101.162 691.574 98.3058 691.759 95.6088C691.945 92.9118 692.113 90.5331 692.237 88.4816C692.36 86.4301 692.431 85.0771 692.431 84.4405C692.175 84.6969 691.697 85.8553 690.99 87.9068C690.283 89.9671 689.479 92.4342 688.578 95.3258C687.676 98.2174 686.775 101.295 685.882 104.575C684.98 107.847 684.114 110.898 683.284 113.727C682.453 116.557 681.71 118.927 681.074 120.855C680.429 122.782 680.04 123.808 679.916 123.932C678.759 125.09 677.283 125.983 675.488 126.629C673.686 127.266 671.9 127.496 670.097 127.301C668.294 127.106 666.659 126.532 665.192 125.568C663.716 124.604 662.718 123.03 662.214 120.846L658.555 106.397C658.299 106.008 658.166 105.566 658.166 105.044C658.166 104.522 658.042 103.956 657.777 103.311L657.972 103.505C657.459 99.7825 657.397 96.0863 657.777 92.4254C658.166 88.7646 658.873 84.2371 659.898 78.843C660.8 75.5093 661.701 72.2641 662.594 69.1161C663.486 65.9681 664.45 62.7316 665.484 59.3891C666.12 57.3376 667.084 55.6664 668.374 54.3842C669.655 53.102 671.45 52.2707 673.765 51.8817C677.106 51.4926 680.438 51.077 683.779 50.626C687.119 50.175 690.451 50.4668 693.792 51.4926C694.305 51.6252 694.755 51.7844 695.144 51.9789C695.524 52.1735 696.037 52.3945 696.682 52.651C695.913 56.3737 693.916 57.7886 690.707 56.8867C688.524 56.25 686.792 56.3384 685.511 57.1784C684.229 58.0185 683.266 59.3272 682.621 61.1223C681.083 64.8451 679.598 68.6032 678.193 72.3879C676.779 76.1814 675.886 80.1252 675.497 84.2371C675.241 87.447 674.985 90.6303 674.728 93.7695C674.472 96.9175 674.348 100.03 674.348 103.107C674.216 105.168 674.348 107.184 674.728 109.173C675.117 111.163 675.435 113.25 675.692 115.434H676.85C677.106 115.045 677.397 114.665 677.716 114.276C678.034 113.895 678.317 113.444 678.582 112.932C680.252 107.281 681.923 101.728 683.584 96.272C685.254 90.816 686.792 85.2628 688.206 79.6123C688.843 77.6846 689.099 75.695 688.975 73.6435C688.852 71.592 688.913 69.5317 689.17 67.4802C689.293 65.0396 689.682 63.5275 690.328 62.9527C690.964 62.378 692.51 61.7678 694.95 61.1223C699.439 59.9639 704.062 60.353 708.808 62.2807ZM657.786 102.736C657.662 102.612 657.592 102.418 657.592 102.152L657.786 102.736Z" fill="#83519C"/>
<path d="M754.633 99.2608C755.137 99.7737 755.658 100.03 756.171 100.03C757.063 100.03 757.938 99.809 758.769 99.3581C759.6 98.9071 760.501 98.3323 761.465 97.6249C762.428 96.9175 763.515 96.1481 764.735 95.3081C765.954 94.4769 767.457 93.6722 769.26 92.9029C769.003 94.3177 768.553 95.8563 767.916 97.5276C767.271 99.1989 765.866 100.87 763.683 102.533C761.624 104.337 759.927 105.521 758.583 106.096C757.231 106.671 755.472 106.574 753.289 105.804C753.033 105.804 752.839 105.742 752.706 105.61C752.317 107.025 751.937 108.404 751.548 109.757C751.16 111.101 750.647 112.489 750.011 113.895C748.977 116.469 747.633 118.838 745.963 121.023C744.292 123.207 741.72 124.356 738.256 124.489C732.485 124.613 727.023 122.818 721.897 119.095C720.226 117.937 718.971 116.495 718.141 114.762C717.301 113.029 716.824 111.198 716.7 109.271V90.9664C716.7 90.3297 716.665 89.746 716.603 89.2332C716.541 88.7203 716.506 88.1455 716.506 87.5L717.663 75.1733C718.689 69.2664 720.076 63.554 721.808 58.0273C723.541 52.5095 725.626 47.0447 728.066 41.6507L729.798 38.7591C731.468 35.2928 734.42 34.0725 738.654 35.0983C740.969 35.7438 743.303 36.3185 745.68 36.8314C748.057 37.3443 750.461 37.8572 752.901 38.3701C752.901 38.6265 752.927 38.821 752.998 38.9448C753.06 39.0774 753.095 39.272 753.095 39.5196C751.557 40.5454 749.984 41.5092 748.375 42.4112C746.767 43.3131 745.326 44.4007 744.045 45.6829C742.887 46.9651 741.897 48.4153 741.067 50.0159C740.227 51.6252 739.935 53.3849 740.2 55.3126C743.152 55.9581 746.104 56.5064 749.056 56.9485C752.008 57.3995 755.084 57.8858 758.301 58.3899L761.96 73.9972C761.96 75.2794 761.765 76.4378 761.376 77.4635C760.987 78.4893 760.537 79.5858 760.033 80.7354C759.511 81.8937 758.972 83.2113 758.398 84.6881C757.815 86.1648 757.267 87.9333 756.763 89.9848L754.642 99.2342L754.633 99.2608ZM739.617 114.674C740.899 111.72 742.047 108.705 743.082 105.619C744.107 102.541 745.132 99.4553 746.157 96.3692L745.574 93.8667C744.929 91.6826 744.513 88.5081 744.328 84.3343C744.133 80.1606 744.354 75.8277 744.999 71.3356C743.585 69.5405 742.436 67.6482 741.535 65.6497C740.633 63.6601 740.192 61.3787 740.192 58.8144C739.555 58.8144 739.034 58.7524 738.654 58.6198C738.397 59.0089 738.141 59.3626 737.885 59.6809C737.628 60.0081 737.434 60.353 737.302 60.7421C734.986 67.6747 733.254 74.74 732.105 81.9291C730.947 89.127 730.24 96.5019 729.984 104.08C729.86 105.884 729.922 107.741 730.178 109.669C730.434 111.596 730.761 113.524 731.141 115.443C731.265 116.088 731.592 116.787 732.105 117.565C732.617 118.334 733.192 118.847 733.837 119.104C734.35 119.36 734.959 119.298 735.667 118.909C736.365 118.52 736.983 118.14 737.496 117.751C738.521 116.982 739.228 115.956 739.617 114.674Z" fill="#83519C"/>
<path d="M801.412 38.9714C800.643 40.2536 799.424 42.2432 797.754 44.9402C795.438 48.2827 793.582 52.2619 792.168 56.8867C791.399 59.0708 790.754 61.3876 790.241 63.8193C791.399 62.6609 792.619 61.8297 793.9 61.3168C795.182 60.8039 796.914 60.8659 799.097 61.5114C801.147 62.1569 803.171 62.6698 805.16 63.05C807.148 63.4391 809.101 64.3322 811.028 65.747C813.591 67.5509 815.138 68.9215 815.65 69.8854C816.154 70.8492 816.101 72.8123 815.456 75.7569L816.614 81.3455C815.712 86.7396 811.479 94.4416 803.905 104.46L794.863 120.068C794.475 120.704 794.095 121.385 793.706 122.093C793.326 122.8 792.875 123.472 792.362 124.118C791.337 125.4 790.374 126.682 789.472 127.973C789.083 128.619 788.633 128.999 788.129 129.131V129.52C784.408 129.388 780.873 128.495 777.541 126.823C773.431 124.763 770.32 121.969 768.199 118.441C766.078 114.912 764.699 111.092 764.063 106.98C763.427 102.869 763.294 98.633 763.674 94.2647C764.063 89.8964 764.637 85.7934 765.406 81.938C766.564 76.5439 768.005 71.3798 769.737 66.4279C771.469 61.4848 773.369 56.5064 775.42 51.5014C776.056 49.8302 776.799 47.8141 777.638 45.4354C778.469 43.0567 779.786 40.6249 781.58 38.1136C783.383 35.6111 784.983 33.3916 786.397 31.4727C787.165 30.5796 787.996 29.8015 788.898 29.156C791.461 26.9718 795.703 25.5658 801.607 24.9203H801.801C803.083 24.7965 804.179 24.8584 805.071 25.1148C806.609 25.1148 808.28 25.053 810.074 24.9203C812.124 24.4075 813.989 23.9299 815.659 23.479C817.33 23.028 818.929 22.6124 820.467 22.2233C823.03 21.3302 825.823 20.5255 828.846 19.8181C831.859 19.1107 835.81 18.0496 840.688 16.6436C837.224 20.7554 833.371 24.2218 829.137 27.0426C824.895 29.8723 820.67 32.1183 816.428 33.7807C814.758 34.55 812.99 35.0629 811.134 35.3193C809.278 35.5758 807.634 36.2213 806.229 37.247C804.179 38.4054 802.57 38.9802 801.421 38.9802L801.412 38.9714ZM808.147 87.3232C808.403 87.0667 808.757 86.5185 809.208 85.6873C809.658 84.856 810.109 83.9541 810.56 82.9902C811.011 82.0264 811.426 81.0979 811.806 80.196C812.195 79.3029 812.504 78.6574 812.769 78.2683C811.611 77.3752 810.038 76.2787 808.05 74.9965C806.061 73.7143 804.55 72.6886 803.525 71.9192C800.184 72.4321 797.329 74.0326 794.961 76.7297C792.583 79.4267 790.595 82.6985 788.986 86.5539C787.378 90.4093 786.096 94.4858 785.133 98.7833C784.169 103.09 783.498 107.034 783.118 110.632C782.985 110.889 783.082 111.473 783.4 112.366C783.719 113.268 784.108 114.258 784.558 115.346C785.009 116.442 785.424 117.53 785.805 118.617C786.193 119.705 786.441 120.51 786.573 121.032C787.21 120.386 787.784 119.873 788.306 119.493C788.809 119.113 789.198 118.724 789.463 118.335C791.134 116.283 792.672 113.807 794.086 110.915C795.5 108.024 796.878 105.141 798.231 102.25C799.574 99.3581 801.024 96.5992 802.561 93.9641C804.099 91.3289 805.964 89.1182 808.147 87.3232Z" fill="#83519C"/>
<path d="M831.064 128.734C830.162 134.508 830.357 139.035 831.638 142.316C832.92 145.588 834.714 146.905 837.03 146.26C837.418 146.127 837.701 146.286 837.896 146.746C838.09 147.197 838.249 147.736 838.373 148.382C838.497 149.019 838.532 149.664 838.47 150.31C838.408 150.955 838.179 151.335 837.798 151.468C835.483 152.626 832.628 153.555 829.235 154.262C825.832 154.97 822.332 154.165 818.744 151.857C816.817 150.699 815.403 149.355 814.502 147.807C813.609 146.269 812.964 144.597 812.575 142.802C812.195 140.998 812.027 139.141 812.098 137.214C812.159 135.286 812.257 133.234 812.38 131.05C812.637 128.99 813.185 126.196 814.024 122.667C814.855 119.13 815.659 114.992 816.428 110.243C816.561 109.607 816.649 108.192 816.72 106.008C816.782 103.824 816.879 102.285 817.011 101.383C817.515 97.6603 818.169 94.0348 818.938 90.4977C819.707 86.9695 820.282 82.3801 820.67 76.7208L821.439 63.4302C821.439 62.2718 821.183 61.2461 820.67 60.3441C820.025 58.9293 820.025 57.5852 820.67 56.303C821.307 55.0208 822.341 54.2515 823.746 53.9862C824.382 53.7298 825.063 53.606 825.77 53.606H827.794C830.737 53.606 833.114 53.7033 834.917 53.8978C836.72 54.0924 838.099 54.6406 839.062 55.5337C840.026 56.4357 840.733 57.8151 841.183 59.6721C841.634 61.5379 841.979 64.1377 842.244 67.4713C842.5 69.9119 842.5 72.4144 842.244 74.9788C841.988 77.552 841.731 80.5055 841.475 83.8392C842.111 82.8134 842.659 82.0441 843.11 81.5224C843.561 81.0095 843.906 80.5585 844.171 80.1783C845.585 77.9941 847.025 75.7481 848.501 73.4402C849.977 71.1322 851.489 68.8862 853.026 66.702C856.102 62.4664 859.699 59.4776 863.809 57.7444C867.918 56.0112 872.532 55.2773 877.667 55.5337C879.717 55.6664 881.715 56.5949 883.641 58.328C885.568 60.0612 886.655 62.148 886.911 64.5886C886.911 65.3579 886.885 66.6136 886.814 68.3468C886.752 70.0799 886.62 71.8839 886.425 73.7408C886.24 75.5978 886.01 77.331 885.754 78.9403C885.497 80.5497 885.17 81.7346 884.79 82.5039C884.021 86.2267 882.324 90.0556 879.691 93.9641C877.057 97.8814 873.822 101.507 869.969 104.849C865.09 109.218 861.078 111.685 857.94 112.268C854.794 112.843 852.134 112.242 849.951 110.438C849.562 110.049 849.244 109.633 848.987 109.182C848.731 108.731 848.925 108.254 849.571 107.741C849.827 106.715 850.534 105.592 851.692 104.372C852.85 103.152 853.742 102.09 854.387 101.197C859.133 96.5727 863.181 91.6915 866.513 86.5539C869.854 81.4163 871.966 75.1291 872.868 67.6747C872.991 67.2856 872.965 66.3925 872.77 64.9777C872.576 63.5629 872.037 62.3426 871.135 61.3168C870.11 61.8297 869.279 62.2188 868.634 62.4752C867.989 62.7316 867.353 63.1208 866.708 63.6337C864.905 64.9158 862.731 66.9762 860.159 69.797C857.587 72.6266 854.962 75.7393 852.266 79.1349C849.571 82.5393 846.972 86.0056 844.471 89.5339C841.97 93.0709 839.946 96.1747 838.408 98.8717C837.507 101.701 836.605 104.779 835.713 108.121C834.944 110.942 834.14 114.161 833.3 117.751C832.469 121.341 831.727 125.002 831.09 128.734H831.064Z" fill="#83519C"/>
<path d="M946.188 116.982C947.602 115.443 948.883 114.028 950.041 112.746C951.199 111.464 952.357 110.243 953.506 109.085C955.176 106.901 957.067 104.69 959.188 102.444C961.309 100.198 964.032 97.1474 967.372 93.292C966.727 98.6861 965.384 103.726 963.325 108.413C961.274 113.1 958.959 117.309 956.396 121.032C955.37 122.57 954.151 123.95 952.746 125.17C951.331 126.39 949.917 127.575 948.503 128.734C946.965 129.892 945.162 130.369 943.112 130.175C941.062 129.98 939.073 129.335 937.146 128.247C935.22 127.151 933.514 125.745 932.047 124.012C930.571 122.278 929.767 120.448 929.634 118.52C929.378 115.699 928.962 112.87 928.388 110.049C927.805 107.228 927.84 104.398 928.485 101.578C928.865 99.5261 928.485 97.0236 927.327 94.0702C926.815 94.7157 926.302 95.317 925.79 95.9006C925.277 96.4754 924.826 97.0856 924.446 97.7311L915.396 113.33C915.016 113.975 914.627 114.647 914.238 115.355C913.849 116.062 913.399 116.734 912.895 117.379C911.861 118.662 910.906 119.979 910.005 121.323C909.103 122.676 907.442 122.959 905.003 122.19C902.307 121.544 899.709 120.554 897.207 119.21C894.706 117.857 892.682 115.903 891.145 113.33C889.987 111.278 889.227 109.509 888.838 108.033C888.449 106.556 888.325 105.017 888.449 103.408C888.573 101.808 888.767 99.9417 889.032 97.8195C889.289 95.6972 889.536 92.903 889.801 89.4366C890.314 85.9703 891.312 82.7957 892.78 79.9042C894.256 77.0126 895.961 74.3156 897.888 71.8132C899.806 69.3107 901.865 66.8966 904.048 64.5886C906.231 62.2807 908.343 59.902 910.403 57.4614C911.684 56.0466 913.001 55.0828 914.353 54.5699C915.697 54.057 917.464 54.1189 919.647 54.7644C921.698 55.4099 923.721 55.9228 925.71 56.303C927.699 56.6833 929.661 57.5852 931.587 59.0001C934.15 60.804 935.697 62.1746 936.21 63.1384C936.722 64.1023 936.66 66.0654 936.015 69.01L939.868 69.5848C942.944 70.2303 945.516 71.5125 947.575 73.4402C949.626 75.3679 950.395 78.3214 949.882 82.3006L945.649 113.117C945.516 113.498 945.516 113.984 945.649 114.559C945.772 115.133 945.967 115.938 946.223 116.964L946.188 116.982ZM928.671 80.5762C928.927 80.3198 929.272 79.7716 929.731 78.9404C930.182 78.1091 930.624 77.2071 931.075 76.2433C931.525 75.2794 931.941 74.351 932.321 73.449C932.71 72.5559 933.028 71.9104 933.284 71.5213C932.126 70.6282 930.553 69.5317 928.565 68.2495C926.576 66.9673 925.065 65.9416 924.04 65.1634C920.699 65.6763 917.844 67.2857 915.476 69.9827C913.098 72.6797 911.11 75.9515 909.51 79.8069C907.901 83.6623 906.62 87.7388 905.657 92.0364C904.693 96.3428 904.022 100.287 903.633 103.886C903.509 104.142 903.606 104.726 903.924 105.619C904.242 106.521 904.631 107.511 905.082 108.608C905.533 109.704 905.948 110.792 906.337 111.879C906.717 112.976 906.973 113.772 907.106 114.285C907.742 113.648 908.326 113.126 908.838 112.746C909.351 112.366 909.74 111.977 909.996 111.588C911.666 109.536 913.204 107.06 914.618 104.169C916.024 101.277 917.411 98.3943 918.754 95.5027C920.107 92.6111 921.547 89.8522 923.085 87.2171C924.623 84.582 926.488 82.3713 928.671 80.5762Z" fill="#83519C"/>
</svg>
