<svg  viewBox="0 0 429 220" fill="none" xmlns="http://www.w3.org/2000/svg">
<path d="M87.9666 0C87.9666 0 42.0453 22.1693 18.6122 62.2835C-6.21012 104.774 -7.5689 148.213 22.8365 186.85C22.8365 186.85 18.263 164.822 24.1725 153.211C30.0859 141.601 49.2491 185.374 75.639 203.531C75.639 203.531 53.2382 171.441 54.9271 148.85C54.9271 148.85 77.3052 145.472 84.9075 85.933C84.9075 85.933 78.1516 114.437 53.2382 118.87C28.3248 123.299 26.7421 59.3268 87.9666 0Z" fill="url(#paint0_linear_12_401)"/>
<path d="M66.2289 99.3046C69.5479 92.3179 68.5962 84.9239 64.1032 82.7895C59.6101 80.6551 53.2773 84.5886 49.9583 91.5752C46.6393 98.5618 47.591 105.956 52.0841 108.09C56.5771 110.225 62.91 106.291 66.2289 99.3046Z" fill="url(#paint1_linear_12_401)"/>
<path d="M91.6292 0C91.6292 0 142.97 30.8267 157.75 69.0394C172.529 107.256 171.896 168.906 126.923 201.843C126.923 201.843 141.915 180.095 135.581 167.008C129.246 153.917 84.2774 205.961 84.805 220C84.805 220 75.2708 187.837 112.569 149.974C112.569 149.974 84.137 122.669 89.0635 86.7756C89.0635 86.7756 88.4031 128.009 125.044 124.461C142.128 122.806 151.393 90.3547 139.456 62.052C126.084 30.3675 92.4301 1.38914 91.6292 0Z" fill="url(#paint2_linear_12_401)"/>
<path d="M119.28 110.001C124.269 109.13 127.253 102.352 125.944 94.8626C124.636 87.3732 119.531 82.0084 114.542 82.88C109.553 83.7516 106.57 90.5295 107.878 98.0189C109.187 105.508 114.292 110.873 119.28 110.001Z" fill="url(#paint3_linear_12_401)"/>
<path d="M89.0597 59.7519C89.0597 59.7519 91.8759 45.2532 102.572 43.0025C113.267 40.7518 110.595 78.8962 89.0597 81.1469C67.5243 83.3976 62.3017 44.1564 72.8721 42.9077C79.2067 42.1599 85.5413 50.6048 89.0597 59.7519Z" fill="url(#paint4_linear_12_401)"/>
<path d="M231.739 35.1232C234.164 34.626 235.735 35.647 236.449 38.1823C236.722 39.2868 236.847 40.3875 236.821 41.4882C236.794 42.5926 236.639 43.6933 236.365 44.794C235.925 46.3919 235.47 47.9898 235.003 49.5877C234.532 51.1856 233.887 52.7037 233.059 54.1346C232.562 55.0152 232.137 55.9413 231.78 56.9053C231.42 57.8694 231.021 58.822 230.581 59.7595L226.281 68.6864C226.171 68.9635 226.061 69.2671 225.951 69.5973C225.84 69.9275 225.73 70.2881 225.62 70.6714L227.359 71.2484C227.689 71.3584 228.034 71.4571 228.391 71.5368C228.748 71.6203 229.124 71.7152 229.507 71.8253C230.387 72.1555 231.188 72.6261 231.902 73.2296C232.619 73.8369 233.226 74.539 233.724 75.3361C234.221 76.1369 234.578 76.9909 234.798 77.898C235.018 78.8089 235.075 79.7046 234.965 80.5852C234.965 80.8623 234.881 81.0824 234.718 81.2456L228.516 88.605C228.239 88.8821 227.966 89.1705 227.689 89.4742C227.412 89.7778 227.165 90.1194 226.945 90.5065C226.615 90.9468 226.311 91.4288 226.034 91.9526C225.761 92.4764 225.427 92.9584 225.043 93.3987C224.216 94.6094 223.222 95.3002 222.068 95.4672C220.91 95.6304 219.779 95.247 218.678 94.3096C217.798 93.7023 217.631 92.8483 218.181 91.7476C219.119 89.8727 220.208 88.1381 221.449 86.5403C222.69 84.9424 224 83.3445 225.374 81.7466L226.861 79.7616C227.689 78.4939 227.882 77.2945 227.438 76.1635C226.998 75.0324 226.061 74.2771 224.626 73.89C223.965 73.6699 223.29 73.4763 222.599 73.3131C221.908 73.1461 221.263 72.9297 220.656 72.6527C220.212 72.4857 219.787 72.2542 219.373 71.9505C218.959 71.6469 218.477 71.3053 217.927 70.9182C219.749 68.7699 221.164 66.5496 222.185 64.2609C223.206 61.9761 224.155 59.6722 225.036 57.357C225.863 55.2619 226.675 53.1554 227.473 51.0337C228.27 48.9121 229.055 46.7752 229.829 44.627C230.27 43.3024 230.505 42.27 230.532 41.5261C230.558 40.7822 230.437 39.8599 230.16 38.7554C229.332 39.0325 228.615 39.431 228.011 39.9548C227.404 40.4786 226.823 41.0441 226.273 41.6514C225.116 43.0861 224.011 44.5169 222.963 45.9516C221.916 47.3863 221.009 48.9576 220.235 50.6656C219.847 51.5499 219.502 52.4305 219.202 53.311C218.899 54.1954 218.61 55.1025 218.333 56.04C217.726 58.302 217.035 60.5338 216.268 62.7351C215.494 64.9403 215.054 67.2555 214.944 69.6808L214.116 81.7504C214.006 83.1851 213.953 84.5742 213.953 85.9254V90.1004C213.896 92.0285 212.917 92.6889 211.019 92.0854L209.342 91.5085C208.226 91.1214 207.546 90.7646 207.3 90.4344C207.049 90.1042 206.981 89.3603 207.091 88.2027C207.311 86.4378 207.505 84.6767 207.668 82.9118C207.835 81.1469 207.941 79.3858 207.998 77.6209C208.108 74.5884 208.15 71.5748 208.123 68.5688C208.097 65.5666 208.081 62.5454 208.081 59.5166C208.135 56.1538 207.93 52.8328 207.459 49.5535C206.992 46.2742 206.343 42.9798 205.516 39.6739C205.406 39.2906 205.322 38.9035 205.265 38.5163C205.212 38.133 205.129 37.7458 205.019 37.3587C206.449 36.9184 207.793 36.8919 209.046 37.2752C210.298 37.6623 211.315 38.4063 212.097 39.5069C212.765 40.5545 213.312 41.6438 213.729 42.7748C214.147 43.9059 214.359 45.1318 214.359 46.4526C214.306 47.8873 214.276 49.3182 214.276 50.7529V55.0531C214.606 55.1632 214.853 55.2201 215.02 55.2201C215.187 54.8899 215.376 54.5445 215.596 54.1878C215.817 53.831 215.984 53.459 216.094 53.0719C217.194 49.4359 218.891 46.278 221.18 43.606C223.468 40.934 226.068 38.467 228.991 36.2049C229.378 35.9316 229.818 35.7077 230.311 35.5445C230.809 35.3813 231.276 35.2408 231.72 35.1308L231.739 35.1232Z" fill="#83519C"/>
<path d="M241.242 65.4679C241.352 64.4204 241.573 63.0995 241.903 61.4979C242.176 60.3972 242.635 59.5128 243.265 58.8524C243.899 58.192 244.658 57.7517 245.539 57.5316C246.419 57.3115 247.361 57.3229 248.351 57.5734C249.342 57.8239 250.306 58.3324 251.243 59.1029C251.904 59.7102 252.359 60.344 252.606 61.0044C252.853 61.6649 253.005 62.3822 253.061 63.1527L253.228 69.271C253.282 69.9314 253.365 70.607 253.479 71.2977C253.589 71.9885 253.695 72.6641 253.809 73.3245C253.919 73.3245 254.018 73.3397 254.098 73.3663C254.181 73.3928 254.276 73.408 254.386 73.408C254.773 72.4136 255.16 71.4116 255.544 70.3906C255.927 69.3696 256.288 68.3638 256.618 67.3732C257.058 65.9423 257.487 64.5077 257.901 63.073C258.314 61.6421 258.766 60.2074 259.263 58.7727C259.76 57.4519 260.421 56.6359 261.248 56.3322C262.076 56.0286 263.203 56.1804 264.638 56.7877C265.738 57.228 266.721 57.8618 267.571 58.6892C268.425 59.5166 269.154 60.4275 269.765 61.4182C270.039 61.8584 270.179 62.3556 270.179 62.906C270.179 63.4563 270.152 63.9801 270.095 64.4773C270.042 65.3047 269.985 66.3257 269.928 67.5364C269.875 68.751 269.818 70.0035 269.765 71.2977C269.708 72.5958 269.655 73.8483 269.598 75.059C269.541 76.2736 269.488 77.3211 269.431 78.2017V78.4484C269.321 78.9456 269.196 79.6477 269.059 80.5549C268.923 81.4658 268.797 82.4146 268.687 83.4053C268.577 84.3997 268.452 85.3485 268.315 86.2594C268.179 87.1666 268.054 87.8725 267.943 88.3659C267.666 89.4135 267.42 90.2257 267.2 90.8064C266.979 91.3871 266.664 91.7704 266.247 91.964C265.833 92.1576 265.298 92.2145 264.634 92.131C263.973 92.0475 263.066 91.8426 261.905 91.5124C261.298 91.4023 260.721 91.2087 260.17 90.9316C259.62 90.6546 258.982 90.3813 258.269 90.1042C258.489 89.664 258.652 89.292 258.766 88.9884C258.876 88.6847 259.043 88.4532 259.263 88.2862C261.028 86.8553 261.552 85.0335 260.835 82.8283C260.835 82.7183 260.808 82.593 260.751 82.4564C260.694 82.3197 260.724 82.2211 260.835 82.1679C261.332 81.5075 261.689 80.8167 261.909 80.0994C262.129 79.3821 262.281 78.642 262.364 77.8677C262.444 77.0972 262.501 76.3115 262.527 75.5107C262.554 74.7136 262.653 73.928 262.816 73.1537C263.146 71.3357 263.434 69.5025 263.685 67.6541C263.932 65.8095 264.194 63.9459 264.471 62.0748C264.581 61.6345 264.622 61.2208 264.596 60.8337C264.566 60.4503 264.25 60.0366 263.643 59.5925L261.905 63.0654C260.47 66.3181 259.024 69.5404 257.563 72.7362C256.102 75.9358 254.629 79.1581 253.141 82.4108C252.424 83.9556 251.046 84.0087 249.008 82.5778C249.281 79.105 249.433 75.6625 249.463 72.2428C249.49 68.8269 249.285 65.3806 248.845 61.9078C248.735 61.9078 248.625 61.8964 248.515 61.866C248.404 61.8395 248.294 61.8243 248.184 61.8243L247.607 63.1451C247.277 64.6898 247.015 65.8626 246.822 66.6597C246.628 67.4605 246.435 68.1627 246.241 68.7662C246.047 69.3734 245.786 70.049 245.455 70.7929C245.125 71.5369 244.632 72.6261 243.968 74.057C243.58 74.8844 243.375 75.7916 243.349 76.786C243.322 77.7804 243.254 78.7444 243.144 79.6819L242.73 82.4943C242.563 83.3218 241.986 83.7886 240.992 83.8987C240.442 83.9556 239.891 83.9973 239.341 84.0239C238.791 84.0505 238.32 83.7886 237.937 83.2382C237.109 82.1907 236.916 81.0065 237.356 79.6819C238.13 77.4236 238.764 75.1615 239.257 72.9032C239.311 72.7931 239.341 72.6565 239.341 72.4895L240.745 68.026H240.829C240.882 67.916 240.912 67.7793 240.912 67.6123C241.022 67.062 241.129 66.3447 241.242 65.4641V65.4679Z" fill="#83519C"/>
<path d="M292.337 59.9303C293.601 60.3174 294.102 61.0044 293.825 61.995C293.711 62.2721 293.616 62.5339 293.532 62.7806C293.453 63.0311 293.328 63.293 293.161 63.5663C291.946 65.6614 290.542 67.673 288.944 69.6011C287.346 71.533 285.554 73.3776 283.569 75.1425C282.852 75.8029 282.15 76.4936 281.463 77.2072C280.772 77.9245 280.184 78.6684 279.683 79.4389C279.353 79.9893 279.148 80.5851 279.064 81.2152C278.981 81.849 278.939 82.4715 278.939 83.075C278.939 84.0124 279.296 85.0334 280.013 86.1341C280.73 87.2386 281.584 88.0926 282.579 88.696C283.019 88.3658 283.611 87.9369 284.355 87.417C285.099 86.8932 285.691 86.4377 286.135 86.0506C287.9 84.4527 289.661 83.0332 291.426 81.7921C293.191 80.551 294.515 79.4655 295.396 78.528C295.282 79.1353 295.146 79.7388 294.982 80.346C294.872 80.8432 294.72 81.3936 294.527 82.0008C294.33 82.6081 294.098 83.1319 293.825 83.5722C292.944 85.0069 291.866 86.2328 290.599 87.25C289.327 88.2709 287.896 89.3564 286.298 90.5141C285.361 91.1745 284.408 91.5085 283.444 91.5085C282.48 91.5085 281.364 91.3415 280.097 91.0113C278.222 90.5141 276.514 89.6069 274.969 88.2823C273.424 86.9615 272.323 85.4699 271.659 83.8189C271.549 83.5987 271.481 83.3634 271.454 83.1167C271.428 82.87 271.356 82.5512 271.246 82.1679C271.189 81.6175 271.135 81.0672 271.079 80.513C271.025 79.9627 271.01 79.382 271.037 78.7785C271.063 78.1712 271.132 77.4843 271.246 76.7138C271.356 75.9433 271.576 75.0324 271.906 73.9848C272.346 72.2769 272.953 70.5955 273.728 68.9407C274.498 67.2859 275.242 65.6348 275.959 63.98C276.233 63.3727 276.552 62.7693 276.908 62.162C277.265 61.5547 277.641 60.9512 278.024 60.344C278.241 60.0138 278.491 59.6987 278.768 59.3951C279.041 59.0915 279.318 58.803 279.596 58.5259C280.639 57.4253 282.104 57.0381 283.975 57.3683C284.416 57.4784 284.883 57.5353 285.38 57.5353C285.877 57.5353 286.37 57.5885 286.868 57.6985C287.528 57.8086 288.052 57.9756 288.439 58.1957C289.65 58.97 290.948 59.5469 292.326 59.9303H292.337ZM281.254 70.846C285.167 66.9329 287.649 63.7067 288.697 61.1714C287.596 60.8412 286.894 60.6893 286.591 60.7159C286.287 60.7425 285.858 61.0613 285.311 61.6648C284.097 62.9325 283.133 64.2836 282.419 65.7145C281.702 67.1492 281.178 68.637 280.848 70.178C280.848 70.2881 280.89 70.3981 280.973 70.5082C281.057 70.6183 281.152 70.7283 281.262 70.8384L281.254 70.846Z" fill="#83519C"/>
<path d="M304.243 92.8369C304.46 92.6168 304.835 92.2031 305.359 91.5958C305.883 90.9885 306.407 90.3547 306.93 89.6943C307.454 89.0339 307.936 88.4 308.376 87.7928C308.817 87.1855 309.094 86.7983 309.204 86.6351C310.305 85.5345 311.42 84.2364 312.551 82.7486C313.683 81.2608 314.935 79.9362 316.313 78.7785C315.652 80.0994 315.129 81.1925 314.741 82.0426C314.354 82.8966 313.982 83.6709 313.626 84.3579C313.265 85.0486 312.893 85.7356 312.51 86.4226C312.123 87.1134 311.603 87.9522 310.942 88.9428C309.838 91.2011 308.68 92.8142 307.469 93.7782C306.255 94.7422 305.059 95.2508 303.871 95.3078C302.687 95.3609 301.567 95.0725 300.524 94.4386C299.476 93.8048 298.539 93.0722 297.711 92.2486L294.485 88.939L292.914 83.9783C292.861 80.8357 292.997 77.7348 293.328 74.6757C293.658 71.6165 294.375 68.5991 295.48 65.6235C295.92 64.2989 296.538 63.035 297.339 61.8204C298.136 60.6097 298.922 59.3686 299.696 58.1009C299.806 57.8807 299.996 57.6758 300.273 57.4822C300.546 57.2887 300.797 57.1938 301.017 57.1938C303.222 57.1406 305.371 57.319 307.466 57.7327C309.561 58.1464 311.656 58.655 313.751 59.2623C313.861 59.3192 313.956 59.4027 314.039 59.509C314.123 59.6191 314.218 59.7291 314.328 59.8392C313.06 61.2739 312.233 62.83 311.846 64.5114C311.458 66.1928 311.048 67.8894 310.604 69.5973C310.437 70.2577 310.232 70.9182 309.986 71.5824C309.735 72.2428 309.5 72.8766 309.284 73.4839C308.236 73.2106 307.519 72.7665 307.135 72.1631C306.748 71.5558 306.608 70.6752 306.722 69.5176C306.832 68.527 306.942 67.5212 307.052 66.5002C307.162 65.4793 307.268 64.4469 307.382 63.3993C307.492 62.9591 307.549 62.5036 307.549 62.033C307.549 61.5623 307.576 60.9437 307.633 60.1732C307.025 60.4503 306.49 60.6856 306.02 60.8754C305.549 61.0651 305.207 61.3005 304.987 61.5775C304.6 62.0178 304.255 62.515 303.951 63.0653C303.647 63.6157 303.439 64.1964 303.332 64.7999C302.945 66.4547 302.588 68.1057 302.258 69.7605C301.928 71.4154 301.651 73.0967 301.431 74.8047C301.268 76.2394 301.211 77.6437 301.268 79.0215C301.321 80.3992 301.268 81.8073 301.101 83.2382C300.824 85.5003 301.154 87.4853 302.095 89.1895C302.368 89.7968 302.687 90.3737 303.044 90.924C303.401 91.4744 303.803 92.1082 304.243 92.8255V92.8369Z" fill="#83519C"/>
<path d="M354.84 83.6595C355.615 82.5588 356.343 81.591 357.03 80.7674C357.721 79.9399 358.507 79.253 359.387 78.6988C359.224 79.6932 359.015 80.5169 358.769 81.1811C358.518 81.8415 358.272 82.4487 358.025 82.9991C357.774 83.5494 357.512 84.0884 357.239 84.6122C356.966 85.1359 356.689 85.728 356.412 86.3884C355.474 87.3259 354.537 87.9749 353.599 88.3317C352.662 88.6923 351.74 88.8441 350.829 88.7872C349.918 88.734 349.022 88.5139 348.141 88.1268C347.257 87.7434 346.46 87.2993 345.743 86.8021C345.246 85.5914 345.124 84.1985 345.371 82.6271C345.621 81.0558 345.978 79.5262 346.445 78.0384C346.912 76.5506 347.367 75.226 347.807 74.0684C348.248 72.9108 348.468 72.1403 348.468 71.7531C348.191 72.0302 347.709 72.6641 347.022 73.6547C346.331 74.6453 345.602 75.7194 344.832 76.877C344.058 78.0346 343.344 79.0974 342.684 80.0614C342.023 81.0254 341.636 81.591 341.526 81.7542L337.806 85.8039C337.696 85.914 337.529 86.0392 337.309 86.1759C337.089 86.3163 336.869 86.4112 336.649 86.4643C336.098 86.5213 335.518 86.4226 334.911 86.1759C334.303 85.9292 333.738 85.599 333.218 85.1853C332.69 84.7716 332.254 84.3047 331.897 83.7772C331.536 83.2534 331.331 82.7182 331.274 82.1641C331.164 81.2266 331.153 80.2474 331.233 79.2302C331.316 78.2092 331.385 77.2338 331.441 76.2963C331.441 76.023 331.468 75.579 331.525 74.9717C331.578 74.3644 331.65 73.704 331.734 72.9867C331.817 72.2693 331.886 71.5823 331.939 70.9181C331.992 70.2577 332.049 69.734 332.106 69.3468C331.331 69.844 330.603 70.5993 329.916 71.6203C329.225 72.6413 328.743 73.4269 328.47 73.9773C327.809 75.245 327.05 76.4178 326.196 77.4919C325.342 78.566 324.556 79.7122 323.839 80.923C323.509 81.4733 323.122 81.9971 322.682 82.4943C322.241 82.9915 321.801 83.4849 321.361 83.9821C321.084 84.3123 320.864 84.6577 320.7 85.0145C320.533 85.375 320.37 85.7053 320.203 86.0051C320.04 86.3087 319.846 86.5175 319.626 86.6275C319.406 86.7376 319.129 86.711 318.799 86.544L317.227 85.8836C315.793 85.2764 314.844 84.5476 314.377 83.6937C313.906 82.8397 313.758 81.6137 313.922 80.0159C313.975 79.5187 314.017 79.0214 314.047 78.528C314.073 78.0308 314.089 77.5336 314.089 77.0402C314.089 76.9871 314.172 76.6683 314.335 76.0876C314.502 75.5106 314.529 75.1387 314.419 74.9717C314.692 73.5408 314.901 72.0909 315.037 70.6297C315.174 69.1684 315.273 67.6123 315.326 65.9575C315.379 65.7373 315.394 65.5172 315.368 65.2971C315.341 65.0769 315.326 64.8302 315.326 64.5532C316.427 63.9459 317.516 63.7561 318.594 63.9725C319.668 64.1926 320.757 64.4127 321.858 64.6329C322.355 64.7429 322.655 65.02 322.769 65.4603C322.879 65.9005 322.936 66.3977 322.936 66.9481C322.826 68.656 322.742 70.3678 322.685 72.0758C322.632 73.7837 322.549 75.6055 322.435 77.5336L324.173 75.3854L330.705 68.193C332.527 66.208 334.892 65.6576 337.818 66.5382C338.148 67.6427 338.338 68.7585 338.395 69.8858C338.448 71.0168 338.421 72.1593 338.311 73.3169C338.201 74.4745 338.061 75.6473 337.898 76.8315C337.734 78.0156 337.651 79.215 337.651 80.4296L339.139 79.1049C339.579 78.5546 340.118 77.9359 340.752 77.2452C341.386 76.5582 342.016 75.8522 342.653 75.1387C343.287 74.4214 343.906 73.7192 344.513 73.0322C345.12 72.3452 345.644 71.7228 346.084 71.1724C346.358 70.5652 346.775 70.0034 347.325 69.4759C347.876 68.9521 348.468 68.5118 349.102 68.155C349.736 67.7983 350.369 67.5326 351.003 67.3694C351.637 67.2024 352.203 67.2024 352.696 67.3694C353.577 67.6996 353.937 68.3334 353.77 69.2709C353.44 71.2028 353.11 73.1157 352.776 75.0172C352.446 76.9188 352.085 78.8355 351.702 80.7636C351.535 81.6441 351.44 82.5398 351.413 83.4507C351.387 84.3617 351.622 85.3105 352.115 86.3049C352.613 85.9747 353.079 85.5345 353.52 84.9803C353.96 84.43 354.4 83.9897 354.84 83.6595Z" fill="#83519C"/>
<path d="M378.24 59.9303C379.507 60.3174 380.004 61.0044 379.727 61.995C379.617 62.2721 379.519 62.5339 379.439 62.7806C379.359 63.0311 379.234 63.293 379.067 63.5663C377.852 65.6614 376.448 67.673 374.85 69.6011C373.252 71.533 371.461 73.3776 369.476 75.1425C368.758 75.8029 368.056 76.4936 367.369 77.2072C366.679 77.9245 366.09 78.6684 365.589 79.4389C365.259 79.9893 365.054 80.5851 364.971 81.2152C364.887 81.849 364.845 82.4715 364.845 83.075C364.845 84.0124 365.202 85.0334 365.919 86.1341C366.637 87.2386 367.491 88.0926 368.481 88.696C368.922 88.3658 369.518 87.9369 370.261 87.417C371.005 86.8932 371.597 86.4377 372.042 86.0506C373.806 84.4527 375.567 83.0332 377.332 81.7921C379.097 80.551 380.422 79.4655 381.302 78.528C381.192 79.1353 381.052 79.7388 380.889 80.346C380.779 80.8432 380.623 81.3936 380.433 82.0008C380.24 82.6081 380.004 83.1319 379.731 83.5722C378.851 85.0069 377.773 86.2328 376.505 87.25C375.237 88.2709 373.806 89.3564 372.205 90.5141C371.267 91.1745 370.318 91.5085 369.354 91.5085C368.39 91.5085 367.271 91.3415 366.007 91.0113C364.132 90.5141 362.42 89.6069 360.879 88.2823C359.334 86.9615 358.234 85.4699 357.569 83.8189C357.459 83.5987 357.391 83.3634 357.361 83.1167C357.334 82.87 357.266 82.5512 357.156 82.1679C357.099 81.6175 357.046 81.0672 356.989 80.513C356.932 79.9627 356.92 79.382 356.947 78.7785C356.974 78.1712 357.042 77.4843 357.156 76.7138C357.266 75.9433 357.486 75.0324 357.816 73.9848C358.256 72.2769 358.86 70.5955 359.634 68.9407C360.408 67.2859 361.152 65.6348 361.866 63.98C362.139 63.3727 362.458 62.7693 362.819 62.162C363.175 61.5547 363.547 60.9512 363.934 60.344C364.155 60.0138 364.405 59.6987 364.678 59.3951C364.955 59.0915 365.229 58.803 365.506 58.5259C366.553 57.4253 368.015 57.0381 369.886 57.3683C370.326 57.4784 370.797 57.5353 371.294 57.5353C371.791 57.5353 372.284 57.5885 372.782 57.6985C373.446 57.8086 373.966 57.9756 374.353 58.1957C375.568 58.97 376.862 59.5469 378.24 59.9303ZM367.161 70.846C371.074 66.9329 373.556 63.7067 374.603 61.1714C373.499 60.8412 372.797 60.6893 372.497 60.7159C372.193 60.7425 371.764 61.0613 371.218 61.6648C370.003 62.9325 369.039 64.2836 368.326 65.7145C367.608 67.1492 367.085 68.637 366.754 70.178C366.754 70.2881 366.796 70.3981 366.88 70.5082C366.959 70.6183 367.058 70.7283 367.168 70.8384L367.161 70.846Z" fill="#83519C"/>
<path d="M228.178 137.058C228.068 138.766 228 140.447 227.973 142.102C227.947 143.757 227.905 145.438 227.848 147.146C227.738 148.581 227.613 149.985 227.476 151.363C227.34 152.741 227.355 154.118 227.518 155.496C227.571 156.213 227.602 157.041 227.602 157.975C227.602 158.908 227.56 159.876 227.476 160.867C227.393 161.861 227.313 162.821 227.23 163.763C227.146 164.7 227.078 165.528 227.021 166.241L226.277 170.705C225.947 173.35 225.339 175.9 224.455 178.352C223.575 180.804 222.333 183.135 220.736 185.34C219.745 186.771 218.424 187.818 216.769 188.482C215.392 189.033 213.999 189.488 212.594 189.845C211.186 190.202 209.767 190.437 208.336 190.547C207.455 190.6 206.833 190.505 206.476 190.259C206.115 190.008 205.857 189.473 205.69 188.646C205.14 186.053 204.931 183.548 205.072 181.123C205.208 178.698 206.051 176.329 207.592 174.014C208.529 172.579 209.729 171.338 211.19 170.295C212.651 169.247 214.181 168.587 215.779 168.31C215.832 168.917 215.71 169.399 215.407 169.756C215.103 170.112 214.758 170.431 214.371 170.708C212.275 172.306 210.814 174.166 209.991 176.288C209.163 178.409 208.613 180.709 208.336 183.192C208.336 183.799 208.419 184.376 208.586 184.926C208.806 185.974 209.55 186.387 210.818 186.167C212.249 185.89 213.391 185.325 214.249 184.471C215.103 183.617 215.752 182.554 216.192 181.286C216.633 179.965 217.058 178.531 217.471 176.986C217.885 175.441 218.257 173.859 218.587 172.23C218.918 170.602 219.195 169.004 219.415 167.437C219.635 165.865 219.802 164.389 219.912 163.015C219.912 162.848 219.938 162.366 219.992 161.569C220.045 160.772 220.128 159.804 220.242 158.677C220.352 157.546 220.462 156.335 220.572 155.041C220.682 153.746 220.777 152.52 220.861 151.363C220.944 150.205 221.013 149.184 221.07 148.304C221.123 147.423 221.153 146.842 221.153 146.569C221.043 146.679 220.834 147.176 220.534 148.057C220.231 148.941 219.885 150 219.498 151.241C219.111 152.483 218.724 153.803 218.341 155.211C217.953 156.616 217.582 157.925 217.225 159.14C216.868 160.354 216.549 161.371 216.276 162.199C215.999 163.026 215.832 163.467 215.779 163.52C215.281 164.017 214.648 164.4 213.877 164.677C213.103 164.951 212.332 165.049 211.562 164.966C210.788 164.882 210.085 164.636 209.455 164.222C208.822 163.808 208.393 163.133 208.173 162.195L206.605 155.993C206.495 155.826 206.438 155.637 206.438 155.413C206.438 155.189 206.381 154.946 206.271 154.669L206.355 154.752C206.134 153.154 206.104 151.568 206.271 149.996C206.438 148.425 206.738 146.482 207.182 144.167C207.565 142.736 207.952 141.343 208.34 139.992C208.727 138.64 209.137 137.251 209.581 135.817C209.854 134.936 210.268 134.219 210.822 133.668C211.372 133.118 212.143 132.761 213.137 132.594C214.568 132.427 216.003 132.249 217.437 132.055C218.868 131.862 220.303 131.987 221.738 132.427C221.958 132.484 222.151 132.553 222.314 132.636C222.481 132.72 222.702 132.814 222.975 132.925C222.645 134.522 221.791 135.13 220.413 134.743C219.475 134.469 218.732 134.507 218.181 134.868C217.631 135.228 217.217 135.79 216.94 136.561C216.28 138.158 215.642 139.772 215.039 141.396C214.431 143.024 214.048 144.717 213.881 146.482C213.771 147.86 213.661 149.226 213.551 150.573C213.441 151.925 213.384 153.261 213.384 154.581C213.331 155.466 213.384 156.331 213.551 157.185C213.718 158.039 213.854 158.935 213.964 159.872H214.462C214.572 159.705 214.697 159.542 214.834 159.375C214.97 159.212 215.095 159.018 215.206 158.798C215.923 156.373 216.64 153.989 217.354 151.648C218.071 149.306 218.732 146.922 219.339 144.497C219.612 143.669 219.726 142.815 219.669 141.935C219.612 141.054 219.642 140.17 219.753 139.289C219.806 138.242 219.969 137.593 220.25 137.346C220.523 137.1 221.187 136.838 222.235 136.561C224.163 136.063 226.148 136.23 228.186 137.058H228.178ZM206.271 154.422C206.218 154.369 206.188 154.285 206.188 154.171L206.271 154.422Z" fill="#83519C"/>
<path d="M252.652 156.24C253.259 155.139 253.836 154.172 254.39 153.348C254.94 152.521 255.601 151.834 256.375 151.279C256.375 152.274 256.307 153.097 256.166 153.762C256.03 154.422 255.878 155.029 255.711 155.58C255.544 156.13 255.365 156.669 255.176 157.193C254.982 157.717 254.804 158.309 254.637 158.969C253.862 159.907 253.039 160.556 252.158 160.912C251.274 161.273 250.378 161.421 249.471 161.368C248.564 161.315 247.626 161.094 246.659 160.707C245.694 160.324 244.825 159.88 244.055 159.383C243.394 158.172 243.049 156.779 243.019 155.208C242.992 153.636 243.102 151.42 243.349 148.55C243.596 145.685 243.846 143.673 244.093 142.516C244.34 141.358 244.434 140.588 244.381 140.2C244.161 140.478 243.501 143.081 242.396 148.015C241.292 152.949 240.715 155.496 240.658 155.663L237.599 159.713C237.489 159.823 237.337 159.948 237.143 160.085C236.95 160.225 236.745 160.32 236.525 160.373C235.974 160.43 235.378 160.332 234.745 160.085C234.111 159.838 233.488 159.508 232.885 159.094C232.278 158.681 231.754 158.214 231.314 157.69C230.873 157.166 230.596 156.631 230.486 156.077C230.213 155.139 230.031 154.164 229.951 153.143C229.867 152.122 230.642 152.676 232.266 154.798C233.891 156.919 235.2 157.732 236.191 157.238L237.845 153.022C238.176 152.471 238.84 150.239 239.831 146.323C240.825 142.409 241.512 140.178 241.899 139.624C242.062 139.016 242.377 138.455 242.848 137.931C243.319 137.407 243.842 136.967 244.419 136.606C244.996 136.249 245.592 135.988 246.199 135.821C246.803 135.657 247.357 135.657 247.854 135.821C248.792 136.151 249.258 136.785 249.258 137.722C249.258 139.654 249.243 142.258 249.217 145.537C249.19 148.816 249.118 151.42 249.008 153.352C249.008 154.232 249.061 155.128 249.175 156.039C249.285 156.95 249.672 157.899 250.333 158.893C250.773 158.563 251.171 158.123 251.532 157.568C251.889 157.018 252.261 156.578 252.648 156.248L252.652 156.24Z" fill="#83519C"/>
<path d="M262.907 157.398H262.823C261.666 157.124 260.561 156.696 259.514 156.115C258.466 155.538 257.612 154.695 256.952 153.595C256.508 152.714 256.219 151.955 256.083 151.321C255.946 150.687 255.916 150.027 255.999 149.336C256.083 148.649 256.052 147.571 255.916 146.11C255.779 144.649 256.151 143.381 257.032 142.307C257.912 141.233 258.834 140.197 259.802 139.206C260.766 138.215 261.715 137.194 262.653 136.147C263.203 135.54 263.784 135.126 264.391 134.906C264.998 134.686 265.742 134.712 266.623 134.989C267.503 135.266 268.372 135.486 269.226 135.65C270.08 135.813 270.923 136.2 271.75 136.807C272.794 137.582 273.432 138.158 273.652 138.542C273.762 138.819 273.788 139.233 273.735 139.783L272.908 142.349C273.018 142.459 273.128 142.595 273.238 142.762C273.955 143.867 274.066 145.355 273.568 147.226L271.173 159.462C271.006 159.629 270.938 159.85 270.965 160.123C270.991 160.4 271.033 160.814 271.09 161.364C271.807 160.704 272.452 160.096 273.033 159.546C273.61 158.996 274.176 158.472 274.73 157.975C275.667 157.037 276.658 156.088 277.705 155.124C278.749 154.16 280.157 152.851 281.922 151.196C281.205 153.788 280.241 156.157 279.03 158.305C277.815 160.453 276.521 162.355 275.143 164.009C274.536 164.727 273.902 165.33 273.242 165.827C272.581 166.325 271.891 166.791 271.177 167.232C270.46 167.729 269.659 167.85 268.778 167.604C267.898 167.357 267.374 166.943 267.207 166.363C267.04 165.786 266.71 165.027 266.213 164.089C265.716 163.152 265.495 162.214 265.552 161.277C265.552 161.003 265.579 160.7 265.636 160.37C264.421 162.188 262.85 163.675 260.926 164.833C259.654 165.55 258.459 165.96 257.328 166.074C256.197 166.184 255.191 165.881 254.31 165.167C253.98 164.78 253.635 164.214 253.274 163.47C252.917 162.726 252.572 161.888 252.238 160.95C251.908 160.013 251.577 159.007 251.247 157.933C250.917 156.859 250.587 155.826 250.253 154.832C250.693 155.052 251.175 155.466 251.699 156.073C252.223 156.68 252.735 157.341 253.228 158.058C253.726 158.775 254.181 159.478 254.591 160.165C255.005 160.855 255.377 161.311 255.707 161.531C256.204 161.971 256.728 162.385 257.274 162.772C257.825 163.155 258.516 163.353 259.343 163.353C260.444 162.305 261.188 161.174 261.575 159.963C261.848 159.083 262.292 158.229 262.895 157.401L262.907 157.398ZM265.139 152.851C265.192 152.688 265.249 152.521 265.306 152.354C265.579 151.746 265.909 151.169 266.296 150.619C266.683 150.069 267.07 149.488 267.454 148.884L267.537 149.048L270.099 140.698C269.325 140.2 268.748 139.787 268.361 139.457C266.926 139.677 265.674 140.367 264.6 141.525C263.526 142.683 262.615 144.087 261.871 145.742C261.127 147.397 261.18 148.9 262.038 150.247C262.892 151.598 263.389 152.509 263.526 152.976C263.662 153.447 263.761 153.788 263.814 154.008C264.087 153.735 264.364 153.511 264.641 153.348C264.858 153.181 265.025 153.018 265.139 152.851Z" fill="#83519C"/>
<path d="M317.474 137.058C317.364 138.766 317.292 140.447 317.265 142.102C317.239 143.757 317.197 145.438 317.14 147.146C317.03 148.581 316.905 149.985 316.768 151.363C316.628 152.741 316.643 154.118 316.81 155.496C316.863 156.213 316.89 157.041 316.89 157.975C316.89 158.908 316.848 159.876 316.768 160.867C316.685 161.861 316.601 162.821 316.518 163.763C316.434 164.7 316.366 165.528 316.309 166.241L315.565 170.705C315.235 173.35 314.628 175.9 313.747 178.352C312.863 180.804 311.625 183.135 310.028 185.34C309.033 186.771 307.712 187.818 306.057 188.482C304.68 189.033 303.287 189.488 301.882 189.845C300.478 190.202 299.055 190.437 297.624 190.547C296.74 190.6 296.121 190.505 295.764 190.259C295.404 190.008 295.146 189.473 294.979 188.646C294.428 186.053 294.219 183.548 294.36 181.123C294.497 178.698 295.339 176.329 296.884 174.014C297.821 172.579 299.017 171.338 300.482 170.295C301.943 169.247 303.473 168.587 305.071 168.31C305.124 168.917 305.002 169.399 304.699 169.756C304.395 170.112 304.05 170.431 303.663 170.708C301.567 172.306 300.106 174.166 299.283 176.288C298.455 178.409 297.905 180.709 297.632 183.192C297.632 183.799 297.711 184.376 297.878 184.926C298.098 185.974 298.842 186.387 300.11 186.167C301.545 185.89 302.687 185.325 303.541 184.471C304.395 183.617 305.04 182.554 305.484 181.286C305.925 179.965 306.354 178.531 306.763 176.986C307.177 175.441 307.549 173.859 307.879 172.23C308.209 170.602 308.483 169.004 308.707 167.437C308.923 165.865 309.09 164.389 309.204 163.015C309.204 162.848 309.23 162.366 309.287 161.569C309.341 160.772 309.424 159.804 309.534 158.677C309.644 157.546 309.754 156.335 309.864 155.041C309.974 153.746 310.073 152.52 310.153 151.363C310.232 150.205 310.305 149.184 310.358 148.304C310.411 147.423 310.441 146.842 310.441 146.569C310.331 146.679 310.126 147.176 309.823 148.057C309.519 148.941 309.174 150 308.786 151.241C308.399 152.483 308.012 153.803 307.629 155.211C307.242 156.616 306.87 157.925 306.513 159.14C306.156 160.354 305.837 161.371 305.564 162.199C305.287 163.026 305.12 163.467 305.067 163.52C304.57 164.017 303.936 164.4 303.165 164.677C302.391 164.951 301.624 165.049 300.85 164.966C300.076 164.882 299.374 164.636 298.744 164.222C298.11 163.808 297.681 163.133 297.465 162.195L295.893 155.993C295.783 155.826 295.726 155.637 295.726 155.413C295.726 155.189 295.673 154.946 295.559 154.669L295.643 154.752C295.423 153.154 295.396 151.568 295.559 149.996C295.726 148.425 296.03 146.482 296.47 144.167C296.857 142.736 297.244 141.343 297.628 139.992C298.011 138.64 298.425 137.251 298.869 135.817C299.142 134.936 299.556 134.219 300.11 133.668C300.664 133.118 301.431 132.761 302.425 132.594C303.86 132.427 305.291 132.249 306.725 132.055C308.16 131.862 309.591 131.987 311.026 132.427C311.246 132.484 311.439 132.553 311.606 132.636C311.77 132.72 311.99 132.814 312.267 132.925C311.937 134.522 311.079 135.13 309.701 134.743C308.764 134.469 308.02 134.507 307.469 134.868C306.919 135.228 306.505 135.79 306.228 136.561C305.568 138.158 304.93 139.772 304.327 141.396C303.719 143.024 303.336 144.717 303.169 146.482C303.059 147.86 302.949 149.226 302.839 150.573C302.729 151.925 302.676 153.261 302.676 154.581C302.619 155.466 302.676 156.331 302.839 157.185C303.006 158.039 303.143 158.935 303.253 159.872H303.75C303.86 159.705 303.985 159.542 304.122 159.375C304.258 159.212 304.38 159.018 304.494 158.798C305.211 156.373 305.928 153.989 306.642 151.648C307.359 149.306 308.02 146.922 308.627 144.497C308.9 143.669 309.01 142.815 308.957 141.935C308.904 141.054 308.931 140.17 309.041 139.289C309.094 138.242 309.261 137.593 309.538 137.346C309.811 137.1 310.475 136.838 311.523 136.561C313.451 136.063 315.436 136.23 317.474 137.058ZM295.563 154.422C295.51 154.369 295.48 154.285 295.48 154.171L295.563 154.422Z" fill="#83519C"/>
<path d="M337.15 152.93C337.366 153.151 337.59 153.261 337.81 153.261C338.194 153.261 338.569 153.166 338.926 152.972C339.283 152.779 339.67 152.532 340.084 152.228C340.497 151.925 340.964 151.594 341.488 151.234C342.012 150.877 342.657 150.532 343.431 150.201C343.321 150.809 343.128 151.469 342.854 152.186C342.577 152.904 341.974 153.621 341.036 154.335C340.152 155.109 339.423 155.618 338.846 155.864C338.266 156.111 337.51 156.069 336.573 155.739C336.463 155.739 336.379 155.712 336.322 155.656C336.155 156.263 335.992 156.855 335.825 157.436C335.658 158.013 335.438 158.608 335.165 159.212C334.721 160.316 334.144 161.334 333.426 162.271C332.709 163.209 331.605 163.702 330.117 163.759C327.638 163.812 325.293 163.041 323.091 161.444C322.374 160.946 321.835 160.328 321.478 159.584C321.118 158.84 320.913 158.054 320.86 157.227V149.37C320.86 149.097 320.845 148.846 320.818 148.626C320.791 148.406 320.776 148.16 320.776 147.882L321.273 142.592C321.714 140.056 322.31 137.604 323.053 135.232C323.797 132.864 324.693 130.518 325.741 128.203L326.485 126.962C327.202 125.474 328.47 124.95 330.288 125.391C331.282 125.668 332.284 125.914 333.305 126.134C334.326 126.355 335.358 126.575 336.406 126.795C336.406 126.905 336.417 126.988 336.448 127.042C336.474 127.099 336.489 127.182 336.489 127.288C335.829 127.729 335.153 128.142 334.463 128.529C333.772 128.917 333.153 129.383 332.603 129.934C332.106 130.484 331.681 131.107 331.324 131.793C330.963 132.484 330.838 133.24 330.952 134.067C332.22 134.344 333.487 134.579 334.755 134.769C336.023 134.963 337.343 135.171 338.725 135.388L340.296 142.087C340.296 142.637 340.213 143.134 340.046 143.575C339.879 144.015 339.685 144.486 339.469 144.979C339.245 145.476 339.013 146.042 338.767 146.675C338.516 147.309 338.281 148.068 338.065 148.949L337.154 152.919L337.15 152.93ZM330.701 159.546C331.252 158.278 331.745 156.984 332.189 155.659C332.629 154.339 333.07 153.014 333.51 151.689L333.259 150.615C332.982 149.678 332.804 148.315 332.724 146.524C332.641 144.732 332.736 142.872 333.013 140.944C332.406 140.174 331.912 139.362 331.525 138.504C331.138 137.65 330.948 136.671 330.948 135.57C330.675 135.57 330.451 135.543 330.288 135.486C330.178 135.653 330.067 135.805 329.957 135.942C329.847 136.082 329.764 136.23 329.707 136.397C328.713 139.373 327.969 142.406 327.475 145.491C326.978 148.581 326.674 151.746 326.564 154.999C326.511 155.773 326.538 156.57 326.648 157.398C326.758 158.225 326.898 159.052 327.061 159.876C327.115 160.153 327.255 160.453 327.475 160.787C327.695 161.117 327.942 161.337 328.219 161.447C328.439 161.557 328.701 161.531 329.005 161.364C329.305 161.197 329.57 161.034 329.79 160.867C330.231 160.536 330.534 160.096 330.701 159.546Z" fill="#83519C"/>
<path d="M357.239 127.053C356.909 127.603 356.385 128.457 355.668 129.615C354.673 131.05 353.876 132.758 353.269 134.743C352.939 135.68 352.662 136.675 352.442 137.718C352.939 137.221 353.463 136.864 354.013 136.644C354.563 136.424 355.307 136.451 356.245 136.728C357.125 137.005 357.994 137.225 358.848 137.388C359.702 137.555 360.541 137.938 361.369 138.546C362.469 139.32 363.134 139.908 363.354 140.322C363.57 140.736 363.547 141.578 363.27 142.842L363.767 145.241C363.38 147.556 361.562 150.862 358.31 155.162L354.427 161.861C354.26 162.134 354.097 162.427 353.93 162.73C353.766 163.034 353.573 163.322 353.353 163.599C352.912 164.15 352.499 164.7 352.112 165.254C351.945 165.531 351.751 165.695 351.535 165.752V165.919C349.937 165.862 348.419 165.478 346.988 164.761C345.223 163.877 343.887 162.677 342.976 161.163C342.065 159.648 341.473 158.009 341.2 156.244C340.926 154.479 340.869 152.661 341.033 150.786C341.2 148.911 341.446 147.15 341.776 145.495C342.274 143.18 342.892 140.963 343.636 138.838C344.38 136.716 345.196 134.579 346.077 132.431C346.35 131.714 346.669 130.848 347.029 129.827C347.386 128.807 347.952 127.763 348.722 126.685C349.496 125.611 350.183 124.658 350.791 123.834C351.121 123.451 351.478 123.117 351.865 122.84C352.966 121.903 354.787 121.299 357.323 121.022H357.406C357.957 120.969 358.427 120.995 358.811 121.106C359.471 121.106 360.188 121.079 360.959 121.022C361.839 120.802 362.64 120.597 363.357 120.403C364.075 120.21 364.762 120.031 365.422 119.864C366.523 119.481 367.722 119.136 369.02 118.832C370.315 118.528 372.011 118.073 374.106 117.469C372.618 119.234 370.964 120.722 369.146 121.933C367.324 123.147 365.509 124.112 363.688 124.825C362.97 125.155 362.211 125.375 361.414 125.485C360.617 125.596 359.911 125.873 359.308 126.313C358.427 126.81 357.736 127.057 357.243 127.057L357.239 127.053ZM360.131 147.807C360.241 147.697 360.393 147.461 360.587 147.104C360.78 146.748 360.974 146.361 361.168 145.947C361.361 145.533 361.539 145.135 361.703 144.747C361.87 144.364 362.003 144.087 362.116 143.92C361.619 143.537 360.944 143.066 360.09 142.516C359.236 141.965 358.587 141.525 358.146 141.195C356.712 141.415 355.486 142.102 354.469 143.26C353.448 144.417 352.594 145.822 351.903 147.476C351.212 149.131 350.662 150.881 350.248 152.726C349.834 154.574 349.546 156.267 349.383 157.811C349.326 157.921 349.367 158.172 349.504 158.555C349.641 158.942 349.808 159.368 350.001 159.834C350.195 160.305 350.373 160.772 350.536 161.239C350.703 161.706 350.81 162.051 350.867 162.275C351.14 161.998 351.387 161.778 351.611 161.614C351.827 161.451 351.994 161.284 352.108 161.117C352.825 160.237 353.485 159.174 354.093 157.933C354.7 156.692 355.292 155.454 355.873 154.213C356.45 152.972 357.072 151.788 357.733 150.657C358.393 149.526 359.194 148.577 360.131 147.807Z" fill="#83519C"/>
<path d="M369.973 165.581C369.586 168.059 369.669 170.002 370.22 171.411C370.77 172.815 371.541 173.38 372.535 173.103C372.702 173.046 372.823 173.115 372.907 173.312C372.99 173.506 373.059 173.737 373.112 174.014C373.165 174.287 373.18 174.565 373.154 174.842C373.127 175.119 373.028 175.282 372.865 175.339C371.871 175.836 370.645 176.235 369.187 176.538C367.726 176.842 366.223 176.496 364.682 175.506C363.855 175.009 363.247 174.432 362.86 173.767C362.477 173.107 362.2 172.39 362.033 171.619C361.87 170.845 361.798 170.048 361.828 169.221C361.855 168.393 361.896 167.513 361.949 166.575C362.059 165.691 362.295 164.491 362.655 162.977C363.012 161.459 363.358 159.683 363.688 157.644C363.745 157.371 363.783 156.764 363.813 155.826C363.84 154.889 363.881 154.228 363.938 153.841C364.155 152.243 364.435 150.687 364.766 149.169C365.096 147.655 365.343 145.685 365.51 143.256L365.84 137.551C365.84 137.054 365.73 136.614 365.51 136.227C365.232 135.619 365.232 135.042 365.51 134.492C365.783 133.942 366.227 133.612 366.83 133.498C367.104 133.388 367.396 133.334 367.7 133.334H368.569C369.833 133.334 370.854 133.376 371.628 133.46C372.402 133.543 372.994 133.779 373.408 134.162C373.822 134.549 374.125 135.141 374.319 135.938C374.512 136.739 374.66 137.855 374.774 139.286C374.884 140.333 374.884 141.407 374.774 142.508C374.664 143.613 374.554 144.88 374.444 146.311C374.717 145.871 374.953 145.541 375.146 145.317C375.34 145.097 375.488 144.903 375.602 144.74C376.209 143.802 376.828 142.838 377.461 141.848C378.095 140.857 378.744 139.893 379.405 138.956C380.726 137.138 382.27 135.855 384.035 135.111C385.8 134.367 387.781 134.052 389.986 134.162C390.867 134.219 391.725 134.617 392.552 135.361C393.38 136.105 393.846 137.001 393.956 138.048C393.956 138.379 393.945 138.918 393.915 139.662C393.888 140.405 393.831 141.18 393.748 141.977C393.668 142.774 393.569 143.518 393.459 144.208C393.349 144.899 393.209 145.408 393.046 145.738C392.715 147.336 391.987 148.979 390.856 150.657C389.725 152.338 388.335 153.894 386.681 155.329C384.586 157.204 382.862 158.263 381.515 158.514C380.164 158.76 379.021 158.502 378.084 157.728C377.917 157.561 377.78 157.383 377.67 157.189C377.56 156.995 377.644 156.79 377.921 156.57C378.031 156.13 378.334 155.648 378.832 155.124C379.329 154.6 379.712 154.145 379.989 153.762C382.027 151.777 383.766 149.682 385.197 147.476C386.631 145.271 387.538 142.573 387.926 139.373C387.979 139.206 387.967 138.823 387.884 138.215C387.8 137.608 387.569 137.084 387.182 136.644C386.741 136.864 386.385 137.031 386.107 137.141C385.83 137.251 385.557 137.418 385.28 137.639C384.506 138.189 383.572 139.073 382.468 140.284C381.363 141.499 380.236 142.835 379.078 144.292C377.921 145.753 376.805 147.241 375.731 148.755C374.657 150.274 373.787 151.606 373.127 152.763C372.74 153.978 372.353 155.299 371.969 156.733C371.639 157.944 371.294 159.326 370.933 160.867C370.576 162.408 370.258 163.979 369.984 165.581H369.973Z" fill="#83519C"/>
<path d="M419.413 160.537C420.02 159.876 420.57 159.269 421.067 158.719C421.565 158.168 422.062 157.644 422.555 157.147C423.273 156.21 424.085 155.261 424.996 154.297C425.907 153.333 427.076 152.023 428.51 150.368C428.233 152.684 427.656 154.847 426.772 156.859C425.892 158.87 424.897 160.677 423.796 162.275C423.356 162.935 422.832 163.527 422.229 164.051C421.622 164.575 421.014 165.083 420.407 165.581C419.747 166.078 418.972 166.283 418.092 166.199C417.211 166.116 416.357 165.839 415.53 165.372C414.703 164.901 413.97 164.298 413.34 163.554C412.706 162.81 412.361 162.024 412.304 161.197C412.194 159.986 412.015 158.772 411.769 157.561C411.518 156.35 411.533 155.136 411.81 153.925C411.974 153.044 411.81 151.97 411.313 150.702C411.093 150.98 410.873 151.238 410.653 151.488C410.433 151.735 410.239 151.997 410.076 152.274L406.189 158.969C406.026 159.246 405.859 159.535 405.692 159.838C405.525 160.142 405.332 160.43 405.115 160.707C404.671 161.258 404.261 161.823 403.874 162.4C403.487 162.981 402.773 163.102 401.726 162.772C400.568 162.495 399.452 162.07 398.378 161.493C397.304 160.912 396.435 160.073 395.775 158.969C395.277 158.088 394.951 157.329 394.784 156.696C394.617 156.062 394.564 155.401 394.617 154.71C394.67 154.024 394.754 153.223 394.867 152.312C394.977 151.401 395.084 150.201 395.198 148.714C395.418 147.226 395.847 145.863 396.477 144.622C397.111 143.381 397.843 142.223 398.67 141.149C399.494 140.075 400.378 139.039 401.316 138.048C402.253 137.058 403.161 136.037 404.045 134.989C404.595 134.382 405.161 133.968 405.741 133.748C406.318 133.528 407.077 133.555 408.015 133.832C408.895 134.109 409.765 134.329 410.619 134.492C411.473 134.655 412.315 135.042 413.143 135.65C414.243 136.424 414.907 137.012 415.128 137.426C415.348 137.84 415.321 138.682 415.044 139.946L416.699 140.193C418.02 140.47 419.124 141.02 420.009 141.848C420.889 142.675 421.219 143.943 420.999 145.651L419.181 158.878C419.124 159.041 419.124 159.25 419.181 159.497C419.234 159.743 419.318 160.089 419.428 160.529L419.413 160.537ZM411.89 144.911C412 144.801 412.148 144.565 412.346 144.208C412.539 143.852 412.729 143.465 412.922 143.051C413.116 142.637 413.294 142.239 413.458 141.851C413.625 141.468 413.761 141.191 413.871 141.024C413.374 140.641 412.698 140.17 411.845 139.62C410.991 139.069 410.342 138.629 409.901 138.295C408.467 138.515 407.241 139.206 406.223 140.364C405.202 141.521 404.348 142.926 403.662 144.58C402.971 146.235 402.42 147.985 402.007 149.83C401.593 151.678 401.305 153.371 401.138 154.915C401.084 155.026 401.126 155.276 401.263 155.659C401.399 156.047 401.566 156.472 401.76 156.942C401.954 157.413 402.132 157.88 402.299 158.347C402.462 158.817 402.572 159.159 402.629 159.379C402.902 159.106 403.153 158.882 403.373 158.719C403.593 158.555 403.76 158.388 403.87 158.221C404.588 157.341 405.248 156.278 405.855 155.037C406.459 153.796 407.055 152.558 407.632 151.317C408.212 150.076 408.831 148.892 409.491 147.761C410.152 146.63 410.953 145.681 411.89 144.911Z" fill="#83519C"/>
<defs>
<linearGradient id="paint0_linear_12_401" x1="91.7735" y1="103.886" x2="-0.998955" y2="84.1643" gradientUnits="userSpaceOnUse">
<stop stop-color="#FED02C"/>
<stop offset="0.07" stop-color="#FCCA31"/>
<stop offset="0.16" stop-color="#FABC41"/>
<stop offset="0.26" stop-color="#F5A45C"/>
<stop offset="0.33" stop-color="#F18F73"/>
<stop offset="0.71" stop-color="#DC708F"/>
<stop offset="0.75" stop-color="#D56D8F"/>
<stop offset="0.81" stop-color="#C36790"/>
<stop offset="0.88" stop-color="#A45D92"/>
<stop offset="0.96" stop-color="#7B4F94"/>
<stop offset="1" stop-color="#634796"/>
</linearGradient>
<linearGradient id="paint1_linear_12_401" x1="57.7666" y1="114.384" x2="58.5637" y2="68.7698" gradientUnits="userSpaceOnUse">
<stop offset="0.35" stop-color="#F18F73"/>
<stop offset="0.65" stop-color="#DC708F"/>
</linearGradient>
<linearGradient id="paint2_linear_12_401" x1="83.7498" y1="110.421" x2="195.648" y2="99.8396" gradientUnits="userSpaceOnUse">
<stop stop-color="#FED02C"/>
<stop offset="0.05" stop-color="#FCCA31"/>
<stop offset="0.12" stop-color="#F9BB42"/>
<stop offset="0.2" stop-color="#F4A25D"/>
<stop offset="0.25" stop-color="#F18F73"/>
<stop offset="0.54" stop-color="#DC708F"/>
<stop offset="0.6" stop-color="#CB6A8F"/>
<stop offset="0.72" stop-color="#9F5B92"/>
<stop offset="0.86" stop-color="#634796"/>
</linearGradient>
<linearGradient id="paint3_linear_12_401" x1="111.219" y1="103.432" x2="129.301" y2="81.2173" gradientUnits="userSpaceOnUse">
<stop offset="0.11" stop-color="#F18F73"/>
<stop offset="0.92" stop-color="#DC708F"/>
</linearGradient>
<linearGradient id="paint4_linear_12_401" x1="88.1298" y1="85.0183" x2="88.1298" y2="22.2186" gradientUnits="userSpaceOnUse">
<stop stop-color="#FED02C"/>
<stop offset="0.25" stop-color="#F18F73"/>
<stop offset="0.38" stop-color="#EF8B77"/>
<stop offset="0.47" stop-color="#EA847D"/>
<stop offset="0.6" stop-color="#DC708F"/>
<stop offset="0.67" stop-color="#D76E8F"/>
<stop offset="0.75" stop-color="#CB6A8F"/>
<stop offset="0.82" stop-color="#B76391"/>
<stop offset="0.89" stop-color="#9A5992"/>
<stop offset="0.97" stop-color="#754D94"/>
<stop offset="1" stop-color="#634796"/>
</linearGradient>
</defs>
</svg>
