<svg  viewBox="0 0 355 514" fill="none" xmlns="http://www.w3.org/2000/svg">
<g clip-path="url(#clip0_57_671)">
<path d="M19.9971 329.579H5.27991V514H19.9971V329.579Z" fill="#F2A61C"/>
<path d="M10.5598 118.684L17.7521 322.362H179.017V332.345H5.27989L0 119.183L10.5598 118.684Z" fill="#F2A61C"/>
<path d="M48.0595 119.183H0V134.073H48.0595V119.183Z" fill="#F2A61C"/>
<path d="M227.077 329.579H212.36V514H227.077V329.579Z" fill="#F2A61C"/>
<path d="M58.6193 118.684L65.8116 322.362H227.077V332.345H53.3394L48.0595 119.183L58.6193 118.684Z" fill="#F2A61C"/>
<path d="M179.017 329.579H164.3V514H179.017V329.579Z" fill="#F2A61C"/>
<path d="M273.785 496.302L316.669 488.857L308.125 445.955L266.011 454.003L273.785 496.302Z" fill="#FFB5B3"/>
<path d="M174.569 429.318L213.565 443.023L225.227 400.848L183.986 389.077L174.569 429.318Z" fill="#FFB5B3"/>
<path d="M265.367 268.958L234.872 419.273L182.489 391.822L211.84 259.704L265.367 268.958Z" fill="#DC6D92"/>
<path d="M130.418 114.92C130.418 114.92 139.356 118.83 140.873 129.748C142.391 140.686 155.819 213.286 155.819 213.286L246.222 245.354L241.69 261.305L182.281 252.549L112.645 252.362C112.645 252.362 121.292 142.059 120.585 139.979C119.899 137.9 130.438 114.92 130.438 114.92H130.418Z" fill="#FF9184"/>
<path d="M187.228 231.732C197.289 227.199 211.216 245.395 221.527 247.933C225.767 248.972 232.419 249.076 236.015 251.593C237.595 252.716 243.187 261.159 239.778 259.475C231.816 255.565 220.924 252.341 207.412 251.551C203.837 251.343 200.927 250.262 189.64 239.344" fill="#FFB5B3"/>
<path d="M92.1487 248.349C92.1487 248.349 172.615 250.886 226.308 256.792C261.168 260.618 274.721 268.022 278.878 294.1C283.035 320.2 317.687 465.711 317.687 465.711L259.588 480.206L223.107 335.464C223.107 335.464 148.294 322.425 81.381 322.425C44.7543 322.425 20.4751 327.125 19.997 292.104C19.6229 263.779 59.7625 253.756 92.1487 248.349Z" fill="#DC6D92"/>
<path d="M19.9971 287.529L36.0238 234.082L34.9637 119.537L60.4693 97.1807L130.418 114.92V243.877L19.9971 287.529Z" fill="#FF9184"/>
<path d="M182.26 252.549L286.133 267.544L317.687 161.795L272.351 153.684L241.69 261.305" fill="white"/>
<path d="M182.26 252.549L286.133 267.544L317.687 161.795L272.351 153.684L241.69 261.305" stroke="#282833" stroke-linecap="round" stroke-linejoin="round"/>
<path d="M35.5249 124.923C35.5249 124.923 52.3 221.272 55.7714 237.16C59.2429 253.048 71.8398 254.047 88.012 250.969C104.995 247.725 197.684 248.702 197.684 248.702V223.747L95.2667 216.676C95.2667 216.676 81.8383 139.792 78.6787 114.15C75.2073 86.0754 29.4551 94.8722 35.5249 124.923Z" fill="#FF9184"/>
<path d="M35.525 124.923C35.525 124.923 52.3001 221.272 55.7715 237.16C59.2429 253.049 71.8398 254.047 88.0121 250.969C104.995 247.725 197.684 248.702 197.684 248.702V223.747L95.2667 216.676C95.2667 216.676 88.1784 176.123 83.1064 144.097" stroke="#282833" stroke-width="0.5" stroke-linecap="round" stroke-linejoin="round"/>
<path d="M130.417 145.179V219.109" stroke="#282833" stroke-width="0.5" stroke-linecap="round" stroke-linejoin="round"/>
<path d="M231.671 272.41C211.944 267.876 209.907 279.501 206.124 294.683" stroke="white" stroke-width="0.5" stroke-linecap="round" stroke-linejoin="round"/>
<path d="M241.046 273.325C266.572 278.961 259.38 299.653 259.38 299.653L234.082 419.273L184.63 394.359C184.63 394.359 203.11 319.909 207.995 301.026" stroke="white" stroke-width="0.5" stroke-linecap="round" stroke-linejoin="round"/>
<path d="M168.47 434.686L163.731 443.987L215.809 470.545L220.548 461.244L168.47 434.686Z" fill="white"/>
<path d="M168.707 435.39L219.864 461.469L215.603 469.85L164.446 443.771L168.707 435.39ZM168.25 433.997L163.032 444.229L216.039 471.264L221.257 461.032L168.25 433.997Z" fill="#282833"/>
<path d="M172.47 422.039C166.878 426.947 163.552 432.125 159.79 438.53C158.043 441.525 158.688 443.293 161.432 444.728C164.155 446.163 161.432 444.728 199.389 464.713C221.506 475.984 227.763 479.395 230.237 474.508C238.073 459.119 230.049 447.452 230.049 447.452C225.663 440.34 226.911 436.846 226.349 429.983C226.308 429.546 225.726 427.529 224.977 426.76C221.922 423.536 213.69 418.358 205.957 419.585C199.222 420.646 196.479 436.513 183.923 430.919C176.378 427.55 175.588 421.873 176.876 419.398C177.167 418.836 174.403 420.334 172.449 422.039H172.47Z" fill="#624696"/>
<path d="M226.724 476.151C222.961 476.151 215.873 472.532 201.738 465.316L199.617 464.235L161.66 444.249C160.372 443.563 159.665 442.877 159.415 442.045C159.166 441.192 159.436 440.111 160.226 438.759C160.683 437.969 161.307 436.95 161.951 435.91C164.945 437.532 182.718 447.182 192.924 452.381L193.132 452.485L193.36 452.381C193.36 452.381 203.608 448.055 214.002 448.055C221.797 448.055 227.701 450.426 231.546 455.084C235.662 460.075 234.02 465.878 229.758 474.217C229.093 475.527 228.179 476.088 226.703 476.088L226.724 476.151Z" fill="white"/>
<path d="M162.159 436.617C166.13 438.78 182.905 447.868 192.716 452.88L193.153 453.109L193.61 452.922C193.61 452.922 203.775 448.638 214.044 448.638C221.672 448.638 227.451 450.946 231.193 455.48C235.122 460.263 233.5 465.898 229.343 474.051C228.761 475.194 228.033 475.652 226.744 475.652C223.107 475.652 215.623 471.825 202.008 464.879L199.888 463.798L167.689 446.849L161.931 443.813C160.787 443.21 160.143 442.586 159.956 441.92C159.748 441.213 159.997 440.278 160.725 439.051C161.12 438.364 161.64 437.532 162.18 436.638M161.806 435.266C161.058 436.472 160.33 437.636 159.81 438.551C158.064 441.546 158.709 443.314 161.452 444.749C164.176 446.184 161.452 444.749 199.409 464.734C214.958 472.657 222.67 476.692 226.744 476.692C228.47 476.692 229.53 475.964 230.278 474.529C234.623 466.023 236.306 460.055 232.003 454.835C227.451 449.303 220.675 447.619 214.064 447.619C203.442 447.619 193.236 451.986 193.236 451.986C181.99 446.246 161.847 435.266 161.847 435.266H161.806Z" fill="#282833"/>
<path d="M232.315 451.008C232.315 451.008 222.94 440.236 206.144 440.964" stroke="white" stroke-width="0.5" stroke-linecap="round" stroke-linejoin="round"/>
<path d="M228.511 443.251C228.511 443.251 216.933 434.018 207.205 435.557" stroke="white" stroke-width="0.5" stroke-linecap="round" stroke-linejoin="round"/>
<path d="M227.098 437.74C227.098 437.74 219.698 429.962 210.385 430.69" stroke="white" stroke-width="0.5" stroke-linecap="round" stroke-linejoin="round"/>
<path d="M268.443 490.126L267.778 499.38C267.778 499.38 267.071 505.952 266.905 509.113C266.718 512.274 267.986 513.459 270.813 513.501C273.64 513.543 270.813 513.501 310.079 514.021C332.82 514.021 354.979 514.187 354.979 509.175C354.979 493.349 332.716 485.863 332.716 485.863C326.335 482.827 324.111 479.977 320.161 473.988C319.018 472.262 314.403 469.205 307.169 474.446C302.118 478.106 296.007 492.206 283.43 492.871C275.843 493.266 273.099 491.103 271.686 488.213C271.145 487.09 268.443 490.126 268.443 490.126Z" fill="#624696"/>
<path d="M68.0565 329.579H53.3394V514H68.0565V329.579Z" fill="#F2A61C"/>
<path d="M139.73 21.2954C145.176 33.7524 145.343 48.1018 143.118 61.2658C141.642 70.021 140.603 79.005 140.083 87.8434C139.979 89.7566 140.146 92.6681 138.67 94.0823C134.346 98.1791 116.802 91.4411 114.411 86.762" fill="#624696"/>
<path d="M138.046 18.3836C130.979 6.11386 114.973 -2.78693 101.42 2.20417C90.1531 -3.82675 75.6022 3.41035 68.5139 12.1656C59.7834 22.938 58.3075 36.8299 52.3 48.8709C49.2651 54.9434 45.8145 60.0177 41.6363 64.6761C39.7863 66.7557 40.7633 70.6446 43.3409 71.2685C58.6609 74.9702 73.8354 91.94 89.3217 81.9786C96.3684 77.445 99.4449 67.2548 102.708 59.8514C107.011 50.0563 114.599 25.7039 128.609 27.0141" fill="#624696"/>
<path d="M84.2496 81.542C84.2496 81.542 85.1435 90.422 78.4293 101.902C78.4293 101.902 85.9541 136.86 103.249 138.441C120.564 140 115.035 110.428 115.035 110.428C115.035 110.428 115.305 95.4131 118.631 88.3216" fill="#FFB5B3"/>
<path d="M76.3298 53.5297C72.6921 75.8233 90.1739 95.0806 101.69 96.9523C113.206 98.824 135.656 86.2422 138.836 66.7353L142.328 45.2736L124.992 30.3003L105.099 13.8921C105.099 13.8921 94.5184 18.9456 92.3773 20.4845C90.2363 22.0234 80.5495 36.9967 80.5495 36.9967L76.3506 53.5297H76.3298Z" fill="#FFB5B3"/>
<path d="M76.3298 53.5296C76.2259 51.3667 73.8354 45.4398 69.0752 47.3323C64.9593 48.9752 64.5644 56.4618 66.456 61.3281C67.433 63.8237 71.3617 68.1701 76.1219 64.1148" fill="#FFB5B3"/>
<path d="M69.5325 50.6387C74.4382 49.287 76.0596 55.3595 75.8309 59.3939" stroke="#282833" stroke-width="0.5" stroke-linecap="round" stroke-linejoin="round"/>
<path d="M71.7567 60.8292C70.9044 57.8761 73.1286 52.7602 74.9994 53.8624" stroke="#282833" stroke-width="0.5" stroke-linecap="round" stroke-linejoin="round"/>
<path d="M102.833 17.2608C100.068 33.0867 124.327 36.0814 133.037 44.7118C139.439 51.0547 139.896 59.8099 138.483 68.5027L138.836 66.735C145.239 54.5692 146.839 35.8526 139.73 21.316C132.579 6.67547 112.541 0.45739 97.678 7.98563C78.3669 17.7807 75.7893 35.915 76.5376 55.8794C76.5376 55.8794 80.799 42.1539 93.0009 35.6654C99.7567 32.0677 101.648 24.5394 102.833 17.2608Z" fill="#624696"/>
<path d="M116.927 93.6872C105.827 99.5101 94.8302 97.6593 84.5822 84.5576" stroke="#282833" stroke-width="0.5" stroke-miterlimit="10" stroke-linecap="round"/>
</g>
<defs>
<clipPath id="clip0_57_671">
<rect width="355" height="514" fill="white"/>
</clipPath>
</defs>
</svg>
