<svg  viewBox="0 0 1158 650" fill="none" xmlns="http://www.w3.org/2000/svg">
<path d="M17.139 489.335H4.52527V647.328H17.139V489.335Z" fill="#F2A61C"/>
<path d="M369.647 572.019L378.964 608.792L350.637 616.827L337.542 574.514L369.647 572.019Z" fill="#FFB5B3"/>
<path d="M380.265 605.068L383.026 611.927C383.026 611.927 385.164 616.738 386.073 619.089C386.982 621.441 386.305 622.652 384.184 623.365C382.046 624.078 384.184 623.365 354.503 633.36C337.239 638.918 320.474 644.459 319.245 640.664C315.379 628.656 330.451 617.557 330.451 617.539C334.549 613.673 335.547 610.965 337.079 605.478C337.524 603.892 340.286 600.436 347.038 602.645C351.759 604.195 359.848 613.388 369.54 610.823C375.401 609.273 376.951 606.957 377.307 604.409C377.45 603.429 380.247 605.068 380.247 605.068H380.265Z" fill="#DC6D92"/>
<path d="M322.363 641.466C321.276 641.466 319.922 641.306 319.655 640.522C317.588 634.09 321.187 627.873 324.643 623.739H324.857C332.304 623.739 337.738 632.202 337.792 632.291L337.97 632.594L338.29 632.487C346.486 629.85 380.675 618.412 384.719 617.058C385.057 617.878 385.378 618.644 385.61 619.25C386.019 620.301 386.091 621.085 385.824 621.655C385.574 622.189 384.968 622.617 383.988 622.938L354.307 632.932L352.65 633.467C339.894 637.582 327.832 641.466 322.309 641.466H322.363Z" fill="white"/>
<path d="M384.505 617.611C384.79 618.27 385.04 618.911 385.236 619.41C385.592 620.319 385.663 621.013 385.449 621.459C385.253 621.886 384.737 622.225 383.882 622.51L379.374 624.024L354.218 632.487L352.561 633.021C339.84 637.119 327.815 641.003 322.363 641.003C321.062 641.003 320.207 640.771 320.082 640.362C318.105 634.197 321.526 628.211 324.857 624.167C332.055 624.167 337.364 632.433 337.417 632.523L337.792 633.11L338.451 632.897C346.415 630.331 379.018 619.428 384.505 617.593M385.004 616.488C385.004 616.488 346.949 629.227 338.184 632.059C338.184 632.059 332.661 623.294 324.875 623.294C324.732 623.294 324.59 623.294 324.465 623.294C320.777 627.659 317.125 634.019 319.263 640.647C319.548 641.52 320.653 641.894 322.381 641.894C328.207 641.894 341.212 637.618 354.503 633.342C384.184 623.347 382.047 624.078 384.184 623.347C386.322 622.635 386.999 621.423 386.073 619.071C385.806 618.359 385.414 617.432 385.004 616.47V616.488Z" fill="#282833"/>
<path d="M328.046 619.089C328.046 619.089 332.179 618.038 337.631 622.385" stroke="white" stroke-width="0.5" stroke-linecap="round" stroke-linejoin="round"/>
<path d="M330.719 616.595C330.719 616.595 335.119 615.384 340.571 619.731" stroke="white" stroke-width="0.5" stroke-linecap="round" stroke-linejoin="round"/>
<path d="M333.035 614.047C333.035 614.047 337.649 612.765 342.531 617.486" stroke="white" stroke-width="0.5" stroke-linecap="round" stroke-linejoin="round"/>
<path d="M477.416 597.853L480.32 634.073L453.809 634.91L446.683 591.546L477.416 597.853Z" fill="#FFB5B3"/>
<path d="M219.048 146.003L211.423 97.7038C211.12 95.7618 212.385 93.6595 214.237 93.0182L221.827 90.3992C223.68 89.7578 225.444 90.8268 225.747 92.7509L232.053 132.677C232.356 134.619 231.127 136.81 229.328 137.558L219.493 141.638" stroke="#282833" stroke-miterlimit="10"/>
<path d="M231.234 145.985C231.234 145.985 225.889 135.634 223.662 130.289C221.435 124.944 223.217 112.028 218.763 110.692C214.309 109.355 213.418 117.373 215.2 124.944C215.2 124.944 211.529 110.994 211.494 102.674C211.458 94.8888 206.737 100.447 206.292 108.019C205.846 115.591 203.619 135.883 208.964 142.671C214.309 149.441 218.353 157.904 218.353 157.904L231.234 145.985Z" fill="#FFB5B3"/>
<path d="M480.32 601.202L451.689 304.672H341.658C341.658 304.672 304.85 427.282 300.841 438.417C296.833 449.552 297.848 466.976 300.075 477.238C302.302 487.5 326.781 600.668 326.781 600.668L375.241 585.096L355.376 460.687L390.794 384.969L430.88 600.097L480.32 601.202Z" fill="#DC6D92"/>
<path d="M451.671 304.655L442.763 249.852L443.066 131.18L366.743 132.338L349.158 152.025L346.557 227.957L341.64 304.655H451.671Z" fill="#624696"/>
<path d="M340.464 136.721C334.246 141.585 279.444 194.106 279.444 194.106L233.995 139.571L213.079 156.318C213.079 156.318 244.97 204.796 259.633 225.712C270.322 240.962 280.958 238.521 294.035 229.916C328.866 206.969 363.767 174.028 363.767 174.028L366.725 132.374C357.478 131.857 348.018 130.824 340.446 136.739L340.464 136.721Z" fill="#624696"/>
<path d="M449.231 339.663L446.861 350.353C446.861 350.353 437.953 356 436.759 361.933C435.566 367.866 437.062 371.144 439.877 368.757C439.877 368.757 435.566 385.094 439.432 387.16C443.298 389.227 462.29 387.748 463.786 381.816C465.283 375.883 468.24 360.739 466.459 356.285C464.677 351.831 467.011 342.335 467.011 342.335L449.231 339.663Z" fill="#FFB5B3"/>
<path d="M443.066 131.18C454.041 131.18 457.604 145.967 465.621 169.039C471.322 185.412 475.509 200.983 482.564 224.91C486.805 239.288 488.657 243.118 486.662 258.262C483.705 280.692 478.876 332.091 474.975 350.228L442.906 345.328L451.671 246.325L430.88 184.682L443.066 131.198V131.18Z" fill="#624696"/>
<path d="M409.946 131.679L392.13 208.573L396.656 291.863L414.846 304.655H366.743L383.222 292.753L385.2 208.127L372.978 132.249L409.946 131.679Z" fill="white"/>
<path d="M396.656 291.863L451.671 331.503V304.655L396.656 291.863Z" fill="#624696"/>
<path d="M383.222 292.753L334.139 329.597L342.406 292.753H383.222Z" fill="#624696"/>
<path d="M390.794 158.688L380.015 175.952L372.978 132.249L366.743 132.338L379.819 117.622L390.794 158.688ZM390.794 158.688L411.3 122.325L420.191 131.679H409.946L399.702 175.952L390.794 158.688ZM390.794 158.688V182.116L388.567 206.791L388.122 304.672" stroke="#282833" stroke-width="0.5" stroke-linecap="round" stroke-linejoin="round"/>
<path d="M420.191 131.679L418.712 189.421H410.392L417.233 196.244L393.467 231.876L392.13 208.573L399.702 175.952" stroke="#282833" stroke-width="0.5" stroke-linecap="round" stroke-linejoin="round"/>
<path d="M366.743 132.338L365.264 188.227H375.365L366.743 193.287L384.648 231.876L385.2 208.127L380.015 175.952" stroke="#282833" stroke-width="0.5" stroke-linecap="round" stroke-linejoin="round"/>
<path d="M474.975 350.21L442.906 345.311L451.671 246.307L436.688 201.892" stroke="#282833" stroke-width="0.5" stroke-miterlimit="10"/>
<path d="M283.007 209.909C277.663 203.673 279.444 194.106 279.444 194.106C279.444 194.106 274.545 196.547 273.654 202.337" stroke="#282833" stroke-width="0.5" stroke-miterlimit="10"/>
<path d="M482.689 630.937L483.206 638.313C483.206 638.313 483.758 643.533 483.901 646.063C484.043 648.593 483.028 649.519 480.783 649.555C478.538 649.59 480.783 649.555 449.48 649.964C431.343 649.964 413.688 650.107 413.688 646.116C413.688 633.502 431.433 627.552 431.433 627.552C436.51 625.129 438.292 622.866 441.445 618.092C442.354 616.72 446.042 614.279 451.796 618.448C455.823 621.37 460.686 632.594 470.717 633.128C476.774 633.449 478.948 631.721 480.088 629.405C480.533 628.514 482.671 630.937 482.671 630.937H482.689Z" fill="#DC6D92"/>
<path d="M445.988 649.519C437.169 649.519 429.401 649.483 423.558 649.002C415.772 648.361 414.133 647.078 414.133 646.116C414.133 639.364 419.478 634.554 424.021 631.667C431.254 633.841 433.891 643.747 433.909 643.836L433.998 644.174H434.336C442.942 644.174 478.983 643.764 483.259 643.711C483.331 644.584 483.402 645.421 483.437 646.081C483.509 647.203 483.33 647.969 482.903 648.432C482.493 648.878 481.798 649.091 480.765 649.109L449.462 649.519H445.97H445.988Z" fill="white"/>
<path d="M424.11 632.148C430.951 634.358 433.481 643.854 433.499 643.943L433.677 644.62H434.372C442.781 644.62 476.952 644.228 482.885 644.174C482.939 644.905 482.992 645.564 483.028 646.116C483.081 647.096 482.939 647.773 482.6 648.147C482.279 648.486 481.691 648.664 480.783 648.682L476.026 648.735L449.48 649.074H447.734H445.988C437.187 649.074 429.419 649.038 423.611 648.557C415.024 647.844 414.596 646.401 414.596 646.116C414.596 639.649 419.692 634.981 424.11 632.166M423.985 631.204C419.139 634.233 413.706 639.15 413.706 646.134C413.706 649.875 429.152 650 445.988 650C447.146 650 448.322 650 449.48 650C480.783 649.59 478.538 649.626 480.783 649.59C483.028 649.555 484.043 648.628 483.901 646.098C483.865 645.332 483.776 644.335 483.687 643.301C483.687 643.301 443.547 643.764 434.354 643.764C434.354 643.764 431.7 633.36 423.968 631.222L423.985 631.204Z" fill="#282833"/>
<path d="M428.101 628.924C428.101 628.924 432.947 628.532 436.795 634.34" stroke="white" stroke-width="0.5" stroke-linecap="round" stroke-linejoin="round"/>
<path d="M431.718 627.302C431.718 627.302 436.563 626.91 440.412 632.718" stroke="white" stroke-width="0.5" stroke-linecap="round" stroke-linejoin="round"/>
<path d="M434.924 625.752C434.924 625.752 439.77 625.36 443.619 631.169" stroke="white" stroke-width="0.5" stroke-linecap="round" stroke-linejoin="round"/>
<path d="M414.365 76.5205C414.739 74.7033 418.071 69.893 423.112 71.6924C427.495 73.2602 427.05 79.5314 424.395 83.5044C423.041 85.5354 418.16 88.7958 414.133 85.678" fill="#FFB5B3"/>
<path d="M414.953 76.4849C417.091 65.3499 414.365 49.4224 406.757 42.6523C397.012 33.9759 378.59 32.8891 369.272 41.9575C352.543 58.2413 363.696 76.6987 362.003 83.059C363.268 99.5032 373.477 112.135 390.776 110.816C408.076 109.48 416.218 92.9469 414.953 76.4849Z" fill="#FFB5B3"/>
<path d="M404.619 94.8176C404.548 97.5969 408.788 116.571 411.318 122.325L390.812 158.688L379.837 117.622C379.837 117.622 381.94 108.34 376.933 94.9957" fill="#FFB5B3"/>
<path d="M414.187 77.7498C415.22 75.7723 419.104 73.5809 421.562 75.1487" stroke="#282833" stroke-width="0.5" stroke-linecap="round" stroke-linejoin="round"/>
<path d="M415.576 76.182C415.576 76.182 420.743 76.8056 417.536 83.451" stroke="#282833" stroke-width="0.5" stroke-linecap="round" stroke-linejoin="round"/>
<path d="M405.368 104.67C396.495 111.868 386.643 111.6 379.374 109.427" stroke="#282833" stroke-width="0.5" stroke-miterlimit="10" stroke-linecap="round"/>
<path d="M411.621 80.0125C409.305 77.7677 407.987 74.6855 407.363 71.5677C407.167 70.5878 406.33 62.2855 406.953 62.0539C404.441 62.9269 402.161 62.3212 400.148 60.5574C397.618 58.3482 397.529 55.9252 396.406 53.1459C390.883 59.8269 376.524 60.8068 372.675 51.8454C372.265 54.393 369.967 58.3126 368.043 60.0764C365.567 62.339 362.894 62.624 359.812 62.624C360.329 64.4947 358.975 67.0246 357.496 68.2361C355.162 70.1602 352.49 69.0556 350.405 67.2384C342.94 60.7712 342.923 49.9747 346.842 41.7081C349.586 35.9357 356.035 31.2679 362.413 33.2276C362.003 26.8317 370.359 21.9857 375.508 20.8099C382.189 19.2955 387.819 20.6852 391.952 26.1012C392.665 23.3576 395.587 21.1127 398.259 20.4714C402.464 19.4737 408.058 21.0593 411.585 23.4288C418.979 28.3995 423.914 37.646 425.001 46.2689C426.408 57.4396 425.09 67.0602 421.081 71.3895C421.081 71.3895 414.311 71.3895 414.044 79.9947C414.008 81.0102 412.939 81.2952 411.603 79.9947L411.621 80.0125Z" fill="#FED12A"/>
<path d="M390.794 384.951L387.534 366.102L379.819 363.875V314.525" stroke="white" stroke-width="0.5" stroke-linecap="round" stroke-linejoin="round"/>
<path d="M428.101 314.525H354.218" stroke="white" stroke-width="0.5" stroke-linecap="round" stroke-linejoin="round"/>
<path d="M479.215 589.728L428.511 587.395" stroke="white" stroke-width="0.5" stroke-linecap="round" stroke-linejoin="round"/>
<path d="M373.138 572.019L324.02 587.911" stroke="white" stroke-width="0.5" stroke-linecap="round" stroke-linejoin="round"/>
<path d="M835.66 59.916C826.342 52.6114 813.817 49.6718 802.504 54.9275C797.551 57.2436 793.543 60.0051 790.247 64.3344C787.058 68.5211 782.924 72.9039 778.453 75.701C773.019 79.086 766.249 80.5648 761.67 85.1435C757.269 89.544 757.269 93.9446 757.572 99.4854C748.237 103.387 749.341 114.95 758.16 118.37C759.781 130.396 780.056 130.646 787.842 126.174C799.173 119.653 801.506 104.848 804.927 93.321C806.228 88.9383 807.849 84.6268 809.185 80.4044C810.414 76.5383 810.806 71.2114 813.069 67.5591" fill="#FF9184"/>
<path d="M864.842 259.544C864.842 259.544 866.339 278.376 866.464 280.068C866.588 281.761 874.534 280.371 878.579 278.714C882.623 277.075 879.309 273.423 878.579 271.392L886.667 263.446L880.111 244.312" fill="#FFB5B3"/>
<path d="M801.061 116.589C801.061 116.589 804.696 129.719 800.847 139.732C800.847 139.732 805.355 153.397 817.149 153.397C828.943 153.397 829.317 140.854 829.317 140.854C829.317 140.854 827.589 123.59 829.317 117.515" fill="#FFB5B3"/>
<path d="M791.138 95.3342C791.138 113.542 807.546 126.601 816.953 126.601C826.36 126.601 842.608 113.685 842.608 97.7394V80.2084L826.859 70.5522L808.9 60.0764C808.9 60.0764 801.132 65.4746 799.636 66.9712C798.121 68.4677 792.349 81.6515 792.349 81.6515L791.155 95.352L791.138 95.3342Z" fill="#FFB5B3"/>
<path d="M777.045 295.337L769.562 472.321L781.517 620.96L794.719 635.444L810.13 631.881L805.569 476.187L826.823 315.451C842.216 281.387 787.574 256.694 777.045 295.355V295.337Z" fill="#FFB5B3"/>
<path d="M815.332 295.337L830.654 472.321L848.844 632.184L877.011 635.444L870.169 476.187L865.092 315.451C880.485 281.387 825.843 256.694 815.314 295.355L815.332 295.337Z" fill="#FFB5B3"/>
<path d="M767.496 295.337L776.956 139.732H794.915C794.915 139.732 795.164 169.948 812.178 169.948C829.193 169.948 834.68 139.732 834.68 139.732H855.364L867.978 299.185H766.854L767.496 295.337Z" fill="#FED12A"/>
<path d="M877.813 640.54H836.943V647.702H877.813V640.54Z" fill="white"/>
<path d="M877.367 640.985V647.256H837.388V640.985H877.367ZM878.258 640.094H836.497V648.147H878.258V640.094Z" fill="#282833"/>
<path d="M863.791 142.796C863.791 142.796 928.285 184.931 937.835 194.32C947.384 203.709 946.903 219.583 937.835 227.921C928.766 236.277 886.507 268.595 886.507 268.595L871.595 246.325L915.404 211.174C915.404 211.174 858.464 175.72 849.467 167.863C833.967 154.341 851.855 131.429 863.774 142.796H863.791Z" fill="#FED12A"/>
<path d="M791.138 95.3342C790.764 93.6239 788.091 89.2233 784.564 91.3435C781.499 93.1785 782.158 99.1825 784.296 102.817C785.383 104.67 789.089 107.609 792.349 103.779" fill="#FFB5B3"/>
<path d="M807.546 63.0516C807.404 76.0039 827.108 75.2378 835.143 80.9745C841.058 85.1969 842.359 90.8802 842.359 97.9888L842.608 97.7394C846.118 87.2279 844.978 72.1378 837.441 61.4838C829.852 50.7586 813.105 48.4069 802.255 56.335C788.145 66.6326 788.447 81.4021 791.636 97.1871C791.636 97.1871 793.24 85.7136 802.13 78.9791C807.047 75.2378 807.564 69.0022 807.564 63.0516" fill="#FF9184"/>
<path d="M828.658 122.023C820.57 128.08 811.573 128.044 801.72 118.958" stroke="#282833" stroke-width="0.5" stroke-miterlimit="10" stroke-linecap="round"/>
<path d="M927.519 211.174C921.818 209.143 915.404 211.174 915.404 211.174C915.404 211.174 919.431 205.847 922.549 206.025" stroke="#282833" stroke-width="0.5" stroke-linecap="round" stroke-linejoin="round"/>
<path d="M812.464 630.581L812.98 637.867C812.98 637.867 813.532 643.034 813.675 645.528C813.818 648.022 812.82 648.949 810.593 648.985C808.366 649.02 810.593 648.985 779.664 649.394C761.741 649.394 744.299 649.537 744.299 645.582C744.299 633.128 761.848 627.231 761.848 627.231C766.872 624.844 768.618 622.599 771.736 617.896C772.645 616.542 776.279 614.136 781.963 618.252C785.935 621.138 790.746 632.237 800.651 632.754C806.638 633.075 808.793 631.364 809.898 629.084C810.326 628.193 812.464 630.598 812.464 630.598V630.581Z" fill="#DC6D92"/>
<path d="M776.208 648.931C767.496 648.931 759.817 648.895 754.045 648.414C746.348 647.773 744.727 646.508 744.727 645.564C744.727 638.883 750.001 634.144 754.508 631.293C761.652 633.431 764.253 643.212 764.271 643.319L764.36 643.658H764.699C773.197 643.658 808.793 643.248 813.051 643.212C813.123 644.085 813.194 644.905 813.23 645.546C813.301 646.651 813.123 647.417 812.695 647.862C812.303 648.29 811.608 648.503 810.593 648.521L779.664 648.931H776.226H776.208Z" fill="white"/>
<path d="M754.579 631.792C761.332 633.983 763.826 643.355 763.844 643.444L764.022 644.121H764.717C772.983 644.121 806.905 643.747 812.659 643.675C812.713 644.388 812.766 645.047 812.802 645.582C812.855 646.544 812.713 647.221 812.392 647.577C812.072 647.916 811.501 648.076 810.611 648.094L805.907 648.147L779.682 648.486H777.954H776.244C767.532 648.486 759.871 648.45 754.116 647.969C745.636 647.256 745.208 645.849 745.208 645.564C745.208 639.186 750.232 634.571 754.597 631.792M754.472 630.83C749.68 633.823 744.317 638.687 744.317 645.582C744.317 649.27 759.603 649.394 776.244 649.394C777.384 649.394 778.542 649.394 779.682 649.394C810.611 648.985 808.384 649.02 810.611 648.985C812.838 648.949 813.835 648.022 813.693 645.528C813.657 644.78 813.568 643.782 813.479 642.767C813.479 642.767 773.821 643.212 764.734 643.23C764.734 643.23 762.098 632.95 754.472 630.83Z" fill="#282833"/>
<path d="M757.75 628.585C757.75 628.585 763.327 628.193 767.14 633.948" stroke="white" stroke-width="0.5" stroke-linecap="round" stroke-linejoin="round"/>
<path d="M761.474 626.982C761.474 626.982 766.872 626.59 770.685 632.344" stroke="white" stroke-width="0.5" stroke-linecap="round" stroke-linejoin="round"/>
<path d="M764.396 625.2C764.396 625.2 770.043 625.058 773.856 630.812" stroke="white" stroke-width="0.5" stroke-linecap="round" stroke-linejoin="round"/>
<path d="M879.434 631.275C881.358 636.121 881.803 640.415 882.106 645.617C882.249 648.04 881.269 648.949 879.113 648.967C876.957 649.002 879.113 648.967 849.022 649.359C831.598 649.359 826.609 649.483 826.609 645.653C826.609 633.52 835.339 628.799 835.339 628.799C840.345 625.752 840.666 623.169 843.214 619.071C843.374 618.822 844.39 617.735 845.102 617.486C848.042 616.435 854.83 615.829 859.284 619.071C863.15 621.886 859.818 632.683 869.439 633.182C875.229 633.485 876.654 630.634 876.637 628.674C876.637 628.229 878.775 629.601 879.452 631.275H879.434Z" fill="#DC6D92"/>
<path d="M845.797 648.931C831.241 648.931 827.037 648.789 827.037 645.671C827.037 639.132 827.839 635.017 831.972 633.217C833.522 632.54 835.197 632.202 836.925 632.202C846.92 632.202 856.522 643.568 856.611 643.675L856.754 643.836H856.968C864.932 643.836 878.917 643.479 881.5 643.408C881.572 644.245 881.643 645.047 881.661 645.671C881.732 646.74 881.554 647.488 881.144 647.916C880.752 648.325 880.093 648.539 879.095 648.557L849.004 648.949H845.797V648.931Z" fill="white"/>
<path d="M836.925 631.739V632.629C846.706 632.629 856.184 643.836 856.273 643.943L856.54 644.263H856.95C864.557 644.263 877.652 643.925 881.091 643.836C881.144 644.513 881.198 645.154 881.215 645.671C881.269 646.597 881.144 647.256 880.823 647.595C880.521 647.916 879.95 648.076 879.095 648.094L874.517 648.147L849.004 648.486H847.312H845.779C831.865 648.486 827.465 648.361 827.465 645.671C827.465 639.168 828.213 635.337 832.132 633.627C833.629 632.968 835.232 632.647 836.907 632.647V631.756M836.907 631.756C835.197 631.756 833.486 632.077 831.776 632.808C827.411 634.696 826.574 638.972 826.574 645.671C826.574 649.27 830.939 649.376 845.779 649.376C846.795 649.376 847.882 649.376 849.004 649.376C879.095 648.985 876.94 649.02 879.095 648.985C881.269 648.949 882.231 648.058 882.088 645.635C882.053 644.905 881.964 643.943 881.875 642.945C881.875 642.945 865.769 643.39 856.932 643.39C856.932 643.39 847.222 631.756 836.907 631.756Z" fill="#282833"/>
<path d="M832.774 630.313C832.774 630.313 842.056 626.572 852.336 632.38" stroke="white" stroke-width="0.5" stroke-linecap="round" stroke-linejoin="round"/>
<path d="M837.62 626.697C837.62 626.697 847.793 624.612 853.387 628.674" stroke="white" stroke-width="0.5" stroke-linecap="round" stroke-linejoin="round"/>
<path d="M840.256 623.686C840.256 623.686 847.365 621.174 852.959 624.612" stroke="white" stroke-width="0.5" stroke-linecap="round" stroke-linejoin="round"/>
<path d="M766.854 299.185L757.75 477.737V501.201L813.354 500.898L813.639 477.113L816.383 381.442L828.658 501.201H883.763L882.124 479.483L867.978 299.185H766.854Z" fill="#DC6D92"/>
<path d="M783.637 360.65C783.637 362.61 782.087 363.821 780.181 363.34L730.51 350.834C728.603 350.353 727.053 348.357 727.053 346.397V302.73C727.053 300.771 728.603 299.559 730.51 300.04L780.181 312.547C782.087 313.028 783.637 315.023 783.637 316.983V360.65Z" fill="white"/>
<path d="M783.637 360.65C783.637 362.61 782.087 363.821 780.181 363.34L730.51 350.834C728.603 350.353 727.053 348.357 727.053 346.397V302.73C727.053 300.771 728.603 299.559 730.51 300.04L780.181 312.547C782.087 313.028 783.637 315.023 783.637 316.983V360.65Z" stroke="#282833" stroke-width="0.5" stroke-miterlimit="10"/>
<path d="M740.754 335.387C740.754 335.387 740.344 350.941 743.818 355.163C748.486 360.828 763.024 362.948 764.307 359.118C764.859 357.283 758.677 352.33 757.305 350.834C755.47 348.82 756.575 337.222 756.575 337.222L740.754 335.387Z" fill="#FFB5B3"/>
<path d="M763.398 152.114L741.413 241.426C741.413 241.426 737.583 324.84 737.886 338.683L759.087 340.037C759.675 326.533 762.935 247.911 762.935 247.911C762.935 247.911 784.546 171.07 788.18 158.047C793.436 139.197 767.799 131.198 763.416 152.114H763.398Z" fill="#FED12A"/>
<path d="M778.649 320.03C778.72 321.972 777.883 323.575 776.796 323.611C775.709 323.646 774.765 322.096 774.694 320.154C774.622 318.213 775.46 316.609 776.546 316.573C777.633 316.538 778.577 318.088 778.649 320.03Z" stroke="#282833" stroke-width="0.5" stroke-miterlimit="10"/>
<path d="M775.032 171.533L768.155 208.591L772.075 215.45L766.854 299.185" stroke="#282833" stroke-width="0.5" stroke-miterlimit="10" stroke-linecap="round"/>
<path d="M915.404 211.174L854.278 171.533" stroke="#282833" stroke-width="0.5" stroke-miterlimit="10" stroke-linecap="round"/>
<path d="M845.031 184.931L846.581 206.934L818.913 207.361L820.748 184.931H845.031Z" stroke="#282833" stroke-width="0.5" stroke-miterlimit="10" stroke-linecap="round"/>
<path d="M794.915 139.732H800.865" stroke="#282833" stroke-width="0.5" stroke-miterlimit="10" stroke-linecap="round"/>
<path d="M834.68 139.732H829.228" stroke="#282833" stroke-width="0.5" stroke-miterlimit="10" stroke-linecap="round"/>
<path d="M640.61 106.291L625.039 103.334H595.928L579.537 106.291C579.537 106.291 579.288 123.27 579.751 124.196C580.214 125.123 587.679 133.407 590.244 134.316C592.792 135.242 608.773 138.306 614.439 137.683C620.104 137.077 628.388 133.389 632.985 130.004C637.582 126.637 642.445 117.729 642.926 116.197C643.407 114.665 640.61 106.273 640.61 106.273V106.291Z" fill="white"/>
<path d="M653.527 108.981C662.132 103.779 672.02 108.126 681.462 119.047C691.261 130.396 720.23 164.959 734.251 184.058C741.983 194.569 740.665 209.891 724.684 212.902C708.792 215.895 636.049 226.032 636.049 226.032L628.994 196.6L693.256 186.338C693.256 186.338 660.386 149.245 651.211 138.075C643.532 128.721 645.421 113.899 653.527 108.999V108.981Z" fill="#FED12A"/>
<path d="M664.163 578.166H635.64V620.835H664.163V578.166Z" fill="#FFB5B3"/>
<path d="M507.293 620.835L514.117 581.141L540.805 582.37L532.752 620.835H507.293Z" fill="#FFB5B3"/>
<path d="M667.601 291.417L669.241 438.524L674.229 591.421L625.859 597.211L608.951 347.217C602.217 333.552 600.774 300.842 612.051 286.696C628.032 266.671 661.063 269.432 667.601 291.399V291.417Z" fill="#624696"/>
<path d="M615.329 291.417L608.951 347.217L590.351 446.755L555.984 597.211L504.852 593.416L529.973 430.934L547.343 295.64C552.617 260.898 607.205 253.95 615.329 291.417Z" fill="#624696"/>
<path d="M666.853 286.945L661.223 106.665L640.61 106.273C640.61 106.273 635.248 129.381 608.951 129.381C582.655 129.381 579.537 106.273 579.537 106.273H555.539L548.27 291.399H667.601L666.853 286.928V286.945Z" fill="#FED12A"/>
<path d="M597.798 79.4245C597.798 79.4245 598.066 97.294 595.91 103.316C595.91 103.316 597.78 117.426 610.465 117.426C623.15 117.426 625.021 103.316 625.021 103.316C625.021 103.316 622.865 84.8228 624.202 78.8901L597.78 79.4245H597.798Z" fill="#FFB5B3"/>
<path d="M584.597 57.5108C584.205 55.6758 581.336 50.9902 577.559 53.235C574.281 55.1948 574.994 61.6085 577.274 65.4924C578.45 67.47 582.388 70.4453 585.309 66.9177" fill="#FFB5B3"/>
<path d="M578.415 55.9965C582.405 54.1793 584.543 59.8626 584.615 62.3568" stroke="#282833" stroke-width="0.5" stroke-linecap="round" stroke-linejoin="round"/>
<path d="M581.711 64.3522C580.57 61.9649 581.515 57.3505 583.26 58.0275" stroke="#282833" stroke-width="0.5" stroke-linecap="round" stroke-linejoin="round"/>
<path d="M637.368 66.9355C640.29 70.4631 644.227 67.4878 645.403 65.5102C647.683 61.6442 648.396 55.2126 645.118 53.2528C641.341 50.9902 638.045 54.8385 637.973 60.0942" fill="#FFB5B3"/>
<path d="M644.262 56.0143C640.272 54.1793 638.134 59.8804 638.063 62.3746" stroke="#282833" stroke-width="0.5" stroke-linecap="round" stroke-linejoin="round"/>
<path d="M641.216 64.3522C642.356 61.9649 641.091 57.4218 639.345 58.1166" stroke="#282833" stroke-width="0.5" stroke-linecap="round" stroke-linejoin="round"/>
<path d="M583.688 57.5108C580.624 46.2333 582.156 29.611 589.425 22.057C598.76 12.3651 617.093 10.4766 627.943 18.3691C639.915 27.0989 641.216 43.454 638.686 58.0631V60.0942C638.686 77.1263 629.19 90.9337 611.285 90.9337C593.38 90.9337 583.688 74.5608 583.688 57.5287" fill="#FFB5B3"/>
<path d="M623.97 88.0653C623.97 88.0653 609.432 94.8532 597.175 86.7291" stroke="#282833" stroke-width="0.5" stroke-miterlimit="10"/>
<path d="M548.27 291.417H667.601" stroke="white" stroke-width="0.5" stroke-miterlimit="10"/>
<path d="M534.213 642.749C534.213 642.749 535.71 628.122 534.213 620.532C533.732 618.074 520.619 615.579 518.143 614.546C513.012 606.832 504.122 610.413 503.106 611.286C500.986 613.103 499.365 618.038 499.365 618.038C488.426 621.886 480.266 630.189 480.266 642.767" fill="#FF9184"/>
<path d="M479.696 643.515C479.856 635.355 482.992 628.46 490.867 629.048C497.975 629.583 501.253 636.656 501.948 642.749H534.213V647.773H479.696V643.533V643.515Z" fill="#DC6D92"/>
<path d="M487.054 623.935C490.243 621.779 500.541 621.601 505.102 625.859" stroke="white" stroke-width="0.5" stroke-miterlimit="10" stroke-linecap="round"/>
<path d="M493.646 619.891C496.568 618.679 501.77 617.539 508.023 622.225" stroke="white" stroke-width="0.5" stroke-miterlimit="10" stroke-linecap="round"/>
<path d="M630.045 642.963C630.045 642.963 630.295 628.264 635.069 620.942L663.415 611.838C663.415 611.838 664.163 608.827 666.39 608.239C668.261 607.758 669.472 609.896 669.472 609.896L678.149 623.935L688.589 628.336C697.016 629.44 706.494 630.83 705.656 643.283" fill="#FF9184"/>
<path d="M630.045 642.963L688.607 643.23C688.607 643.23 688.571 628.371 688.571 628.336C688.571 627.926 695.27 628.959 695.644 629.048C702.022 630.616 706.957 634.286 706.12 641.52C705.888 643.462 706.262 647.043 700.009 648.094C697.817 648.468 630.028 647.809 630.028 647.809V642.981L630.045 642.963Z" fill="#DC6D92"/>
<path d="M678.487 623.49C678.487 623.49 673.303 624.844 668.884 632.255" stroke="white" stroke-width="0.5" stroke-linecap="round" stroke-linejoin="round"/>
<path d="M676.83 621.085C676.83 621.085 668.938 622.652 665.374 629.547" stroke="white" stroke-width="0.5" stroke-linecap="round" stroke-linejoin="round"/>
<path d="M675.85 618.27C675.85 618.27 668.207 618.501 663.575 625.432" stroke="white" stroke-width="0.5" stroke-linecap="round" stroke-linejoin="round"/>
<path d="M649.144 630.901C650.088 634.233 648.146 637.707 644.815 638.651C641.483 639.595 638.009 637.671 637.065 634.322C636.12 630.99 638.045 627.516 641.376 626.572C644.708 625.628 648.182 627.552 649.126 630.883L649.144 630.901Z" stroke="white" stroke-width="0.5" stroke-linecap="round" stroke-linejoin="round"/>
<path d="M530.489 630.402C531.273 633.734 529.67 637.208 526.908 638.152C524.147 639.097 521.261 637.172 520.477 633.841C519.693 630.509 521.296 627.053 524.058 626.109C526.819 625.164 529.706 627.089 530.489 630.42V630.402Z" stroke="white" stroke-width="0.5" stroke-linecap="round" stroke-linejoin="round"/>
<path d="M576.383 291.417C576.383 313.295 562.077 325.018 542.676 325.072" stroke="white" stroke-width="0.5" stroke-miterlimit="10"/>
<path d="M570.255 291.417C570.255 299.06 567.957 317.464 544.333 319.157" stroke="white" stroke-width="0.5" stroke-miterlimit="10"/>
<path d="M638.722 291.417C638.722 313.295 651.335 325.838 667.993 325.909" stroke="white" stroke-width="0.5" stroke-miterlimit="10"/>
<path d="M645.403 291.417C645.403 299.06 646.757 318.23 667.922 319.157" stroke="white" stroke-width="0.5" stroke-miterlimit="10"/>
<path d="M608.951 347.217L607.936 291.417" stroke="white" stroke-width="0.5" stroke-miterlimit="10"/>
<path d="M602.769 296.138C602.769 296.815 603.321 297.368 603.998 297.368C604.675 297.368 605.228 296.815 605.228 296.138C605.228 295.461 604.675 294.909 603.998 294.909C603.321 294.909 602.769 295.461 602.769 296.138Z" fill="white"/>
<path d="M558.122 587.822L506.295 584.063" stroke="white" stroke-width="0.5" stroke-miterlimit="10" stroke-linecap="round"/>
<path d="M674.229 581.141L625.021 585.951" stroke="white" stroke-width="0.5" stroke-miterlimit="10" stroke-linecap="round"/>
<path d="M593.398 226.032C593.398 226.032 588.267 226.87 587.305 231.021C586.343 235.172 588.57 234.78 588.57 234.78L593.398 231.716V226.032Z" fill="#FFB5B3"/>
<path d="M664.822 221.97L640.61 225.409" stroke="#282833" stroke-width="0.5" stroke-miterlimit="10"/>
<path d="M636.976 195.353L693.257 186.338C693.257 186.338 702.628 187.995 706.316 192.895" stroke="#282833" stroke-width="0.5" stroke-miterlimit="10"/>
<path d="M703.857 186.338C703.857 186.338 699.225 182.846 693.256 186.338C693.256 186.338 663.041 151.971 662.096 150.938" stroke="#282833" stroke-width="0.5" stroke-miterlimit="10"/>
<path d="M641.091 185.234H596.961C594.993 185.234 593.398 186.829 593.398 188.797V257.139C593.398 259.107 594.993 260.702 596.961 260.702H641.091C643.059 260.702 644.654 259.107 644.654 257.139V188.797C644.654 186.829 643.059 185.234 641.091 185.234Z" fill="white"/>
<path d="M587.323 231.021C587.323 231.021 606.795 233.088 609.147 234.317C611.517 235.546 607.829 255.625 602.769 255.856C597.709 256.088 588.979 252.115 580.463 247.198L587.323 231.021Z" fill="#FFB5B3"/>
<path d="M545.615 113.293C545.615 113.293 501.717 182.33 495.232 196.44C488.747 210.568 495.819 227.582 509.092 232.909C522.383 238.236 581.586 255.856 581.586 255.856L588.57 225.534L529.991 204.154C529.991 204.154 564.963 146.805 571.484 134.583C582.726 113.507 553.864 96.0291 545.597 113.275L545.615 113.293Z" fill="#FED12A"/>
<path d="M614.438 204.796C614.438 207.343 616.505 209.392 619.035 209.392C621.565 209.392 623.632 207.326 623.632 204.796C623.632 202.266 621.565 200.199 619.035 200.199C616.505 200.199 614.438 202.266 614.438 204.796Z" stroke="#282833" stroke-width="0.5" stroke-miterlimit="10"/>
<path d="M581.586 255.856L550.034 246.289" stroke="#282833" stroke-width="0.5" stroke-miterlimit="10"/>
<path d="M581.586 255.856L588.57 225.534L529.991 204.154C529.991 204.154 522.526 203.638 517.003 207.308" stroke="#282833" stroke-width="0.5" stroke-miterlimit="10"/>
<path d="M520.691 200.199C525.911 198.899 529.991 204.172 529.991 204.172L563.182 149.067" stroke="#282833" stroke-width="0.5" stroke-miterlimit="10"/>
<path d="M663.86 191.06L662.096 143.812" stroke="#282833" stroke-width="0.5" stroke-miterlimit="10"/>
<path d="M640.61 106.291L625.039 103.316" stroke="#282833" stroke-width="0.5" stroke-miterlimit="10"/>
<path d="M595.91 103.316L579.537 106.291" stroke="#282833" stroke-width="0.5" stroke-miterlimit="10"/>
<path d="M584.615 63.7286C579.573 53.8229 580.125 39.1425 579.466 28.3104C578.468 12.1513 579.537 9.56795 590.031 7.91106C590.779 7.78635 591.545 7.80417 592.311 7.69727C593.843 7.51911 595.375 7.25187 596.925 6.93118C605.584 5.18522 614.438 1.9427 623.061 3.49269C631.916 5.07832 639.363 11.884 645.795 18.0127C646.454 18.6363 647.06 20.988 647.06 21.7007C647.095 31.0541 642.356 50.8298 638.668 61.1809C638.668 61.1809 638.74 44.1666 633.448 39.1069C628.157 34.0472 632.54 28.9874 629.083 27.1345C625.627 25.2995 624.807 27.4374 613.423 27.669C602.056 27.9006 597.674 25.1035 595.073 26.4753C592.471 27.8472 596.088 32.7288 591.1 36.7908C588.32 39.0534 583.581 57.1011 584.615 63.693V63.7286Z" fill="#282833"/>
<path d="M1142.7 622.261H1108.05L1105.47 596.392H1140.12L1142.7 622.261Z" fill="#FFB5B3"/>
<path d="M1047.65 292.878L1101.44 605.888H1146.3L1115.73 290.259C1114.78 266.778 1050.49 260.792 1047.63 292.878H1047.65Z" fill="#FF9184"/>
<path d="M1076.85 301.109H1116.8" stroke="white" stroke-width="0.5" stroke-miterlimit="10"/>
<path d="M1145.59 641.324H1092.98V648.183H1145.59V641.324Z" fill="white"/>
<path d="M1145.14 641.769V647.737H1093.42V641.769H1145.14ZM1146.03 640.878H1092.53V648.628H1146.03V640.878Z" fill="#282833"/>
<path d="M1146.03 640.878C1146.03 640.878 1147.14 634.073 1144.98 619.161H1105.77C1105.77 619.161 1092.55 626.91 1092.55 640.878" fill="#DC6D92"/>
<path d="M1035.31 596.392H1000.65V622.243H1035.31V596.392Z" fill="#FFB5B3"/>
<path d="M1000.23 292.094L981.252 449.819L996.431 605.888H1037.23L1041.97 453.739L1077.07 312.44C1095.1 277.966 1012.55 252.97 1000.23 292.094Z" fill="#FF9184"/>
<path d="M1041.67 641.324H967.498V648.183H1041.67V641.324Z" fill="white"/>
<path d="M1041.22 641.769V647.737H967.944V641.769H1041.22ZM1042.11 640.878H967.053V648.628H1042.11V640.878Z" fill="#282833"/>
<path d="M1042.11 640.878C1042.11 640.878 1041.92 626.394 1037.27 619.161H995.826L985.225 630.028C985.225 630.028 967.053 626.928 967.053 640.896" fill="#DC6D92"/>
<path d="M992.797 622.26H1009.81" stroke="white" stroke-width="0.5" stroke-linecap="round" stroke-linejoin="round"/>
<path d="M990.427 624.63H1007.44" stroke="white" stroke-width="0.5" stroke-linecap="round" stroke-linejoin="round"/>
<path d="M1122.8 623.009H1105.02" stroke="white" stroke-width="0.5" stroke-linecap="round" stroke-linejoin="round"/>
<path d="M1120.61 625.004H1102.83" stroke="white" stroke-width="0.5" stroke-linecap="round" stroke-linejoin="round"/>
<path d="M1118.42 627H1100.64" stroke="white" stroke-width="0.5" stroke-linecap="round" stroke-linejoin="round"/>
<path d="M991.764 121.221L981.983 207.29C981.983 207.29 919.645 202.765 900.581 199.611L898.39 225.355C898.39 225.355 961.637 234.139 985.475 236.063C1009.31 237.987 1018.77 226.46 1016.96 202.302C1015.16 178.143 1028.54 112.954 1028.54 112.954C1027.2 91.0406 992.886 92.1273 991.764 121.239V121.221Z" fill="#624696"/>
<path d="M937.158 202.961L908.117 199.843" stroke="#282833" stroke-width="2" stroke-linecap="round" stroke-linejoin="round"/>
<path d="M817.185 142.048C816.419 140.248 817.398 138.93 819.358 139.144L889.553 146.591C891.495 146.805 893.633 148.479 894.275 150.332L910.612 196.939C911.253 198.792 910.202 200.11 908.26 199.879L841.521 192.004C839.579 191.772 837.37 190.115 836.604 188.298L817.22 142.066L817.185 142.048Z" fill="white"/>
<path d="M817.185 142.048C816.419 140.248 817.398 138.93 819.358 139.144L889.553 146.591C891.495 146.805 893.633 148.479 894.275 150.332L910.612 196.939C911.253 198.792 910.202 200.11 908.26 199.879L841.521 192.004C839.579 191.772 837.37 190.115 836.604 188.298L817.22 142.066L817.185 142.048Z" stroke="#282833" stroke-linecap="round" stroke-linejoin="round"/>
<path d="M899.887 209.695L888.306 208.145C888.306 208.145 876.387 207.433 869.92 202.943C863.684 198.631 857.003 186.089 858.571 182.365C860.032 178.927 878.828 184.539 881.358 189.617C883.834 194.587 885.367 197.776 890.123 198.346C894.88 198.899 900.581 199.576 900.581 199.576L899.869 209.677L899.887 209.695Z" fill="#FFB5B3"/>
<path d="M856.113 172.103C857.645 175.774 861.19 178.161 864.023 177.448C866.856 176.718 867.907 173.155 866.375 169.484C864.843 165.814 861.297 163.427 858.464 164.157C855.632 164.888 854.581 168.451 856.113 172.121V172.103Z" fill="white" stroke="#282833" stroke-width="0.5" stroke-linecap="round" stroke-linejoin="round"/>
<path d="M1000.23 292.094L1003.24 221.703L1011.58 97.8107C1011.58 97.8107 1072.27 97.0089 1095.35 97.1871C1118.42 97.3831 1119.04 116.963 1120.22 135.687C1121.39 154.394 1107.75 230.112 1107.75 230.112L1115.75 290.259L1000.23 292.094Z" fill="#624696"/>
<path d="M1115.91 109.32C1115.91 109.32 1141.81 173.404 1150.88 189.349C1159.8 205.045 1160.73 216.893 1151.38 231.306C1141.17 247.038 1109.12 308.681 1109.12 308.681L1087.54 294.09L1123.91 212.457L1082.43 134.405L1109.37 102.372" fill="#624696"/>
<path d="M1135.65 605.87L1108.33 327.78C1081.91 325.695 1076.85 301.109 1076.85 301.109H1010.04C1010.04 301.109 1009.97 322.542 996.2 325.464" stroke="white" stroke-width="0.5" stroke-miterlimit="10"/>
<path d="M1090.34 295.978C1090.34 295.978 1083.87 305.545 1079.03 307.309C1074.18 309.073 1068.03 313.545 1067.39 315.023C1066.75 316.502 1070.92 318.979 1075.52 316.11C1080.11 313.242 1082.43 313.331 1082.43 313.331C1082.43 313.331 1091 324.412 1100.96 325.464C1100.96 325.464 1102.67 319.175 1101.47 314.721C1100.28 310.267 1104.77 305.759 1104.77 305.759L1090.3 295.978H1090.34Z" fill="#FFB5B3"/>
<path d="M1042.11 301.109L1047.65 361.79L1061.67 374.404L1099.34 592.205H1144.98" stroke="white" stroke-width="0.5" stroke-miterlimit="10"/>
<path d="M1047.65 361.79L1027.41 449.98L1030.44 605.87" stroke="white" stroke-width="0.5" stroke-miterlimit="10"/>
<path d="M1037.64 592.205H995.095" stroke="white" stroke-width="0.5" stroke-miterlimit="10"/>
<path d="M1010.04 301.109H999.14" stroke="white" stroke-width="0.5" stroke-miterlimit="10"/>
<path d="M1086.06 141.228L1123.91 212.457C1123.91 212.457 1136.82 211.37 1140.99 216.127" stroke="#282833" stroke-width="0.5" stroke-linecap="round" stroke-linejoin="round"/>
<path d="M1137.73 208.127C1137.73 208.127 1128.22 207.878 1123.92 212.457L1087.56 294.09" stroke="#282833" stroke-width="0.5" stroke-linecap="round" stroke-linejoin="round"/>
<path d="M1000.23 292.094L1004.59 212.457L1002.4 135.973" stroke="#282833" stroke-width="0.5" stroke-linecap="round" stroke-linejoin="round"/>
<path d="M1068.87 49.3511C1069.1 47.5161 1072.08 42.4741 1077.25 43.8994C1081.72 45.1465 1081.75 51.4178 1079.4 55.5689C1078.21 57.689 1073.59 61.3057 1069.35 58.5085" fill="#FFB5B3"/>
<path d="M1069.46 49.262C1070.76 38.0201 1066.86 22.3421 1058.79 16.1777C1048.44 8.26741 1030.64 9.12258 1021.41 18.28C1011.22 28.3817 1012.66 46.1621 1017.22 59.7557C1019.7 76.0573 1030.82 87.8693 1047.96 85.2504C1065.09 82.6314 1071.95 65.5459 1069.48 49.262" fill="#FFB5B3"/>
<path d="M1062.08 66.2229C1062.23 69.0022 1065.52 93.9446 1070.47 97.1515C1070.47 97.1515 1060.93 114.7 1049.01 114.7C1037.09 114.7 1032.74 97.1515 1032.74 97.1515C1032.74 97.1515 1040.49 81.3843 1034.52 68.4499" fill="#FFB5B3"/>
<path d="M1068.8 50.5982C1069.67 48.5494 1073.38 46.0908 1075.94 47.4626" stroke="#282833" stroke-width="0.5" stroke-linecap="round" stroke-linejoin="round"/>
<path d="M1070.05 48.9235C1070.05 48.9235 1075.23 49.173 1072.54 56.0143" stroke="#282833" stroke-width="0.5" stroke-linecap="round" stroke-linejoin="round"/>
<path d="M1038.19 85.1257C1041.68 85.9096 1056.92 85.9274 1063.72 75.9148" stroke="#282833" stroke-width="0.5" stroke-linecap="round" stroke-linejoin="round"/>
<path d="M1043.84 23.215C1036.45 29.4328 1024.01 30.7512 1015.69 28.4351C1015.69 28.4351 1008.85 25.3173 1012.52 15.2869C1017.08 2.79789 1055.33 -8.49746 1064.54 8.98005C1064.54 8.98005 1076.28 13.4162 1074.91 43.6322C1072.38 44.1488 1071.69 44.9862 1069.64 47.3914L1063.72 53.8586C1063.72 53.8586 1064.31 45.1287 1063.94 38.8931C1063.58 32.6575 1056.19 36.3811 1050.95 33.9937C1042.66 30.2167 1043.84 23.1972 1043.84 23.1972V23.215Z" fill="#282833"/>
<path d="M1017.26 27.669C1017.26 27.669 1013.02 32.4972 1014.09 45.8414C1014.09 45.8414 1010.42 27.4374 1014.43 21.861C1018.43 16.2846 1017.26 27.6869 1017.26 27.6869V27.669Z" fill="#282833"/>
<path d="M1004.59 212.457C1004.59 212.457 1008.26 234.851 1045.67 245.986" stroke="#282833" stroke-width="0.5" stroke-linecap="round" stroke-linejoin="round"/>
<path d="M9.05053 308.663L15.2149 483.171H153.431V491.723H4.52527L0 309.109L9.05053 308.663Z" fill="#F2A61C"/>
<path d="M41.1906 309.109H0V321.865H41.1906V309.109Z" fill="#F2A61C"/>
<path d="M194.622 489.335H182.008V647.328H194.622V489.335Z" fill="#F2A61C"/>
<path d="M50.2411 308.663L56.4055 483.171H194.622V491.723H45.7159L41.1906 309.109L50.2411 308.663Z" fill="#F2A61C"/>
<path d="M153.431 489.335H140.818V647.328H153.431V489.335Z" fill="#F2A61C"/>
<path d="M234.655 632.166L271.409 625.806L264.087 589.034L227.991 595.946L234.655 632.166Z" fill="#FFB5B3"/>
<path d="M149.619 574.781L183.042 586.539L193.036 550.409L157.689 540.325L149.619 574.781Z" fill="#FFB5B3"/>
<path d="M227.439 437.402L201.303 566.176L156.407 542.676L181.563 429.473L227.439 437.402Z" fill="#DC6D92"/>
<path d="M111.778 305.438C111.778 305.438 119.439 308.788 120.739 318.141C122.04 327.512 133.549 389.708 133.549 389.708L211.031 417.18L207.147 430.845L156.229 423.345L96.545 423.184C96.545 423.184 103.956 328.688 103.351 326.907C102.763 325.125 111.795 305.438 111.795 305.438H111.778Z" fill="#FF9184"/>
<path d="M160.469 405.511C169.092 401.627 181.028 417.216 189.865 419.39C193.5 420.28 199.201 420.369 202.283 422.525C203.637 423.487 208.43 430.721 205.508 429.278C198.684 425.928 189.349 423.167 177.768 422.49C174.704 422.311 172.21 421.385 162.535 412.032" fill="#FFB5B3"/>
<path d="M78.9783 419.764C78.9783 419.764 147.944 421.937 193.963 426.997C223.84 430.275 235.456 436.618 239.02 458.959C242.583 481.3 272.282 605.977 272.282 605.977L222.486 618.394L191.219 494.395C191.219 494.395 127.099 483.224 69.7496 483.224C38.3578 483.224 17.5487 487.251 17.139 457.249C16.8183 432.983 51.221 424.396 78.9783 419.764Z" fill="#DC6D92"/>
<path d="M17.139 453.311L30.8751 407.542L29.9665 309.394L51.8267 290.241L111.778 305.438V415.915L17.139 453.311Z" fill="#FF9184"/>
<path d="M156.211 423.345L245.237 436.19L272.282 345.596L233.425 338.647L207.147 430.845" fill="white"/>
<path d="M156.211 423.345L245.237 436.19L272.282 345.596L233.425 338.647L207.147 430.845" stroke="#282833" stroke-linecap="round" stroke-linejoin="round"/>
<path d="M30.4475 314.008C30.4475 314.008 44.8251 396.549 47.8003 410.161C50.7756 423.772 61.5721 424.628 75.433 421.991C89.9886 419.211 169.43 420.049 169.43 420.049V398.67L81.6508 392.612C81.6508 392.612 70.1416 326.746 67.4336 304.779C64.4583 280.728 25.2453 288.264 30.4475 314.008Z" fill="#FF9184"/>
<path d="M30.4475 314.008C30.4475 314.008 44.8251 396.55 47.8003 410.161C50.7756 423.772 61.5721 424.628 75.433 421.991C89.9886 419.211 169.43 420.049 169.43 420.049V398.67L81.6507 392.612C81.6507 392.612 75.5755 357.871 71.2284 330.434" stroke="#282833" stroke-width="0.5" stroke-linecap="round" stroke-linejoin="round"/>
<path d="M111.778 331.379V394.697" stroke="#282833" stroke-width="0.5" stroke-linecap="round" stroke-linejoin="round"/>
<path d="M198.559 440.377C181.652 436.493 179.906 446.452 176.664 459.458" stroke="white" stroke-width="0.5" stroke-linecap="round" stroke-linejoin="round"/>
<path d="M206.594 441.143C228.473 445.971 222.308 463.698 222.308 463.698L200.626 566.176L158.242 544.832C158.242 544.832 174.08 481.051 178.267 464.874" stroke="white" stroke-width="0.5" stroke-linecap="round" stroke-linejoin="round"/>
<path d="M144.39 579.377L140.328 587.345L184.963 610.097L189.024 602.129L144.39 579.377Z" fill="white"/>
<path d="M144.595 579.983L188.44 602.324L184.788 609.504L140.942 587.163L144.595 579.983ZM144.203 578.789L139.731 587.555L185.162 610.716L189.634 601.95L144.203 578.789Z" fill="#282833"/>
<path d="M147.819 568.545C143.027 572.75 140.176 577.186 136.952 582.673C135.455 585.239 136.007 586.753 138.359 587.983C140.693 589.212 138.359 587.983 170.891 605.104C189.847 614.76 195.21 617.682 197.33 613.495C204.047 600.311 197.17 590.316 197.17 590.316C193.411 584.223 194.48 581.23 193.999 575.351C193.963 574.977 193.464 573.249 192.823 572.59C190.204 569.828 183.149 565.392 176.521 566.443C170.749 567.352 168.397 580.945 157.636 576.153C151.169 573.267 150.492 568.403 151.596 566.283C151.846 565.802 149.476 567.084 147.802 568.545H147.819Z" fill="#624696"/>
<path d="M194.319 614.902C191.095 614.902 185.019 611.803 172.922 605.62L171.105 604.694L138.573 587.573C137.468 586.985 136.863 586.397 136.649 585.684C136.435 584.954 136.667 584.027 137.344 582.869C137.736 582.192 138.27 581.319 138.822 580.428C141.388 581.818 156.621 590.085 165.368 594.557L165.546 594.646L165.742 594.557C165.742 594.557 174.526 590.851 183.434 590.851C190.115 590.851 195.174 592.882 198.47 596.873C201.998 601.149 200.59 606.119 196.938 613.263C196.368 614.386 195.584 614.867 194.319 614.867V614.902Z" fill="white"/>
<path d="M138.983 581.052C142.386 582.905 156.763 590.691 165.172 594.984L165.546 595.18L165.938 595.02C165.938 595.02 174.632 591.35 183.451 591.35C189.99 591.35 194.943 593.327 198.15 597.211C201.517 601.309 200.127 606.137 196.564 613.121C196.065 614.101 195.442 614.493 194.337 614.493C191.219 614.493 184.805 611.215 173.136 605.264L171.337 604.338L143.74 589.818L138.805 587.216C137.825 586.7 137.272 586.165 137.112 585.595C136.934 584.989 137.148 584.188 137.771 583.137C138.11 582.549 138.555 581.836 139.018 581.07M138.698 579.894C138.056 580.927 137.433 581.925 136.987 582.709C135.491 585.274 136.043 586.789 138.395 588.018C140.729 589.247 138.395 588.018 170.927 605.139C184.253 611.927 190.863 615.383 194.355 615.383C195.834 615.383 196.742 614.76 197.384 613.531C201.107 606.244 202.55 601.131 198.862 596.659C194.961 591.92 189.153 590.477 183.487 590.477C174.383 590.477 165.635 594.218 165.635 594.218C155.997 589.301 138.733 579.894 138.733 579.894H138.698Z" fill="#282833"/>
<path d="M199.112 593.363C199.112 593.363 191.077 584.134 176.681 584.758" stroke="white" stroke-width="0.5" stroke-linecap="round" stroke-linejoin="round"/>
<path d="M195.851 586.735C195.851 586.735 185.928 578.825 177.59 580.143" stroke="white" stroke-width="0.5" stroke-linecap="round" stroke-linejoin="round"/>
<path d="M194.64 581.996C194.64 581.996 188.297 575.333 180.316 575.957" stroke="white" stroke-width="0.5" stroke-linecap="round" stroke-linejoin="round"/>
<path d="M230.076 626.875L229.506 634.803C229.506 634.803 228.9 640.433 228.758 643.141C228.597 645.849 229.684 646.864 232.107 646.9C234.53 646.936 232.107 646.9 265.761 647.345C285.252 647.345 304.244 647.488 304.244 643.194C304.244 629.636 285.163 623.223 285.163 623.223C279.694 620.621 277.787 618.181 274.402 613.05C273.422 611.571 269.467 608.952 263.267 613.442C258.938 616.577 253.7 628.656 242.921 629.227C236.418 629.565 234.067 627.712 232.855 625.236C232.392 624.274 230.076 626.875 230.076 626.875Z" fill="#624696"/>
<path d="M265.779 646.9L232.125 646.455C231.002 646.455 230.254 646.205 229.809 645.724C229.345 645.225 229.15 644.388 229.221 643.176C229.256 642.464 229.328 641.555 229.417 640.593C233.871 640.647 272.781 641.074 282.063 641.092H282.402L282.491 640.754C282.526 640.647 285.341 629.957 293.162 627.641C298.062 630.723 303.834 635.908 303.834 643.212C303.834 646.918 284.825 646.918 269.556 646.918H265.797L265.779 646.9Z" fill="white"/>
<path d="M293.073 628.122C297.848 631.168 303.353 636.193 303.353 643.194C303.353 643.64 302.658 645.136 293.59 645.885C287.337 646.401 278.981 646.455 269.521 646.455H267.65H265.779L237.238 646.081L232.125 646.009C231.127 646.009 230.486 645.795 230.129 645.421C229.755 645.012 229.595 644.281 229.648 643.194C229.684 642.589 229.737 641.84 229.809 641.039C235.831 641.11 273.013 641.52 282.045 641.52H282.74L282.918 640.843C282.954 640.736 285.662 630.474 293.091 628.104M293.216 627.142C284.914 629.458 282.045 640.629 282.045 640.629C272.14 640.629 228.989 640.13 228.989 640.13C228.882 641.235 228.793 642.321 228.758 643.141C228.597 645.849 229.684 646.864 232.107 646.9C234.53 646.936 232.107 646.9 265.761 647.345C267.009 647.345 268.273 647.345 269.521 647.345C287.622 647.345 304.244 647.221 304.244 643.194C304.244 635.694 298.418 630.402 293.198 627.142H293.216Z" fill="#282833"/>
<path d="M289.617 624.719C289.617 624.719 283.56 624.292 279.408 630.545" stroke="white" stroke-width="0.5" stroke-linecap="round" stroke-linejoin="round"/>
<path d="M285.555 622.973C285.555 622.973 279.694 622.546 275.542 628.799" stroke="white" stroke-width="0.5" stroke-linecap="round" stroke-linejoin="round"/>
<path d="M282.384 621.031C282.384 621.031 276.237 620.889 272.086 627.142" stroke="white" stroke-width="0.5" stroke-linecap="round" stroke-linejoin="round"/>
<path d="M58.3296 489.335H45.7159V647.328H58.3296V489.335Z" fill="#F2A61C"/>
<path d="M119.759 225.249C124.427 235.92 124.57 248.213 122.663 259.491C121.398 266.991 120.507 274.688 120.062 282.26C119.973 283.899 120.116 286.393 118.851 287.605C115.145 291.114 100.108 285.342 98.0593 281.333" fill="#624696"/>
<path d="M118.316 222.754C112.259 212.243 98.5404 204.618 86.9243 208.893C77.2681 203.727 64.7969 209.927 58.7216 217.427C51.2389 226.656 49.9739 238.557 44.8251 248.873C42.224 254.075 39.2665 258.422 35.6855 262.413C34.0999 264.194 34.9372 267.526 37.1464 268.06C50.2768 271.232 63.2825 285.77 76.5554 277.236C82.595 273.352 85.2318 264.622 88.0289 258.279C91.7168 249.888 98.2197 229.026 110.228 230.148" fill="#624696"/>
<path d="M72.2083 276.844C72.2083 276.844 72.9744 284.451 67.2198 294.286C67.2198 294.286 73.6692 324.234 88.4921 325.588C103.333 326.925 98.5938 301.59 98.5938 301.59C98.5938 301.59 98.8254 288.727 101.676 282.652" fill="#FFB5B3"/>
<path d="M65.4204 252.846C62.3026 271.944 77.2858 288.442 87.1559 290.045C97.026 291.649 116.267 280.87 118.993 264.159L121.986 245.773L107.128 232.945L90.0777 218.888C90.0777 218.888 81.0094 223.218 79.1743 224.536C77.3393 225.854 69.037 238.682 69.037 238.682L65.4382 252.846H65.4204Z" fill="#FFB5B3"/>
<path d="M65.4204 252.846C65.3313 250.993 63.2825 245.915 59.2026 247.536C55.675 248.944 55.3365 255.358 56.9578 259.527C57.7951 261.664 61.1624 265.388 65.2422 261.914" fill="#FFB5B3"/>
<path d="M59.5946 250.387C63.7992 249.229 65.1888 254.431 64.9928 257.888" stroke="#282833" stroke-width="0.5" stroke-linecap="round" stroke-linejoin="round"/>
<path d="M61.5008 259.099C60.7704 256.569 62.6767 252.186 64.2801 253.131" stroke="#282833" stroke-width="0.5" stroke-linecap="round" stroke-linejoin="round"/>
<path d="M88.1358 221.792C85.7662 235.35 106.558 237.916 114.022 245.309C119.51 250.743 119.902 258.244 118.69 265.691L118.993 264.177C124.48 253.754 125.852 237.72 119.759 225.266C113.63 212.724 96.4737 207.397 83.7174 213.864C67.1663 222.255 64.9571 237.791 65.5985 254.894C65.5985 254.894 69.2508 243.136 79.7088 237.577C85.499 234.495 87.1203 228.046 88.1358 221.81" fill="#624696"/>
<path d="M100.215 287.266C90.7013 292.255 81.2766 290.669 72.4933 279.445" stroke="#282833" stroke-width="0.5" stroke-miterlimit="10" stroke-linecap="round"/>
</svg>
