<svg  viewBox="0 0 333 830" fill="none" xmlns="http://www.w3.org/2000/svg">
<g clip-path="url(#clip0_57_712)">
<path d="M206.783 132.771L186.773 128.965H149.363L128.301 132.771C128.301 132.771 127.98 154.616 128.575 155.808C129.171 157 138.763 167.66 142.06 168.829C145.334 170.021 165.87 173.963 173.151 173.161C180.431 172.382 191.077 167.637 196.984 163.281C202.891 158.949 209.141 147.487 209.759 145.516C210.377 143.544 206.783 132.748 206.783 132.748V132.771Z" fill="white"/>
<path d="M223.381 136.255C234.439 129.562 247.146 135.155 259.28 149.207C271.872 163.809 309.098 208.28 327.116 232.853C337.052 246.378 335.358 266.092 314.822 269.966C294.4 273.817 200.922 286.86 200.922 286.86L191.856 248.991L274.436 235.787C274.436 235.787 232.196 188.061 220.405 173.689C210.538 161.654 212.964 142.582 223.381 136.278V136.255Z" fill="#FED12A"/>
<path d="M237.049 739.912H200.395V794.813H237.049V739.912Z" fill="#FFB5B3"/>
<path d="M35.4635 794.813L44.2321 743.74L78.528 745.345L68.1568 794.813H35.4635Z" fill="#FFB5B3"/>
<path d="M241.468 370.965L243.574 560.241L249.985 756.967L187.826 764.417L166.099 442.76C157.445 425.178 155.591 383.091 170.083 364.89C190.619 339.125 233.066 342.678 241.468 370.942V370.965Z" fill="#624696"/>
<path d="M174.273 370.965L166.076 442.76L142.175 570.832L98.0112 764.417L32.3041 759.535L64.5853 550.476L86.9074 376.398C93.6841 331.698 163.833 322.758 174.273 370.965Z" fill="#624696"/>
<path d="M240.506 365.211L233.272 133.252L206.783 132.748C206.783 132.748 199.892 162.479 166.099 162.479C132.307 162.479 128.301 132.748 128.301 132.748H97.4617L88.1208 370.942H241.468L240.506 365.188V365.211Z" fill="#FED12A"/>
<path d="M151.767 98.2258C151.767 98.2258 152.111 121.218 149.341 128.966C149.341 128.966 151.745 147.121 168.045 147.121C184.346 147.121 186.75 128.966 186.75 128.966C186.75 128.966 183.98 105.171 185.697 97.5381L151.745 98.2258H151.767Z" fill="#FFB5B3"/>
<path d="M134.78 70.007C134.276 67.6459 130.59 61.6171 125.736 64.5055C121.524 67.027 122.44 75.2793 125.37 80.2766C126.881 82.821 131.941 86.6492 135.696 82.1104" fill="#FFB5B3"/>
<path d="M126.858 68.0586C131.987 65.7205 134.734 73.033 134.825 76.2422" stroke="#282833" stroke-width="0.5" stroke-linecap="round" stroke-linejoin="round"/>
<path d="M131.094 78.8096C129.628 75.7379 130.842 69.7779 133.086 70.6719" stroke="#282833" stroke-width="0.5" stroke-linecap="round" stroke-linejoin="round"/>
<path d="M202.616 82.1334C206.371 86.6721 211.43 82.844 212.941 80.2995C215.872 75.3252 216.788 67.0499 212.575 64.5284C207.721 61.6172 203.486 66.5686 203.394 73.3309" fill="#FFB5B3"/>
<path d="M211.476 68.0817C206.348 65.7206 203.6 73.056 203.509 76.2652" stroke="#282833" stroke-width="0.5" stroke-linecap="round" stroke-linejoin="round"/>
<path d="M207.561 78.8099C209.027 75.7382 207.401 69.8928 205.157 70.7868" stroke="#282833" stroke-width="0.5" stroke-linecap="round" stroke-linejoin="round"/>
<path d="M133.612 70.0073C129.674 55.497 131.643 34.1097 140.984 24.3903C152.981 11.9201 176.539 9.49029 190.482 19.6452C205.867 30.8776 207.538 51.921 204.287 70.7179V73.3312C204.287 95.2457 192.085 113.011 169.076 113.011C146.067 113.011 133.612 91.9447 133.612 70.0302" fill="#FFB5B3"/>
<path d="M185.377 109.32C185.377 109.32 166.695 118.054 150.943 107.601" stroke="#282833" stroke-width="0.5" stroke-miterlimit="10"/>
<path d="M88.1208 370.965H241.468" stroke="white" stroke-width="0.5" stroke-miterlimit="10"/>
<path d="M70.0571 823.009C70.0571 823.009 71.9802 804.189 70.0571 794.423C69.4389 791.26 52.5886 788.051 49.4062 786.721C42.8126 776.796 31.3883 781.403 30.0833 782.526C27.3589 784.864 25.2755 791.214 25.2755 791.214C11.2183 796.166 0.732605 806.848 0.732605 823.031" fill="#FF9184"/>
<path d="M0 824.017C0.20605 813.518 4.23548 804.647 14.3548 805.403C23.4897 806.091 27.7023 815.192 28.5952 823.031H70.0571V829.496H0V824.04V824.017Z" fill="#DC6D92"/>
<path d="M193.206 823.283C193.206 823.283 193.527 804.372 199.663 794.951L236.088 783.237C236.088 783.237 237.049 779.363 239.911 778.606C242.315 777.987 243.872 780.738 243.872 780.738L255.021 798.802L268.438 804.464C279.267 805.885 291.447 807.673 290.371 823.696" fill="#FF9184"/>
<path d="M193.206 823.283L268.46 823.627C268.46 823.627 268.415 804.509 268.415 804.463C268.415 803.936 277.023 805.266 277.504 805.38C285.7 807.398 292.042 812.12 290.966 821.427C290.668 823.925 291.149 828.533 283.113 829.885C280.297 830.367 193.183 829.518 193.183 829.518V823.306L193.206 823.283Z" fill="#DC6D92"/>
<path d="M255.433 798.229C255.433 798.229 248.771 799.971 243.093 809.507" stroke="white" stroke-width="0.5" stroke-linecap="round" stroke-linejoin="round"/>
<path d="M253.327 795.134C253.327 795.134 243.185 797.151 238.606 806.022" stroke="white" stroke-width="0.5" stroke-linecap="round" stroke-linejoin="round"/>
<path d="M252.068 791.535C252.068 791.535 242.246 791.833 236.294 800.75" stroke="white" stroke-width="0.5" stroke-linecap="round" stroke-linejoin="round"/>
<path d="M217.749 807.764C218.963 812.051 216.467 816.521 212.186 817.736C207.905 818.951 203.44 816.475 202.227 812.166C201.013 807.879 203.486 803.409 207.767 802.194C212.049 800.979 216.513 803.455 217.726 807.742L217.749 807.764Z" stroke="white" stroke-width="0.5" stroke-linecap="round" stroke-linejoin="round"/>
<path d="M65.2721 807.123C66.2795 811.41 64.219 815.88 60.6704 817.095C57.1217 818.309 53.4128 815.834 52.4055 811.547C51.3981 807.26 53.4586 802.813 57.0072 801.598C60.5559 800.384 64.2648 802.859 65.2721 807.146V807.123Z" stroke="white" stroke-width="0.5" stroke-linecap="round" stroke-linejoin="round"/>
<path d="M124.248 370.965C124.248 399.114 105.864 414.198 80.9319 414.267" stroke="white" stroke-width="0.5" stroke-miterlimit="10"/>
<path d="M116.35 370.965C116.35 380.799 113.396 404.478 83.0382 406.656" stroke="white" stroke-width="0.5" stroke-miterlimit="10"/>
<path d="M204.356 370.965C204.356 399.114 220.565 415.252 241.972 415.344" stroke="white" stroke-width="0.5" stroke-miterlimit="10"/>
<path d="M212.941 370.965C212.941 380.799 214.681 405.464 241.88 406.656" stroke="white" stroke-width="0.5" stroke-miterlimit="10"/>
<path d="M166.076 442.783L164.794 370.965" stroke="white" stroke-width="0.5" stroke-miterlimit="10"/>
<path d="M158.155 377.039C158.155 377.91 158.865 378.621 159.735 378.621C160.605 378.621 161.314 377.91 161.314 377.039C161.314 376.168 160.605 375.458 159.735 375.458C158.865 375.458 158.155 376.168 158.155 377.039Z" fill="white"/>
<path d="M100.781 752.337L34.1815 747.523" stroke="white" stroke-width="0.5" stroke-miterlimit="10" stroke-linecap="round"/>
<path d="M249.985 743.74L186.75 749.929" stroke="white" stroke-width="0.5" stroke-miterlimit="10" stroke-linecap="round"/>
<path d="M146.112 286.86C146.112 286.86 139.519 287.937 138.283 293.278C137.046 298.619 139.908 298.115 139.908 298.115L146.112 294.172V286.86Z" fill="#FFB5B3"/>
<path d="M237.896 281.61L206.783 286.035" stroke="#282833" stroke-width="0.5" stroke-miterlimit="10"/>
<path d="M202.112 247.386L274.436 235.787C274.436 235.787 286.478 237.919 291.218 244.223" stroke="#282833" stroke-width="0.5" stroke-miterlimit="10"/>
<path d="M288.058 235.764C288.058 235.764 282.106 231.271 274.436 235.764C274.436 235.764 235.607 191.545 234.394 190.216" stroke="#282833" stroke-width="0.5" stroke-miterlimit="10"/>
<path d="M207.401 234.343H150.691C148.163 234.343 146.112 236.395 146.112 238.927V326.86C146.112 329.392 148.163 331.445 150.691 331.445H207.401C209.93 331.445 211.98 329.392 211.98 326.86V238.927C211.98 236.395 209.93 234.343 207.401 234.343Z" fill="white"/>
<path d="M138.283 293.278C138.283 293.278 163.306 295.937 166.328 297.519C169.373 299.101 164.634 324.935 158.132 325.233C151.63 325.531 140.412 320.419 129.468 314.093L138.283 293.278Z" fill="#FFB5B3"/>
<path d="M84.7095 141.779C84.7095 141.779 28.2975 230.607 19.9639 248.762C11.6304 266.94 20.7195 288.831 37.7758 295.685C54.8551 302.539 130.933 325.21 130.933 325.21L139.908 286.195L64.6311 258.687C64.6311 258.687 109.573 184.898 117.952 169.173C132.399 142.055 95.3096 119.567 84.6866 141.757L84.7095 141.779Z" fill="#FED12A"/>
<path d="M173.128 259.512C173.128 262.79 175.784 265.426 179.035 265.426C182.286 265.426 184.941 262.767 184.941 259.512C184.941 256.257 182.286 253.598 179.035 253.598C175.784 253.598 173.128 256.257 173.128 259.512Z" stroke="#282833" stroke-width="0.5" stroke-miterlimit="10"/>
<path d="M130.933 325.233L90.3873 312.923" stroke="#282833" stroke-width="0.5" stroke-miterlimit="10"/>
<path d="M130.933 325.233L139.908 286.218L64.6311 258.71C64.6311 258.71 55.0383 258.046 47.941 262.768" stroke="#282833" stroke-width="0.5" stroke-miterlimit="10"/>
<path d="M52.6802 253.598C59.3883 251.925 64.6311 258.71 64.6311 258.71L107.283 187.809" stroke="#282833" stroke-width="0.5" stroke-miterlimit="10"/>
<path d="M236.637 241.839L234.394 181.07" stroke="#282833" stroke-width="0.5" stroke-miterlimit="10"/>
<path d="M206.783 132.771L186.75 128.965" stroke="#282833" stroke-width="0.5" stroke-miterlimit="10"/>
<path d="M149.341 128.965L128.301 132.771" stroke="#282833" stroke-width="0.5" stroke-miterlimit="10"/>
<path d="M134.826 78.0075C128.346 65.2623 129.056 46.3736 128.209 32.4364C126.927 11.6451 128.301 8.32124 141.785 6.18939C142.747 6.02893 143.731 6.05185 144.716 5.91431C146.685 5.68508 148.654 5.34124 150.646 4.92862C161.772 2.68216 173.151 -1.48985 184.232 0.50446C195.61 2.54462 205.18 11.3012 213.445 19.1868C214.292 19.9891 215.071 23.015 215.071 23.9319C215.116 35.9665 209.026 61.4112 204.287 74.7295C204.287 74.7295 204.379 52.8379 197.579 46.3278C190.78 39.8176 196.412 33.3074 191.97 30.9234C187.529 28.5623 186.475 31.3131 171.846 31.6111C157.239 31.9091 151.607 28.3102 148.265 30.0753C144.922 31.8404 149.57 38.1213 143.159 43.3478C139.588 46.259 133.498 69.4801 134.826 77.9617V78.0075Z" fill="#282833"/>
</g>
<defs>
<clipPath id="clip0_57_712">
<rect width="333" height="830" fill="white"/>
</clipPath>
</defs>
</svg>
