<?xml version="1.0" encoding="UTF-8" standalone="no"?>
<svg
   xmlns:dc="http://purl.org/dc/elements/1.1/"
   xmlns:cc="http://creativecommons.org/ns#"
   xmlns:rdf="http://www.w3.org/1999/02/22-rdf-syntax-ns#"
   xmlns:svg="http://www.w3.org/2000/svg"
   xmlns="http://www.w3.org/2000/svg"
   viewBox="0 0 386.04266 484.42801"
   
   xml:space="preserve"
   id="svg2"
   version="1.1"><metadata
     id="metadata8"><rdf:RDF><cc:Work
         rdf:about=""><dc:format>image/svg+xml</dc:format><dc:type
           rdf:resource="http://purl.org/dc/dcmitype/StillImage" /></cc:Work></rdf:RDF></metadata><defs
     id="defs6"><clipPath
       id="clipPath26"
       clipPathUnits="userSpaceOnUse"><path
         id="path24"
         d="M 0,363.321 H 289.532 V 0 H 0 Z" /></clipPath></defs><g
     transform="matrix(1.3333333,0,0,-1.3333333,0,484.428)"
     id="g10"><g
       transform="translate(215.7076,48.7181)"
       id="g12"><path
         id="path14"
         style="fill:#ffffff;fill-opacity:1;fill-rule:nonzero;stroke:none"
         d="m 0,0 5.238,-20.64 -15.908,-4.51 -7.342,23.755 z" /></g><g
       transform="translate(215.7076,48.7181)"
       id="g16"><path
         id="path18"
         style="fill:none;stroke:#282833;stroke-width:1;stroke-linecap:butt;stroke-linejoin:miter;stroke-miterlimit:10;stroke-dasharray:none;stroke-opacity:1"
         d="m 0,0 5.238,-20.64 -15.908,-4.51 -7.342,23.755 z" /></g><g
       id="g20"><g
         clip-path="url(#clipPath26)"
         id="g22"><g
           transform="translate(221.6705,30.1663)"
           id="g28"><path
             id="path30"
             style="fill:#ce7392;fill-opacity:1;fill-rule:nonzero;stroke:none"
             d="m 0,0 1.548,-3.85 c 0,0 1.198,-2.696 1.71,-4.021 0.512,-1.324 0.133,-2 -1.065,-2.402 -1.197,-0.405 0,0 -16.656,-5.606 -9.685,-3.119 -19.098,-6.23 -19.785,-4.097 -2.169,6.738 6.29,12.974 6.291,12.976 2.299,2.17 2.855,3.687 3.723,6.772 0.25,0.891 1.798,2.828 5.591,1.588 2.655,-0.866 7.188,-6.029 12.633,-4.585 3.288,0.873 4.158,2.173 4.363,3.597 C -1.568,0.926 0,0 0,0" /></g><g
           transform="translate(189.1754,9.7367)"
           id="g32"><path
             id="path34"
             style="fill:#ffffff;fill-opacity:1;fill-rule:nonzero;stroke:none"
             d="m 0,0 c -0.613,0 -1.374,0.093 -1.515,0.531 -1.163,3.61 0.862,7.098 2.801,9.416 L 1.402,9.95 c 4.183,0 7.232,-4.757 7.263,-4.804 L 8.768,4.98 8.953,5.04 c 4.595,1.481 23.786,7.901 26.063,8.663 0.193,-0.456 0.372,-0.891 0.504,-1.234 0.228,-0.59 0.265,-1.031 0.115,-1.352 -0.142,-0.303 -0.478,-0.54 -1.026,-0.723 L 17.953,4.788 17.027,4.489 C 9.864,2.181 3.099,0 0,0" /></g><g
           transform="translate(224.3317,23.7503)"
           id="g36"><path
             id="path38"
             style="fill:#282833;fill-opacity:1;fill-rule:nonzero;stroke:none"
             d="m 0,0 c 0,0 -21.362,-7.15 -26.28,-8.735 0,0 -3.099,4.921 -7.474,4.921 -0.078,0 -0.157,-10e-4 -0.235,-0.004 -2.072,-2.45 -4.119,-6.018 -2.92,-9.742 0.158,-0.49 0.776,-0.703 1.753,-0.703 3.274,0 10.572,2.398 18.032,4.8 16.656,5.606 15.459,5.201 16.656,5.606 1.197,0.402 1.576,1.078 1.065,2.402 C 0.443,-1.058 0.228,-0.535 0,0 M -0.281,-0.621 C -0.124,-0.996 0.02,-1.349 0.13,-1.636 0.329,-2.15 0.371,-2.539 0.252,-2.79 0.141,-3.028 -0.147,-3.222 -0.628,-3.384 l -2.53,-0.851 -14.119,-4.752 -0.929,-0.299 c -7.144,-2.303 -13.891,-4.477 -16.95,-4.477 -0.728,0 -1.205,0.133 -1.277,0.357 -1.113,3.457 0.806,6.823 2.682,9.092 4.04,-0.001 7.018,-4.641 7.048,-4.688 l 0.207,-0.328 0.369,0.119 c 4.474,1.441 22.768,7.56 25.846,8.59" /></g><g
           transform="translate(192.3639,22.3021)"
           id="g40"><path
             id="path42"
             style="fill:none;stroke:#ffffff;stroke-width:0.5;stroke-linecap:round;stroke-linejoin:round;stroke-miterlimit:10;stroke-dasharray:none;stroke-opacity:1"
             d="M 0,0 C 0,0 2.319,0.591 5.383,-1.855" /></g><g
           transform="translate(193.8639,23.6976)"
           id="g44"><path
             id="path46"
             style="fill:none;stroke:#ffffff;stroke-width:0.5;stroke-linecap:round;stroke-linejoin:round;stroke-miterlimit:10;stroke-dasharray:none;stroke-opacity:1"
             d="M 0,0 C 0,0 2.468,0.684 5.531,-1.761" /></g><g
           transform="translate(195.1588,25.1263)"
           id="g48"><path
             id="path50"
             style="fill:none;stroke:#ffffff;stroke-width:0.5;stroke-linecap:round;stroke-linejoin:round;stroke-miterlimit:10;stroke-dasharray:none;stroke-opacity:1"
             d="M 0,0 C 0,0 2.588,0.717 5.328,-1.928" /></g><g
           transform="translate(276.1993,34.2181)"
           id="g52"><path
             id="path54"
             style="fill:#ffffff;fill-opacity:1;fill-rule:nonzero;stroke:none"
             d="m 0,0 1.63,-20.333 -14.88,-0.462 -4,24.34 z" /></g><g
           transform="translate(276.1993,34.2181)"
           id="g56"><path
             id="path58"
             style="fill:none;stroke:#282833;stroke-width:1;stroke-linecap:butt;stroke-linejoin:miter;stroke-miterlimit:10;stroke-dasharray:none;stroke-opacity:1"
             d="m 0,0 1.63,-20.333 -14.88,-0.462 -4,24.34 z" /></g><g
           transform="translate(131.1842,287.8382)"
           id="g60"><path
             id="path62"
             style="fill:none;stroke:#282833;stroke-width:1;stroke-linecap:butt;stroke-linejoin:miter;stroke-miterlimit:10;stroke-dasharray:none;stroke-opacity:1"
             d="m 0,0 -4.28,27.109 c -0.171,1.087 0.539,2.27 1.578,2.63 l 4.259,1.472 c 1.04,0.36 2.03,-0.235 2.202,-1.321 L 7.297,7.479 C 7.469,6.393 6.778,5.158 5.763,4.736 L 0.246,2.443" /></g><g
           transform="translate(138.024,287.846)"
           id="g64"><path
             id="path66"
             style="fill:#ffb5b3;fill-opacity:1;fill-rule:nonzero;stroke:none"
             d="m 0,0 c 0,0 -3,5.805 -4.25,8.805 -1.25,3 -0.25,10.25 -2.75,11 -2.5,0.75 -3,-3.75 -2,-8 0,0 -2.059,7.831 -2.082,12.5 -0.022,4.366 -2.668,1.25 -2.918,-3 -0.25,-4.25 -1.5,-15.644 1.5,-19.447 3,-3.803 5.266,-8.553 5.266,-8.553 z" /></g><g
           transform="translate(277.8292,32.3402)"
           id="g68"><path
             id="path70"
             style="fill:#ce7392;fill-opacity:1;fill-rule:nonzero;stroke:none"
             d="m 0,0 -16.074,166.444 h -61.764 c 0,0 -20.659,-68.816 -22.909,-75.066 -2.25,-6.25 -1.675,-16.027 -0.429,-21.789 1.247,-5.762 14.989,-69.277 14.989,-69.277 l 27.202,8.741 -11.146,69.825 19.883,42.5 22.502,-120.753 z" /></g><g
           transform="translate(261.7555,198.7845)"
           id="g72"><path
             id="path74"
             style="fill:#5d4792;fill-opacity:1;fill-rule:nonzero;stroke:none"
             d="M 0,0 -5.006,30.761 -4.836,97.378 -47.677,96.72 -57.546,85.671 -59.006,43.059 -61.765,0 Z" /></g><g
           transform="translate(199.3326,293.0516)"
           id="g76"><path
             id="path78"
             style="fill:#5d4792;fill-opacity:1;fill-rule:nonzero;stroke:none"
             d="M 0,0 C -3.49,-2.726 -34.25,-32.21 -34.25,-32.21 L -59.756,-1.598 -71.5,-10.994 c 0,0 17.902,-27.212 26.131,-38.95 6,-8.559 11.973,-7.189 19.307,-2.356 19.548,12.884 39.144,31.373 39.144,31.373 l 1.664,23.38 C 9.558,2.742 4.25,3.318 0,0" /></g><g
           transform="translate(260.3824,179.1341)"
           id="g80"><path
             id="path82"
             style="fill:#ffb5b3;fill-opacity:1;fill-rule:nonzero;stroke:none"
             d="m 0,0 -1.333,-6 c 0,0 -5.001,-3.167 -5.667,-6.5 -0.666,-3.333 0.167,-5.167 1.75,-3.833 0,0 -2.416,-9.166 -0.25,-10.333 2.167,-1.167 12.833,-0.333 13.667,3 0.833,3.333 2.501,11.831 1.5,14.332 -1,2.501 0.31,7.834 0.31,7.834 z" /></g><g
           transform="translate(256.9192,296.1629)"
           id="g84"><path
             id="path86"
             style="fill:#5d4792;fill-opacity:1;fill-rule:nonzero;stroke:none"
             d="m 0,0 c 6.164,0 8.164,-8.295 12.664,-21.245 3.195,-9.195 5.547,-17.925 9.507,-31.356 2.379,-8.066 3.422,-10.22 2.304,-18.72 -1.656,-12.593 -4.372,-41.438 -6.561,-51.624 l -18,2.75 4.922,55.574 -11.672,34.596 z" /></g><g
           transform="translate(238.3346,295.8773)"
           id="g88"><path
             id="path90"
             style="fill:#ffffff;fill-opacity:1;fill-rule:nonzero;stroke:none"
             d="m 0,0 -10.002,-43.159 2.541,-46.75 10.21,-7.184 h -27.005 l 9.254,6.684 1.108,47.5 -6.859,42.59 z" /></g><g
           transform="translate(230.8732,205.9681)"
           id="g92"><path
             id="path94"
             style="fill:#5d4792;fill-opacity:1;fill-rule:nonzero;stroke:none"
             d="M 0,0 30.882,-22.25 V -7.184 Z" /></g><g
           transform="translate(223.3326,205.4681)"
           id="g96"><path
             id="path98"
             style="fill:#5d4792;fill-opacity:1;fill-rule:nonzero;stroke:none"
             d="M 0,0 -27.551,-20.677 -22.914,0 Z" /></g><g
           transform="translate(227.5807,280.7181)"
           id="g100"><path
             id="path102"
             style="fill:none;stroke:#282833;stroke-width:0.5;stroke-linecap:round;stroke-linejoin:round;stroke-miterlimit:10;stroke-dasharray:none;stroke-opacity:1"
             d="m 0,0 -6.049,-9.69 -3.95,24.53 -3.503,-0.054 7.338,8.267 L 0,0 11.513,20.41 16.502,15.159 H 10.754 L 4.996,-9.69 0,0 V -13.148 L -1.248,-27 -1.498,-81.935" /></g><g
           transform="translate(244.0832,295.8773)"
           id="g104"><path
             id="path106"
             style="fill:none;stroke:#282833;stroke-width:0.5;stroke-linecap:round;stroke-linejoin:round;stroke-miterlimit:10;stroke-dasharray:none;stroke-opacity:1"
             d="M 0,0 -0.834,-32.409 H -5.5 l 3.833,-3.834 -13.335,-20 -0.749,13.084 4.244,18.309" /></g><g
           transform="translate(214.0787,295.5042)"
           id="g108"><path
             id="path110"
             style="fill:none;stroke:#282833;stroke-width:0.5;stroke-linecap:round;stroke-linejoin:round;stroke-miterlimit:10;stroke-dasharray:none;stroke-opacity:1"
             d="M 0,0 -0.829,-31.37 H 4.838 L 0,-34.203 10.051,-55.87 l 0.31,13.334 -2.908,18.059" /></g><g
           transform="translate(274.8332,173.2181)"
           id="g112"><path
             id="path114"
             style="fill:none;stroke:#282833;stroke-width:0.5;stroke-linecap:butt;stroke-linejoin:miter;stroke-miterlimit:10;stroke-dasharray:none;stroke-opacity:1"
             d="m 0,0 -18,2.75 4.922,55.574 -8.409,24.926" /></g><g
           transform="translate(167.0826,251.9681)"
           id="g116"><path
             id="path118"
             style="fill:none;stroke:#282833;stroke-width:0.5;stroke-linecap:butt;stroke-linejoin:miter;stroke-miterlimit:10;stroke-dasharray:none;stroke-opacity:1"
             d="M 0,0 C -3,3.5 -2,8.874 -2,8.874 -2,8.874 -4.75,7.5 -5.25,4.25" /></g><g
           transform="translate(279.1583,15.6497)"
           id="g120"><path
             id="path122"
             style="fill:#ce7392;fill-opacity:1;fill-rule:nonzero;stroke:none"
             d="m 0,0 0.294,-4.138 c 0,0 0.313,-2.934 0.395,-4.352 0.081,-1.418 -0.486,-1.945 -1.75,-1.961 -1.264,-0.017 0,0 -17.573,-0.229 -10.176,0 -20.087,-0.077 -20.087,2.165 0,7.078 9.963,10.421 9.965,10.422 2.854,1.362 3.848,2.634 5.619,5.306 0.511,0.771 2.578,2.14 5.81,-0.203 2.261,-1.638 4.993,-7.943 10.618,-8.237 3.398,-0.177 4.625,0.794 5.256,2.086 C -1.207,1.362 0,0 0,0" /></g><g
           transform="translate(258.5652,5.2201)"
           id="g124"><path
             id="path126"
             style="fill:#ffffff;fill-opacity:1;fill-rule:nonzero;stroke:none"
             d="m 0,0 c -4.949,0 -9.312,0.021 -12.588,0.295 -4.372,0.364 -5.29,1.082 -5.29,1.62 0,3.794 2.997,6.493 5.553,8.105 4.07,-1.218 5.536,-6.777 5.55,-6.832 l 0.049,-0.189 h 0.194 C -1.704,3 18.531,3.227 20.932,3.255 20.975,2.762 21.012,2.292 21.033,1.925 21.069,1.294 20.969,0.862 20.728,0.603 20.5,0.358 20.108,0.236 19.529,0.228 L 1.956,0 Z" /></g><g
           transform="translate(246.2023,15.512)"
           id="g128"><path
             id="path130"
             style="fill:#282833;fill-opacity:1;fill-rule:nonzero;stroke:none"
             d="m 0,0 c -2.723,-1.696 -5.765,-4.465 -5.765,-8.377 0,-2.098 8.676,-2.165 18.128,-2.165 h 1.959 c 17.573,0.229 16.309,0.212 17.573,0.229 1.264,0.016 1.831,0.543 1.75,1.961 -0.024,0.425 -0.07,0.989 -0.122,1.568 v 0 c 0,0 -22.526,-0.258 -27.692,-0.259 0,0 -1.495,5.837 -5.831,7.043 m 0.074,-0.544 c 3.845,-1.242 5.258,-6.568 5.272,-6.623 l 0.097,-0.376 h 0.388 c 4.718,0.001 23.903,0.216 27.234,0.254 0.035,-0.405 0.063,-0.785 0.081,-1.092 0.031,-0.552 -0.048,-0.934 -0.238,-1.136 -0.179,-0.193 -0.512,-0.29 -1.02,-0.296 l -2.67,-0.036 -14.896,-0.193 h -0.983 -0.976 c -4.944,0 -9.301,0.022 -12.567,0.294 -4.817,0.401 -5.061,1.213 -5.061,1.371 0,3.632 2.858,6.247 5.339,7.833" /></g><g
           transform="translate(248.525,16.7757)"
           id="g132"><path
             id="path134"
             style="fill:none;stroke:#ffffff;stroke-width:0.5;stroke-linecap:round;stroke-linejoin:round;stroke-miterlimit:10;stroke-dasharray:none;stroke-opacity:1"
             d="M 0,0 C 0,0 2.716,0.225 4.883,-3.042" /></g><g
           transform="translate(250.5504,17.6868)"
           id="g136"><path
             id="path138"
             style="fill:none;stroke:#ffffff;stroke-width:0.5;stroke-linecap:round;stroke-linejoin:round;stroke-miterlimit:10;stroke-dasharray:none;stroke-opacity:1"
             d="M 0,0 C 0,0 2.716,0.225 4.883,-3.042" /></g><g
           transform="translate(252.3463,18.554)"
           id="g140"><path
             id="path142"
             style="fill:none;stroke:#ffffff;stroke-width:0.5;stroke-linecap:round;stroke-linejoin:round;stroke-miterlimit:10;stroke-dasharray:none;stroke-opacity:1"
             d="M 0,0 C 0,0 2.716,0.225 4.883,-3.042" /></g><g
           transform="translate(240.8097,326.8358)"
           id="g144"><path
             id="path146"
             style="fill:#ffb5b3;fill-opacity:1;fill-rule:nonzero;stroke:none"
             d="M 0,0 C 0.211,1.017 2.084,3.721 4.915,2.707 7.371,1.825 7.123,-1.694 5.633,-3.923 4.872,-5.062 2.135,-6.896 -0.124,-5.147" /></g><g
           transform="translate(241.1446,326.8617)"
           id="g148"><path
             id="path150"
             style="fill:#ffb5b3;fill-opacity:1;fill-rule:nonzero;stroke:none"
             d="m 0,0 c 1.196,6.245 -0.334,15.193 -4.596,18.987 -5.469,4.869 -15.806,5.485 -21.038,0.392 -9.391,-9.144 -3.135,-19.504 -4.082,-23.07 0.711,-9.234 6.437,-16.324 16.15,-15.577 C -3.851,-18.52 0.711,-9.235 0,0" /></g><g
           transform="translate(235.337,316.5687)"
           id="g152"><path
             id="path154"
             style="fill:#ffb5b3;fill-opacity:1;fill-rule:nonzero;stroke:none"
             d="m 0,0 c -0.039,-1.563 2.337,-12.213 3.757,-15.44 l -11.513,-20.411 -6.164,23.053 c 0,0 1.175,5.206 -1.633,12.705" /></g><g
           transform="translate(240.713,326.1444)"
           id="g156"><path
             id="path158"
             style="fill:none;stroke:#282833;stroke-width:0.5;stroke-linecap:round;stroke-linejoin:round;stroke-miterlimit:10;stroke-dasharray:none;stroke-opacity:1"
             d="M 0,0 C 0.577,1.113 2.759,2.338 4.14,1.46" /></g><g
           transform="translate(241.4894,327.0301)"
           id="g160"><path
             id="path162"
             style="fill:none;stroke:#282833;stroke-width:0.5;stroke-linecap:round;stroke-linejoin:round;stroke-miterlimit:10;stroke-dasharray:none;stroke-opacity:1"
             d="M 0,0 C 0,0 2.896,-0.353 1.102,-4.081" /></g><g
           transform="translate(235.7648,311.0413)"
           id="g164"><path
             id="path166"
             style="fill:none;stroke:#282833;stroke-width:0.5;stroke-linecap:round;stroke-linejoin:miter;stroke-miterlimit:10;stroke-dasharray:none;stroke-opacity:1"
             d="M 0,0 C -4.979,-4.035 -10.506,-3.886 -14.587,-2.669" /></g><g
           transform="translate(239.2706,324.8783)"
           id="g168"><path
             id="path170"
             style="fill:#f2a61c;fill-opacity:1;fill-rule:nonzero;stroke:none"
             d="m 0,0 c -1.304,1.257 -2.043,2.992 -2.391,4.744 -0.108,0.55 -0.579,5.213 -0.228,5.335 -1.411,-0.492 -2.686,-0.153 -3.818,0.842 -1.417,1.244 -1.468,2.596 -2.102,4.158 -3.098,-3.752 -11.159,-4.303 -13.318,0.734 -0.227,-1.426 -1.521,-3.635 -2.598,-4.622 -1.389,-1.27 -2.893,-1.434 -4.618,-1.429 0.285,-1.048 -0.469,-2.467 -1.304,-3.151 -1.314,-1.077 -2.809,-0.456 -3.981,0.562 -4.185,3.634 -4.203,9.69 -1.998,14.333 1.539,3.241 5.158,5.857 8.736,4.764 -0.23,3.588 4.457,6.313 7.348,6.968 3.748,0.848 6.905,0.07 9.233,-2.973 0.402,1.543 2.036,2.8 3.539,3.158 2.363,0.562 5.498,-0.332 7.483,-1.664 C 4.138,28.972 6.901,23.777 7.509,18.942 8.298,12.673 7.563,7.276 5.313,4.84 c 0,0 -3.802,0 -3.947,-4.833 C 1.349,-0.562 0.75,-0.723 0,0" /></g><g
           transform="translate(227.5807,153.7181)"
           id="g172"><path
             id="path174"
             style="fill:none;stroke:#ffffff;stroke-width:0.5;stroke-linecap:round;stroke-linejoin:round;stroke-miterlimit:10;stroke-dasharray:none;stroke-opacity:1"
             d="m 0,0 -1.831,10.583 -4.333,1.251 v 27.698" /></g><g
           transform="translate(248.525,193.2503)"
           id="g176"><path
             id="path178"
             style="fill:none;stroke:#ffffff;stroke-width:0.5;stroke-linecap:round;stroke-linejoin:round;stroke-miterlimit:10;stroke-dasharray:none;stroke-opacity:1"
             d="M 0,0 H -41.472" /></g><g
           transform="translate(277.2072,38.7806)"
           id="g180"><path
             id="path182"
             style="fill:none;stroke:#ffffff;stroke-width:0.5;stroke-linecap:round;stroke-linejoin:round;stroke-miterlimit:10;stroke-dasharray:none;stroke-opacity:1"
             d="M 0,0 -28.451,1.307" /></g><g
           transform="translate(217.6754,48.7181)"
           id="g184"><path
             id="path186"
             style="fill:none;stroke:#ffffff;stroke-width:0.5;stroke-linecap:round;stroke-linejoin:round;stroke-miterlimit:10;stroke-dasharray:none;stroke-opacity:1"
             d="M 0,0 -27.579,-8.919" /></g><g
           transform="translate(13.3097,196.5394)"
           id="g188"><path
             id="path190"
             style="fill:#f2a61c;fill-opacity:1;fill-rule:nonzero;stroke:none"
             d="m 0,0 3.46,-97.946 h 77.583 v -4.802 H -2.54 l -2.539,102.5 z" /></g><path
           id="path192"
           style="fill:#f2a61c;fill-opacity:1;fill-rule:nonzero;stroke:none"
           d="M 31.352,189.134 H 8.231 v 7.157 h 23.121 z" /><path
           id="path194"
           style="fill:#f2a61c;fill-opacity:1;fill-rule:nonzero;stroke:none"
           d="m 117.474,6.443 h -7.078 v 88.682 h 7.078 z" /><g
           transform="translate(36.4308,196.5394)"
           id="g196"><path
             id="path198"
             style="fill:#f2a61c;fill-opacity:1;fill-rule:nonzero;stroke:none"
             d="m 0,0 3.46,-97.946 h 77.583 v -4.802 H -2.54 l -2.539,102.5 z" /></g><path
           id="path200"
           style="fill:#f2a61c;fill-opacity:1;fill-rule:nonzero;stroke:none"
           d="m 94.353,6.443 h -7.078 v 88.682 h 7.078 z" /><g
           transform="translate(139.9371,14.9574)"
           id="g202"><path
             id="path204"
             style="fill:#ffb5b3;fill-opacity:1;fill-rule:nonzero;stroke:none"
             d="M 0,0 20.639,3.574 16.522,24.209 -3.739,20.334 Z" /></g><g
           transform="translate(92.2067,47.1663)"
           id="g206"><path
             id="path208"
             style="fill:#ffb5b3;fill-opacity:1;fill-rule:nonzero;stroke:none"
             d="M 0,0 18.76,-6.594 24.374,13.685 4.537,19.347 Z" /></g><g
           transform="translate(135.8922,124.2796)"
           id="g210"><path
             id="path212"
             style="fill:#ce7392;fill-opacity:1;fill-rule:nonzero;stroke:none"
             d="M 0,0 -14.672,-72.285 -39.866,-59.089 -25.75,4.446 Z" /></g><g
           transform="translate(70.9723,198.346)"
           id="g214"><path
             id="path216"
             style="fill:#ff9184;fill-opacity:1;fill-rule:nonzero;stroke:none"
             d="m 0,0 c 0,0 4.297,-1.875 5.027,-7.132 0.731,-5.257 7.188,-40.173 7.188,-40.173 l 43.494,-15.415 -2.185,-7.667 -28.585,4.206 -33.503,0.091 c 0,0 4.155,53.035 3.821,54.035 C -5.076,-11.055 0,0 0,0" /></g><g
           transform="translate(98.3043,142.179)"
           id="g218"><path
             id="path220"
             style="fill:#ffb5b3;fill-opacity:1;fill-rule:nonzero;stroke:none"
             d="m 0,0 c 4.836,2.181 11.537,-6.572 16.5,-7.791 2.043,-0.502 5.241,-0.547 6.973,-1.765 0.76,-0.535 3.455,-4.597 1.814,-3.793 -3.826,1.875 -9.071,3.433 -15.571,3.808 -1.717,0.099 -3.125,0.625 -8.548,5.874" /></g><g
           transform="translate(52.5626,134.18)"
           id="g222"><path
             id="path224"
             style="fill:#ce7392;fill-opacity:1;fill-rule:nonzero;stroke:none"
             d="m 0,0 c 0,0 38.708,-1.223 64.541,-4.056 16.769,-1.839 23.293,-5.397 25.293,-17.942 2,-12.545 18.666,-82.523 18.666,-82.523 L 80.554,-111.487 63,-41.889 c 0,0 -35.986,6.269 -68.181,6.269 -17.615,0 -29.302,-2.265 -29.531,14.578 C -34.897,-7.422 -15.585,-2.601 0,0" /></g><g
           transform="translate(17.8487,115.3451)"
           id="g226"><path
             id="path228"
             style="fill:#ff9184;fill-opacity:1;fill-rule:nonzero;stroke:none"
             d="M 0,0 7.714,25.696 7.206,80.781 19.47,91.532 53.124,83.001 V 20.992 Z" /></g><g
           transform="translate(95.9117,132.1654)"
           id="g230"><path
             id="path232"
             style="fill:#ffffff;fill-opacity:1;fill-rule:nonzero;stroke:#282833;stroke-width:1;stroke-linecap:round;stroke-linejoin:round;stroke-miterlimit:10;stroke-dasharray:none;stroke-opacity:1"
             d="M 0,0 49.967,-7.206 65.15,43.643 43.335,47.544 28.585,-4.206" /></g><g
           transform="translate(25.3219,193.5374)"
           id="g234"><path
             id="path236"
             style="fill:#ff9184;fill-opacity:1;fill-rule:nonzero;stroke:none"
             d="m 0,0 c 0,0 8.074,-46.325 9.741,-53.971 1.667,-7.645 7.732,-8.123 15.512,-6.64 8.167,1.555 52.757,1.091 52.757,1.091 v 11.996 l -49.269,3.402 c 0,0 -6.456,36.966 -7.983,49.304 C 19.088,18.68 -2.926,14.454 0,0" /></g><g
           transform="translate(25.3219,193.5374)"
           id="g238"><path
             id="path240"
             style="fill:none;stroke:#282833;stroke-width:0.5;stroke-linecap:round;stroke-linejoin:round;stroke-miterlimit:10;stroke-dasharray:none;stroke-opacity:1"
             d="m 0,0 c 0,0 8.074,-46.325 9.741,-53.971 1.667,-7.645 7.732,-8.123 15.512,-6.64 8.167,1.555 52.757,1.091 52.757,1.091 v 11.996 l -49.269,3.402 c 0,0 -3.406,19.498 -5.855,34.899" /></g><g
           transform="translate(70.9723,183.7913)"
           id="g242"><path
             id="path244"
             style="fill:none;stroke:#282833;stroke-width:0.5;stroke-linecap:round;stroke-linejoin:round;stroke-miterlimit:10;stroke-dasharray:none;stroke-opacity:1"
             d="M 0,0 V -35.544" /></g><g
           transform="translate(124.7702,129.2913)"
           id="g246"><path
             id="path248"
             style="fill:none;stroke:#ffffff;stroke-width:0.5;stroke-linecap:round;stroke-linejoin:round;stroke-miterlimit:10;stroke-dasharray:none;stroke-opacity:1"
             d="M 0,0 C -13.003,2.984 -14.345,-4.667 -16.839,-14.667" /></g><g
           transform="translate(124.7702,129.2913)"
           id="g250"><path
             id="path252"
             style="fill:none;stroke:#ffffff;stroke-width:0.5;stroke-linecap:round;stroke-linejoin:round;stroke-miterlimit:10;stroke-dasharray:none;stroke-opacity:1"
             d="M 0,0 C 13.003,-2.984 9.342,-13.945 9.342,-13.945 L -3.55,-77.297 -28.744,-64.1 c 0,0 9.411,39.433 11.905,49.433" /></g><g
           transform="translate(87.0026,40.1097)"
           id="g254"><path
             id="path256"
             style="fill:#ffffff;fill-opacity:1;fill-rule:nonzero;stroke:none"
             d="m 0,0 2.28,4.475 25.057,-12.77 -2.279,-4.474 z" /></g><g
           transform="translate(89.1735,44.9202)"
           id="g258"><path
             id="path260"
             style="fill:#282833;fill-opacity:1;fill-rule:nonzero;stroke:none"
             d="m 0,0 -2.508,-4.92 25.504,-12.995 2.506,4.919 z M 0.218,-0.673 24.83,-13.215 22.777,-17.242 -1.835,-4.701 Z" /></g><g
           transform="translate(91.1988,50.6683)"
           id="g262"><path
             id="path264"
             style="fill:#5d4792;fill-opacity:1;fill-rule:nonzero;stroke:none"
             d="m 0,0 c -2.686,-2.359 -4.294,-4.846 -6.096,-7.928 -0.841,-1.438 -0.528,-2.293 0.785,-2.983 1.313,-0.692 0,0 18.26,-9.608 10.643,-5.423 13.649,-7.056 14.844,-4.711 3.773,7.404 -0.088,13.007 -0.089,13.008 -2.106,3.423 -1.506,5.098 -1.783,8.397 -0.017,0.207 -0.299,1.176 -0.657,1.554 C 23.795,-0.716 19.837,1.765 16.111,1.18 12.873,0.671 11.555,-6.964 5.514,-4.273 1.887,-2.657 1.504,0.079 2.127,1.268 2.27,1.538 0.933,0.822 0,0" /></g><g
           transform="translate(117.2965,24.6468)"
           id="g266"><path
             id="path268"
             style="fill:#ffffff;fill-opacity:1;fill-rule:nonzero;stroke:none"
             d="m 0,0 c -1.806,0 -5.217,1.739 -12.014,5.205 l -1.021,0.521 -18.256,9.605 c -0.622,0.327 -0.965,0.664 -1.078,1.06 -0.117,0.41 0.011,0.926 0.39,1.577 0.223,0.382 0.519,0.865 0.834,1.37 1.436,-0.78 9.987,-5.421 14.897,-7.926 l 0.105,-0.054 0.108,0.047 c 0.049,0.021 4.93,2.084 9.926,2.084 3.75,0 6.588,-1.137 8.438,-3.383 C 4.311,7.703 3.516,4.913 1.473,0.904 1.149,0.27 0.709,0 0,0" /></g><g
           transform="translate(86.0642,44.3167)"
           id="g270"><path
             id="path272"
             style="fill:#282833;fill-opacity:1;fill-rule:nonzero;stroke:none"
             d="m 0,0 c -0.361,-0.578 -0.71,-1.142 -0.961,-1.576 -0.842,-1.439 -0.528,-2.293 0.785,-2.983 1.313,-0.692 0,0 18.26,-9.608 7.484,-3.814 11.191,-5.754 13.148,-5.754 0.827,0 1.341,0.346 1.696,1.042 2.086,4.093 2.898,6.962 0.826,9.475 -2.188,2.655 -5.447,3.473 -8.631,3.473 -5.108,0 -10.024,-2.104 -10.024,-2.104 C 9.693,-5.278 0,0 0,0 m 0.176,-0.664 c 1.912,-1.038 9.979,-5.411 14.695,-7.816 l 0.209,-0.107 0.215,0.092 c 0.049,0.021 4.879,2.064 9.828,2.064 3.672,0 6.445,-1.107 8.246,-3.292 1.894,-2.297 1.109,-5.013 -0.887,-8.928 -0.282,-0.554 -0.632,-0.77 -1.25,-0.77 -1.746,0 -5.351,1.84 -11.899,5.179 l -1.017,0.517 -15.484,8.148 -2.775,1.46 c -0.549,0.289 -0.862,0.585 -0.954,0.906 -0.097,0.342 0.023,0.794 0.368,1.384 0.191,0.329 0.437,0.734 0.705,1.163" /></g><g
           transform="translate(119.9879,36.7367)"
           id="g274"><path
             id="path276"
             style="fill:none;stroke:#ffffff;stroke-width:0.5;stroke-linecap:round;stroke-linejoin:round;stroke-miterlimit:10;stroke-dasharray:none;stroke-opacity:1"
             d="M 0,0 C 0,0 -4.507,5.179 -12.592,4.826" /></g><g
           transform="translate(118.1617,40.4603)"
           id="g278"><path
             id="path280"
             style="fill:none;stroke:#ffffff;stroke-width:0.5;stroke-linecap:round;stroke-linejoin:round;stroke-miterlimit:10;stroke-dasharray:none;stroke-opacity:1"
             d="M 0,0 C 0,0 -5.566,4.439 -10.249,3.695" /></g><g
           transform="translate(117.482,43.1146)"
           id="g282"><path
             id="path284"
             style="fill:none;stroke:#ffffff;stroke-width:0.5;stroke-linecap:round;stroke-linejoin:round;stroke-miterlimit:10;stroke-dasharray:none;stroke-opacity:1"
             d="M 0,0 C 0,0 -3.559,3.743 -8.041,3.392" /></g><g
           transform="translate(137.3727,17.9261)"
           id="g286"><path
             id="path288"
             style="fill:#5d4792;fill-opacity:1;fill-rule:nonzero;stroke:none"
             d="m 0,0 -0.316,-4.449 c 0,0 -0.337,-3.156 -0.424,-4.68 -0.088,-1.524 0.523,-2.091 1.882,-2.108 1.358,-0.019 0,0 18.894,-0.246 10.942,0 21.599,-0.083 21.599,2.328 0,7.61 -10.713,11.205 -10.714,11.206 -3.069,1.464 -4.14,2.832 -6.042,5.705 C 24.328,8.585 22.106,10.057 18.631,7.537 16.2,5.776 13.262,-1.003 7.214,-1.318 3.561,-1.51 2.24,-0.465 1.562,0.924 1.299,1.465 0,0 0,0" /></g><g
           transform="translate(157.4088,6.6927)"
           id="g290"><path
             id="path292"
             style="fill:#ffffff;fill-opacity:1;fill-rule:nonzero;stroke:none"
             d="m 0,0 -18.892,0.246 c -0.628,0.008 -1.054,0.143 -1.303,0.41 -0.263,0.281 -0.371,0.751 -0.331,1.434 0.021,0.399 0.062,0.911 0.109,1.448 C -17.917,3.51 3.927,3.264 9.131,3.263 H 9.325 L 9.373,3.45 c 0.016,0.062 1.602,6.056 5.989,7.363 C 18.116,9.078 21.349,6.17 21.349,2.078 21.349,0 10.681,0 2.108,0 Z" /></g><g
           transform="translate(172.8082,17.7777)"
           id="g294"><path
             id="path296"
             style="fill:#282833;fill-opacity:1;fill-rule:nonzero;stroke:none"
             d="m 0,0 c -4.662,-1.297 -6.268,-7.572 -6.268,-7.572 -5.557,0.001 -29.777,0.278 -29.777,0.278 -0.056,-0.623 -0.105,-1.228 -0.131,-1.686 -0.088,-1.525 0.524,-2.091 1.882,-2.109 1.358,-0.018 0,0 18.895,-0.246 h 2.108 c 10.162,0 19.49,0.072 19.49,2.328 C 6.199,-4.801 2.928,-1.823 0,0 m -0.074,-0.544 c 2.679,-1.708 5.773,-4.532 5.773,-8.463 0,-0.248 -0.394,-1.089 -5.475,-1.512 -3.514,-0.293 -8.201,-0.316 -13.515,-0.316 h -1.051 -1.051 l -16.023,0.208 -2.871,0.038 c -0.557,0.007 -0.925,0.115 -1.125,0.33 -0.213,0.23 -0.3,0.638 -0.265,1.251 0.019,0.339 0.052,0.76 0.089,1.209 3.387,-0.039 24.248,-0.272 29.32,-0.273 h 0.387 l 0.097,0.376 c 0.014,0.058 1.544,5.82 5.71,7.152" /></g><g
           transform="translate(170.7916,19.14)"
           id="g298"><path
             id="path300"
             style="fill:none;stroke:#ffffff;stroke-width:0.5;stroke-linecap:round;stroke-linejoin:round;stroke-miterlimit:10;stroke-dasharray:none;stroke-opacity:1"
             d="M 0,0 C 0,0 -3.401,0.238 -5.73,-3.274" /></g><g
           transform="translate(168.5065,20.1204)"
           id="g302"><path
             id="path304"
             style="fill:none;stroke:#ffffff;stroke-width:0.5;stroke-linecap:round;stroke-linejoin:round;stroke-miterlimit:10;stroke-dasharray:none;stroke-opacity:1"
             d="M 0,0 C 0,0 -3.294,0.237 -5.623,-3.274" /></g><g
           transform="translate(166.7262,21.2064)"
           id="g306"><path
             id="path308"
             style="fill:none;stroke:#ffffff;stroke-width:0.5;stroke-linecap:round;stroke-linejoin:round;stroke-miterlimit:10;stroke-dasharray:none;stroke-opacity:1"
             d="M 0,0 C 0,0 -3.445,0.084 -5.775,-3.429" /></g><path
           id="path310"
           style="fill:#f2a61c;fill-opacity:1;fill-rule:nonzero;stroke:none"
           d="M 40.97,6.443 H 33.891 V 95.125 H 40.97 Z" /><g
           transform="translate(75.4469,243.3607)"
           id="g312"><path
             id="path314"
             style="fill:#5d4792;fill-opacity:1;fill-rule:nonzero;stroke:none"
             d="m 0,0 c 2.622,-5.988 2.703,-12.887 1.635,-19.218 -0.712,-4.21 -1.21,-8.532 -1.463,-12.776 -0.055,-0.918 0.032,-2.317 -0.685,-2.997 -2.081,-1.971 -10.517,1.274 -11.666,3.524" /></g><g
           transform="translate(74.6442,244.7601)"
           id="g316"><path
             id="path318"
             style="fill:#5d4792;fill-opacity:1;fill-rule:nonzero;stroke:none"
             d="m 0,0 c -3.404,5.896 -11.105,10.184 -17.616,7.779 -5.416,2.897 -12.42,-0.584 -15.829,-4.791 -4.198,-5.18 -4.909,-11.864 -7.804,-17.654 -1.459,-2.919 -3.122,-5.359 -5.129,-7.604 -0.893,-0.999 -0.42,-2.871 0.816,-3.169 7.372,-1.777 14.671,-9.94 22.12,-5.152 3.386,2.176 4.875,7.079 6.436,10.637 2.067,4.708 5.724,16.42 12.465,15.788" /></g><g
           transform="translate(48.7565,214.3968)"
           id="g320"><path
             id="path322"
             style="fill:#ffb5b3;fill-opacity:1;fill-rule:nonzero;stroke:none"
             d="m 0,0 c 0,0 0.432,-4.269 -2.796,-9.785 0,0 3.619,-16.813 11.944,-17.567 8.325,-0.753 5.674,13.472 5.674,13.472 0,0 0.135,7.217 1.731,10.627" /></g><g
           transform="translate(44.9488,227.8685)"
           id="g324"><path
             id="path326"
             style="fill:#ffb5b3;fill-opacity:1;fill-rule:nonzero;stroke:none"
             d="m 0,0 c -1.746,-10.723 6.66,-19.977 12.2,-20.879 5.539,-0.902 16.339,5.146 17.866,14.527 l 1.681,10.321 -8.342,7.195 -9.571,7.892 c 0,0 -5.086,-2.429 -6.12,-3.165 C 6.685,15.154 2.021,7.951 2.021,7.951 Z" /></g><g
           transform="translate(44.9488,227.8685)"
           id="g328"><path
             id="path330"
             style="fill:#ffb5b3;fill-opacity:1;fill-rule:nonzero;stroke:none"
             d="m 0,0 c -0.053,1.045 -1.204,3.889 -3.49,2.982 -1.985,-0.787 -2.166,-4.386 -1.259,-6.725 0.466,-1.196 2.36,-3.286 4.648,-1.337" /></g><g
           transform="translate(41.6822,229.2523)"
           id="g332"><path
             id="path334"
             style="fill:none;stroke:#282833;stroke-width:0.5;stroke-linecap:round;stroke-linejoin:round;stroke-miterlimit:10;stroke-dasharray:none;stroke-opacity:1"
             d="M 0,0 C 2.36,0.645 3.144,-2.273 3.034,-4.21" /></g><g
           transform="translate(42.7535,224.3548)"
           id="g336"><path
             id="path338"
             style="fill:none;stroke:#282833;stroke-width:0.5;stroke-linecap:round;stroke-linejoin:round;stroke-miterlimit:10;stroke-dasharray:none;stroke-opacity:1"
             d="M 0,0 C -0.413,1.421 0.661,3.885 1.562,3.354" /></g><g
           transform="translate(57.7003,245.3001)"
           id="g340"><path
             id="path342"
             style="fill:#5d4792;fill-opacity:1;fill-rule:nonzero;stroke:none"
             d="m 0,0 c -1.328,-7.605 10.344,-9.055 14.528,-13.197 3.08,-3.053 3.301,-7.257 2.621,-11.44 l 0.166,0.854 c 3.076,5.849 3.849,14.845 0.432,21.844 -3.44,7.038 -13.075,10.025 -20.226,6.4 -9.291,-4.712 -10.526,-13.432 -10.172,-23.031 0,0 2.048,6.595 7.924,9.718 C -1.472,-7.124 -0.57,-3.504 0,0" /></g><g
           transform="translate(64.4796,208.5511)"
           id="g344"><path
             id="path346"
             style="fill:none;stroke:#282833;stroke-width:0.5;stroke-linecap:round;stroke-linejoin:miter;stroke-miterlimit:10;stroke-dasharray:none;stroke-opacity:1"
             d="M 0,0 C -5.343,-2.796 -10.63,-1.907 -15.563,4.387" /></g></g></g></g></svg>