<svg  viewBox="0 0 248 110" fill="none" xmlns="http://www.w3.org/2000/svg">
<path d="M49.6 23.1C50 26.3 50.5 29.5 51.1 32.7C51.8 35.9 52.45 39.1 53.05 42.3C53.05 42.6 53.05 42.9 53.05 43.2C53.15 43.5 53.2 43.8 53.2 44.1L51.85 58.2C51.65 60.3 51.4 62.4 51.1 64.5C50.8 66.6 50.5 68.7 50.2 70.8C49.4 75.8 48.35 80.7 47.05 85.5C45.85 90.2 44.3 94.85 42.4 99.45C41.5 101.75 39.9 103.2 37.6 103.8C36.5 104.2 35.5 104.65 34.6 105.15C33.7 105.65 32.8 106.2 31.9 106.8C30.8 107.4 29.7 107.85 28.6 108.15C27.6 108.55 26.45 108.65 25.15 108.45C22.25 107.95 19.55 107.2 17.05 106.2C14.65 105.3 12.5 104 10.6 102.3C8.8 100.7 7.25 98.7 5.95 96.3C4.65 93.8 3.7 90.8 3.1 87.3C2.9 86.1 2.55 84.9 2.05 83.7C1.65 82.4 1.85 81.15 2.65 79.95C1.75 78.85 1.2 77.7 1 76.5C0.9 75.2 0.9 73.9 1 72.6C1.2 69.4 1.45 66.25 1.75 63.15C2.05 60.05 2.55 56.9 3.25 53.7C3.95 50.9 4.5 48.05 4.9 45.15C5.3 42.25 5.65 39.3 5.95 36.3C6.45 32.1 7.35 28.05 8.65 24.15C9.95 20.25 11.3 16.35 12.7 12.45C13.2 11.05 13.7 9.7 14.2 8.4C14.8 7.09999 15.35 5.74999 15.85 4.34999C16.35 3.25 16.75 2.4 17.05 1.8C17.45 1.1 17.9 0.649997 18.4 0.449999C19 0.149997 19.7 0.0499954 20.5 0.149994C21.3 0.249993 22.35 0.449993 23.65 0.749995C24.45 0.849994 25.3 1.09999 26.2 1.49999C27.9 2.3 29.2 3 30.1 3.59999C31.1 4.19999 31.75 4.89999 32.05 5.69999C32.45 6.4 32.55 7.25 32.35 8.25C32.15 9.25 31.8 10.6 31.3 12.3C30.2 15.9 28.55 19.5 26.35 23.1C24.15 26.7 22.5 30.3 21.4 33.9C21.2 34.7 20.95 35.5 20.65 36.3C20.45 37.1 20.2 37.9 19.9 38.7C19.7 38.9 19.45 39.05 19.15 39.15C18.85 39.25 18.55 39.4 18.25 39.6L16.9 40.5C17.5 40.7 18.4 40.95 19.6 41.25C19.3 44.75 19 48.15 18.7 51.45C18.4 54.75 18.15 58.05 17.95 61.35C17.85 62.05 17.8 62.75 17.8 63.45C17.9 64.05 17.95 64.7 17.95 65.4C17.95 65.9 18.05 66.4 18.25 66.9C18.45 67.3 18.45 67.65 18.25 67.95C17.15 70.75 16.75 73.6 17.05 76.5C17.45 79.3 17.6 82.15 17.5 85.05C17.5 85.85 17.4 86.65 17.2 87.45C17.1 88.15 17.1 88.9 17.2 89.7C17.3 90.6 17.7 91.4 18.4 92.1C19.1 92.8 19.95 93.45 20.95 94.05C21.95 94.65 22.9 95.25 23.8 95.85C24.8 96.45 25.6 97.05 26.2 97.65C27.5 96.95 28.45 96.05 29.05 94.95C29.75 93.85 30.35 92.7 30.85 91.5C32.85 86.8 34.45 82 35.65 77.1C36.85 72.2 37.8 67.2 38.5 62.1C38.7 60.6 38.85 59.15 38.95 57.75C39.05 56.25 39.15 54.75 39.25 53.25C39.45 50.75 39.6 48.3 39.7 45.9C39.9 43.5 40 41.05 40 38.55C39.9 35.95 39.8 33.3 39.7 30.6C39.6 27.8 39.3 25.1 38.8 22.5C38.5 20.8 37.95 19.1 37.15 17.4C36.45 15.7 35.75 14 35.05 12.3C36.95 12 38.75 12.1 40.45 12.6C42.15 13.1 43.65 13.9 44.95 15C46.25 16 47.3 17.2 48.1 18.6C48.9 20 49.4 21.5 49.6 23.1ZM18.85 32.25C18.85 32.25 18.85 32.4 18.85 32.7H19.15V32.1C18.95 32.1 18.85 32.15 18.85 32.25ZM13.15 27C13.15 26.9 13.05 26.85 12.85 26.85C12.85 26.85 12.75 26.9 12.55 27L13.15 27.3V27ZM11.5 22.5L11.35 22.35L11.2 22.5H11.5ZM16.9 40.5V40.65H16.75L16.9 40.5ZM110.473 89.25C109.873 90.25 109.173 91.2 108.373 92.1C107.573 93 106.773 93.9 105.973 94.8C105.473 95.4 105.073 96.05 104.773 96.75C104.473 97.35 104.173 97.95 103.873 98.55C103.573 99.05 103.223 99.4 102.823 99.6C102.423 99.8 101.923 99.75 101.323 99.45L98.473 98.25C95.873 97.15 94.573 95.85 94.573 94.35C94.573 92.75 93.423 91.1 91.123 89.4C91.223 88.5 91.273 87.6 91.273 86.7C91.373 85.8 91.873 84.3 92.773 82.2C92.773 82.1 92.973 81.9 93.373 81.6C93.873 81.3 94.023 81 93.823 80.7C94.023 76.6 94.223 73.25 94.423 70.65C94.723 67.95 94.923 65.1 95.023 62.1C95.123 61.7 95.123 61.3 95.023 60.9C95.023 60.5 95.023 60.05 95.023 59.55C97.023 58.45 98.973 58.1 100.873 58.5C102.873 58.9 104.873 59.3 106.873 59.7C107.773 59.9 108.323 60.4 108.523 61.2C108.723 62 108.823 62.9 108.823 63.9C108.623 67 108.473 70.1 108.373 73.2C108.273 75.3 108.173 77.45 108.073 79.65C117.773 75.45 122.673 71.5 122.773 67.8C124.073 63.9 124.873 61.3 125.173 60C125.573 58.6 125.873 56.75 126.073 54.45C126.173 53.65 126.473 52.85 126.973 52.05C127.473 51.15 127.973 50.3 128.473 49.5C129.373 49.6 130.273 49.6 131.173 49.5C132.173 49.4 133.173 49.35 134.173 49.35C135.173 49.25 136.123 49.25 137.023 49.35C138.023 49.45 139.073 49.75 140.173 50.25L138.223 55.2C137.823 56.3 137.423 57.45 137.023 58.65C136.623 59.75 136.373 60.85 136.273 61.95C135.973 68.25 135.823 74.55 135.823 80.85C135.923 82.35 136.123 83.9 136.423 85.5C136.723 87 136.973 88.55 137.173 90.15L136.873 91.2C137.273 91 137.573 90.8 137.773 90.6C138.373 90 139.173 89.2 140.173 88.2C141.173 87.1 142.223 86 143.323 84.9C144.423 83.8 145.523 82.7 146.623 81.6C147.823 80.5 148.873 79.6 149.773 78.9C148.873 81.3 148.123 83.3 147.523 84.9C146.923 86.4 146.323 87.75 145.723 88.95C145.223 90.05 144.723 91.05 144.223 91.95C143.723 92.75 143.173 93.65 142.573 94.65C140.973 96.65 139.123 97.75 137.023 97.95C135.023 98.15 132.873 97.9 130.573 97.2C126.673 96 124.473 93.3 123.973 89.1C123.873 88 123.723 86.95 123.523 85.95C123.423 84.95 123.123 83.9 122.623 82.8C122.323 83.3 122.023 83.8 121.723 84.3C121.423 84.9 117.673 86.55 110.473 89.25ZM193.217 97.5C194.317 96.3 195.317 95.2 196.217 94.2C197.117 93.2 198.017 92.25 198.917 91.35C200.217 89.65 201.667 87.95 203.267 86.25C204.967 84.45 207.117 82.05 209.717 79.05C209.217 83.25 208.167 87.2 206.567 90.9C204.967 94.5 203.167 97.75 201.167 100.65C200.367 101.85 199.417 102.9 198.317 103.8C197.217 104.8 196.117 105.75 195.017 106.65C193.817 107.55 192.417 107.9 190.817 107.7C189.217 107.6 187.667 107.1 186.167 106.2C184.667 105.4 183.317 104.3 182.117 102.9C181.017 101.6 180.417 100.2 180.317 98.7C180.117 96.5 179.767 94.3 179.267 92.1C178.867 89.9 178.917 87.7 179.417 85.5C179.717 83.9 179.417 81.95 178.517 79.65C178.117 80.15 177.717 80.65 177.317 81.15C176.917 81.55 176.567 82 176.267 82.5L169.217 94.65C168.917 95.15 168.617 95.7 168.317 96.3C168.017 96.8 167.667 97.3 167.267 97.8C166.467 98.8 165.717 99.8 165.017 100.8C164.317 101.9 163.017 102.15 161.117 101.55C159.017 101.05 156.967 100.25 154.967 99.15C153.067 98.15 151.517 96.65 150.317 94.65C149.417 93.05 148.817 91.7 148.517 90.6C148.217 89.4 148.117 88.2 148.217 87C148.317 85.7 148.467 84.25 148.667 82.65C148.867 80.95 149.067 78.75 149.267 76.05C149.667 73.35 150.417 70.9 151.517 68.7C152.717 66.4 154.067 64.3 155.567 62.4C157.067 60.4 158.667 58.5 160.367 56.7C162.067 54.9 163.717 53.05 165.317 51.15C166.317 50.05 167.317 49.3 168.317 48.9C169.417 48.5 170.817 48.55 172.517 49.05C174.117 49.55 175.667 49.95 177.167 50.25C178.767 50.55 180.317 51.25 181.817 52.35C183.817 53.75 185.017 54.85 185.417 55.65C185.817 56.35 185.767 57.85 185.267 60.15L188.267 60.6C190.667 61.1 192.667 62.1 194.267 63.6C195.867 65.1 196.467 67.4 196.067 70.5L192.767 94.5C192.667 94.8 192.667 95.2 192.767 95.7C192.867 96.1 193.017 96.7 193.217 97.5ZM179.567 69.15C179.767 68.95 180.017 68.55 180.317 67.95C180.717 67.25 181.067 66.55 181.367 65.85C181.767 65.05 182.117 64.3 182.417 63.6C182.717 62.9 182.967 62.4 183.167 62.1C182.267 61.4 181.017 60.55 179.417 59.55C177.917 58.55 176.767 57.75 175.967 57.15C173.367 57.55 171.117 58.8 169.217 60.9C167.417 63 165.867 65.55 164.567 68.55C163.367 71.55 162.367 74.75 161.567 78.15C160.867 81.45 160.367 84.5 160.067 87.3C159.967 87.5 160.017 87.95 160.217 88.65C160.517 89.35 160.817 90.15 161.117 91.05C161.517 91.85 161.867 92.7 162.167 93.6C162.467 94.4 162.667 95 162.767 95.4C163.267 94.9 163.717 94.5 164.117 94.2C164.517 93.9 164.817 93.6 165.017 93.3C166.317 91.7 167.517 89.8 168.617 87.6C169.717 85.3 170.767 83.05 171.767 80.85C172.867 78.55 174.017 76.4 175.217 74.4C176.417 72.3 177.867 70.55 179.567 69.15ZM225.749 104.4C226.149 104 226.799 103.25 227.699 102.15C228.699 101.05 229.649 99.9 230.549 98.7C231.549 97.5 232.449 96.35 233.249 95.25C234.049 94.15 234.549 93.45 234.749 93.15C236.749 91.15 238.749 88.8 240.749 86.1C242.849 83.4 245.149 81 247.649 78.9C246.449 81.3 245.499 83.3 244.799 84.9C244.099 86.4 243.399 87.8 242.699 89.1C242.099 90.3 241.449 91.55 240.749 92.85C240.049 94.05 239.099 95.55 237.899 97.35C235.899 101.45 233.799 104.35 231.599 106.05C229.399 107.85 227.199 108.8 224.999 108.9C222.899 109 220.899 108.45 218.999 107.25C217.099 106.15 215.399 104.85 213.899 103.35L208.049 97.35L205.199 88.35C205.099 82.65 205.349 77.05 205.949 71.55C206.549 65.95 207.849 60.45 209.849 55.05C210.649 52.65 211.749 50.35 213.149 48.15C214.649 45.95 216.099 43.7 217.499 41.4C217.699 41 218.049 40.65 218.549 40.35C219.049 39.95 219.499 39.75 219.899 39.75C223.899 39.65 227.799 40 231.599 40.8C235.399 41.5 239.199 42.4 242.999 43.5C243.199 43.6 243.349 43.75 243.449 43.95C243.649 44.15 243.849 44.35 244.049 44.55C241.749 47.15 240.249 50 239.549 53.1C238.849 56.1 238.099 59.15 237.299 62.25C236.999 63.45 236.599 64.65 236.099 65.85C235.699 67.05 235.299 68.2 234.899 69.3C232.999 68.8 231.699 68 230.999 66.9C230.299 65.8 230.049 64.2 230.249 62.1C230.449 60.3 230.649 58.5 230.849 56.7C231.049 54.8 231.249 52.9 231.449 51C231.649 50.2 231.749 49.4 231.749 48.6C231.749 47.7 231.799 46.55 231.899 45.15C230.799 45.65 229.799 46.1 228.899 46.5C228.099 46.8 227.499 47.2 227.099 47.7C226.399 48.5 225.749 49.4 225.149 50.4C224.649 51.4 224.299 52.45 224.099 53.55C223.399 56.55 222.749 59.55 222.149 62.55C221.549 65.55 221.049 68.6 220.649 71.7C220.349 74.3 220.249 76.85 220.349 79.35C220.449 81.85 220.349 84.4 220.049 87C219.549 91.1 220.149 94.7 221.849 97.8C222.349 98.9 222.899 99.95 223.499 100.95C224.199 101.95 224.949 103.1 225.749 104.4Z" fill="#83519C"/>
</svg>
