<svg  viewBox="0 0 330 129" fill="none" xmlns="http://www.w3.org/2000/svg">
<path d="M54.1 4.45C57 4.45 59.45 5.9 61.45 8.79999C60.35 9.5 59.25 9.85 58.15 9.85C57.15 9.85 56.1 9.8 55 9.69999C50.8 9.4 46.6 9.4 42.4 9.69999C38.2 9.89999 34 10.95 29.8 12.85V19.75C29.8 22.85 29.75 25.95 29.65 29.05C29.65 32.05 29.65 35.1 29.65 38.2L29.05 43.45C28.95 44.55 28.85 47.7 28.75 52.9C28.65 58 28.55 61 28.45 61.9C28.35 62.8 28.2 63.7 28 64.6C27.6 68.2 27.15 71.8 26.65 75.4C26.25 78.9 25.9 82.45 25.6 86.05C25.4 88.05 25.3 90.05 25.3 92.05C25.4 93.95 25.35 95.9 25.15 97.9C25.05 99.6 24.9 101.2 24.7 102.7C24.6 104.3 24.45 105.85 24.25 107.35C21.65 108.55 19.2 109.3 16.9 109.6C14.6 110 12.2 109.2 9.7 107.2C10.1 104.1 10.3 100.85 10.3 97.45C10.3 94.05 10.85 90.7 11.95 87.4V87.25C11.15 85.05 10.95 82.85 11.35 80.65C11.85 78.45 12.25 76.25 12.55 74.05C13.05 70.85 13.4 67.65 13.6 64.45C13.9 61.25 13.95 58.05 13.75 54.85C13.55 50.55 13.6 46.3 13.9 42.1C14.2 37.8 14.3 33.45 14.2 29.05C14.1 26.15 14.05 23.25 14.05 20.35C14.05 17.35 14.05 14.35 14.05 11.35C12.65 11.05 11.25 10.8 9.85 10.6C8.55 10.3 7.25 9.99999 5.95 9.69999C4.55 9.3 3.3 8.45 2.2 7.15C1.1 5.75 0.55 4.35 0.55 2.95C0.55 2.24999 0.85 1.75 1.45 1.45C2.05 1.05 2.75 0.949997 3.55 1.14999L14.8 3.85C17.5 4.55 20.2 4.95 22.9 5.05C25.6 5.15 28.35 5.1 31.15 4.9C34.95 4.6 38.75 4.45 42.55 4.45C46.45 4.45 50.3 4.45 54.1 4.45ZM12.1 87.25C12.2 87.25 12.25 87.25 12.25 87.25C12.35 87.15 12.5 87.1 12.7 87.1L12.25 86.65C12.25 86.85 12.2 87 12.1 87.1C12.1 87.1 12.1 87.15 12.1 87.25ZM90.3086 98.5C91.4086 97.3 92.4086 96.2 93.3086 95.2C94.2086 94.2 95.1086 93.25 96.0086 92.35C97.3086 90.65 98.7586 88.95 100.359 87.25C102.059 85.45 104.209 83.05 106.809 80.05C106.309 84.25 105.259 88.2 103.659 91.9C102.059 95.5 100.259 98.75 98.2586 101.65C97.4586 102.85 96.5086 103.9 95.4086 104.8C94.3086 105.8 93.2086 106.75 92.1086 107.65C90.9086 108.55 89.5086 108.9 87.9086 108.7C86.3086 108.6 84.7586 108.1 83.2586 107.2C81.7586 106.4 80.4086 105.3 79.2086 103.9C78.1086 102.6 77.5086 101.2 77.4086 99.7C77.2086 97.5 76.8586 95.3 76.3586 93.1C75.9586 90.9 76.0086 88.7 76.5086 86.5C76.8086 84.9 76.5086 82.95 75.6086 80.65C75.2086 81.15 74.8086 81.65 74.4086 82.15C74.0086 82.55 73.6586 83 73.3586 83.5L66.3086 95.65C66.0086 96.15 65.7086 96.7 65.4086 97.3C65.1086 97.8 64.7586 98.3 64.3586 98.8C63.5586 99.8 62.8086 100.8 62.1086 101.8C61.4086 102.9 60.1086 103.15 58.2086 102.55C56.1086 102.05 54.0586 101.25 52.0586 100.15C50.1586 99.15 48.6086 97.65 47.4086 95.65C46.5086 94.05 45.9086 92.7 45.6086 91.6C45.3086 90.4 45.2086 89.2 45.3086 88C45.4086 86.7 45.5586 85.25 45.7586 83.65C45.9586 81.95 46.1586 79.75 46.3586 77.05C46.7586 74.35 47.5086 71.9 48.6086 69.7C49.8086 67.4 51.1586 65.3 52.6586 63.4C54.1586 61.4 55.7586 59.5 57.4586 57.7C59.1586 55.9 60.8086 54.05 62.4086 52.15C63.4086 51.05 64.4086 50.3 65.4086 49.9C66.5086 49.5 67.9086 49.55 69.6086 50.05C71.2086 50.55 72.7586 50.95 74.2586 51.25C75.8586 51.55 77.4086 52.25 78.9086 53.35C80.9086 54.75 82.1086 55.85 82.5086 56.65C82.9086 57.35 82.8586 58.85 82.3586 61.15L85.3586 61.6C87.7586 62.1 89.7586 63.1 91.3586 64.6C92.9586 66.1 93.5586 68.4 93.1586 71.5L89.8586 95.5C89.7586 95.8 89.7586 96.2 89.8586 96.7C89.9586 97.1 90.1086 97.7 90.3086 98.5ZM76.6586 70.15C76.8586 69.95 77.1086 69.55 77.4086 68.95C77.8086 68.25 78.1586 67.55 78.4586 66.85C78.8586 66.05 79.2086 65.3 79.5086 64.6C79.8086 63.9 80.0586 63.4 80.2586 63.1C79.3586 62.4 78.1086 61.55 76.5086 60.55C75.0086 59.55 73.8586 58.75 73.0586 58.15C70.4586 58.55 68.2086 59.8 66.3086 61.9C64.5086 64 62.9586 66.55 61.6586 69.55C60.4586 72.55 59.4586 75.75 58.6586 79.15C57.9586 82.45 57.4586 85.5 57.1586 88.3C57.0586 88.5 57.1086 88.95 57.3086 89.65C57.6086 90.35 57.9086 91.15 58.2086 92.05C58.6086 92.85 58.9586 93.7 59.2586 94.6C59.5586 95.4 59.7586 96 59.8586 96.4C60.3586 95.9 60.8086 95.5 61.2086 95.2C61.6086 94.9 61.9086 94.6 62.1086 94.3C63.4086 92.7 64.6086 90.8 65.7086 88.6C66.8086 86.3 67.8586 84.05 68.8586 81.85C69.9586 79.55 71.1086 77.4 72.3086 75.4C73.5086 73.3 74.9586 71.55 76.6586 70.15ZM140.691 90.7C141.791 88.7 142.841 86.95 143.841 85.45C144.841 83.95 146.041 82.7 147.441 81.7C147.441 83.5 147.291 85 146.991 86.2C146.791 87.4 146.541 88.5 146.241 89.5C145.941 90.5 145.591 91.5 145.191 92.5C144.891 93.4 144.591 94.45 144.291 95.65C142.891 97.35 141.391 98.55 139.791 99.25C138.191 99.85 136.541 100.1 134.841 100C133.241 99.9 131.541 99.5 129.741 98.8C128.041 98.1 126.491 97.3 125.091 96.4C123.891 94.2 123.241 91.7 123.141 88.9C123.141 86 123.341 81.95 123.741 76.75C124.241 71.55 124.691 67.9 125.091 65.8C125.591 63.7 125.791 62.3 125.691 61.6C125.291 62.1 124.091 66.85 122.091 75.85C120.091 84.75 119.041 89.35 118.941 89.65L113.391 97C113.191 97.2 112.891 97.45 112.491 97.75C112.191 97.95 111.841 98.1 111.441 98.2C110.441 98.3 109.341 98.15 108.141 97.75C107.041 97.25 105.941 96.65 104.841 95.95C103.741 95.15 102.791 94.3 101.991 93.4C101.191 92.4 100.691 91.4 100.491 90.4C99.991 88.7 99.691 86.95 99.591 85.15C99.391 83.25 100.741 84.25 103.641 88.15C106.641 91.95 109.041 93.4 110.841 92.5L113.841 84.85C114.441 83.85 115.641 79.8 117.441 72.7C119.241 65.6 120.491 61.55 121.191 60.55C121.491 59.45 122.041 58.45 122.841 57.55C123.741 56.55 124.691 55.75 125.691 55.15C126.791 54.45 127.891 53.95 128.991 53.65C130.091 53.35 131.091 53.35 131.991 53.65C133.691 54.25 134.541 55.4 134.541 57.1C134.541 60.6 134.491 65.35 134.391 71.35C134.391 77.25 134.291 81.95 134.091 85.45C134.091 87.05 134.191 88.7 134.391 90.4C134.591 92 135.291 93.7 136.491 95.5C137.291 94.9 137.991 94.1 138.591 93.1C139.291 92.1 139.991 91.3 140.691 90.7ZM182.153 45.7C184.453 46.4 185.353 47.65 184.853 49.45C184.653 49.95 184.453 50.45 184.253 50.95C184.153 51.35 183.953 51.8 183.653 52.3C181.453 56.1 178.903 59.75 176.003 63.25C173.103 66.75 169.853 70.1 166.253 73.3C164.953 74.5 163.653 75.75 162.353 77.05C161.153 78.35 160.103 79.7 159.203 81.1C158.603 82.1 158.203 83.2 158.003 84.4C157.903 85.5 157.853 86.6 157.853 87.7C157.853 89.4 158.503 91.25 159.803 93.25C161.103 95.25 162.653 96.8 164.453 97.9C165.253 97.3 166.303 96.55 167.603 95.65C169.003 94.65 170.103 93.8 170.903 93.1C174.103 90.2 177.303 87.65 180.503 85.45C183.703 83.15 186.103 81.15 187.703 79.45C187.503 80.55 187.253 81.65 186.953 82.75C186.753 83.65 186.453 84.65 186.053 85.75C185.753 86.85 185.353 87.8 184.853 88.6C183.253 91.2 181.303 93.45 179.003 95.35C176.703 97.15 174.103 99.1 171.203 101.2C169.503 102.4 167.753 103 165.953 103C164.253 103 162.253 102.7 159.953 102.1C156.553 101.2 153.453 99.55 150.653 97.15C147.853 94.75 145.853 92.05 144.653 89.05C144.453 88.65 144.303 88.25 144.203 87.85C144.203 87.35 144.103 86.75 143.903 86.05C143.803 85.05 143.703 84.05 143.603 83.05C143.503 82.05 143.453 81 143.453 79.9C143.553 78.8 143.703 77.55 143.903 76.15C144.103 74.75 144.503 73.1 145.103 71.2C145.903 68.1 147.003 65.05 148.403 62.05C149.803 59.05 151.153 56.05 152.453 53.05C152.953 51.95 153.503 50.85 154.103 49.75C154.803 48.65 155.503 47.55 156.203 46.45C156.603 45.85 157.053 45.3 157.553 44.8C158.053 44.2 158.553 43.65 159.053 43.15C160.953 41.15 163.603 40.45 167.003 41.05C167.803 41.25 168.653 41.35 169.553 41.35C170.453 41.35 171.353 41.45 172.253 41.65C173.453 41.85 174.403 42.15 175.103 42.55C177.303 43.95 179.653 45 182.153 45.7ZM162.053 65.5C169.153 58.4 173.653 52.55 175.553 47.95C173.553 47.35 172.253 47.1 171.653 47.2C171.153 47.2 170.403 47.75 169.403 48.85C167.203 51.15 165.453 53.6 164.153 56.2C162.853 58.8 161.903 61.5 161.303 64.3C161.303 64.5 161.353 64.7 161.453 64.9C161.653 65.1 161.853 65.3 162.053 65.5ZM194.4 107.65C193.7 112.15 193.85 115.65 194.85 118.15C195.85 120.75 197.25 121.8 199.05 121.3C199.35 121.2 199.55 121.3 199.65 121.6C199.85 122 200 122.45 200.1 122.95C200.2 123.45 200.2 123.95 200.1 124.45C200.1 124.95 199.95 125.25 199.65 125.35C197.85 126.25 195.6 126.95 192.9 127.45C190.3 128.05 187.6 127.45 184.8 125.65C183.3 124.75 182.2 123.7 181.5 122.5C180.8 121.3 180.3 120 180 118.6C179.7 117.2 179.6 115.75 179.7 114.25C179.7 112.75 179.75 111.15 179.85 109.45C180.05 107.85 180.5 105.65 181.2 102.85C181.8 100.15 182.4 96.95 183 93.25C183.1 92.75 183.15 91.65 183.15 89.95C183.25 88.25 183.35 87.05 183.45 86.35C183.85 83.45 184.35 80.65 184.95 77.95C185.55 75.15 186 71.55 186.3 67.15L186.9 56.8C186.9 55.9 186.7 55.1 186.3 54.4C185.8 53.3 185.8 52.25 186.3 51.25C186.8 50.25 187.6 49.65 188.7 49.45C189.2 49.25 189.7 49.15 190.2 49.15C190.8 49.15 191.35 49.15 191.85 49.15C194.15 49.15 196 49.25 197.4 49.45C198.8 49.55 199.85 49.95 200.55 50.65C201.35 51.35 201.9 52.45 202.2 53.95C202.6 55.35 202.9 57.35 203.1 59.95C203.3 61.85 203.3 63.8 203.1 65.8C202.9 67.8 202.7 70.1 202.5 72.7C203 71.9 203.4 71.3 203.7 70.9C204.1 70.5 204.4 70.15 204.6 69.85C205.7 68.15 206.8 66.4 207.9 64.6C209.1 62.8 210.3 61.05 211.5 59.35C213.9 56.05 216.7 53.75 219.9 52.45C223.1 51.05 226.7 50.45 230.7 50.65C232.3 50.75 233.85 51.5 235.35 52.9C236.85 54.2 237.7 55.8 237.9 57.7C237.9 58.3 237.85 59.3 237.75 60.7C237.75 62 237.65 63.4 237.45 64.9C237.35 66.3 237.2 67.65 237 68.95C236.8 70.15 236.55 71.05 236.25 71.65C235.65 74.55 234.3 77.55 232.2 80.65C230.2 83.65 227.7 86.45 224.7 89.05C220.9 92.45 217.75 94.4 215.25 94.9C212.85 95.3 210.8 94.8 209.1 93.4C208.8 93.1 208.55 92.8 208.35 92.5C208.15 92.1 208.3 91.7 208.8 91.3C209 90.5 209.55 89.65 210.45 88.75C211.35 87.75 212.05 86.9 212.55 86.2C216.25 82.6 219.4 78.8 222 74.8C224.6 70.8 226.25 65.9 226.95 60.1C227.05 59.8 227 59.1 226.8 58C226.7 56.9 226.3 55.95 225.6 55.15C224.8 55.55 224.15 55.85 223.65 56.05C223.15 56.25 222.65 56.55 222.15 56.95C220.75 57.95 219.05 59.55 217.05 61.75C215.05 63.95 213 66.4 210.9 69.1C208.8 71.7 206.75 74.4 204.75 77.2C202.85 79.9 201.3 82.3 200.1 84.4C199.4 86.6 198.7 89 198 91.6C197.4 93.8 196.75 96.3 196.05 99.1C195.45 101.9 194.9 104.75 194.4 107.65ZM277.807 45.7C280.107 46.4 281.007 47.65 280.507 49.45C280.307 49.95 280.107 50.45 279.907 50.95C279.807 51.35 279.607 51.8 279.307 52.3C277.107 56.1 274.557 59.75 271.657 63.25C268.757 66.75 265.507 70.1 261.907 73.3C260.607 74.5 259.307 75.75 258.007 77.05C256.807 78.35 255.757 79.7 254.857 81.1C254.257 82.1 253.857 83.2 253.657 84.4C253.557 85.5 253.507 86.6 253.507 87.7C253.507 89.4 254.157 91.25 255.457 93.25C256.757 95.25 258.307 96.8 260.107 97.9C260.907 97.3 261.957 96.55 263.257 95.65C264.657 94.65 265.757 93.8 266.557 93.1C269.757 90.2 272.957 87.65 276.157 85.45C279.357 83.15 281.757 81.15 283.357 79.45C283.157 80.55 282.907 81.65 282.607 82.75C282.407 83.65 282.107 84.65 281.707 85.75C281.407 86.85 281.007 87.8 280.507 88.6C278.907 91.2 276.957 93.45 274.657 95.35C272.357 97.15 269.757 99.1 266.857 101.2C265.157 102.4 263.407 103 261.607 103C259.907 103 257.907 102.7 255.607 102.1C252.207 101.2 249.107 99.55 246.307 97.15C243.507 94.75 241.507 92.05 240.307 89.05C240.107 88.65 239.957 88.25 239.857 87.85C239.857 87.35 239.757 86.75 239.557 86.05C239.457 85.05 239.357 84.05 239.257 83.05C239.157 82.05 239.107 81 239.107 79.9C239.207 78.8 239.357 77.55 239.557 76.15C239.757 74.75 240.157 73.1 240.757 71.2C241.557 68.1 242.657 65.05 244.057 62.05C245.457 59.05 246.807 56.05 248.107 53.05C248.607 51.95 249.157 50.85 249.757 49.75C250.457 48.65 251.157 47.55 251.857 46.45C252.257 45.85 252.707 45.3 253.207 44.8C253.707 44.2 254.207 43.65 254.707 43.15C256.607 41.15 259.257 40.45 262.657 41.05C263.457 41.25 264.307 41.35 265.207 41.35C266.107 41.35 267.007 41.45 267.907 41.65C269.107 41.85 270.057 42.15 270.757 42.55C272.957 43.95 275.307 45 277.807 45.7ZM257.707 65.5C264.807 58.4 269.307 52.55 271.207 47.95C269.207 47.35 267.907 47.1 267.307 47.2C266.807 47.2 266.057 47.75 265.057 48.85C262.857 51.15 261.107 53.6 259.807 56.2C258.507 58.8 257.557 61.5 256.957 64.3C256.957 64.5 257.007 64.7 257.107 64.9C257.307 65.1 257.507 65.3 257.707 65.5ZM294.705 92.8H294.555C292.455 92.3 290.455 91.55 288.555 90.55C286.655 89.45 285.105 87.9 283.905 85.9C283.105 84.3 282.555 82.95 282.255 81.85C282.055 80.65 282.005 79.45 282.105 78.25C282.305 76.95 282.255 75 281.955 72.4C281.755 69.7 282.455 67.4 284.055 65.5C285.655 63.5 287.305 61.6 289.005 59.8C290.805 58 292.555 56.15 294.255 54.25C295.255 53.15 296.305 52.4 297.405 52C298.505 51.6 299.855 51.65 301.455 52.15C303.055 52.65 304.605 53.05 306.105 53.35C307.705 53.65 309.255 54.35 310.755 55.45C312.655 56.85 313.805 57.9 314.205 58.6C314.405 59.1 314.455 59.85 314.355 60.85L312.855 65.5C313.055 65.7 313.255 65.95 313.455 66.25C314.755 68.25 314.955 70.95 314.055 74.35L309.705 96.55C309.405 96.85 309.255 97.25 309.255 97.75C309.355 98.25 309.455 99 309.555 100C310.855 98.8 312.005 97.7 313.005 96.7C314.105 95.7 315.155 94.75 316.155 93.85C317.855 92.15 319.655 90.45 321.555 88.75C323.455 86.95 326.005 84.55 329.205 81.55C327.905 86.25 326.155 90.55 323.955 94.45C321.755 98.35 319.405 101.8 316.905 104.8C315.805 106.1 314.655 107.2 313.455 108.1C312.255 109 311.005 109.85 309.705 110.65C308.405 111.55 306.955 111.75 305.355 111.25C303.755 110.85 302.805 110.1 302.505 109C302.205 108 301.605 106.65 300.705 104.95C299.805 103.25 299.405 101.55 299.505 99.85C299.505 99.35 299.555 98.8 299.655 98.2C297.455 101.5 294.605 104.2 291.105 106.3C288.805 107.6 286.605 108.35 284.505 108.55C282.505 108.75 280.705 108.2 279.105 106.9C278.505 106.2 277.905 105.15 277.305 103.75C276.605 102.45 275.955 100.95 275.355 99.25C274.755 97.55 274.155 95.75 273.555 93.85C272.955 91.85 272.355 89.95 271.755 88.15C272.555 88.55 273.455 89.3 274.455 90.4C275.355 91.5 276.255 92.7 277.155 94C278.055 95.3 278.855 96.6 279.555 97.9C280.355 99.1 281.055 99.9 281.655 100.3C282.555 101.1 283.505 101.85 284.505 102.55C285.505 103.25 286.755 103.6 288.255 103.6C290.255 101.7 291.605 99.65 292.305 97.45C292.805 95.85 293.605 94.3 294.705 92.8ZM298.755 84.55C298.855 84.25 298.955 83.95 299.055 83.65C299.555 82.55 300.155 81.5 300.855 80.5C301.555 79.5 302.255 78.45 302.955 77.35L303.105 77.65L307.755 62.5C306.355 61.6 305.305 60.85 304.605 60.25C302.005 60.65 299.705 61.9 297.705 64C295.805 66.1 294.155 68.65 292.755 71.65C291.455 74.65 291.555 77.4 293.055 79.9C294.655 82.3 295.555 83.95 295.755 84.85C296.055 85.65 296.255 86.25 296.355 86.65C296.855 86.15 297.355 85.75 297.855 85.45C298.255 85.15 298.555 84.85 298.755 84.55Z" fill="#83519C"/>
</svg>
