<svg  viewBox="0 0 715 139" fill="none" xmlns="http://www.w3.org/2000/svg">
<path d="M49.8 14.9C50 17.2 50.1 19.45 50.1 21.65C50.2 23.85 50.3 26.1 50.4 28.4C50.4 31.6 50.4 34.8 50.4 38C50.4 41.2 50.35 44.4 50.25 47.6C50.25 49.9 50.1 52.15 49.8 54.35L48.3 69.5C48.2 70 48.15 70.45 48.15 70.85C48.25 71.25 48.3 71.7 48.3 72.2C47.9 77.3 47.5 82.4 47.1 87.5C46.8 92.5 46.55 97.55 46.35 102.65C46.15 104.65 46.1 106.7 46.2 108.8C46.3 110.8 46.35 112.8 46.35 114.8V118.55C43.75 120.55 41.2 121.35 38.7 120.95C36.3 120.65 33.9 120 31.5 119C30.2 118.5 29.2 117.45 28.5 115.85C27.8 114.25 27.65 112.75 28.05 111.35C29.05 107.85 29.7 104.4 30 101C30.3 97.5 30.55 94 30.75 90.5C30.75 89.7 30.85 88.95 31.05 88.25C31.35 87.55 31.5 86.85 31.5 86.15C31.5 84.55 31.55 83 31.65 81.5C31.85 79.9 32 78.3 32.1 76.7C32.3 75.1 32.35 73.5 32.25 71.9C32.15 70.3 31.85 68.7 31.35 67.1L17.85 68.6C17.75 69.2 17.7 69.8 17.7 70.4C17.7 71 17.7 71.55 17.7 72.05C17.7 72.45 17.75 72.85 17.85 73.25C17.95 73.55 17.95 73.9 17.85 74.3C17.45 77.7 17.05 81.1 16.65 84.5C16.25 87.9 15.8 91.3 15.3 94.7C14.8 97.6 14.4 100.45 14.1 103.25C13.8 105.95 13.75 108.75 13.95 111.65C14.05 115.75 12.15 117.35 8.25 116.45C8.05 116.45 7.8 116.4 7.5 116.3C7.3 116.2 7.1 116.15 6.9 116.15C5.1 115.85 3.7 115.55 2.7 115.25C1.7 114.95 1 114.55 0.6 114.05C0.2 113.55 0 112.75 0 111.65C0 110.65 0.15 109.25 0.45 107.45C1.55 100.65 2.25 93.9 2.55 87.2C2.85 80.4 3.2 73.55 3.6 66.65C4 61.25 4 55.85 3.6 50.45C3.3 45.05 3.25 39.65 3.45 34.25C3.65 30.75 3.7 27.3 3.6 23.9C3.6 20.5 3.6 17.05 3.6 13.55C3.6 12.15 3.8 11.25 4.2 10.85C4.7 10.35 5.65 10 7.05 9.79999C9.65 9.29999 11.75 9.69999 13.35 11C14.95 12.3 16.05 14.2 16.65 16.7C17.15 18.8 17.45 20.9 17.55 23C17.75 25 17.8 27 17.7 29C17.6 31 17.5 33.05 17.4 35.15C17.3 37.15 17.25 39.15 17.25 41.15L17.7 60.95C17.9 63.15 19 64.1 21 63.8L32.55 62.15C32.75 61.35 32.9 60.6 33 59.9C33.1 59.2 33.15 58.5 33.15 57.8L34.35 31.25C34.55 28.35 34.8 25.45 35.1 22.55C35.4 19.65 35.65 16.75 35.85 13.85C36.05 11.35 37.25 10.05 39.45 9.94999C41.55 9.94999 43.85 10.2 46.35 10.7C48.65 11.2 49.8 12.6 49.8 14.9ZM33.6 74.45C33.6 74.25 33.55 74.15 33.45 74.15H33.3V74.45H33.6ZM99.1992 108.5C100.299 107.3 101.299 106.2 102.199 105.2C103.099 104.2 103.999 103.25 104.899 102.35C106.199 100.65 107.649 98.95 109.249 97.25C110.949 95.45 113.099 93.05 115.699 90.05C115.199 94.25 114.149 98.2 112.549 101.9C110.949 105.5 109.149 108.75 107.149 111.65C106.349 112.85 105.399 113.9 104.299 114.8C103.199 115.8 102.099 116.75 100.999 117.65C99.7992 118.55 98.3992 118.9 96.7992 118.7C95.1992 118.6 93.6492 118.1 92.1492 117.2C90.6492 116.4 89.2992 115.3 88.0992 113.9C86.9992 112.6 86.3992 111.2 86.2992 109.7C86.0992 107.5 85.7492 105.3 85.2492 103.1C84.8492 100.9 84.8992 98.7 85.3992 96.5C85.6992 94.9 85.3992 92.95 84.4992 90.65C84.0992 91.15 83.6992 91.65 83.2992 92.15C82.8992 92.55 82.5492 93 82.2492 93.5L75.1992 105.65C74.8992 106.15 74.5992 106.7 74.2992 107.3C73.9992 107.8 73.6492 108.3 73.2492 108.8C72.4492 109.8 71.6992 110.8 70.9992 111.8C70.2992 112.9 68.9992 113.15 67.0992 112.55C64.9992 112.05 62.9492 111.25 60.9492 110.15C59.0492 109.15 57.4992 107.65 56.2992 105.65C55.3992 104.05 54.7992 102.7 54.4992 101.6C54.1992 100.4 54.0992 99.2 54.1992 98C54.2992 96.7 54.4492 95.25 54.6492 93.65C54.8492 91.95 55.0492 89.75 55.2492 87.05C55.6492 84.35 56.3992 81.9 57.4992 79.7C58.6992 77.4 60.0492 75.3 61.5492 73.4C63.0492 71.4 64.6492 69.5 66.3492 67.7C68.0492 65.9 69.6992 64.05 71.2992 62.15C72.2992 61.05 73.2992 60.3 74.2992 59.9C75.3992 59.5 76.7992 59.55 78.4992 60.05C80.0992 60.55 81.6492 60.95 83.1492 61.25C84.7492 61.55 86.2992 62.25 87.7992 63.35C89.7992 64.75 90.9992 65.85 91.3992 66.65C91.7992 67.35 91.7492 68.85 91.2492 71.15L94.2492 71.6C96.6492 72.1 98.6492 73.1 100.249 74.6C101.849 76.1 102.449 78.4 102.049 81.5L98.7492 105.5C98.6492 105.8 98.6492 106.2 98.7492 106.7C98.8492 107.1 98.9992 107.7 99.1992 108.5ZM85.5492 80.15C85.7492 79.95 85.9992 79.55 86.2992 78.95C86.6992 78.25 87.0492 77.55 87.3492 76.85C87.7492 76.05 88.0992 75.3 88.3992 74.6C88.6992 73.9 88.9492 73.4 89.1492 73.1C88.2492 72.4 86.9992 71.55 85.3992 70.55C83.8992 69.55 82.7492 68.75 81.9492 68.15C79.3492 68.55 77.0992 69.8 75.1992 71.9C73.3992 74 71.8492 76.55 70.5492 79.55C69.3492 82.55 68.3492 85.75 67.5492 89.15C66.8492 92.45 66.3492 95.5 66.0492 98.3C65.9492 98.5 65.9992 98.95 66.1992 99.65C66.4992 100.35 66.7992 101.15 67.0992 102.05C67.4992 102.85 67.8492 103.7 68.1492 104.6C68.4492 105.4 68.6492 106 68.7492 106.4C69.2492 105.9 69.6992 105.5 70.0992 105.2C70.4992 104.9 70.7992 104.6 70.9992 104.3C72.2992 102.7 73.4992 100.8 74.5992 98.6C75.6992 96.3 76.7492 94.05 77.7492 91.85C78.8492 89.55 79.9992 87.4 81.1992 85.4C82.3992 83.3 83.8492 81.55 85.5492 80.15ZM172.232 102.2C172.932 102.9 173.832 103.3 174.932 103.4C176.132 103.4 177.782 102.6 179.882 101C179.582 102.2 179.132 103.3 178.532 104.3C177.932 105.2 177.282 106 176.582 106.7C175.882 107.3 175.232 107.75 174.632 108.05C174.032 108.35 173.582 108.5 173.282 108.5C172.982 108.5 172.482 108.25 171.782 107.75C171.182 107.25 170.532 106.7 169.832 106.1L167.132 103.7C166.832 104.8 166.132 104.5 165.032 102.8C163.932 101.1 163.082 101.7 162.482 104.6C161.982 106.6 161.132 108.2 159.932 109.4C158.832 110.6 157.482 111.4 155.882 111.8C154.282 112.2 152.582 112.15 150.782 111.65C148.982 111.25 147.232 110.35 145.532 108.95C144.332 107.85 143.482 106.7 142.982 105.5C142.582 104.3 142.332 103 142.232 101.6L141.932 90.5C141.832 89.3 141.682 88.1 141.482 86.9C141.282 85.6 141.082 84.35 140.882 83.15C140.682 83.15 140.482 83.15 140.282 83.15C140.182 83.05 140.032 83 139.832 83C139.132 84.8 138.432 86.65 137.732 88.55C137.032 90.35 136.382 92.15 135.782 93.95C134.982 96.55 134.182 99.15 133.382 101.75C132.682 104.35 131.882 106.95 130.982 109.55C130.082 111.95 128.882 113.4 127.382 113.9C125.882 114.5 123.832 114.25 121.232 113.15C119.232 112.35 117.432 111.2 115.832 109.7C114.332 108.2 113.032 106.55 111.932 104.75C111.432 103.95 111.182 103.05 111.182 102.05C111.182 101.05 111.232 100.1 111.332 99.2C111.432 97.7 111.532 95.85 111.632 93.65C111.732 91.45 111.832 89.2 111.932 86.9C112.032 84.5 112.132 82.2 112.232 80C112.332 77.8 112.432 75.9 112.532 74.3V73.85C112.732 72.95 112.932 71.7 113.132 70.1C113.432 68.4 113.682 66.65 113.882 64.85C114.082 63.05 114.282 61.35 114.482 59.75C114.782 58.05 115.032 56.75 115.232 55.85C115.732 53.95 116.182 52.5 116.582 51.5C116.982 50.4 117.532 49.7 118.232 49.4C119.032 49 120.032 48.9 121.232 49.1C122.432 49.2 124.082 49.55 126.182 50.15C127.282 50.35 128.332 50.7 129.332 51.2C130.332 51.7 131.482 52.2 132.782 52.7C132.382 53.5 132.082 54.2 131.882 54.8C131.682 55.3 131.382 55.7 130.982 56C127.782 58.6 126.832 61.9 128.132 65.9C128.132 66.1 128.182 66.35 128.282 66.65C128.382 66.85 128.332 67 128.132 67.1C127.232 68.3 126.582 69.55 126.182 70.85C125.782 72.15 125.482 73.5 125.282 74.9C125.182 76.3 125.082 77.75 124.982 79.25C124.982 80.65 124.832 82.05 124.532 83.45C123.932 86.75 123.382 90.1 122.882 93.5C122.482 96.8 122.032 100.15 121.532 103.55C121.332 104.35 121.232 105.1 121.232 105.8C121.332 106.5 121.932 107.25 123.032 108.05L126.182 101.75C128.782 95.85 131.382 90 133.982 84.2C136.682 78.4 139.382 72.55 142.082 66.65C143.382 63.85 145.882 63.75 149.582 66.35C149.082 72.65 148.782 78.9 148.682 85.1C148.682 91.3 149.082 97.55 149.882 103.85C150.082 103.85 150.282 103.9 150.482 104C150.682 104 150.882 104 151.082 104L152.132 101.6C152.732 98.8 153.182 96.7 153.482 95.3C153.882 93.8 154.232 92.5 154.532 91.4C154.932 90.3 155.432 89.1 156.032 87.8C156.632 86.4 157.532 84.4 158.732 81.8C159.432 80.3 159.782 78.65 159.782 76.85C159.882 75.05 160.032 73.3 160.232 71.6L160.982 66.5C161.282 65 162.332 64.15 164.132 63.95C165.132 63.85 166.132 63.8 167.132 63.8C168.132 63.7 168.982 64.15 169.682 65.15C171.182 67.05 171.532 69.2 170.732 71.6C169.332 75.7 169.082 83.45 169.982 94.85C169.882 95.25 169.832 95.8 169.832 96.5C169.932 97.2 170.082 97.95 170.282 98.75C170.482 99.45 170.732 100.15 171.032 100.85C171.332 101.45 171.732 101.9 172.232 102.2ZM219.055 101.6C219.655 101 220.455 100.2 221.455 99.2C222.455 98.1 223.505 97 224.605 95.9C225.705 94.8 226.805 93.7 227.905 92.6C229.105 91.5 230.155 90.6 231.055 89.9C230.155 92.3 229.405 94.3 228.805 95.9C228.205 97.4 227.605 98.75 227.005 99.95C226.505 101.05 226.005 102.05 225.505 102.95C225.005 103.75 224.455 104.65 223.855 105.65C222.255 107.65 220.405 108.75 218.305 108.95C216.305 109.15 214.155 108.9 211.855 108.2C207.955 107 205.755 104.3 205.255 100.1C205.155 99 205.005 97.95 204.805 96.95C204.705 95.95 204.405 94.9 203.905 93.8C203.605 94.3 203.305 94.85 203.005 95.45C202.705 95.95 202.455 96.5 202.255 97.1C201.655 98.6 201.055 100.1 200.455 101.6C199.855 103 199.305 104.45 198.805 105.95C198.205 108.05 197.005 109.8 195.205 111.2C193.505 112.7 191.505 113.7 189.205 114.2C187.005 114.7 184.705 114.7 182.305 114.2C179.905 113.8 177.755 112.75 175.855 111.05C173.555 108.95 172.505 106.25 172.705 102.95C172.805 100.35 172.905 97.8 173.005 95.3C173.205 92.8 173.405 90.25 173.605 87.65C173.705 87.15 173.755 86.6 173.755 86C173.755 85.4 173.755 84.75 173.755 84.05L177.505 71.9C178.305 69.1 179.105 66.3 179.905 63.5C180.805 60.7 181.705 57.9 182.605 55.1C183.005 53.8 183.355 52.8 183.655 52.1C183.955 51.3 184.305 50.75 184.705 50.45C185.205 50.05 185.805 49.8 186.505 49.7C187.205 49.6 188.255 49.5 189.655 49.4C190.855 49.3 191.905 49.3 192.805 49.4C193.705 49.4 194.505 49.5 195.205 49.7C196.005 49.8 196.755 50 197.455 50.3C198.255 50.6 199.205 51.05 200.305 51.65L198.955 54.2C198.755 54.7 198.505 55.15 198.205 55.55C197.905 55.95 197.705 56.4 197.605 56.9C196.905 61.4 195.955 65.85 194.755 70.25C193.555 74.55 192.405 78.95 191.305 83.45C190.905 85.25 190.555 87.05 190.255 88.85C190.055 90.65 189.805 92.4 189.505 94.1C189.405 94.8 189.305 95.5 189.205 96.2C189.105 96.8 188.955 97.45 188.755 98.15C187.655 101.15 187.705 104.25 188.905 107.45C190.005 106.85 190.755 106.05 191.155 105.05C191.655 104.05 192.155 103.05 192.655 102.05C194.455 97.95 196.205 93.9 197.905 89.9C199.605 85.8 201.355 81.7 203.155 77.6C204.055 75.6 204.905 73.65 205.705 71.75C206.605 69.85 207.155 67.75 207.355 65.45C207.455 64.65 207.755 63.85 208.255 63.05C208.755 62.15 209.255 61.3 209.755 60.5C210.655 60.6 211.555 60.6 212.455 60.5C213.455 60.4 214.455 60.35 215.455 60.35C216.455 60.25 217.405 60.25 218.305 60.35C219.305 60.45 220.355 60.75 221.455 61.25L219.505 66.2C219.105 67.3 218.705 68.45 218.305 69.65C217.905 70.75 217.655 71.85 217.555 72.95C217.255 79.25 217.105 85.55 217.105 91.85C217.205 93.35 217.405 94.9 217.705 96.5C218.005 98 218.255 99.55 218.455 101.15L218.155 102.2C218.555 102 218.855 101.8 219.055 101.6ZM300.356 83.75C299.856 85.75 299.306 87.7 298.706 89.6C298.106 91.5 297.706 93.55 297.506 95.75C299.606 94.35 301.956 93.05 304.556 91.85C307.156 90.65 309.156 89.9 310.556 89.6L302.606 97.25C302.206 97.75 301.606 98.4 300.806 99.2C300.106 100 299.356 100.85 298.556 101.75C297.756 102.55 296.956 103.35 296.156 104.15C295.356 104.95 294.756 105.6 294.356 106.1C293.156 107.7 291.556 109.25 289.556 110.75C288.056 111.85 286.556 112.8 285.056 113.6C283.656 114.4 282.356 114.5 281.156 113.9C280.056 113.3 279.656 112.55 279.956 111.65C280.256 110.75 280.506 109.9 280.706 109.1C280.906 108.5 281.306 107.65 281.906 106.55C282.506 105.35 283.106 104.15 283.706 102.95C284.306 101.65 284.856 100.45 285.356 99.35C285.956 98.15 286.356 97.25 286.556 96.65L292.556 75.8C292.956 74.5 293.306 73.35 293.606 72.35C294.006 71.25 294.356 70.2 294.656 69.2C295.056 68.2 295.406 67.2 295.706 66.2C296.006 65.1 296.256 63.8 296.456 62.3C295.956 62.8 295.456 63.25 294.956 63.65C294.456 63.95 294.006 64.35 293.606 64.85C291.006 68.15 288.756 71.1 286.856 73.7C284.956 76.2 283.306 79.4 281.906 83.3C280.706 86.7 279.556 90.1 278.456 93.5C277.456 96.9 276.356 100.35 275.156 103.85C274.656 105.45 274.856 107.15 275.756 108.95C276.356 110.35 276.406 111.85 275.906 113.45C275.406 115.15 274.606 116.4 273.506 117.2C272.606 117.8 271.456 117.9 270.056 117.5C268.756 117.1 267.856 116.4 267.356 115.4C267.156 115 267.006 114.6 266.906 114.2C266.806 113.8 266.656 113.5 266.456 113.3C264.156 111.4 262.706 109.2 262.106 106.7C261.606 104.2 261.256 101.65 261.056 99.05C260.956 98.15 260.906 96.55 260.906 94.25C260.906 91.95 260.906 89.55 260.906 87.05C260.906 84.45 260.906 82.1 260.906 80C261.006 77.8 261.106 76.4 261.206 75.8C262.306 65.1 263.506 54.65 264.806 44.45C265.706 37.85 266.656 31.35 267.656 24.95C268.756 18.45 270.256 12 272.156 5.59999C272.256 5.09999 272.356 4.6 272.456 4.1C272.656 3.6 272.856 3.1 273.056 2.6C273.656 0.999994 274.856 0.349993 276.656 0.649995C277.556 0.849993 278.406 1.04999 279.206 1.25C280.106 1.44999 281.006 1.64999 281.906 1.85C283.006 2.05 284.006 2.25 284.906 2.45C285.906 2.55 286.956 2.6 288.056 2.6C290.656 2.5 292.856 3.25 294.656 4.84999C296.456 6.34999 297.256 8.39999 297.056 11C296.856 13.4 296.506 15.8 296.006 18.2C295.506 20.5 294.956 22.8 294.356 25.1C292.856 31.1 290.956 37 288.656 42.8C286.356 48.5 283.756 54.15 280.856 59.75C280.356 60.75 279.756 61.7 279.056 62.6C278.356 63.4 277.856 64.35 277.556 65.45C276.856 67.85 276.256 70.25 275.756 72.65C275.256 75.05 274.756 77.45 274.256 79.85C274.056 80.75 273.906 81.65 273.806 82.55C273.706 83.45 273.606 84.3 273.506 85.1C273.506 85.5 273.606 85.9 273.806 86.3C274.006 86.7 274.206 87.3 274.406 88.1L276.806 83.6C278.506 79.8 280.356 76.2 282.356 72.8C284.456 69.3 286.856 66 289.556 62.9C291.056 61.1 292.556 59.65 294.056 58.55C294.956 57.75 295.956 57.15 297.056 56.75C298.156 56.25 299.356 56.3 300.656 56.9C301.856 57.6 302.856 58.7 303.656 60.2C304.556 61.7 304.856 63.15 304.556 64.55C303.956 67.75 303.306 70.95 302.606 74.15C301.906 77.35 301.156 80.55 300.356 83.75ZM279.656 33.05C279.256 35.55 278.856 38.05 278.456 40.55C278.156 42.95 277.756 45.4 277.256 47.9L278.306 48.35C278.806 47.55 279.256 46.75 279.656 45.95C280.156 45.05 280.606 44.15 281.006 43.25C282.206 40.15 283.406 37.1 284.606 34.1C285.806 31.1 286.956 28 288.056 24.8C288.856 22.2 289.506 19.6 290.006 17C290.606 14.3 291.156 11.65 291.656 9.04999C291.856 8.14999 291.856 7.29999 291.656 6.49999C291.556 5.59999 291.006 4.89999 290.006 4.39999C288.906 3.89999 287.906 3.84999 287.006 4.24999C286.106 4.64999 285.356 5.2 284.756 5.9C284.256 6.4 283.956 7.05 283.856 7.84999C283.756 8.54999 283.656 9.3 283.556 10.1L280.106 31.7C280.106 31.9 280.056 32.15 279.956 32.45C279.856 32.65 279.756 32.85 279.656 33.05ZM335.706 94.7C336.106 95.1 336.506 95.3 336.906 95.3C337.606 95.3 338.256 95.15 338.856 94.85C339.556 94.45 340.256 94 340.956 93.5C341.756 92.9 342.606 92.3 343.506 91.7C344.506 91 345.706 90.35 347.106 89.75C346.906 90.85 346.556 92.05 346.056 93.35C345.556 94.65 344.456 95.95 342.756 97.25C341.156 98.65 339.806 99.6 338.706 100.1C337.706 100.5 336.356 100.4 334.656 99.8C334.456 99.8 334.306 99.75 334.206 99.65C333.906 100.75 333.606 101.85 333.306 102.95C333.006 103.95 332.606 105 332.106 106.1C331.306 108.1 330.256 109.95 328.956 111.65C327.656 113.35 325.656 114.25 322.956 114.35C318.456 114.45 314.206 113.05 310.206 110.15C308.906 109.25 307.906 108.15 307.206 106.85C306.606 105.45 306.256 104 306.156 102.5V88.25C306.156 87.75 306.106 87.3 306.006 86.9C306.006 86.5 306.006 86.05 306.006 85.55L306.906 75.95C307.706 71.35 308.756 66.9 310.056 62.6C311.456 58.3 313.106 54.05 315.006 49.85L316.356 47.6C317.656 44.9 319.956 43.95 323.256 44.75C325.056 45.25 326.856 45.7 328.656 46.1C330.556 46.5 332.456 46.9 334.356 47.3C334.356 47.5 334.356 47.65 334.356 47.75C334.456 47.85 334.506 48 334.506 48.2C333.306 49 332.056 49.75 330.756 50.45C329.556 51.15 328.456 52 327.456 53C326.556 54 325.756 55.15 325.056 56.45C324.456 57.65 324.256 59 324.456 60.5C326.756 61 329.056 61.45 331.356 61.85C333.656 62.15 336.056 62.5 338.556 62.9L341.406 75.05C341.406 76.05 341.256 76.95 340.956 77.75C340.656 78.55 340.306 79.4 339.906 80.3C339.506 81.2 339.056 82.25 338.556 83.45C338.156 84.55 337.756 85.9 337.356 87.5L335.706 94.7ZM324.006 106.7C325.006 104.4 325.906 102.05 326.706 99.65C327.506 97.25 328.306 94.85 329.106 92.45L328.656 90.5C328.156 88.8 327.806 86.35 327.606 83.15C327.506 79.85 327.706 76.45 328.206 72.95C327.106 71.55 326.206 70.1 325.506 68.6C324.806 67 324.456 65.2 324.456 63.2C323.956 63.2 323.556 63.15 323.256 63.05C323.056 63.35 322.856 63.65 322.656 63.95C322.456 64.15 322.306 64.4 322.206 64.7C320.406 70.1 319.056 75.6 318.156 81.2C317.256 86.8 316.706 92.55 316.506 98.45C316.406 99.85 316.456 101.3 316.656 102.8C316.856 104.3 317.106 105.8 317.406 107.3C317.506 107.8 317.756 108.35 318.156 108.95C318.556 109.55 319.006 109.95 319.506 110.15C319.906 110.35 320.356 110.3 320.856 110C321.456 109.7 321.956 109.4 322.356 109.1C323.156 108.5 323.706 107.7 324.006 106.7ZM381.027 100.7C382.127 98.7 383.177 96.95 384.177 95.45C385.177 93.95 386.377 92.7 387.777 91.7C387.777 93.5 387.627 95 387.327 96.2C387.127 97.4 386.877 98.5 386.577 99.5C386.277 100.5 385.927 101.5 385.527 102.5C385.227 103.4 384.927 104.45 384.627 105.65C383.227 107.35 381.727 108.55 380.127 109.25C378.527 109.85 376.877 110.1 375.177 110C373.577 109.9 371.877 109.5 370.077 108.8C368.377 108.1 366.827 107.3 365.427 106.4C364.227 104.2 363.577 101.7 363.477 98.9C363.477 96 363.677 91.95 364.077 86.75C364.577 81.55 365.027 77.9 365.427 75.8C365.927 73.7 366.127 72.3 366.027 71.6C365.627 72.1 364.427 76.85 362.427 85.85C360.427 94.75 359.377 99.35 359.277 99.65L353.727 107C353.527 107.2 353.227 107.45 352.827 107.75C352.527 107.95 352.177 108.1 351.777 108.2C350.777 108.3 349.677 108.15 348.477 107.75C347.377 107.25 346.277 106.65 345.177 105.95C344.077 105.15 343.127 104.3 342.327 103.4C341.527 102.4 341.027 101.4 340.827 100.4C340.327 98.7 340.027 96.95 339.927 95.15C339.727 93.25 341.077 94.25 343.977 98.15C346.977 101.95 349.377 103.4 351.177 102.5L354.177 94.85C354.777 93.85 355.977 89.8 357.777 82.7C359.577 75.6 360.827 71.55 361.527 70.55C361.827 69.45 362.377 68.45 363.177 67.55C364.077 66.55 365.027 65.75 366.027 65.15C367.127 64.45 368.227 63.95 369.327 63.65C370.427 63.35 371.427 63.35 372.327 63.65C374.027 64.25 374.877 65.4 374.877 67.1C374.877 70.6 374.827 75.35 374.727 81.35C374.727 87.25 374.627 91.95 374.427 95.45C374.427 97.05 374.527 98.7 374.727 100.4C374.927 102 375.627 103.7 376.827 105.5C377.627 104.9 378.327 104.1 378.927 103.1C379.627 102.1 380.327 101.3 381.027 100.7ZM413.489 94.7C413.889 95.1 414.289 95.3 414.689 95.3C415.389 95.3 416.039 95.15 416.639 94.85C417.339 94.45 418.039 94 418.739 93.5C419.539 92.9 420.389 92.3 421.289 91.7C422.289 91 423.489 90.35 424.889 89.75C424.689 90.85 424.339 92.05 423.839 93.35C423.339 94.65 422.239 95.95 420.539 97.25C418.939 98.65 417.589 99.6 416.489 100.1C415.489 100.5 414.139 100.4 412.439 99.8C412.239 99.8 412.089 99.75 411.989 99.65C411.689 100.75 411.389 101.85 411.089 102.95C410.789 103.95 410.389 105 409.889 106.1C409.089 108.1 408.039 109.95 406.739 111.65C405.439 113.35 403.439 114.25 400.739 114.35C396.239 114.45 391.989 113.05 387.989 110.15C386.689 109.25 385.689 108.15 384.989 106.85C384.389 105.45 384.039 104 383.939 102.5V88.25C383.939 87.75 383.889 87.3 383.789 86.9C383.789 86.5 383.789 86.05 383.789 85.55L384.689 75.95C385.489 71.35 386.539 66.9 387.839 62.6C389.239 58.3 390.889 54.05 392.789 49.85L394.139 47.6C395.439 44.9 397.739 43.95 401.039 44.75C402.839 45.25 404.639 45.7 406.439 46.1C408.339 46.5 410.239 46.9 412.139 47.3C412.139 47.5 412.139 47.65 412.139 47.75C412.239 47.85 412.289 48 412.289 48.2C411.089 49 409.839 49.75 408.539 50.45C407.339 51.15 406.239 52 405.239 53C404.339 54 403.539 55.15 402.839 56.45C402.239 57.65 402.039 59 402.239 60.5C404.539 61 406.839 61.45 409.139 61.85C411.439 62.15 413.839 62.5 416.339 62.9L419.189 75.05C419.189 76.05 419.039 76.95 418.739 77.75C418.439 78.55 418.089 79.4 417.689 80.3C417.289 81.2 416.839 82.25 416.339 83.45C415.939 84.55 415.539 85.9 415.139 87.5L413.489 94.7ZM401.789 106.7C402.789 104.4 403.689 102.05 404.489 99.65C405.289 97.25 406.089 94.85 406.889 92.45L406.439 90.5C405.939 88.8 405.589 86.35 405.389 83.15C405.289 79.85 405.489 76.45 405.989 72.95C404.889 71.55 403.989 70.1 403.289 68.6C402.589 67 402.239 65.2 402.239 63.2C401.739 63.2 401.339 63.15 401.039 63.05C400.839 63.35 400.639 63.65 400.439 63.95C400.239 64.15 400.089 64.4 399.989 64.7C398.189 70.1 396.839 75.6 395.939 81.2C395.039 86.8 394.489 92.55 394.289 98.45C394.189 99.85 394.239 101.3 394.439 102.8C394.639 104.3 394.889 105.8 395.189 107.3C395.289 107.8 395.539 108.35 395.939 108.95C396.339 109.55 396.789 109.95 397.289 110.15C397.689 110.35 398.139 110.3 398.639 110C399.239 109.7 399.739 109.4 400.139 109.1C400.939 108.5 401.489 107.7 401.789 106.7ZM441.26 100.25C440.66 101.25 439.96 102.2 439.16 103.1C438.36 104 437.56 104.9 436.76 105.8C436.26 106.4 435.86 107.05 435.56 107.75C435.26 108.35 434.96 108.95 434.66 109.55C434.36 110.05 434.01 110.4 433.61 110.6C433.21 110.8 432.71 110.75 432.11 110.45L429.26 109.25C426.66 108.15 425.36 106.85 425.36 105.35C425.36 103.75 424.21 102.1 421.91 100.4C422.01 99.5 422.06 98.6 422.06 97.7C422.16 96.8 422.66 95.3 423.56 93.2C423.56 93.1 423.76 92.9 424.16 92.6C424.66 92.3 424.81 92 424.61 91.7C424.81 87.6 425.01 84.25 425.21 81.65C425.51 78.95 425.71 76.1 425.81 73.1C425.91 72.7 425.91 72.3 425.81 71.9C425.81 71.5 425.81 71.05 425.81 70.55C427.81 69.45 429.76 69.1 431.66 69.5C433.66 69.9 435.66 70.3 437.66 70.7C438.56 70.9 439.11 71.4 439.31 72.2C439.51 73 439.61 73.9 439.61 74.9C439.41 78 439.26 81.1 439.16 84.2C439.06 86.3 438.96 88.45 438.86 90.65C448.56 86.45 453.46 82.5 453.56 78.8C454.86 74.9 455.66 72.3 455.96 71C456.36 69.6 456.66 67.75 456.86 65.45C456.96 64.65 457.26 63.85 457.76 63.05C458.26 62.15 458.76 61.3 459.26 60.5C460.16 60.6 461.06 60.6 461.96 60.5C462.96 60.4 463.96 60.35 464.96 60.35C465.96 60.25 466.91 60.25 467.81 60.35C468.81 60.45 469.86 60.75 470.96 61.25L469.01 66.2C468.61 67.3 468.21 68.45 467.81 69.65C467.41 70.75 467.16 71.85 467.06 72.95C466.76 79.25 466.61 85.55 466.61 91.85C466.71 93.35 466.91 94.9 467.21 96.5C467.51 98 467.76 99.55 467.96 101.15L467.66 102.2C468.06 102 468.36 101.8 468.56 101.6C469.16 101 469.96 100.2 470.96 99.2C471.96 98.1 473.01 97 474.11 95.9C475.21 94.8 476.31 93.7 477.41 92.6C478.61 91.5 479.66 90.6 480.56 89.9C479.66 92.3 478.91 94.3 478.31 95.9C477.71 97.4 477.11 98.75 476.51 99.95C476.01 101.05 475.51 102.05 475.01 102.95C474.51 103.75 473.96 104.65 473.36 105.65C471.76 107.65 469.91 108.75 467.81 108.95C465.81 109.15 463.66 108.9 461.36 108.2C457.46 107 455.26 104.3 454.76 100.1C454.66 99 454.51 97.95 454.31 96.95C454.21 95.95 453.91 94.9 453.41 93.8C453.11 94.3 452.81 94.8 452.51 95.3C452.21 95.9 448.46 97.55 441.26 100.25ZM553.404 98.75C554.804 96.75 556.104 95 557.304 93.5C558.604 92 560.054 90.75 561.654 89.75C561.354 91.55 560.954 93.05 560.454 94.25C560.054 95.45 559.604 96.55 559.104 97.55C558.704 98.55 558.254 99.55 557.754 100.55C557.254 101.45 556.754 102.5 556.254 103.7C554.554 105.4 552.854 106.6 551.154 107.3C549.454 107.9 547.754 108.15 546.054 108.05C544.454 107.95 542.854 107.55 541.254 106.85C539.654 106.15 538.204 105.35 536.904 104.45C536.004 102.25 535.754 99.75 536.154 96.95C536.654 94.05 537.304 91.25 538.104 88.55C539.004 85.85 539.854 83.45 540.654 81.35C541.454 79.25 541.854 77.85 541.854 77.15C541.354 77.65 540.454 78.8 539.154 80.6C537.954 82.4 536.654 84.35 535.254 86.45C533.854 88.55 532.554 90.5 531.354 92.3C530.154 94 529.454 95 529.254 95.3L522.504 102.65C522.304 102.85 522.004 103.1 521.604 103.4C521.204 103.6 520.804 103.75 520.404 103.85C519.404 103.95 518.354 103.8 517.254 103.4C516.154 102.9 515.104 102.3 514.104 101.6C513.204 100.8 512.404 99.95 511.704 99.05C511.104 98.05 510.754 97.05 510.654 96.05C510.454 94.35 510.404 92.6 510.504 90.8C510.704 88.9 510.854 87.1 510.954 85.4C510.954 84.9 511.004 84.1 511.104 83C511.204 81.9 511.304 80.7 511.404 79.4C511.604 78.1 511.754 76.85 511.854 75.65C511.954 74.45 512.054 73.5 512.154 72.8C510.754 73.7 509.404 75.1 508.104 77C506.904 78.8 506.054 80.2 505.554 81.2C504.354 83.5 502.954 85.65 501.354 87.65C499.854 89.55 498.454 91.6 497.154 93.8C496.554 94.8 495.854 95.75 495.054 96.65C494.254 97.55 493.454 98.45 492.654 99.35C492.154 99.95 491.754 100.6 491.454 101.3C491.154 101.9 490.854 102.5 490.554 103.1C490.254 103.6 489.904 103.95 489.504 104.15C489.104 104.35 488.604 104.3 488.004 104L485.154 102.8C482.554 101.7 480.804 100.4 479.904 98.9C479.104 97.3 478.854 95.05 479.154 92.15C479.254 91.25 479.304 90.35 479.304 89.45C479.404 88.55 479.454 87.65 479.454 86.75C479.454 86.65 479.604 86.1 479.904 85.1C480.204 84 480.254 83.3 480.054 83C480.554 80.4 480.904 77.8 481.104 75.2C481.404 72.5 481.604 69.65 481.704 66.65C481.804 66.25 481.804 65.85 481.704 65.45C481.704 65.05 481.704 64.6 481.704 64.1C483.704 63 485.654 62.65 487.554 63.05C489.554 63.45 491.554 63.85 493.554 64.25C494.454 64.45 495.004 64.95 495.204 65.75C495.404 66.55 495.504 67.45 495.504 68.45C495.304 71.55 495.154 74.65 495.054 77.75C494.954 80.85 494.804 84.15 494.604 87.65L497.754 83.75L509.604 70.7C512.904 67.1 517.204 66.1 522.504 67.7C523.104 69.7 523.454 71.75 523.554 73.85C523.654 75.85 523.604 77.9 523.404 80C523.204 82.1 522.954 84.25 522.654 86.45C522.354 88.55 522.204 90.7 522.204 92.9L524.904 90.5C525.704 89.5 526.654 88.4 527.754 87.2C528.954 85.9 530.104 84.6 531.204 83.3C532.404 82 533.554 80.75 534.654 79.55C535.754 78.25 536.704 77.1 537.504 76.1C538.004 75 538.754 74 539.754 73.1C540.754 72.1 541.804 71.3 542.904 70.7C544.104 70 545.254 69.5 546.354 69.2C547.554 68.9 548.604 68.9 549.504 69.2C551.104 69.8 551.754 70.95 551.454 72.65C550.854 76.15 550.254 79.65 549.654 83.15C549.054 86.55 548.404 90 547.704 93.5C547.404 95.1 547.204 96.75 547.104 98.45C547.104 100.05 547.554 101.75 548.454 103.55C549.354 102.95 550.204 102.15 551.004 101.15C551.804 100.15 552.604 99.35 553.404 98.75ZM595.927 55.7C598.227 56.4 599.127 57.65 598.627 59.45C598.427 59.95 598.227 60.45 598.027 60.95C597.927 61.35 597.727 61.8 597.427 62.3C595.227 66.1 592.677 69.75 589.777 73.25C586.877 76.75 583.627 80.1 580.027 83.3C578.727 84.5 577.427 85.75 576.127 87.05C574.927 88.35 573.877 89.7 572.977 91.1C572.377 92.1 571.977 93.2 571.777 94.4C571.677 95.5 571.627 96.6 571.627 97.7C571.627 99.4 572.277 101.25 573.577 103.25C574.877 105.25 576.427 106.8 578.227 107.9C579.027 107.3 580.077 106.55 581.377 105.65C582.777 104.65 583.877 103.8 584.677 103.1C587.877 100.2 591.077 97.65 594.277 95.45C597.477 93.15 599.877 91.15 601.477 89.45C601.277 90.55 601.027 91.65 600.727 92.75C600.527 93.65 600.227 94.65 599.827 95.75C599.527 96.85 599.127 97.8 598.627 98.6C597.027 101.2 595.077 103.45 592.777 105.35C590.477 107.15 587.877 109.1 584.977 111.2C583.277 112.4 581.527 113 579.727 113C578.027 113 576.027 112.7 573.727 112.1C570.327 111.2 567.227 109.55 564.427 107.15C561.627 104.75 559.627 102.05 558.427 99.05C558.227 98.65 558.077 98.25 557.977 97.85C557.977 97.35 557.877 96.75 557.677 96.05C557.577 95.05 557.477 94.05 557.377 93.05C557.277 92.05 557.227 91 557.227 89.9C557.327 88.8 557.477 87.55 557.677 86.15C557.877 84.75 558.277 83.1 558.877 81.2C559.677 78.1 560.777 75.05 562.177 72.05C563.577 69.05 564.927 66.05 566.227 63.05C566.727 61.95 567.277 60.85 567.877 59.75C568.577 58.65 569.277 57.55 569.977 56.45C570.377 55.85 570.827 55.3 571.327 54.8C571.827 54.2 572.327 53.65 572.827 53.15C574.727 51.15 577.377 50.45 580.777 51.05C581.577 51.25 582.427 51.35 583.327 51.35C584.227 51.35 585.127 51.45 586.027 51.65C587.227 51.85 588.177 52.15 588.877 52.55C591.077 53.95 593.427 55 595.927 55.7ZM575.827 75.5C582.927 68.4 587.427 62.55 589.327 57.95C587.327 57.35 586.027 57.1 585.427 57.2C584.927 57.2 584.177 57.75 583.177 58.85C580.977 61.15 579.227 63.6 577.927 66.2C576.627 68.8 575.677 71.5 575.077 74.3C575.077 74.5 575.127 74.7 575.227 74.9C575.427 75.1 575.627 75.3 575.827 75.5ZM595.777 40.25L596.827 46.55L594.577 47C593.177 47.2 591.877 47.25 590.677 47.15C589.477 46.95 588.477 46 587.677 44.3C586.877 42.4 586.427 40.6 586.327 38.9C586.227 37.2 586.877 35.5 588.277 33.8C588.877 33.1 589.527 32.5 590.227 32C591.027 31.5 591.827 30.85 592.627 30.05C593.727 31.05 594.777 32 595.777 32.9C596.777 33.7 597.727 34.6 598.627 35.6C599.727 36.6 600.227 37.4 600.127 38C600.027 38.5 599.277 39.05 597.877 39.65L595.777 40.25ZM577.927 38.75C577.327 37.35 576.577 36.1 575.677 35C574.777 33.8 573.827 32.65 572.827 31.55C572.627 31.25 572.227 31.1 571.627 31.1C571.027 31 570.477 30.95 569.977 30.95C568.277 31.15 566.927 31.9 565.927 33.2C564.927 34.4 564.477 35.85 564.577 37.55C564.677 39.55 565.377 41.3 566.677 42.8C568.077 44.3 569.627 45.1 571.327 45.2C572.327 45.2 573.277 45 574.177 44.6C575.077 44.2 575.877 43.7 576.577 43.1C577.277 42.4 577.727 41.7 577.927 41C578.227 40.2 578.227 39.45 577.927 38.75ZM608.174 117.65C607.474 122.15 607.624 125.65 608.624 128.15C609.624 130.75 611.024 131.8 612.824 131.3C613.124 131.2 613.324 131.3 613.424 131.6C613.624 132 613.774 132.45 613.874 132.95C613.974 133.45 613.974 133.95 613.874 134.45C613.874 134.95 613.724 135.25 613.424 135.35C611.624 136.25 609.374 136.95 606.674 137.45C604.074 138.05 601.374 137.45 598.574 135.65C597.074 134.75 595.974 133.7 595.274 132.5C594.574 131.3 594.074 130 593.774 128.6C593.474 127.2 593.374 125.75 593.474 124.25C593.474 122.75 593.524 121.15 593.624 119.45C593.824 117.85 594.274 115.65 594.974 112.85C595.574 110.15 596.174 106.95 596.774 103.25C596.874 102.75 596.924 101.65 596.924 99.95C597.024 98.25 597.124 97.05 597.224 96.35C597.624 93.45 598.124 90.65 598.724 87.95C599.324 85.15 599.774 81.55 600.074 77.15L600.674 66.8C600.674 65.9 600.474 65.1 600.074 64.4C599.574 63.3 599.574 62.25 600.074 61.25C600.574 60.25 601.374 59.65 602.474 59.45C602.974 59.25 603.474 59.15 603.974 59.15C604.574 59.15 605.124 59.15 605.624 59.15C607.924 59.15 609.774 59.25 611.174 59.45C612.574 59.55 613.624 59.95 614.324 60.65C615.124 61.35 615.674 62.45 615.974 63.95C616.374 65.35 616.674 67.35 616.874 69.95C617.074 71.85 617.074 73.8 616.874 75.8C616.674 77.8 616.474 80.1 616.274 82.7C616.774 81.9 617.174 81.3 617.474 80.9C617.874 80.5 618.174 80.15 618.374 79.85C619.474 78.15 620.574 76.4 621.674 74.6C622.874 72.8 624.074 71.05 625.274 69.35C627.674 66.05 630.474 63.75 633.674 62.45C636.874 61.05 640.474 60.45 644.474 60.65C646.074 60.75 647.624 61.5 649.124 62.9C650.624 64.2 651.474 65.8 651.674 67.7C651.674 68.3 651.624 69.3 651.524 70.7C651.524 72 651.424 73.4 651.224 74.9C651.124 76.3 650.974 77.65 650.774 78.95C650.574 80.15 650.324 81.05 650.024 81.65C649.424 84.55 648.074 87.55 645.974 90.65C643.974 93.65 641.474 96.45 638.474 99.05C634.674 102.45 631.524 104.4 629.024 104.9C626.624 105.3 624.574 104.8 622.874 103.4C622.574 103.1 622.324 102.8 622.124 102.5C621.924 102.1 622.074 101.7 622.574 101.3C622.774 100.5 623.324 99.65 624.224 98.75C625.124 97.75 625.824 96.9 626.324 96.2C630.024 92.6 633.174 88.8 635.774 84.8C638.374 80.8 640.024 75.9 640.724 70.1C640.824 69.8 640.774 69.1 640.574 68C640.474 66.9 640.074 65.95 639.374 65.15C638.574 65.55 637.924 65.85 637.424 66.05C636.924 66.25 636.424 66.55 635.924 66.95C634.524 67.95 632.824 69.55 630.824 71.75C628.824 73.95 626.774 76.4 624.674 79.1C622.574 81.7 620.524 84.4 618.524 87.2C616.624 89.9 615.074 92.3 613.874 94.4C613.174 96.6 612.474 99 611.774 101.6C611.174 103.8 610.524 106.3 609.824 109.1C609.224 111.9 608.674 114.75 608.174 117.65ZM669.231 113.75C664.131 113.55 660.081 112.35 657.081 110.15C655.781 109.25 654.781 108.15 654.081 106.85C653.481 105.45 653.131 104 653.031 102.5V88.25C653.031 87.75 652.981 87.3 652.881 86.9C652.881 86.5 652.881 86.05 652.881 85.55L653.781 75.95C654.581 71.35 655.331 68 656.031 65.9C656.831 63.7 658.181 60.5 660.081 56.3L661.431 54.05C662.731 51.35 665.031 50.4 668.331 51.2C670.131 51.7 671.931 52.15 673.731 52.55C675.631 52.95 676.131 53.95 675.231 55.55C674.431 57.15 673.531 58.45 672.531 59.45C671.631 60.45 670.881 61.55 670.281 62.75C669.781 63.75 669.531 64.75 669.531 65.75L668.031 69.95C667.931 70.05 667.831 70.15 667.731 70.25C667.531 70.55 667.381 70.85 667.281 71.15C666.681 72.25 665.931 75.6 665.031 81.2C664.131 86.8 663.581 92.55 663.381 98.45C663.281 99.85 663.331 101.3 663.531 102.8C663.731 104.3 663.981 105.8 664.281 107.3C664.381 107.8 665.031 108.45 666.231 109.25C667.431 110.05 668.231 110.35 668.631 110.15C669.431 109.75 669.981 109.2 670.281 108.5C671.281 106.9 672.181 105.3 672.981 103.7C673.781 102 674.581 100.3 675.381 98.6L674.931 97.25C674.431 96.15 674.081 94.5 673.881 92.3C673.781 90 673.981 87.65 674.481 85.25C673.381 84.25 672.481 83.2 671.781 82.1C671.081 81.1 669.731 79.7 667.731 77.9L668.931 76.1C672.431 76 675.331 76.45 677.631 77.45C679.931 77.75 682.331 78.05 684.831 78.35L687.681 86.6C687.681 87.3 687.531 87.95 687.231 88.55C686.931 89.05 686.581 89.65 686.181 90.35C685.781 90.95 685.331 91.65 684.831 92.45C684.431 93.25 684.031 94.2 683.631 95.3L681.981 100.25C682.381 100.45 682.781 100.55 683.181 100.55C683.881 100.55 684.531 100.45 685.131 100.25C685.831 100.05 686.531 99.75 687.231 99.35C688.031 98.95 688.881 98.55 689.781 98.15C690.781 97.65 691.981 97.2 693.381 96.8C693.181 97.6 692.831 98.45 692.331 99.35C691.831 100.15 690.731 101 689.031 101.9C687.431 102.9 686.081 103.55 684.981 103.85C683.981 104.15 682.631 104.1 680.931 103.7C680.731 103.7 680.581 103.65 680.481 103.55C680.181 104.35 679.881 105.15 679.581 105.95C679.281 106.65 678.881 107.35 678.381 108.05C677.581 109.45 676.531 110.7 675.231 111.8C673.931 113 671.931 113.65 669.231 113.75ZM702.381 104C703.381 102.7 704.381 101.35 705.381 99.95C706.381 98.45 707.381 97.05 708.381 95.75C709.481 94.35 710.531 93.15 711.531 92.15C712.631 91.15 713.631 90.4 714.531 89.9C713.831 91.6 712.881 93.65 711.681 96.05C710.481 98.35 709.231 100.55 707.931 102.65C706.731 104.75 705.581 106.55 704.481 108.05C703.481 109.55 702.831 110.3 702.531 110.3C701.831 110.3 700.731 110.2 699.231 110C697.731 109.9 696.681 109.7 696.081 109.4C694.581 109 693.531 108.1 692.931 106.7C692.331 105.2 691.931 103.65 691.731 102.05C691.531 100.65 691.431 99 691.431 97.1C691.531 95.1 691.481 93.4 691.281 92C691.281 91.9 691.281 91.55 691.281 90.95C691.381 90.35 691.431 89.7 691.431 89C691.531 88.2 691.531 87.45 691.431 86.75C691.431 85.95 691.381 85.35 691.281 84.95C691.181 83.45 691.131 80.95 691.131 77.45C691.131 73.85 691.181 71.5 691.281 70.4C691.381 69.3 691.581 68.1 691.881 66.8C692.181 65.5 692.581 63.95 693.081 62.15C693.581 61.45 693.981 60.7 694.281 59.9C694.581 59 695.281 58.45 696.381 58.25C697.781 58.05 699.181 57.9 700.581 57.8C702.081 57.7 703.581 58.25 705.081 59.45C703.681 61.85 702.931 64.4 702.831 67.1C702.831 69.7 702.881 74.85 702.981 82.55C703.081 83.85 703.031 85.45 702.831 87.35C702.731 89.25 702.581 91.25 702.381 93.35C702.281 95.35 702.181 97.3 702.081 99.2C702.081 101.1 702.181 102.7 702.381 104Z" fill="#83519C"/>
</svg>
