<svg viewBox="0 0 682 160" fill="none" xmlns="http://www.w3.org/2000/svg">
<path d="M59.65 10.9C60.15 9.8 60.65 8.9 61.15 8.19999C61.65 7.5 62.2 7 62.8 6.69999C63.4 6.29999 64.1 6.09999 64.9 6.09999C65.8 5.99999 66.85 5.99999 68.05 6.09999C69.85 9.19999 71 12.45 71.5 15.85C72 19.15 72.15 22.55 71.95 26.05C71.65 29.75 71.25 33.4 70.75 37C70.35 40.6 70 44.25 69.7 47.95C69.2 53.35 68.75 58.7 68.35 64C67.95 69.3 67.5 74.65 67 80.05C66.8 82.45 66.65 84.85 66.55 87.25C66.45 89.65 66.35 92.1 66.25 94.6C66.25 96 66.3 97.35 66.4 98.65C66.6 99.95 66.65 101.25 66.55 102.55C66.35 105.15 65.55 106.8 64.15 107.5C62.85 108.2 61.35 107.75 59.65 106.15C58.35 105.05 57.4 103.8 56.8 102.4C56.3 101.1 56.15 99.35 56.35 97.15C56.85 92.95 57.15 88.75 57.25 84.55C57.45 80.35 57.6 76.15 57.7 71.95C57.9 64.25 58.4 56.65 59.2 49.15C60.1 41.55 61 34 61.9 26.5C62.1 25.5 62.15 24.5 62.05 23.5C62.05 22.5 61.85 21.45 61.45 20.35C61.25 20.75 61.05 21.1 60.85 21.4C60.65 21.6 60.45 21.95 60.25 22.45C59.15 25.35 58 28.25 56.8 31.15C55.7 34.05 54.65 37 53.65 40C52.55 43.4 51.55 46.8 50.65 50.2C49.75 53.5 48.85 56.85 47.95 60.25L46.6 64.45C46.4 64.85 46.15 65.25 45.85 65.65C45.65 65.95 45.45 66.1 45.25 66.1C44.15 66.2 43.05 66.3 41.95 66.4C40.85 66.5 39.75 66.35 38.65 65.95C37.65 65.55 36.65 64.95 35.65 64.15C34.75 63.25 34 62.3 33.4 61.3C32.2 59.3 31.1 57.25 30.1 55.15C29.2 53.05 28.2 50.95 27.1 48.85C25.6 45.65 24.1 42.45 22.6 39.25C21.1 35.95 19.55 32.7 17.95 29.5C17.85 29.2 17.4 28.65 16.6 27.85C16.4 29.95 16.2 31.9 16 33.7C15.9 35.5 15.85 37.3 15.85 39.1C15.85 41.6 15.9 44.1 16 46.6C16.2 49.1 16.35 51.6 16.45 54.1C16.45 55.2 16.35 56.3 16.15 57.4C15.95 58.4 15.85 59.45 15.85 60.55C15.75 66.35 15.6 72.15 15.4 77.95C15.2 83.65 15.5 89.45 16.3 95.35C16.9 98.95 16.5 102.35 15.1 105.55C14.5 106.95 13.8 107.95 13 108.55C12.2 109.15 11.15 109.15 9.85 108.55C8.45 107.95 7.1 107.2 5.8 106.3C4.6 105.4 3.35 104.45 2.05 103.45C1.75 103.25 1.5 102.85 1.3 102.25C1.1 101.75 1 101.3 1 100.9L1.9 82.45C1.9 79.75 1.85 77.1 1.75 74.5C1.65 71.8 1.6 69.1 1.6 66.4C1.7 62.6 1.75 58.85 1.75 55.15C1.85 51.35 1.7 47.55 1.3 43.75C1 39.55 0.9 35.4 1 31.3C1.1 27.2 1.15 23.05 1.15 18.85C1.15 17.15 1.15 15.5 1.15 13.9C1.25 12.2 1.25 10.5 1.15 8.79999C1.15 5.8 2 3.7 3.7 2.49999C5.4 1.29999 7.35 1.39999 9.55 2.8C10.35 3.19999 10.85 3.54999 11.05 3.85C11.65 4.75 12.3 5.6 13 6.4C13.7 7.1 14.4 7.84999 15.1 8.65C15.8 9.34999 16.45 10.15 17.05 11.05C17.65 11.85 18.05 12.85 18.25 14.05C19.95 16.35 21.45 18.8 22.75 21.4C24.05 24 25.25 26.65 26.35 29.35C27.55 31.95 28.7 34.6 29.8 37.3C31 40 32.3 42.6 33.7 45.1C34.3 46.3 34.8 47.55 35.2 48.85C35.7 50.05 36.2 51.3 36.7 52.6L38.95 56.8L40.6 51.55C41.7 47.55 42.75 43.6 43.75 39.7C44.85 35.8 46 31.9 47.2 28C47.9 25.7 48.65 23.5 49.45 21.4C50.35 19.3 51.15 17.1 51.85 14.8C53.05 11.6 55 10.3 57.7 10.9C58.1 11 58.45 11.05 58.75 11.05C59.05 10.95 59.35 10.9 59.65 10.9ZM92.2035 103.75C87.1035 103.55 83.0535 102.35 80.0535 100.15C78.7535 99.25 77.7535 98.15 77.0535 96.85C76.4535 95.45 76.1035 94 76.0035 92.5V78.25C76.0035 77.75 75.9535 77.3 75.8535 76.9C75.8535 76.5 75.8535 76.05 75.8535 75.55L76.7535 65.95C77.5535 61.35 78.3035 58 79.0035 55.9C79.8035 53.7 81.1535 50.5 83.0535 46.3L84.4035 44.05C85.7035 41.35 88.0035 40.4 91.3035 41.2C93.1035 41.7 94.9035 42.15 96.7035 42.55C98.6035 42.95 99.1035 43.95 98.2035 45.55C97.4035 47.15 96.5035 48.45 95.5035 49.45C94.6035 50.45 93.8535 51.55 93.2535 52.75C92.7535 53.75 92.5035 54.75 92.5035 55.75L91.0035 59.95C90.9035 60.05 90.8035 60.15 90.7035 60.25C90.5035 60.55 90.3535 60.85 90.2535 61.15C89.6535 62.25 88.9035 65.6 88.0035 71.2C87.1035 76.8 86.5535 82.55 86.3535 88.45C86.2535 89.85 86.3035 91.3 86.5035 92.8C86.7035 94.3 86.9535 95.8 87.2535 97.3C87.3535 97.8 88.0035 98.45 89.2035 99.25C90.4035 100.05 91.2035 100.35 91.6035 100.15C92.4035 99.75 92.9535 99.2 93.2535 98.5C94.2535 96.9 95.1535 95.3 95.9535 93.7C96.7535 92 97.5535 90.3 98.3535 88.6L97.9035 87.25C97.4035 86.15 97.0535 84.5 96.8535 82.3C96.7535 80 96.9535 77.65 97.4535 75.25C96.3535 74.25 95.4535 73.2 94.7535 72.1C94.0535 71.1 92.7035 69.7 90.7035 67.9L91.9035 66.1C95.4035 66 98.3035 66.45 100.604 67.45C102.904 67.75 105.304 68.05 107.804 68.35L110.654 76.6C110.654 77.3 110.504 77.95 110.204 78.55C109.904 79.05 109.554 79.65 109.154 80.35C108.754 80.95 108.304 81.65 107.804 82.45C107.404 83.25 107.004 84.2 106.604 85.3L104.954 90.25C105.354 90.45 105.754 90.55 106.154 90.55C106.854 90.55 107.504 90.45 108.104 90.25C108.804 90.05 109.504 89.75 110.204 89.35C111.004 88.95 111.854 88.55 112.754 88.15C113.754 87.65 114.954 87.2 116.354 86.8C116.154 87.6 115.804 88.45 115.304 89.35C114.804 90.15 113.704 91 112.004 91.9C110.404 92.9 109.054 93.55 107.954 93.85C106.954 94.15 105.604 94.1 103.904 93.7C103.704 93.7 103.554 93.65 103.454 93.55C103.154 94.35 102.854 95.15 102.554 95.95C102.254 96.65 101.854 97.35 101.354 98.05C100.554 99.45 99.5035 100.7 98.2035 101.8C96.9035 103 94.9035 103.65 92.2035 103.75ZM125.354 94C126.354 92.7 127.354 91.35 128.354 89.95C129.354 88.45 130.354 87.05 131.354 85.75C132.454 84.35 133.504 83.15 134.504 82.15C135.604 81.15 136.604 80.4 137.504 79.9C136.804 81.6 135.854 83.65 134.654 86.05C133.454 88.35 132.204 90.55 130.904 92.65C129.704 94.75 128.554 96.55 127.454 98.05C126.454 99.55 125.804 100.3 125.504 100.3C124.804 100.3 123.704 100.2 122.204 100C120.704 99.9 119.654 99.7 119.054 99.4C117.554 99 116.504 98.1 115.904 96.7C115.304 95.2 114.904 93.65 114.704 92.05C114.504 90.65 114.404 89 114.404 87.1C114.504 85.1 114.454 83.4 114.254 82C114.254 81.9 114.254 81.55 114.254 80.95C114.354 80.35 114.404 79.7 114.404 79C114.504 78.2 114.504 77.45 114.404 76.75C114.404 75.95 114.354 75.35 114.254 74.95C114.154 73.45 114.104 70.95 114.104 67.45C114.104 63.85 114.154 61.5 114.254 60.4C114.354 59.3 114.554 58.1 114.854 56.8C115.154 55.5 115.554 53.95 116.054 52.15C116.554 51.45 116.954 50.7 117.254 49.9C117.554 49 118.254 48.45 119.354 48.25C120.754 48.05 122.154 47.9 123.554 47.8C125.054 47.7 126.554 48.25 128.054 49.45C126.654 51.85 125.904 54.4 125.804 57.1C125.804 59.7 125.854 64.85 125.954 72.55C126.054 73.85 126.004 75.45 125.804 77.35C125.704 79.25 125.554 81.25 125.354 83.35C125.254 85.35 125.154 87.3 125.054 89.2C125.054 91.1 125.154 92.7 125.354 94ZM196.485 106C196.485 103.2 196.435 100.4 196.335 97.6C196.335 94.8 196.135 92 195.735 89.2C195.735 88.9 195.685 88.25 195.585 87.25C195.485 86.15 195.235 85.5 194.835 85.3C193.935 84.9 193.385 85.05 193.185 85.75C192.985 86.45 192.785 87.05 192.585 87.55C192.085 88.65 191.685 89.8 191.385 91C191.085 92.2 190.835 93.4 190.635 94.6C189.535 99.6 188.335 104.5 187.035 109.3C185.735 114.2 184.835 119.2 184.335 124.3C184.135 126.5 183.885 129.05 183.585 131.95C183.385 134.85 183.335 137.75 183.435 140.65C183.635 143.55 184.085 146.3 184.785 148.9C185.585 151.6 186.935 153.75 188.835 155.35C190.135 152.85 191.085 150.35 191.685 147.85C192.385 145.45 192.985 142.8 193.485 139.9C193.585 139.1 193.635 138.35 193.635 137.65C193.735 137.05 193.885 136.4 194.085 135.7C194.785 130.7 195.335 125.75 195.735 120.85C196.235 115.95 196.485 111 196.485 106ZM195.285 74.8C195.185 74.9 195.135 75.05 195.135 75.25C194.935 76.15 194.785 76.85 194.685 77.35C194.685 77.85 194.835 78.35 195.135 78.85C195.335 79.15 195.735 79.75 196.335 80.65C196.935 81.45 197.335 81.95 197.535 82.15C198.235 82.75 199.085 83 200.085 82.9C201.085 82.7 202.085 82.3 203.085 81.7C204.085 81.1 205.035 80.4 205.935 79.6C206.835 78.8 207.585 78.15 208.185 77.65C208.585 78.45 208.635 79.3 208.335 80.2C208.135 81.1 207.735 81.95 207.135 82.75C206.535 83.45 205.885 84.15 205.185 84.85C204.485 85.45 203.835 85.95 203.235 86.35C202.435 86.85 201.885 87.35 201.585 87.85C201.285 88.25 201.085 88.7 200.985 89.2C200.885 89.7 200.885 90.3 200.985 91C201.085 91.6 201.185 92.35 201.285 93.25C201.585 96.85 201.735 100.4 201.735 103.9C201.835 108 201.735 112.05 201.435 116.05C201.235 120.15 200.935 124.25 200.535 128.35C200.035 132.75 199.435 137.2 198.735 141.7C198.135 146.3 196.685 150.5 194.385 154.3C193.485 155.8 192.335 156.95 190.935 157.75C189.635 158.65 188.185 159.2 186.585 159.4C184.985 159.6 183.335 159.55 181.635 159.25C180.035 158.95 178.485 158.45 176.985 157.75C175.485 157.05 174.285 156.15 173.385 155.05C172.485 153.95 171.785 152.7 171.285 151.3C170.885 150 170.635 148.6 170.535 147.1C170.435 145.6 170.335 144 170.235 142.3C170.035 137.8 169.985 133.3 170.085 128.8C170.285 124.3 170.835 119.8 171.735 115.3C172.135 113.1 172.735 110.1 173.535 106.3C174.335 102.6 175.135 98.75 175.935 94.75C176.735 90.65 178.835 86.25 182.235 81.55C182.435 80.65 182.585 79.85 182.685 79.15L176.835 76.75C176.535 75.25 176.385 74.4 176.385 74.2L178.785 70.45C180.085 69.35 181.585 68.4 183.285 67.6C187.085 65.5 189.735 62.75 191.235 59.35C192.735 55.85 193.835 52.2 194.535 48.4C193.335 48.3 192.035 48.15 190.635 47.95C189.235 47.65 187.885 47.5 186.585 47.5C185.385 47.5 184.285 47.75 183.285 48.25C182.285 48.65 181.585 49.45 181.185 50.65C180.485 52.55 180.035 54.7 179.835 57.1C180.335 57.9 178.885 59.75 175.485 62.65C172.185 65.55 170.185 65.25 169.485 61.75C169.085 60.55 168.885 58.85 168.885 56.65C168.885 53.15 169.685 49.9 171.285 46.9C172.185 45.2 173.135 44.15 174.135 43.75C175.135 43.35 176.735 43.1 178.935 43C181.135 42.9 183.335 42.95 185.535 43.15C187.735 43.25 189.985 43.45 192.285 43.75C193.685 43.95 195.335 44.15 197.235 44.35C199.235 44.55 200.935 44.95 202.335 45.55C204.435 46.55 205.585 47.7 205.785 49C205.985 50.2 205.835 51.6 205.335 53.2C204.235 56.6 202.835 59.9 201.135 63.1C199.435 66.2 197.885 69.35 196.485 72.55C196.185 73.15 195.785 73.85 195.285 74.65V74.8ZM249.174 98.5C250.274 97.3 251.274 96.2 252.174 95.2C253.074 94.2 253.974 93.25 254.874 92.35C256.174 90.65 257.624 88.95 259.224 87.25C260.924 85.45 263.074 83.05 265.674 80.05C265.174 84.25 264.124 88.2 262.524 91.9C260.924 95.5 259.124 98.75 257.124 101.65C256.324 102.85 255.374 103.9 254.274 104.8C253.174 105.8 252.074 106.75 250.974 107.65C249.774 108.55 248.374 108.9 246.774 108.7C245.174 108.6 243.624 108.1 242.124 107.2C240.624 106.4 239.274 105.3 238.074 103.9C236.974 102.6 236.374 101.2 236.274 99.7C236.074 97.5 235.724 95.3 235.224 93.1C234.824 90.9 234.874 88.7 235.374 86.5C235.674 84.9 235.374 82.95 234.474 80.65C234.074 81.15 233.674 81.65 233.274 82.15C232.874 82.55 232.524 83 232.224 83.5L225.174 95.65C224.874 96.15 224.574 96.7 224.274 97.3C223.974 97.8 223.624 98.3 223.224 98.8C222.424 99.8 221.674 100.8 220.974 101.8C220.274 102.9 218.974 103.15 217.074 102.55C214.974 102.05 212.924 101.25 210.924 100.15C209.024 99.15 207.474 97.65 206.274 95.65C205.374 94.05 204.774 92.7 204.474 91.6C204.174 90.4 204.074 89.2 204.174 88C204.274 86.7 204.424 85.25 204.624 83.65C204.824 81.95 205.024 79.75 205.224 77.05C205.624 74.35 206.374 71.9 207.474 69.7C208.674 67.4 210.024 65.3 211.524 63.4C213.024 61.4 214.624 59.5 216.324 57.7C218.024 55.9 219.674 54.05 221.274 52.15C222.274 51.05 223.274 50.3 224.274 49.9C225.374 49.5 226.774 49.55 228.474 50.05C230.074 50.55 231.624 50.95 233.124 51.25C234.724 51.55 236.274 52.25 237.774 53.35C239.774 54.75 240.974 55.85 241.374 56.65C241.774 57.35 241.724 58.85 241.224 61.15L244.224 61.6C246.624 62.1 248.624 63.1 250.224 64.6C251.824 66.1 252.424 68.4 252.024 71.5L248.724 95.5C248.624 95.8 248.624 96.2 248.724 96.7C248.824 97.1 248.974 97.7 249.174 98.5ZM235.524 70.15C235.724 69.95 235.974 69.55 236.274 68.95C236.674 68.25 237.024 67.55 237.324 66.85C237.724 66.05 238.074 65.3 238.374 64.6C238.674 63.9 238.924 63.4 239.124 63.1C238.224 62.4 236.974 61.55 235.374 60.55C233.874 59.55 232.724 58.75 231.924 58.15C229.324 58.55 227.074 59.8 225.174 61.9C223.374 64 221.824 66.55 220.524 69.55C219.324 72.55 218.324 75.75 217.524 79.15C216.824 82.45 216.324 85.5 216.024 88.3C215.924 88.5 215.974 88.95 216.174 89.65C216.474 90.35 216.774 91.15 217.074 92.05C217.474 92.85 217.824 93.7 218.124 94.6C218.424 95.4 218.624 96 218.724 96.4C219.224 95.9 219.674 95.5 220.074 95.2C220.474 94.9 220.774 94.6 220.974 94.3C222.274 92.7 223.474 90.8 224.574 88.6C225.674 86.3 226.724 84.05 227.724 81.85C228.824 79.55 229.974 77.4 231.174 75.4C232.374 73.3 233.824 71.55 235.524 70.15ZM282.006 90.25C281.406 91.25 280.706 92.2 279.906 93.1C279.106 94 278.306 94.9 277.506 95.8C277.006 96.4 276.606 97.05 276.306 97.75C276.006 98.35 275.706 98.95 275.406 99.55C275.106 100.05 274.756 100.4 274.356 100.6C273.956 100.8 273.456 100.75 272.856 100.45L270.006 99.25C267.406 98.15 266.106 96.85 266.106 95.35C266.106 93.75 264.956 92.1 262.656 90.4C262.756 89.5 262.806 88.6 262.806 87.7C262.906 86.8 263.406 85.3 264.306 83.2C264.306 83.1 264.506 82.9 264.906 82.6C265.406 82.3 265.556 82 265.356 81.7C265.556 77.6 265.756 74.25 265.956 71.65C266.256 68.95 266.456 66.1 266.556 63.1C266.656 62.7 266.656 62.3 266.556 61.9C266.556 61.5 266.556 61.05 266.556 60.55C268.556 59.45 270.506 59.1 272.406 59.5C274.406 59.9 276.406 60.3 278.406 60.7C279.306 60.9 279.856 61.4 280.056 62.2C280.256 63 280.356 63.9 280.356 64.9C280.156 68 280.006 71.1 279.906 74.2C279.806 76.3 279.706 78.45 279.606 80.65C289.306 76.45 294.206 72.5 294.306 68.8C295.606 64.9 296.406 62.3 296.706 61C297.106 59.6 297.406 57.75 297.606 55.45C297.706 54.65 298.006 53.85 298.506 53.05C299.006 52.15 299.506 51.3 300.006 50.5C300.906 50.6 301.806 50.6 302.706 50.5C303.706 50.4 304.706 50.35 305.706 50.35C306.706 50.25 307.656 50.25 308.556 50.35C309.556 50.45 310.606 50.75 311.706 51.25L309.756 56.2C309.356 57.3 308.956 58.45 308.556 59.65C308.156 60.75 307.906 61.85 307.806 62.95C307.506 69.25 307.356 75.55 307.356 81.85C307.456 83.35 307.656 84.9 307.956 86.5C308.256 88 308.506 89.55 308.706 91.15L308.406 92.2C308.806 92 309.106 91.8 309.306 91.6C309.906 91 310.706 90.2 311.706 89.2C312.706 88.1 313.756 87 314.856 85.9C315.956 84.8 317.056 83.7 318.156 82.6C319.356 81.5 320.406 80.6 321.306 79.9C320.406 82.3 319.656 84.3 319.056 85.9C318.456 87.4 317.856 88.75 317.256 89.95C316.756 91.05 316.256 92.05 315.756 92.95C315.256 93.75 314.706 94.65 314.106 95.65C312.506 97.65 310.656 98.75 308.556 98.95C306.556 99.15 304.406 98.9 302.106 98.2C298.206 97 296.006 94.3 295.506 90.1C295.406 89 295.256 87.95 295.056 86.95C294.956 85.95 294.656 84.9 294.156 83.8C293.856 84.3 293.556 84.8 293.256 85.3C292.956 85.9 289.206 87.55 282.006 90.25ZM366.1 91.6C366.7 91 367.5 90.2 368.5 89.2C369.5 88.1 370.55 87 371.65 85.9C372.75 84.8 373.85 83.7 374.95 82.6C376.15 81.5 377.2 80.6 378.1 79.9C377.2 82.3 376.45 84.3 375.85 85.9C375.25 87.4 374.65 88.75 374.05 89.95C373.55 91.05 373.05 92.05 372.55 92.95C372.05 93.75 371.5 94.65 370.9 95.65C369.3 97.65 367.45 98.75 365.35 98.95C363.35 99.15 361.2 98.9 358.9 98.2C355 97 352.8 94.3 352.3 90.1C352.2 89 352.05 87.95 351.85 86.95C351.75 85.95 351.45 84.9 350.95 83.8C350.65 84.3 350.35 84.85 350.05 85.45C349.75 85.95 349.5 86.5 349.3 87.1C348.7 88.6 348.1 90.1 347.5 91.6C346.9 93 346.35 94.45 345.85 95.95C345.25 98.05 344.05 99.8 342.25 101.2C340.55 102.7 338.55 103.7 336.25 104.2C334.05 104.7 331.75 104.7 329.35 104.2C326.95 103.8 324.8 102.75 322.9 101.05C320.6 98.95 319.55 96.25 319.75 92.95C319.85 90.35 319.95 87.8 320.05 85.3C320.25 82.8 320.45 80.25 320.65 77.65C320.75 77.15 320.8 76.6 320.8 76C320.8 75.4 320.8 74.75 320.8 74.05L324.55 61.9C325.35 59.1 326.15 56.3 326.95 53.5C327.85 50.7 328.75 47.9 329.65 45.1C330.05 43.8 330.4 42.8 330.7 42.1C331 41.3 331.35 40.75 331.75 40.45C332.25 40.05 332.85 39.8 333.55 39.7C334.25 39.6 335.3 39.5 336.7 39.4C337.9 39.3 338.95 39.3 339.85 39.4C340.75 39.4 341.55 39.5 342.25 39.7C343.05 39.8 343.8 40 344.5 40.3C345.3 40.6 346.25 41.05 347.35 41.65L346 44.2C345.8 44.7 345.55 45.15 345.25 45.55C344.95 45.95 344.75 46.4 344.65 46.9C343.95 51.4 343 55.85 341.8 60.25C340.6 64.55 339.45 68.95 338.35 73.45C337.95 75.25 337.6 77.05 337.3 78.85C337.1 80.65 336.85 82.4 336.55 84.1C336.45 84.8 336.35 85.5 336.25 86.2C336.15 86.8 336 87.45 335.8 88.15C334.7 91.15 334.75 94.25 335.95 97.45C337.05 96.85 337.8 96.05 338.2 95.05C338.7 94.05 339.2 93.05 339.7 92.05C341.5 87.95 343.25 83.9 344.95 79.9C346.65 75.8 348.4 71.7 350.2 67.6C351.1 65.6 351.95 63.65 352.75 61.75C353.65 59.85 354.2 57.75 354.4 55.45C354.5 54.65 354.8 53.85 355.3 53.05C355.8 52.15 356.3 51.3 356.8 50.5C357.7 50.6 358.6 50.6 359.5 50.5C360.5 50.4 361.5 50.35 362.5 50.35C363.5 50.25 364.45 50.25 365.35 50.35C366.35 50.45 367.4 50.75 368.5 51.25L366.55 56.2C366.15 57.3 365.75 58.45 365.35 59.65C364.95 60.75 364.7 61.85 364.6 62.95C364.3 69.25 364.15 75.55 364.15 81.85C364.25 83.35 364.45 84.9 364.75 86.5C365.05 88 365.3 89.55 365.5 91.15L365.2 92.2C365.6 92 365.9 91.8 366.1 91.6ZM380.556 59.65C380.756 58.65 380.956 57.35 381.156 55.75C381.356 53.85 381.756 51.45 382.356 48.55C382.856 46.55 383.656 44.95 384.756 43.75C385.956 42.55 387.356 41.75 388.956 41.35C390.556 40.95 392.256 41 394.056 41.5C395.856 41.9 397.606 42.8 399.306 44.2C400.506 45.3 401.306 46.45 401.706 47.65C402.206 48.85 402.506 50.15 402.606 51.55L402.906 62.65C403.006 63.85 403.156 65.1 403.356 66.4C403.556 67.6 403.756 68.8 403.956 70C404.156 70 404.306 70.05 404.406 70.15C404.606 70.15 404.806 70.15 405.006 70.15C405.706 68.35 406.406 66.55 407.106 64.75C407.806 62.85 408.456 61 409.056 59.2C409.856 56.6 410.606 54 411.306 51.4C412.106 48.8 412.956 46.2 413.856 43.6C414.756 41.2 415.956 39.75 417.456 39.25C418.956 38.65 421.006 38.9 423.606 40C425.606 40.8 427.356 41.95 428.856 43.45C430.456 44.95 431.806 46.6 432.906 48.4C433.406 49.2 433.656 50.1 433.656 51.1C433.656 52.1 433.606 53.05 433.506 53.95C433.406 55.45 433.306 57.3 433.206 59.5C433.106 61.7 433.006 64 432.906 66.4C432.806 68.7 432.706 70.95 432.606 73.15C432.506 75.35 432.406 77.25 432.306 78.85V79.3C432.106 80.2 431.856 81.5 431.556 83.2C431.356 84.8 431.156 86.5 430.956 88.3C430.756 90.1 430.506 91.85 430.206 93.55C430.006 95.15 429.806 96.4 429.606 97.3C429.106 99.2 428.656 100.65 428.256 101.65C427.856 102.75 427.256 103.45 426.456 103.75C425.756 104.15 424.806 104.25 423.606 104.05C422.406 103.95 420.756 103.6 418.656 103C417.556 102.8 416.506 102.45 415.506 101.95C414.506 101.45 413.356 100.95 412.056 100.45C412.456 99.65 412.756 99 412.956 98.5C413.156 97.9 413.456 97.45 413.856 97.15C417.056 94.55 418.006 91.25 416.706 87.25C416.706 87.05 416.656 86.85 416.556 86.65C416.456 86.35 416.506 86.15 416.706 86.05C417.606 84.85 418.256 83.6 418.656 82.3C419.056 81 419.306 79.65 419.406 78.25C419.606 76.85 419.706 75.45 419.706 74.05C419.806 72.55 420.006 71.1 420.306 69.7C420.906 66.4 421.406 63.1 421.806 59.8C422.306 56.4 422.806 53 423.306 49.6C423.506 48.8 423.556 48.05 423.456 47.35C423.456 46.65 422.906 45.9 421.806 45.1L418.656 51.4C416.056 57.3 413.406 63.15 410.706 68.95C408.106 74.75 405.456 80.6 402.756 86.5C401.456 89.3 398.956 89.4 395.256 86.8C395.756 80.5 396.006 74.25 396.006 68.05C396.106 61.85 395.756 55.6 394.956 49.3C394.756 49.3 394.556 49.3 394.356 49.3C394.156 49.2 393.956 49.15 393.756 49.15L392.706 51.55C392.106 54.35 391.606 56.5 391.206 58C390.906 59.4 390.556 60.65 390.156 61.75C389.856 62.85 389.406 64.1 388.806 65.5C388.206 66.8 387.306 68.75 386.106 71.35C385.406 72.85 385.006 74.5 384.906 76.3C384.906 78.1 384.806 79.85 384.606 81.55L383.856 86.65C383.556 88.15 382.506 89 380.706 89.2C379.706 89.3 378.706 89.4 377.706 89.5C376.706 89.5 375.856 89 375.156 88C373.656 86.1 373.306 83.95 374.106 81.55C375.506 77.45 376.656 73.35 377.556 69.25C377.656 69.05 377.706 68.8 377.706 68.5L380.256 60.4H380.406C380.506 60.2 380.556 59.95 380.556 59.65ZM480.18 98.5C481.28 97.3 482.28 96.2 483.18 95.2C484.08 94.2 484.98 93.25 485.88 92.35C487.18 90.65 488.63 88.95 490.23 87.25C491.93 85.45 494.08 83.05 496.68 80.05C496.18 84.25 495.13 88.2 493.53 91.9C491.93 95.5 490.13 98.75 488.13 101.65C487.33 102.85 486.38 103.9 485.28 104.8C484.18 105.8 483.08 106.75 481.98 107.65C480.78 108.55 479.38 108.9 477.78 108.7C476.18 108.6 474.63 108.1 473.13 107.2C471.63 106.4 470.28 105.3 469.08 103.9C467.98 102.6 467.38 101.2 467.28 99.7C467.08 97.5 466.73 95.3 466.23 93.1C465.83 90.9 465.88 88.7 466.38 86.5C466.68 84.9 466.38 82.95 465.48 80.65C465.08 81.15 464.68 81.65 464.28 82.15C463.88 82.55 463.53 83 463.23 83.5L456.18 95.65C455.88 96.15 455.58 96.7 455.28 97.3C454.98 97.8 454.63 98.3 454.23 98.8C453.43 99.8 452.68 100.8 451.98 101.8C451.28 102.9 449.98 103.15 448.08 102.55C445.98 102.05 443.93 101.25 441.93 100.15C440.03 99.15 438.48 97.65 437.28 95.65C436.38 94.05 435.78 92.7 435.48 91.6C435.18 90.4 435.08 89.2 435.18 88C435.28 86.7 435.43 85.25 435.63 83.65C435.83 81.95 436.03 79.75 436.23 77.05C436.63 74.35 437.38 71.9 438.48 69.7C439.68 67.4 441.03 65.3 442.53 63.4C444.03 61.4 445.63 59.5 447.33 57.7C449.03 55.9 450.68 54.05 452.28 52.15C453.28 51.05 454.28 50.3 455.28 49.9C456.38 49.5 457.78 49.55 459.48 50.05C461.08 50.55 462.63 50.95 464.13 51.25C465.73 51.55 467.28 52.25 468.78 53.35C470.78 54.75 471.98 55.85 472.38 56.65C472.78 57.35 472.73 58.85 472.23 61.15L475.23 61.6C477.63 62.1 479.63 63.1 481.23 64.6C482.83 66.1 483.43 68.4 483.03 71.5L479.73 95.5C479.63 95.8 479.63 96.2 479.73 96.7C479.83 97.1 479.98 97.7 480.18 98.5ZM466.53 70.15C466.73 69.95 466.98 69.55 467.28 68.95C467.68 68.25 468.03 67.55 468.33 66.85C468.73 66.05 469.08 65.3 469.38 64.6C469.68 63.9 469.93 63.4 470.13 63.1C469.23 62.4 467.98 61.55 466.38 60.55C464.88 59.55 463.73 58.75 462.93 58.15C460.33 58.55 458.08 59.8 456.18 61.9C454.38 64 452.83 66.55 451.53 69.55C450.33 72.55 449.33 75.75 448.53 79.15C447.83 82.45 447.33 85.5 447.03 88.3C446.93 88.5 446.98 88.95 447.18 89.65C447.48 90.35 447.78 91.15 448.08 92.05C448.48 92.85 448.83 93.7 449.13 94.6C449.43 95.4 449.63 96 449.73 96.4C450.23 95.9 450.68 95.5 451.08 95.2C451.48 94.9 451.78 94.6 451.98 94.3C453.28 92.7 454.48 90.8 455.58 88.6C456.68 86.3 457.73 84.05 458.73 81.85C459.83 79.55 460.98 77.4 462.18 75.4C463.38 73.3 464.83 71.55 466.53 70.15ZM530.862 45.7C533.162 46.4 534.062 47.65 533.562 49.45C533.362 49.95 533.162 50.45 532.962 50.95C532.862 51.35 532.662 51.8 532.362 52.3C530.162 56.1 527.612 59.75 524.712 63.25C521.812 66.75 518.562 70.1 514.962 73.3C513.662 74.5 512.362 75.75 511.062 77.05C509.862 78.35 508.812 79.7 507.912 81.1C507.312 82.1 506.912 83.2 506.712 84.4C506.612 85.5 506.562 86.6 506.562 87.7C506.562 89.4 507.212 91.25 508.512 93.25C509.812 95.25 511.362 96.8 513.162 97.9C513.962 97.3 515.012 96.55 516.312 95.65C517.712 94.65 518.812 93.8 519.612 93.1C522.812 90.2 526.012 87.65 529.212 85.45C532.412 83.15 534.812 81.15 536.412 79.45C536.212 80.55 535.962 81.65 535.662 82.75C535.462 83.65 535.162 84.65 534.762 85.75C534.462 86.85 534.062 87.8 533.562 88.6C531.962 91.2 530.012 93.45 527.712 95.35C525.412 97.15 522.812 99.1 519.912 101.2C518.212 102.4 516.462 103 514.662 103C512.962 103 510.962 102.7 508.662 102.1C505.262 101.2 502.162 99.55 499.362 97.15C496.562 94.75 494.562 92.05 493.362 89.05C493.162 88.65 493.012 88.25 492.912 87.85C492.912 87.35 492.812 86.75 492.612 86.05C492.512 85.05 492.412 84.05 492.312 83.05C492.212 82.05 492.162 81 492.162 79.9C492.262 78.8 492.412 77.55 492.612 76.15C492.812 74.75 493.212 73.1 493.812 71.2C494.612 68.1 495.712 65.05 497.112 62.05C498.512 59.05 499.862 56.05 501.162 53.05C501.662 51.95 502.212 50.85 502.812 49.75C503.512 48.65 504.212 47.55 504.912 46.45C505.312 45.85 505.762 45.3 506.262 44.8C506.762 44.2 507.262 43.65 507.762 43.15C509.662 41.15 512.312 40.45 515.712 41.05C516.512 41.25 517.362 41.35 518.262 41.35C519.162 41.35 520.062 41.45 520.962 41.65C522.162 41.85 523.112 42.15 523.812 42.55C526.012 43.95 528.362 45 530.862 45.7ZM510.762 65.5C517.862 58.4 522.362 52.55 524.262 47.95C522.262 47.35 520.962 47.1 520.362 47.2C519.862 47.2 519.112 47.75 518.112 48.85C515.912 51.15 514.162 53.6 512.862 56.2C511.562 58.8 510.612 61.5 510.012 64.3C510.012 64.5 510.062 64.7 510.162 64.9C510.362 65.1 510.562 65.3 510.762 65.5ZM538.759 59.65C538.959 58.65 539.159 57.35 539.359 55.75C539.559 53.85 539.959 51.45 540.559 48.55C541.059 46.55 541.859 44.95 542.959 43.75C544.159 42.55 545.559 41.75 547.159 41.35C548.759 40.95 550.459 41 552.259 41.5C554.059 41.9 555.809 42.8 557.509 44.2C558.709 45.3 559.509 46.45 559.909 47.65C560.409 48.85 560.709 50.15 560.809 51.55L561.109 62.65C561.209 63.85 561.359 65.1 561.559 66.4C561.759 67.6 561.959 68.8 562.159 70C562.359 70 562.509 70.05 562.609 70.15C562.809 70.15 563.009 70.15 563.209 70.15C563.909 68.35 564.609 66.55 565.309 64.75C566.009 62.85 566.659 61 567.259 59.2C568.059 56.6 568.809 54 569.509 51.4C570.309 48.8 571.159 46.2 572.059 43.6C572.959 41.2 574.159 39.75 575.659 39.25C577.159 38.65 579.209 38.9 581.809 40C583.809 40.8 585.559 41.95 587.059 43.45C588.659 44.95 590.009 46.6 591.109 48.4C591.609 49.2 591.859 50.1 591.859 51.1C591.859 52.1 591.809 53.05 591.709 53.95C591.609 55.45 591.509 57.3 591.409 59.5C591.309 61.7 591.209 64 591.109 66.4C591.009 68.7 590.909 70.95 590.809 73.15C590.709 75.35 590.609 77.25 590.509 78.85V79.3C590.309 80.2 590.059 81.5 589.759 83.2C589.559 84.8 589.359 86.5 589.159 88.3C588.959 90.1 588.709 91.85 588.409 93.55C588.209 95.15 588.009 96.4 587.809 97.3C587.309 99.2 586.859 100.65 586.459 101.65C586.059 102.75 585.459 103.45 584.659 103.75C583.959 104.15 583.009 104.25 581.809 104.05C580.609 103.95 578.959 103.6 576.859 103C575.759 102.8 574.709 102.45 573.709 101.95C572.709 101.45 571.559 100.95 570.259 100.45C570.659 99.65 570.959 99 571.159 98.5C571.359 97.9 571.659 97.45 572.059 97.15C575.259 94.55 576.209 91.25 574.909 87.25C574.909 87.05 574.859 86.85 574.759 86.65C574.659 86.35 574.709 86.15 574.909 86.05C575.809 84.85 576.459 83.6 576.859 82.3C577.259 81 577.509 79.65 577.609 78.25C577.809 76.85 577.909 75.45 577.909 74.05C578.009 72.55 578.209 71.1 578.509 69.7C579.109 66.4 579.609 63.1 580.009 59.8C580.509 56.4 581.009 53 581.509 49.6C581.709 48.8 581.759 48.05 581.659 47.35C581.659 46.65 581.109 45.9 580.009 45.1L576.859 51.4C574.259 57.3 571.609 63.15 568.909 68.95C566.309 74.75 563.659 80.6 560.959 86.5C559.659 89.3 557.159 89.4 553.459 86.8C553.959 80.5 554.209 74.25 554.209 68.05C554.309 61.85 553.959 55.6 553.159 49.3C552.959 49.3 552.759 49.3 552.559 49.3C552.359 49.2 552.159 49.15 551.959 49.15L550.909 51.55C550.309 54.35 549.809 56.5 549.409 58C549.109 59.4 548.759 60.65 548.359 61.75C548.059 62.85 547.609 64.1 547.009 65.5C546.409 66.8 545.509 68.75 544.309 71.35C543.609 72.85 543.209 74.5 543.109 76.3C543.109 78.1 543.009 79.85 542.809 81.55L542.059 86.65C541.759 88.15 540.709 89 538.909 89.2C537.909 89.3 536.909 89.4 535.909 89.5C534.909 89.5 534.059 89 533.359 88C531.859 86.1 531.509 83.95 532.309 81.55C533.709 77.45 534.859 73.35 535.759 69.25C535.859 69.05 535.909 68.8 535.909 68.5L538.459 60.4H538.609C538.709 60.2 538.759 59.95 538.759 59.65ZM613.933 105.4C614.333 105 614.983 104.25 615.883 103.15C616.883 102.05 617.833 100.9 618.733 99.7C619.733 98.5 620.633 97.35 621.433 96.25C622.233 95.15 622.733 94.45 622.933 94.15C624.933 92.15 626.933 89.8 628.933 87.1C631.033 84.4 633.333 82 635.833 79.9C634.633 82.3 633.683 84.3 632.983 85.9C632.283 87.4 631.583 88.8 630.883 90.1C630.283 91.3 629.633 92.55 628.933 93.85C628.233 95.05 627.283 96.55 626.083 98.35C624.083 102.45 621.983 105.35 619.783 107.05C617.583 108.85 615.383 109.8 613.183 109.9C611.083 110 609.083 109.45 607.183 108.25C605.283 107.15 603.583 105.85 602.083 104.35L596.233 98.35L593.383 89.35C593.283 83.65 593.533 78.05 594.133 72.55C594.733 66.95 596.033 61.45 598.033 56.05C598.833 53.65 599.933 51.35 601.333 49.15C602.833 46.95 604.283 44.7 605.683 42.4C605.883 42 606.233 41.65 606.733 41.35C607.233 40.95 607.683 40.75 608.083 40.75C612.083 40.65 615.983 41 619.783 41.8C623.583 42.5 627.383 43.4 631.183 44.5C631.383 44.6 631.533 44.75 631.633 44.95C631.833 45.15 632.033 45.35 632.233 45.55C629.933 48.15 628.433 51 627.733 54.1C627.033 57.1 626.283 60.15 625.483 63.25C625.183 64.45 624.783 65.65 624.283 66.85C623.883 68.05 623.483 69.2 623.083 70.3C621.183 69.8 619.883 69 619.183 67.9C618.483 66.8 618.233 65.2 618.433 63.1C618.633 61.3 618.833 59.5 619.033 57.7C619.233 55.8 619.433 53.9 619.633 52C619.833 51.2 619.933 50.4 619.933 49.6C619.933 48.7 619.983 47.55 620.083 46.15C618.983 46.65 617.983 47.1 617.083 47.5C616.283 47.8 615.683 48.2 615.283 48.7C614.583 49.5 613.933 50.4 613.333 51.4C612.833 52.4 612.483 53.45 612.283 54.55C611.583 57.55 610.933 60.55 610.333 63.55C609.733 66.55 609.233 69.6 608.833 72.7C608.533 75.3 608.433 77.85 608.533 80.35C608.633 82.85 608.533 85.4 608.233 88C607.733 92.1 608.333 95.7 610.033 98.8C610.533 99.9 611.083 100.95 611.683 101.95C612.383 102.95 613.133 104.1 613.933 105.4ZM647.222 92.8H647.072C644.972 92.3 642.972 91.55 641.072 90.55C639.172 89.45 637.622 87.9 636.422 85.9C635.622 84.3 635.072 82.95 634.772 81.85C634.572 80.65 634.522 79.45 634.622 78.25C634.822 76.95 634.772 75 634.472 72.4C634.272 69.7 634.972 67.4 636.572 65.5C638.172 63.5 639.822 61.6 641.522 59.8C643.322 58 645.072 56.15 646.772 54.25C647.772 53.15 648.822 52.4 649.922 52C651.022 51.6 652.372 51.65 653.972 52.15C655.572 52.65 657.122 53.05 658.622 53.35C660.222 53.65 661.772 54.35 663.272 55.45C665.172 56.85 666.322 57.9 666.722 58.6C666.922 59.1 666.972 59.85 666.872 60.85L665.372 65.5C665.572 65.7 665.772 65.95 665.972 66.25C667.272 68.25 667.472 70.95 666.572 74.35L662.222 96.55C661.922 96.85 661.772 97.25 661.772 97.75C661.872 98.25 661.972 99 662.072 100C663.372 98.8 664.522 97.7 665.522 96.7C666.622 95.7 667.672 94.75 668.672 93.85C670.372 92.15 672.172 90.45 674.072 88.75C675.972 86.95 678.522 84.55 681.722 81.55C680.422 86.25 678.672 90.55 676.472 94.45C674.272 98.35 671.922 101.8 669.422 104.8C668.322 106.1 667.172 107.2 665.972 108.1C664.772 109 663.522 109.85 662.222 110.65C660.922 111.55 659.472 111.75 657.872 111.25C656.272 110.85 655.322 110.1 655.022 109C654.722 108 654.122 106.65 653.222 104.95C652.322 103.25 651.922 101.55 652.022 99.85C652.022 99.35 652.072 98.8 652.172 98.2C649.972 101.5 647.122 104.2 643.622 106.3C641.322 107.6 639.122 108.35 637.022 108.55C635.022 108.75 633.222 108.2 631.622 106.9C631.022 106.2 630.422 105.15 629.822 103.75C629.122 102.45 628.472 100.95 627.872 99.25C627.272 97.55 626.672 95.75 626.072 93.85C625.472 91.85 624.872 89.95 624.272 88.15C625.072 88.55 625.972 89.3 626.972 90.4C627.872 91.5 628.772 92.7 629.672 94C630.572 95.3 631.372 96.6 632.072 97.9C632.872 99.1 633.572 99.9 634.172 100.3C635.072 101.1 636.022 101.85 637.022 102.55C638.022 103.25 639.272 103.6 640.772 103.6C642.772 101.7 644.122 99.65 644.822 97.45C645.322 95.85 646.122 94.3 647.222 92.8ZM651.272 84.55C651.372 84.25 651.472 83.95 651.572 83.65C652.072 82.55 652.672 81.5 653.372 80.5C654.072 79.5 654.772 78.45 655.472 77.35L655.622 77.65L660.272 62.5C658.872 61.6 657.822 60.85 657.122 60.25C654.522 60.65 652.222 61.9 650.222 64C648.322 66.1 646.672 68.65 645.272 71.65C643.972 74.65 644.072 77.4 645.572 79.9C647.172 82.3 648.072 83.95 648.272 84.85C648.572 85.65 648.772 86.25 648.872 86.65C649.372 86.15 649.872 85.75 650.372 85.45C650.772 85.15 651.072 84.85 651.272 84.55Z" fill="#83519C"/>
</svg>
