<svg  viewBox="0 0 690 122" fill="none" xmlns="http://www.w3.org/2000/svg">
<path d="M59.65 20.9C60.15 19.8 60.65 18.9 61.15 18.2C61.65 17.5 62.2 17 62.8 16.7C63.4 16.3 64.1 16.1 64.9 16.1C65.8 16 66.85 16 68.05 16.1C69.85 19.2 71 22.45 71.5 25.85C72 29.15 72.15 32.55 71.95 36.05C71.65 39.75 71.25 43.4 70.75 47C70.35 50.6 70 54.25 69.7 57.95C69.2 63.35 68.75 68.7 68.35 74C67.95 79.3 67.5 84.65 67 90.05C66.8 92.45 66.65 94.85 66.55 97.25C66.45 99.65 66.35 102.1 66.25 104.6C66.25 106 66.3 107.35 66.4 108.65C66.6 109.95 66.65 111.25 66.55 112.55C66.35 115.15 65.55 116.8 64.15 117.5C62.85 118.2 61.35 117.75 59.65 116.15C58.35 115.05 57.4 113.8 56.8 112.4C56.3 111.1 56.15 109.35 56.35 107.15C56.85 102.95 57.15 98.75 57.25 94.55C57.45 90.35 57.6 86.15 57.7 81.95C57.9 74.25 58.4 66.65 59.2 59.15C60.1 51.55 61 44 61.9 36.5C62.1 35.5 62.15 34.5 62.05 33.5C62.05 32.5 61.85 31.45 61.45 30.35C61.25 30.75 61.05 31.1 60.85 31.4C60.65 31.6 60.45 31.95 60.25 32.45C59.15 35.35 58 38.25 56.8 41.15C55.7 44.05 54.65 47 53.65 50C52.55 53.4 51.55 56.8 50.65 60.2C49.75 63.5 48.85 66.85 47.95 70.25L46.6 74.45C46.4 74.85 46.15 75.25 45.85 75.65C45.65 75.95 45.45 76.1 45.25 76.1C44.15 76.2 43.05 76.3 41.95 76.4C40.85 76.5 39.75 76.35 38.65 75.95C37.65 75.55 36.65 74.95 35.65 74.15C34.75 73.25 34 72.3 33.4 71.3C32.2 69.3 31.1 67.25 30.1 65.15C29.2 63.05 28.2 60.95 27.1 58.85C25.6 55.65 24.1 52.45 22.6 49.25C21.1 45.95 19.55 42.7 17.95 39.5C17.85 39.2 17.4 38.65 16.6 37.85C16.4 39.95 16.2 41.9 16 43.7C15.9 45.5 15.85 47.3 15.85 49.1C15.85 51.6 15.9 54.1 16 56.6C16.2 59.1 16.35 61.6 16.45 64.1C16.45 65.2 16.35 66.3 16.15 67.4C15.95 68.4 15.85 69.45 15.85 70.55C15.75 76.35 15.6 82.15 15.4 87.95C15.2 93.65 15.5 99.45 16.3 105.35C16.9 108.95 16.5 112.35 15.1 115.55C14.5 116.95 13.8 117.95 13 118.55C12.2 119.15 11.15 119.15 9.85 118.55C8.45 117.95 7.1 117.2 5.8 116.3C4.6 115.4 3.35 114.45 2.05 113.45C1.75 113.25 1.5 112.85 1.3 112.25C1.1 111.75 1 111.3 1 110.9L1.9 92.45C1.9 89.75 1.85 87.1 1.75 84.5C1.65 81.8 1.6 79.1 1.6 76.4C1.7 72.6 1.75 68.85 1.75 65.15C1.85 61.35 1.7 57.55 1.3 53.75C1 49.55 0.9 45.4 1 41.3C1.1 37.2 1.15 33.05 1.15 28.85C1.15 27.15 1.15 25.5 1.15 23.9C1.25 22.2 1.25 20.5 1.15 18.8C1.15 15.8 2 13.7 3.7 12.5C5.4 11.3 7.35 11.4 9.55 12.8C10.35 13.2 10.85 13.55 11.05 13.85C11.65 14.75 12.3 15.6 13 16.4C13.7 17.1 14.4 17.85 15.1 18.65C15.8 19.35 16.45 20.15 17.05 21.05C17.65 21.85 18.05 22.85 18.25 24.05C19.95 26.35 21.45 28.8 22.75 31.4C24.05 34 25.25 36.65 26.35 39.35C27.55 41.95 28.7 44.6 29.8 47.3C31 50 32.3 52.6 33.7 55.1C34.3 56.3 34.8 57.55 35.2 58.85C35.7 60.05 36.2 61.3 36.7 62.6L38.95 66.8L40.6 61.55C41.7 57.55 42.75 53.6 43.75 49.7C44.85 45.8 46 41.9 47.2 38C47.9 35.7 48.65 33.5 49.45 31.4C50.35 29.3 51.15 27.1 51.85 24.8C53.05 21.6 55 20.3 57.7 20.9C58.1 21 58.45 21.05 58.75 21.05C59.05 20.95 59.35 20.9 59.65 20.9ZM92.2035 113.75C87.1035 113.55 83.0535 112.35 80.0535 110.15C78.7535 109.25 77.7535 108.15 77.0535 106.85C76.4535 105.45 76.1035 104 76.0035 102.5V88.25C76.0035 87.75 75.9535 87.3 75.8535 86.9C75.8535 86.5 75.8535 86.05 75.8535 85.55L76.7535 75.95C77.5535 71.35 78.3035 68 79.0035 65.9C79.8035 63.7 81.1535 60.5 83.0535 56.3L84.4035 54.05C85.7035 51.35 88.0035 50.4 91.3035 51.2C93.1035 51.7 94.9035 52.15 96.7035 52.55C98.6035 52.95 99.1035 53.95 98.2035 55.55C97.4035 57.15 96.5035 58.45 95.5035 59.45C94.6035 60.45 93.8535 61.55 93.2535 62.75C92.7535 63.75 92.5035 64.75 92.5035 65.75L91.0035 69.95C90.9035 70.05 90.8035 70.15 90.7035 70.25C90.5035 70.55 90.3535 70.85 90.2535 71.15C89.6535 72.25 88.9035 75.6 88.0035 81.2C87.1035 86.8 86.5535 92.55 86.3535 98.45C86.2535 99.85 86.3035 101.3 86.5035 102.8C86.7035 104.3 86.9535 105.8 87.2535 107.3C87.3535 107.8 88.0035 108.45 89.2035 109.25C90.4035 110.05 91.2035 110.35 91.6035 110.15C92.4035 109.75 92.9535 109.2 93.2535 108.5C94.2535 106.9 95.1535 105.3 95.9535 103.7C96.7535 102 97.5535 100.3 98.3535 98.6L97.9035 97.25C97.4035 96.15 97.0535 94.5 96.8535 92.3C96.7535 90 96.9535 87.65 97.4535 85.25C96.3535 84.25 95.4535 83.2 94.7535 82.1C94.0535 81.1 92.7035 79.7 90.7035 77.9L91.9035 76.1C95.4035 76 98.3035 76.45 100.604 77.45C102.904 77.75 105.304 78.05 107.804 78.35L110.654 86.6C110.654 87.3 110.504 87.95 110.204 88.55C109.904 89.05 109.554 89.65 109.154 90.35C108.754 90.95 108.304 91.65 107.804 92.45C107.404 93.25 107.004 94.2 106.604 95.3L104.954 100.25C105.354 100.45 105.754 100.55 106.154 100.55C106.854 100.55 107.504 100.45 108.104 100.25C108.804 100.05 109.504 99.75 110.204 99.35C111.004 98.95 111.854 98.55 112.754 98.15C113.754 97.65 114.954 97.2 116.354 96.8C116.154 97.6 115.804 98.45 115.304 99.35C114.804 100.15 113.704 101 112.004 101.9C110.404 102.9 109.054 103.55 107.954 103.85C106.954 104.15 105.604 104.1 103.904 103.7C103.704 103.7 103.554 103.65 103.454 103.55C103.154 104.35 102.854 105.15 102.554 105.95C102.254 106.65 101.854 107.35 101.354 108.05C100.554 109.45 99.5035 110.7 98.2035 111.8C96.9035 113 94.9035 113.65 92.2035 113.75ZM125.354 104C126.354 102.7 127.354 101.35 128.354 99.95C129.354 98.45 130.354 97.05 131.354 95.75C132.454 94.35 133.504 93.15 134.504 92.15C135.604 91.15 136.604 90.4 137.504 89.9C136.804 91.6 135.854 93.65 134.654 96.05C133.454 98.35 132.204 100.55 130.904 102.65C129.704 104.75 128.554 106.55 127.454 108.05C126.454 109.55 125.804 110.3 125.504 110.3C124.804 110.3 123.704 110.2 122.204 110C120.704 109.9 119.654 109.7 119.054 109.4C117.554 109 116.504 108.1 115.904 106.7C115.304 105.2 114.904 103.65 114.704 102.05C114.504 100.65 114.404 99 114.404 97.1C114.504 95.1 114.454 93.4 114.254 92C114.254 91.9 114.254 91.55 114.254 90.95C114.354 90.35 114.404 89.7 114.404 89C114.504 88.2 114.504 87.45 114.404 86.75C114.404 85.95 114.354 85.35 114.254 84.95C114.154 83.45 114.104 80.95 114.104 77.45C114.104 73.85 114.154 71.5 114.254 70.4C114.354 69.3 114.554 68.1 114.854 66.8C115.154 65.5 115.554 63.95 116.054 62.15C116.554 61.45 116.954 60.7 117.254 59.9C117.554 59 118.254 58.45 119.354 58.25C120.754 58.05 122.154 57.9 123.554 57.8C125.054 57.7 126.554 58.25 128.054 59.45C126.654 61.85 125.904 64.4 125.804 67.1C125.804 69.7 125.854 74.85 125.954 82.55C126.054 83.85 126.004 85.45 125.804 87.35C125.704 89.25 125.554 91.25 125.354 93.35C125.254 95.35 125.154 97.3 125.054 99.2C125.054 101.1 125.154 102.7 125.354 104ZM208.485 83.75C207.985 85.75 207.435 87.7 206.835 89.6C206.235 91.5 205.835 93.55 205.635 95.75C207.735 94.35 210.085 93.05 212.685 91.85C215.285 90.65 217.285 89.9 218.685 89.6L210.735 97.25C210.335 97.75 209.735 98.4 208.935 99.2C208.235 100 207.485 100.85 206.685 101.75C205.885 102.55 205.085 103.35 204.285 104.15C203.485 104.95 202.885 105.6 202.485 106.1C201.285 107.7 199.685 109.25 197.685 110.75C196.185 111.85 194.685 112.8 193.185 113.6C191.785 114.4 190.485 114.5 189.285 113.9C188.185 113.3 187.785 112.55 188.085 111.65C188.385 110.75 188.635 109.9 188.835 109.1C189.035 108.5 189.435 107.65 190.035 106.55C190.635 105.35 191.235 104.15 191.835 102.95C192.435 101.65 192.985 100.45 193.485 99.35C194.085 98.15 194.485 97.25 194.685 96.65L200.685 75.8C201.085 74.5 201.435 73.35 201.735 72.35C202.135 71.25 202.485 70.2 202.785 69.2C203.185 68.2 203.535 67.2 203.835 66.2C204.135 65.1 204.385 63.8 204.585 62.3C204.085 62.8 203.585 63.25 203.085 63.65C202.585 63.95 202.135 64.35 201.735 64.85C199.135 68.15 196.885 71.1 194.985 73.7C193.085 76.2 191.435 79.4 190.035 83.3C188.835 86.7 187.685 90.1 186.585 93.5C185.585 96.9 184.485 100.35 183.285 103.85C182.785 105.45 182.985 107.15 183.885 108.95C184.485 110.35 184.535 111.85 184.035 113.45C183.535 115.15 182.735 116.4 181.635 117.2C180.735 117.8 179.585 117.9 178.185 117.5C176.885 117.1 175.985 116.4 175.485 115.4C175.285 115 175.135 114.6 175.035 114.2C174.935 113.8 174.785 113.5 174.585 113.3C172.285 111.4 170.835 109.2 170.235 106.7C169.735 104.2 169.385 101.65 169.185 99.05C169.085 98.15 169.035 96.55 169.035 94.25C169.035 91.95 169.035 89.55 169.035 87.05C169.035 84.45 169.035 82.1 169.035 80C169.135 77.8 169.235 76.4 169.335 75.8C170.435 65.1 171.635 54.65 172.935 44.45C173.835 37.85 174.785 31.35 175.785 24.95C176.885 18.45 178.385 12 180.285 5.59999C180.385 5.09999 180.485 4.6 180.585 4.1C180.785 3.6 180.985 3.1 181.185 2.6C181.785 0.999994 182.985 0.349993 184.785 0.649995C185.685 0.849993 186.535 1.04999 187.335 1.25C188.235 1.44999 189.135 1.64999 190.035 1.85C191.135 2.05 192.135 2.25 193.035 2.45C194.035 2.55 195.085 2.6 196.185 2.6C198.785 2.5 200.985 3.25 202.785 4.84999C204.585 6.34999 205.385 8.39999 205.185 11C204.985 13.4 204.635 15.8 204.135 18.2C203.635 20.5 203.085 22.8 202.485 25.1C200.985 31.1 199.085 37 196.785 42.8C194.485 48.5 191.885 54.15 188.985 59.75C188.485 60.75 187.885 61.7 187.185 62.6C186.485 63.4 185.985 64.35 185.685 65.45C184.985 67.85 184.385 70.25 183.885 72.65C183.385 75.05 182.885 77.45 182.385 79.85C182.185 80.75 182.035 81.65 181.935 82.55C181.835 83.45 181.735 84.3 181.635 85.1C181.635 85.5 181.735 85.9 181.935 86.3C182.135 86.7 182.335 87.3 182.535 88.1L184.935 83.6C186.635 79.8 188.485 76.2 190.485 72.8C192.585 69.3 194.985 66 197.685 62.9C199.185 61.1 200.685 59.65 202.185 58.55C203.085 57.75 204.085 57.15 205.185 56.75C206.285 56.25 207.485 56.3 208.785 56.9C209.985 57.6 210.985 58.7 211.785 60.2C212.685 61.7 212.985 63.15 212.685 64.55C212.085 67.75 211.435 70.95 210.735 74.15C210.035 77.35 209.285 80.55 208.485 83.75ZM187.785 33.05C187.385 35.55 186.985 38.05 186.585 40.55C186.285 42.95 185.885 45.4 185.385 47.9L186.435 48.35C186.935 47.55 187.385 46.75 187.785 45.95C188.285 45.05 188.735 44.15 189.135 43.25C190.335 40.15 191.535 37.1 192.735 34.1C193.935 31.1 195.085 28 196.185 24.8C196.985 22.2 197.635 19.6 198.135 17C198.735 14.3 199.285 11.65 199.785 9.04999C199.985 8.14999 199.985 7.29999 199.785 6.49999C199.685 5.59999 199.135 4.89999 198.135 4.39999C197.035 3.89999 196.035 3.84999 195.135 4.24999C194.235 4.64999 193.485 5.2 192.885 5.9C192.385 6.4 192.085 7.05 191.985 7.84999C191.885 8.54999 191.785 9.3 191.685 10.1L188.235 31.7C188.235 31.9 188.185 32.15 188.085 32.45C187.985 32.65 187.885 32.85 187.785 33.05ZM268.23 115.4C268.63 115 269.28 114.25 270.18 113.15C271.18 112.05 272.13 110.9 273.03 109.7C274.03 108.5 274.93 107.35 275.73 106.25C276.53 105.15 277.03 104.45 277.23 104.15C279.23 102.15 281.23 99.8 283.23 97.1C285.33 94.4 287.63 92 290.13 89.9C288.93 92.3 287.98 94.3 287.28 95.9C286.58 97.4 285.88 98.8 285.18 100.1C284.58 101.3 283.93 102.55 283.23 103.85C282.53 105.05 281.58 106.55 280.38 108.35C278.38 112.45 276.28 115.35 274.08 117.05C271.88 118.85 269.68 119.8 267.48 119.9C265.38 120 263.38 119.45 261.48 118.25C259.58 117.15 257.88 115.85 256.38 114.35L250.53 108.35L247.68 99.35C247.58 93.65 247.83 88.05 248.43 82.55C249.03 76.95 250.33 71.45 252.33 66.05C253.13 63.65 254.23 61.35 255.63 59.15C257.13 56.95 258.58 54.7 259.98 52.4C260.18 52 260.53 51.65 261.03 51.35C261.53 50.95 261.98 50.75 262.38 50.75C266.38 50.65 270.28 51 274.08 51.8C277.88 52.5 281.68 53.4 285.48 54.5C285.68 54.6 285.83 54.75 285.93 54.95C286.13 55.15 286.33 55.35 286.53 55.55C284.23 58.15 282.73 61 282.03 64.1C281.33 67.1 280.58 70.15 279.78 73.25C279.48 74.45 279.08 75.65 278.58 76.85C278.18 78.05 277.78 79.2 277.38 80.3C275.48 79.8 274.18 79 273.48 77.9C272.78 76.8 272.53 75.2 272.73 73.1C272.93 71.3 273.13 69.5 273.33 67.7C273.53 65.8 273.73 63.9 273.93 62C274.13 61.2 274.23 60.4 274.23 59.6C274.23 58.7 274.28 57.55 274.38 56.15C273.28 56.65 272.28 57.1 271.38 57.5C270.58 57.8 269.98 58.2 269.58 58.7C268.88 59.5 268.23 60.4 267.63 61.4C267.13 62.4 266.78 63.45 266.58 64.55C265.88 67.55 265.23 70.55 264.63 73.55C264.03 76.55 263.53 79.6 263.13 82.7C262.83 85.3 262.73 87.85 262.83 90.35C262.93 92.85 262.83 95.4 262.53 98C262.03 102.1 262.63 105.7 264.33 108.8C264.83 109.9 265.38 110.95 265.98 111.95C266.68 112.95 267.43 114.1 268.23 115.4ZM315.319 94.7C315.719 95.1 316.119 95.3 316.519 95.3C317.219 95.3 317.869 95.15 318.469 94.85C319.169 94.45 319.869 94 320.569 93.5C321.369 92.9 322.219 92.3 323.119 91.7C324.119 91 325.319 90.35 326.719 89.75C326.519 90.85 326.169 92.05 325.669 93.35C325.169 94.65 324.069 95.95 322.369 97.25C320.769 98.65 319.419 99.6 318.319 100.1C317.319 100.5 315.969 100.4 314.269 99.8C314.069 99.8 313.919 99.75 313.819 99.65C313.519 100.75 313.219 101.85 312.919 102.95C312.619 103.95 312.219 105 311.719 106.1C310.919 108.1 309.869 109.95 308.569 111.65C307.269 113.35 305.269 114.25 302.569 114.35C298.069 114.45 293.819 113.05 289.819 110.15C288.519 109.25 287.519 108.15 286.819 106.85C286.219 105.45 285.869 104 285.769 102.5V88.25C285.769 87.75 285.719 87.3 285.619 86.9C285.619 86.5 285.619 86.05 285.619 85.55L286.519 75.95C287.319 71.35 288.369 66.9 289.669 62.6C291.069 58.3 292.719 54.05 294.619 49.85L295.969 47.6C297.269 44.9 299.569 43.95 302.869 44.75C304.669 45.25 306.469 45.7 308.269 46.1C310.169 46.5 312.069 46.9 313.969 47.3C313.969 47.5 313.969 47.65 313.969 47.75C314.069 47.85 314.119 48 314.119 48.2C312.919 49 311.669 49.75 310.369 50.45C309.169 51.15 308.069 52 307.069 53C306.169 54 305.369 55.15 304.669 56.45C304.069 57.65 303.869 59 304.069 60.5C306.369 61 308.669 61.45 310.969 61.85C313.269 62.15 315.669 62.5 318.169 62.9L321.019 75.05C321.019 76.05 320.869 76.95 320.569 77.75C320.269 78.55 319.919 79.4 319.519 80.3C319.119 81.2 318.669 82.25 318.169 83.45C317.769 84.55 317.369 85.9 316.969 87.5L315.319 94.7ZM303.619 106.7C304.619 104.4 305.519 102.05 306.319 99.65C307.119 97.25 307.919 94.85 308.719 92.45L308.269 90.5C307.769 88.8 307.419 86.35 307.219 83.15C307.119 79.85 307.319 76.45 307.819 72.95C306.719 71.55 305.819 70.1 305.119 68.6C304.419 67 304.069 65.2 304.069 63.2C303.569 63.2 303.169 63.15 302.869 63.05C302.669 63.35 302.469 63.65 302.269 63.95C302.069 64.15 301.919 64.4 301.819 64.7C300.019 70.1 298.669 75.6 297.769 81.2C296.869 86.8 296.319 92.55 296.119 98.45C296.019 99.85 296.069 101.3 296.269 102.8C296.469 104.3 296.719 105.8 297.019 107.3C297.119 107.8 297.369 108.35 297.769 108.95C298.169 109.55 298.619 109.95 299.119 110.15C299.519 110.35 299.969 110.3 300.469 110C301.069 109.7 301.569 109.4 301.969 109.1C302.769 108.5 303.319 107.7 303.619 106.7ZM396.64 98.75C398.04 96.75 399.34 95 400.54 93.5C401.84 92 403.29 90.75 404.89 89.75C404.59 91.55 404.19 93.05 403.69 94.25C403.29 95.45 402.84 96.55 402.34 97.55C401.94 98.55 401.49 99.55 400.99 100.55C400.49 101.45 399.99 102.5 399.49 103.7C397.79 105.4 396.09 106.6 394.39 107.3C392.69 107.9 390.99 108.15 389.29 108.05C387.69 107.95 386.09 107.55 384.49 106.85C382.89 106.15 381.44 105.35 380.14 104.45C379.24 102.25 378.99 99.75 379.39 96.95C379.89 94.05 380.54 91.25 381.34 88.55C382.24 85.85 383.09 83.45 383.89 81.35C384.69 79.25 385.09 77.85 385.09 77.15C384.59 77.65 383.69 78.8 382.39 80.6C381.19 82.4 379.89 84.35 378.49 86.45C377.09 88.55 375.79 90.5 374.59 92.3C373.39 94 372.69 95 372.49 95.3L365.74 102.65C365.54 102.85 365.24 103.1 364.84 103.4C364.44 103.6 364.04 103.75 363.64 103.85C362.64 103.95 361.59 103.8 360.49 103.4C359.39 102.9 358.34 102.3 357.34 101.6C356.44 100.8 355.64 99.95 354.94 99.05C354.34 98.05 353.99 97.05 353.89 96.05C353.69 94.35 353.64 92.6 353.74 90.8C353.94 88.9 354.09 87.1 354.19 85.4C354.19 84.9 354.24 84.1 354.34 83C354.44 81.9 354.54 80.7 354.64 79.4C354.84 78.1 354.99 76.85 355.09 75.65C355.19 74.45 355.29 73.5 355.39 72.8C353.99 73.7 352.64 75.1 351.34 77C350.14 78.8 349.29 80.2 348.79 81.2C347.59 83.5 346.19 85.65 344.59 87.65C343.09 89.55 341.69 91.6 340.39 93.8C339.79 94.8 339.09 95.75 338.29 96.65C337.49 97.55 336.69 98.45 335.89 99.35C335.39 99.95 334.99 100.6 334.69 101.3C334.39 101.9 334.09 102.5 333.79 103.1C333.49 103.6 333.14 103.95 332.74 104.15C332.34 104.35 331.84 104.3 331.24 104L328.39 102.8C325.79 101.7 324.04 100.4 323.14 98.9C322.34 97.3 322.09 95.05 322.39 92.15C322.49 91.25 322.54 90.35 322.54 89.45C322.64 88.55 322.69 87.65 322.69 86.75C322.69 86.65 322.84 86.1 323.14 85.1C323.44 84 323.49 83.3 323.29 83C323.79 80.4 324.14 77.8 324.34 75.2C324.64 72.5 324.84 69.65 324.94 66.65C325.04 66.25 325.04 65.85 324.94 65.45C324.94 65.05 324.94 64.6 324.94 64.1C326.94 63 328.89 62.65 330.79 63.05C332.79 63.45 334.79 63.85 336.79 64.25C337.69 64.45 338.24 64.95 338.44 65.75C338.64 66.55 338.74 67.45 338.74 68.45C338.54 71.55 338.39 74.65 338.29 77.75C338.19 80.85 338.04 84.15 337.84 87.65L340.99 83.75L352.84 70.7C356.14 67.1 360.44 66.1 365.74 67.7C366.34 69.7 366.69 71.75 366.79 73.85C366.89 75.85 366.84 77.9 366.64 80C366.44 82.1 366.19 84.25 365.89 86.45C365.59 88.55 365.44 90.7 365.44 92.9L368.14 90.5C368.94 89.5 369.89 88.4 370.99 87.2C372.19 85.9 373.34 84.6 374.44 83.3C375.64 82 376.79 80.75 377.89 79.55C378.99 78.25 379.94 77.1 380.74 76.1C381.24 75 381.99 74 382.99 73.1C383.99 72.1 385.04 71.3 386.14 70.7C387.34 70 388.49 69.5 389.59 69.2C390.79 68.9 391.84 68.9 392.74 69.2C394.34 69.8 394.99 70.95 394.69 72.65C394.09 76.15 393.49 79.65 392.89 83.15C392.29 86.55 391.64 90 390.94 93.5C390.64 95.1 390.44 96.75 390.34 98.45C390.34 100.05 390.79 101.75 391.69 103.55C392.59 102.95 393.44 102.15 394.24 101.15C395.04 100.15 395.84 99.35 396.64 98.75ZM434.213 81.8C436.213 81.9 437.663 82.45 438.563 83.45C439.563 84.45 440.413 85.65 441.113 87.05C441.513 87.75 441.713 88.5 441.713 89.3C441.813 90.1 441.963 91.05 442.163 92.15C436.963 92.25 432.013 92.05 427.313 91.55C422.613 91.05 417.863 91.15 413.063 91.85C410.763 92.15 408.913 92.15 407.513 91.85C406.213 91.45 405.213 90.1 404.513 87.8L404.213 86C403.713 83.2 403.663 81.55 404.063 81.05C404.563 80.45 406.263 80.5 409.163 81.2C413.563 82.2 417.713 82.55 421.613 82.25C425.513 81.95 429.713 81.8 434.213 81.8ZM468.474 115.4C468.874 115 469.524 114.25 470.424 113.15C471.424 112.05 472.374 110.9 473.274 109.7C474.274 108.5 475.174 107.35 475.974 106.25C476.774 105.15 477.274 104.45 477.474 104.15C479.474 102.15 481.474 99.8 483.474 97.1C485.574 94.4 487.874 92 490.374 89.9C489.174 92.3 488.224 94.3 487.524 95.9C486.824 97.4 486.124 98.8 485.424 100.1C484.824 101.3 484.174 102.55 483.474 103.85C482.774 105.05 481.824 106.55 480.624 108.35C478.624 112.45 476.524 115.35 474.324 117.05C472.124 118.85 469.924 119.8 467.724 119.9C465.624 120 463.624 119.45 461.724 118.25C459.824 117.15 458.124 115.85 456.624 114.35L450.774 108.35L447.924 99.35C447.824 93.65 448.074 88.05 448.674 82.55C449.274 76.95 450.574 71.45 452.574 66.05C453.374 63.65 454.474 61.35 455.874 59.15C457.374 56.95 458.824 54.7 460.224 52.4C460.424 52 460.774 51.65 461.274 51.35C461.774 50.95 462.224 50.75 462.624 50.75C466.624 50.65 470.524 51 474.324 51.8C478.124 52.5 481.924 53.4 485.724 54.5C485.924 54.6 486.074 54.75 486.174 54.95C486.374 55.15 486.574 55.35 486.774 55.55C484.474 58.15 482.974 61 482.274 64.1C481.574 67.1 480.824 70.15 480.024 73.25C479.724 74.45 479.324 75.65 478.824 76.85C478.424 78.05 478.024 79.2 477.624 80.3C475.724 79.8 474.424 79 473.724 77.9C473.024 76.8 472.774 75.2 472.974 73.1C473.174 71.3 473.374 69.5 473.574 67.7C473.774 65.8 473.974 63.9 474.174 62C474.374 61.2 474.474 60.4 474.474 59.6C474.474 58.7 474.524 57.55 474.624 56.15C473.524 56.65 472.524 57.1 471.624 57.5C470.824 57.8 470.224 58.2 469.824 58.7C469.124 59.5 468.474 60.4 467.874 61.4C467.374 62.4 467.024 63.45 466.824 64.55C466.124 67.55 465.474 70.55 464.874 73.55C464.274 76.55 463.774 79.6 463.374 82.7C463.074 85.3 462.974 87.85 463.074 90.35C463.174 92.85 463.074 95.4 462.774 98C462.274 102.1 462.874 105.7 464.574 108.8C465.074 109.9 465.624 110.95 466.224 111.95C466.924 112.95 467.674 114.1 468.474 115.4ZM524.563 55.7C526.863 56.4 527.763 57.65 527.263 59.45C527.063 59.95 526.863 60.45 526.663 60.95C526.563 61.35 526.363 61.8 526.063 62.3C523.863 66.1 521.313 69.75 518.413 73.25C515.513 76.75 512.263 80.1 508.663 83.3C507.363 84.5 506.063 85.75 504.763 87.05C503.563 88.35 502.513 89.7 501.613 91.1C501.013 92.1 500.613 93.2 500.413 94.4C500.313 95.5 500.263 96.6 500.263 97.7C500.263 99.4 500.913 101.25 502.213 103.25C503.513 105.25 505.063 106.8 506.863 107.9C507.663 107.3 508.713 106.55 510.013 105.65C511.413 104.65 512.513 103.8 513.313 103.1C516.513 100.2 519.713 97.65 522.913 95.45C526.113 93.15 528.513 91.15 530.113 89.45C529.913 90.55 529.663 91.65 529.363 92.75C529.163 93.65 528.863 94.65 528.463 95.75C528.163 96.85 527.763 97.8 527.263 98.6C525.663 101.2 523.713 103.45 521.413 105.35C519.113 107.15 516.513 109.1 513.613 111.2C511.913 112.4 510.163 113 508.363 113C506.663 113 504.663 112.7 502.363 112.1C498.963 111.2 495.863 109.55 493.063 107.15C490.263 104.75 488.263 102.05 487.063 99.05C486.863 98.65 486.713 98.25 486.613 97.85C486.613 97.35 486.513 96.75 486.313 96.05C486.213 95.05 486.113 94.05 486.013 93.05C485.913 92.05 485.863 91 485.863 89.9C485.963 88.8 486.113 87.55 486.313 86.15C486.513 84.75 486.913 83.1 487.513 81.2C488.313 78.1 489.413 75.05 490.813 72.05C492.213 69.05 493.563 66.05 494.863 63.05C495.363 61.95 495.913 60.85 496.513 59.75C497.213 58.65 497.913 57.55 498.613 56.45C499.013 55.85 499.463 55.3 499.963 54.8C500.463 54.2 500.963 53.65 501.463 53.15C503.363 51.15 506.013 50.45 509.413 51.05C510.213 51.25 511.063 51.35 511.963 51.35C512.863 51.35 513.763 51.45 514.663 51.65C515.863 51.85 516.813 52.15 517.513 52.55C519.713 53.95 522.063 55 524.563 55.7ZM504.463 75.5C511.563 68.4 516.063 62.55 517.963 57.95C515.963 57.35 514.663 57.1 514.063 57.2C513.563 57.2 512.813 57.75 511.813 58.85C509.613 61.15 507.863 63.6 506.563 66.2C505.263 68.8 504.313 71.5 503.713 74.3C503.713 74.5 503.763 74.7 503.863 74.9C504.063 75.1 504.263 75.3 504.463 75.5ZM599.961 98.75C601.361 96.75 602.661 95 603.861 93.5C605.161 92 606.611 90.75 608.211 89.75C607.911 91.55 607.511 93.05 607.011 94.25C606.611 95.45 606.161 96.55 605.661 97.55C605.261 98.55 604.811 99.55 604.311 100.55C603.811 101.45 603.311 102.5 602.811 103.7C601.111 105.4 599.411 106.6 597.711 107.3C596.011 107.9 594.311 108.15 592.611 108.05C591.011 107.95 589.411 107.55 587.811 106.85C586.211 106.15 584.761 105.35 583.461 104.45C582.561 102.25 582.311 99.75 582.711 96.95C583.211 94.05 583.861 91.25 584.661 88.55C585.561 85.85 586.411 83.45 587.211 81.35C588.011 79.25 588.411 77.85 588.411 77.15C587.911 77.65 587.011 78.8 585.711 80.6C584.511 82.4 583.211 84.35 581.811 86.45C580.411 88.55 579.111 90.5 577.911 92.3C576.711 94 576.011 95 575.811 95.3L569.061 102.65C568.861 102.85 568.561 103.1 568.161 103.4C567.761 103.6 567.361 103.75 566.961 103.85C565.961 103.95 564.911 103.8 563.811 103.4C562.711 102.9 561.661 102.3 560.661 101.6C559.761 100.8 558.961 99.95 558.261 99.05C557.661 98.05 557.311 97.05 557.211 96.05C557.011 94.35 556.961 92.6 557.061 90.8C557.261 88.9 557.411 87.1 557.511 85.4C557.511 84.9 557.561 84.1 557.661 83C557.761 81.9 557.861 80.7 557.961 79.4C558.161 78.1 558.311 76.85 558.411 75.65C558.511 74.45 558.611 73.5 558.711 72.8C557.311 73.7 555.961 75.1 554.661 77C553.461 78.8 552.611 80.2 552.111 81.2C550.911 83.5 549.511 85.65 547.911 87.65C546.411 89.55 545.011 91.6 543.711 93.8C543.111 94.8 542.411 95.75 541.611 96.65C540.811 97.55 540.011 98.45 539.211 99.35C538.711 99.95 538.311 100.6 538.011 101.3C537.711 101.9 537.411 102.5 537.111 103.1C536.811 103.6 536.461 103.95 536.061 104.15C535.661 104.35 535.161 104.3 534.561 104L531.711 102.8C529.111 101.7 527.361 100.4 526.461 98.9C525.661 97.3 525.411 95.05 525.711 92.15C525.811 91.25 525.861 90.35 525.861 89.45C525.961 88.55 526.011 87.65 526.011 86.75C526.011 86.65 526.161 86.1 526.461 85.1C526.761 84 526.811 83.3 526.611 83C527.111 80.4 527.461 77.8 527.661 75.2C527.961 72.5 528.161 69.65 528.261 66.65C528.361 66.25 528.361 65.85 528.261 65.45C528.261 65.05 528.261 64.6 528.261 64.1C530.261 63 532.211 62.65 534.111 63.05C536.111 63.45 538.111 63.85 540.111 64.25C541.011 64.45 541.561 64.95 541.761 65.75C541.961 66.55 542.061 67.45 542.061 68.45C541.861 71.55 541.711 74.65 541.611 77.75C541.511 80.85 541.361 84.15 541.161 87.65L544.311 83.75L556.161 70.7C559.461 67.1 563.761 66.1 569.061 67.7C569.661 69.7 570.011 71.75 570.111 73.85C570.211 75.85 570.161 77.9 569.961 80C569.761 82.1 569.511 84.25 569.211 86.45C568.911 88.55 568.761 90.7 568.761 92.9L571.461 90.5C572.261 89.5 573.211 88.4 574.311 87.2C575.511 85.9 576.661 84.6 577.761 83.3C578.961 82 580.111 80.75 581.211 79.55C582.311 78.25 583.261 77.1 584.061 76.1C584.561 75 585.311 74 586.311 73.1C587.311 72.1 588.361 71.3 589.461 70.7C590.661 70 591.811 69.5 592.911 69.2C594.111 68.9 595.161 68.9 596.061 69.2C597.661 69.8 598.311 70.95 598.011 72.65C597.411 76.15 596.811 79.65 596.211 83.15C595.611 86.55 594.961 90 594.261 93.5C593.961 95.1 593.761 96.75 593.661 98.45C593.661 100.05 594.111 101.75 595.011 103.55C595.911 102.95 596.761 102.15 597.561 101.15C598.361 100.15 599.161 99.35 599.961 98.75ZM619.683 102.8H619.533C617.433 102.3 615.433 101.55 613.533 100.55C611.633 99.45 610.083 97.9 608.883 95.9C608.083 94.3 607.533 92.95 607.233 91.85C607.033 90.65 606.983 89.45 607.083 88.25C607.283 86.95 607.233 85 606.933 82.4C606.733 79.7 607.433 77.4 609.033 75.5C610.633 73.5 612.283 71.6 613.983 69.8C615.783 68 617.533 66.15 619.233 64.25C620.233 63.15 621.283 62.4 622.383 62C623.483 61.6 624.833 61.65 626.433 62.15C628.033 62.65 629.583 63.05 631.083 63.35C632.683 63.65 634.233 64.35 635.733 65.45C637.633 66.85 638.783 67.9 639.183 68.6C639.383 69.1 639.433 69.85 639.333 70.85L637.833 75.5C638.033 75.7 638.233 75.95 638.433 76.25C639.733 78.25 639.933 80.95 639.033 84.35L634.683 106.55C634.383 106.85 634.233 107.25 634.233 107.75C634.333 108.25 634.433 109 634.533 110C635.833 108.8 636.983 107.7 637.983 106.7C639.083 105.7 640.133 104.75 641.133 103.85C642.833 102.15 644.633 100.45 646.533 98.75C648.433 96.95 650.983 94.55 654.183 91.55C652.883 96.25 651.133 100.55 648.933 104.45C646.733 108.35 644.383 111.8 641.883 114.8C640.783 116.1 639.633 117.2 638.433 118.1C637.233 119 635.983 119.85 634.683 120.65C633.383 121.55 631.933 121.75 630.333 121.25C628.733 120.85 627.783 120.1 627.483 119C627.183 118 626.583 116.65 625.683 114.95C624.783 113.25 624.383 111.55 624.483 109.85C624.483 109.35 624.533 108.8 624.633 108.2C622.433 111.5 619.583 114.2 616.083 116.3C613.783 117.6 611.583 118.35 609.483 118.55C607.483 118.75 605.683 118.2 604.083 116.9C603.483 116.2 602.883 115.15 602.283 113.75C601.583 112.45 600.933 110.95 600.333 109.25C599.733 107.55 599.133 105.75 598.533 103.85C597.933 101.85 597.333 99.95 596.733 98.15C597.533 98.55 598.433 99.3 599.433 100.4C600.333 101.5 601.233 102.7 602.133 104C603.033 105.3 603.833 106.6 604.533 107.9C605.333 109.1 606.033 109.9 606.633 110.3C607.533 111.1 608.483 111.85 609.483 112.55C610.483 113.25 611.733 113.6 613.233 113.6C615.233 111.7 616.583 109.65 617.283 107.45C617.783 105.85 618.583 104.3 619.683 102.8ZM623.733 94.55C623.833 94.25 623.933 93.95 624.033 93.65C624.533 92.55 625.133 91.5 625.833 90.5C626.533 89.5 627.233 88.45 627.933 87.35L628.083 87.65L632.733 72.5C631.333 71.6 630.283 70.85 629.583 70.25C626.983 70.65 624.683 71.9 622.683 74C620.783 76.1 619.133 78.65 617.733 81.65C616.433 84.65 616.533 87.4 618.033 89.9C619.633 92.3 620.533 93.95 620.733 94.85C621.033 95.65 621.233 96.25 621.333 96.65C621.833 96.15 622.333 95.75 622.833 95.45C623.233 95.15 623.533 94.85 623.733 94.55ZM687.891 91.25C688.091 90.95 688.291 90.65 688.491 90.35C688.791 90.05 689.091 89.8 689.391 89.6C689.091 91.9 688.641 94.3 688.041 96.8C687.441 99.3 686.691 101.75 685.791 104.15C684.891 106.55 683.891 108.75 682.791 110.75C681.691 112.85 680.541 114.55 679.341 115.85C677.941 117.55 676.541 118.5 675.141 118.7C673.741 119 672.341 118.8 670.941 118.1C669.641 117.4 668.291 116.35 666.891 114.95C665.491 113.65 664.091 112.15 662.691 110.45L660.291 107.6L654.591 114.65C654.291 114.95 653.891 115.25 653.391 115.55C652.991 115.85 652.541 116 652.041 116C650.641 116 649.391 116 648.291 116C647.291 116.1 646.691 115.45 646.491 114.05C646.291 112.65 646.641 111.45 647.541 110.45C648.941 108.65 650.291 106.9 651.591 105.2C652.991 103.4 654.391 101.65 655.791 99.95C657.991 97.35 658.691 94.4 657.891 91.1C657.691 90.6 657.491 89.9 657.291 89C657.191 88 657.041 87 656.841 86C656.641 84.9 656.441 83.85 656.241 82.85C656.041 81.85 655.891 81.1 655.791 80.6L655.491 78.65L654.291 80.75C652.891 83.35 651.341 86.05 649.641 88.85C648.041 91.65 645.841 94.55 643.041 97.55C643.541 96.45 643.891 95.15 644.091 93.65C644.391 92.15 644.891 90.25 645.591 87.95C646.491 85.05 647.541 81.75 648.741 78.05C649.941 74.25 651.641 69.65 653.841 64.25C653.941 61.55 655.441 60.35 658.341 60.65C663.041 61.15 665.791 63.85 666.591 68.75C666.691 69.45 666.791 70.5 666.891 71.9C667.091 73.3 667.291 74.8 667.491 76.4C667.691 78 667.891 79.55 668.091 81.05C668.391 82.55 668.641 83.75 668.841 84.65C669.941 83.35 670.941 82.25 671.841 81.35C672.741 80.45 673.541 79.45 674.241 78.35C674.841 77.55 675.441 76.5 676.041 75.2C676.741 73.9 677.441 72.65 678.141 71.45C678.841 70.15 679.591 69.05 680.391 68.15C681.291 67.15 682.291 66.6 683.391 66.5C683.991 66.5 684.291 66.85 684.291 67.55C684.391 68.15 684.291 69 683.991 70.1C683.691 71.1 683.291 72.3 682.791 73.7C682.391 75 681.991 76.25 681.591 77.45C679.991 79.45 678.441 81.4 676.941 83.3C675.441 85.2 673.941 87.15 672.441 89.15C672.141 89.55 671.841 90 671.541 90.5C671.241 91 671.141 91.45 671.241 91.85C671.741 94.85 672.291 97.85 672.891 100.85C673.491 103.85 674.091 106.85 674.691 109.85C674.691 110.05 674.791 110.2 674.991 110.3C675.191 110.4 675.441 110.6 675.741 110.9C676.041 110.6 676.641 109.65 677.541 108.05C678.441 106.45 679.441 104.65 680.541 102.65C681.741 100.55 682.991 98.45 684.291 96.35C685.591 94.25 686.791 92.55 687.891 91.25Z" fill="#83519C"/>
</svg>
